<?xml version="1.0" encoding="UTF-8" standalone="no"?>
<!DOCTYPE svg PUBLIC "-//W3C//DTD SVG 1.1//EN"
 "http://www.w3.org/Graphics/SVG/1.1/DTD/svg11.dtd">
<!-- Generated by graphviz version 2.43.0 (0)
 -->
<!-- Title: src/core/application.cpp Pages: 1 -->
<svg width="567pt" height="192pt"
 viewBox="0.00 0.00 567.00 192.00" xmlns="http://www.w3.org/2000/svg" xmlns:xlink="http://www.w3.org/1999/xlink">
<g id="graph0" class="graph" transform="scale(1 1) rotate(0) translate(4 188)">
<title>src/core/application.cpp</title>
<!-- Node1 -->
<g id="Node000001" class="node">
<title>Node1</title>
<g id="a_Node000001"><a xlink:title=" ">
<polygon fill="#999999" stroke="#666666" points="431.5,-184 299.5,-184 299.5,-165 431.5,-165 431.5,-184"/>
<text text-anchor="middle" x="365.5" y="-172" font-family="Helvetica,sans-Serif" font-size="10.00">src/core/application.cpp</text>
</a>
</g>
</g>
<!-- Node2 -->
<g id="Node000002" class="node">
<title>Node2</title>
<g id="a_Node000002"><a xlink:href="application_8h.html" target="_top" xlink:title=" ">
<polygon fill="white" stroke="#666666" points="273.5,-129 193.5,-129 193.5,-110 273.5,-110 273.5,-129"/>
<text text-anchor="middle" x="233.5" y="-117" font-family="Helvetica,sans-Serif" font-size="10.00">application.h</text>
</a>
</g>
</g>
<!-- Node1&#45;&gt;Node2 -->
<g id="edge1_Node000001_Node000002" class="edge">
<title>Node1&#45;&gt;Node2</title>
<g id="a_edge1_Node000001_Node000002"><a xlink:title=" ">
<path fill="none" stroke="#63b8ff" d="M344.29,-164.98C322.77,-156.34 289.22,-142.87 264.67,-133.02"/>
<polygon fill="#63b8ff" stroke="#63b8ff" points="265.68,-129.65 255.09,-129.17 263.07,-136.14 265.68,-129.65"/>
</a>
</g>
</g>
<!-- Node11 -->
<g id="Node000011" class="node">
<title>Node11</title>
<g id="a_Node000011"><a xlink:title=" ">
<polygon fill="#e0e0e0" stroke="#999999" points="347,-129 292,-129 292,-110 347,-110 347,-129"/>
<text text-anchor="middle" x="319.5" y="-117" font-family="Helvetica,sans-Serif" font-size="10.00">config.h</text>
</a>
</g>
</g>
<!-- Node1&#45;&gt;Node11 -->
<g id="edge10_Node000001_Node000011" class="edge">
<title>Node1&#45;&gt;Node11</title>
<g id="a_edge10_Node000001_Node000011"><a xlink:title=" ">
<path fill="none" stroke="#63b8ff" d="M357.9,-164.75C351.34,-157.18 341.68,-146.05 333.69,-136.84"/>
<polygon fill="#63b8ff" stroke="#63b8ff" points="336.15,-134.35 326.95,-129.09 330.87,-138.94 336.15,-134.35"/>
</a>
</g>
</g>
<!-- Node12 -->
<g id="Node000012" class="node">
<title>Node12</title>
<g id="a_Node000012"><a xlink:title=" ">
<polygon fill="#e0e0e0" stroke="#999999" points="457.5,-129 365.5,-129 365.5,-110 457.5,-110 457.5,-129"/>
<text text-anchor="middle" x="411.5" y="-117" font-family="Helvetica,sans-Serif" font-size="10.00">QFontDatabase</text>
</a>
</g>
</g>
<!-- Node1&#45;&gt;Node12 -->
<g id="edge11_Node000001_Node000012" class="edge">
<title>Node1&#45;&gt;Node12</title>
<g id="a_edge11_Node000001_Node000012"><a xlink:title=" ">
<path fill="none" stroke="#63b8ff" d="M373.1,-164.75C379.66,-157.18 389.32,-146.05 397.31,-136.84"/>
<polygon fill="#63b8ff" stroke="#63b8ff" points="400.13,-138.94 404.05,-129.09 394.85,-134.35 400.13,-138.94"/>
</a>
</g>
</g>
<!-- Node13 -->
<g id="Node000013" class="node">
<title>Node13</title>
<g id="a_Node000013"><a xlink:title=" ">
<polygon fill="#e0e0e0" stroke="#999999" points="559,-129 476,-129 476,-110 559,-110 559,-129"/>
<text text-anchor="middle" x="517.5" y="-117" font-family="Helvetica,sans-Serif" font-size="10.00">QQmlContext</text>
</a>
</g>
</g>
<!-- Node1&#45;&gt;Node13 -->
<g id="edge12_Node000001_Node000013" class="edge">
<title>Node1&#45;&gt;Node13</title>
<g id="a_edge12_Node000001_Node000013"><a xlink:title=" ">
<path fill="none" stroke="#63b8ff" d="M389.92,-164.98C415.22,-156.16 454.95,-142.31 483.36,-132.41"/>
<polygon fill="#63b8ff" stroke="#63b8ff" points="484.6,-135.68 492.89,-129.08 482.29,-129.07 484.6,-135.68"/>
</a>
</g>
</g>
<!-- Node3 -->
<g id="Node000003" class="node">
<title>Node3</title>
<g id="a_Node000003"><a xlink:title=" ">
<polygon fill="#e0e0e0" stroke="#999999" points="95,-74 0,-74 0,-55 95,-55 95,-74"/>
<text text-anchor="middle" x="47.5" y="-62" font-family="Helvetica,sans-Serif" font-size="10.00">QGuiApplication</text>
</a>
</g>
</g>
<!-- Node2&#45;&gt;Node3 -->
<g id="edge2_Node000002_Node000003" class="edge">
<title>Node2&#45;&gt;Node3</title>
<g id="a_edge2_Node000002_Node000003"><a xlink:title=" ">
<path fill="none" stroke="#63b8ff" d="M203.62,-109.98C172.12,-101.01 122.33,-86.82 87.47,-76.89"/>
<polygon fill="#63b8ff" stroke="#63b8ff" points="88.19,-73.46 77.62,-74.08 86.28,-80.19 88.19,-73.46"/>
</a>
</g>
</g>
<!-- Node4 -->
<g id="Node000004" class="node">
<title>Node4</title>
<g id="a_Node000004"><a xlink:title=" ">
<polygon fill="#e0e0e0" stroke="#999999" points="245.5,-74 113.5,-74 113.5,-55 245.5,-55 245.5,-74"/>
<text text-anchor="middle" x="179.5" y="-62" font-family="Helvetica,sans-Serif" font-size="10.00">QQmlApplicationEngine</text>
</a>
</g>
</g>
<!-- Node2&#45;&gt;Node4 -->
<g id="edge3_Node000002_Node000004" class="edge">
<title>Node2&#45;&gt;Node4</title>
<g id="a_edge3_Node000002_Node000004"><a xlink:title=" ">
<path fill="none" stroke="#63b8ff" d="M224.58,-109.75C216.72,-102.03 205.07,-90.6 195.58,-81.28"/>
<polygon fill="#63b8ff" stroke="#63b8ff" points="197.84,-78.6 188.25,-74.09 192.94,-83.59 197.84,-78.6"/>
</a>
</g>
</g>
<!-- Node5 -->
<g id="Node000005" class="node">
<title>Node5</title>
<g id="a_Node000005"><a xlink:href="base_8h.html" target="_top" xlink:title=" ">
<polygon fill="white" stroke="#666666" points="313,-74 264,-74 264,-55 313,-55 313,-74"/>
<text text-anchor="middle" x="288.5" y="-62" font-family="Helvetica,sans-Serif" font-size="10.00">base.h</text>
</a>
</g>
</g>
<!-- Node2&#45;&gt;Node5 -->
<g id="edge4_Node000002_Node000005" class="edge">
<title>Node2&#45;&gt;Node5</title>
<g id="a_edge4_Node000002_Node000005"><a xlink:title=" ">
<path fill="none" stroke="#63b8ff" d="M242.58,-109.75C250.59,-102.03 262.46,-90.6 272.12,-81.28"/>
<polygon fill="#63b8ff" stroke="#63b8ff" points="274.81,-83.55 279.59,-74.09 269.96,-78.51 274.81,-83.55"/>
</a>
</g>
</g>
<!-- Node8 -->
<g id="Node000008" class="node">
<title>Node8</title>
<g id="a_Node000008"><a xlink:href="settings_8h.html" target="_top" xlink:title=" ">
<polygon fill="white" stroke="#666666" points="396,-74 331,-74 331,-55 396,-55 396,-74"/>
<text text-anchor="middle" x="363.5" y="-62" font-family="Helvetica,sans-Serif" font-size="10.00">settings.h</text>
</a>
</g>
</g>
<!-- Node2&#45;&gt;Node8 -->
<g id="edge7_Node000002_Node000008" class="edge">
<title>Node2&#45;&gt;Node8</title>
<g id="a_edge7_Node000002_Node000008"><a xlink:title=" ">
<path fill="none" stroke="#63b8ff" d="M254.39,-109.98C275.58,-101.34 308.63,-87.87 332.8,-78.02"/>
<polygon fill="#63b8ff" stroke="#63b8ff" points="334.29,-81.19 342.23,-74.17 331.65,-74.7 334.29,-81.19"/>
</a>
</g>
</g>
<!-- Node6 -->
<g id="Node000006" class="node">
<title>Node6</title>
<g id="a_Node000006"><a xlink:title=" ">
<polygon fill="#e0e0e0" stroke="#999999" points="247.5,-19 189.5,-19 189.5,0 247.5,0 247.5,-19"/>
<text text-anchor="middle" x="218.5" y="-7" font-family="Helvetica,sans-Serif" font-size="10.00">memory</text>
</a>
</g>
</g>
<!-- Node5&#45;&gt;Node6 -->
<g id="edge5_Node000005_Node000006" class="edge">
<title>Node5&#45;&gt;Node6</title>
<g id="a_edge5_Node000005_Node000006"><a xlink:title=" ">
<path fill="none" stroke="#63b8ff" d="M277.25,-54.98C266.7,-47 250.7,-34.88 238.06,-25.31"/>
<polygon fill="#63b8ff" stroke="#63b8ff" points="240.04,-22.42 229.95,-19.17 235.81,-28 240.04,-22.42"/>
</a>
</g>
</g>
<!-- Node7 -->
<g id="Node000007" class="node">
<title>Node7</title>
<g id="a_Node000007"><a xlink:title=" ">
<polygon fill="#e0e0e0" stroke="#999999" points="311,-19 266,-19 266,0 311,0 311,-19"/>
<text text-anchor="middle" x="288.5" y="-7" font-family="Helvetica,sans-Serif" font-size="10.00">utility</text>
</a>
</g>
</g>
<!-- Node5&#45;&gt;Node7 -->
<g id="edge6_Node000005_Node000007" class="edge">
<title>Node5&#45;&gt;Node7</title>
<g id="a_edge6_Node000005_Node000007"><a xlink:title=" ">
<path fill="none" stroke="#63b8ff" d="M288.5,-54.75C288.5,-47.8 288.5,-37.85 288.5,-29.13"/>
<polygon fill="#63b8ff" stroke="#63b8ff" points="292,-29.09 288.5,-19.09 285,-29.09 292,-29.09"/>
</a>
</g>
</g>
<!-- Node9 -->
<g id="Node000009" class="node">
<title>Node9</title>
<g id="a_Node000009"><a xlink:title=" ">
<polygon fill="#e0e0e0" stroke="#999999" points="394.5,-19 330.5,-19 330.5,0 394.5,0 394.5,-19"/>
<text text-anchor="middle" x="362.5" y="-7" font-family="Helvetica,sans-Serif" font-size="10.00">QSettings</text>
</a>
</g>
</g>
<!-- Node8&#45;&gt;Node9 -->
<g id="edge8_Node000008_Node000009" class="edge">
<title>Node8&#45;&gt;Node9</title>
<g id="a_edge8_Node000008_Node000009"><a xlink:title=" ">
<path fill="none" stroke="#63b8ff" d="M363.33,-54.75C363.2,-47.8 363.02,-37.85 362.85,-29.13"/>
<polygon fill="#63b8ff" stroke="#63b8ff" points="366.35,-29.02 362.66,-19.09 359.35,-29.15 366.35,-29.02"/>
</a>
</g>
</g>
<!-- Node10 -->
<g id="Node000010" class="node">
<title>Node10</title>
<g id="a_Node000010"><a xlink:title=" ">
<polygon fill="#e0e0e0" stroke="#999999" points="466,-19 413,-19 413,0 466,0 466,-19"/>
<text text-anchor="middle" x="439.5" y="-7" font-family="Helvetica,sans-Serif" font-size="10.00">QString</text>
</a>
</g>
</g>
<!-- Node8&#45;&gt;Node10 -->
<g id="edge9_Node000008_Node000010" class="edge">
<title>Node8&#45;&gt;Node10</title>
<g id="a_edge9_Node000008_Node000010"><a xlink:title=" ">
<path fill="none" stroke="#63b8ff" d="M375.71,-54.98C387.28,-46.92 404.88,-34.65 418.66,-25.03"/>
<polygon fill="#63b8ff" stroke="#63b8ff" points="420.87,-27.76 427.07,-19.17 416.86,-22.02 420.87,-27.76"/>
</a>
</g>
</g>
</g>
</svg>
