<?xml version="1.0" encoding="UTF-8" standalone="no"?>
<!DOCTYPE svg PUBLIC "-//W3C//DTD SVG 1.1//EN"
 "http://www.w3.org/Graphics/SVG/1.1/DTD/svg11.dtd">
<!-- Generated by graphviz version 2.43.0 (0)
 -->
<!-- Title: src/core/application.cpp Pages: 1 -->
<svg width="1021pt" height="207pt"
 viewBox="0.00 0.00 1021.00 207.00" xmlns="http://www.w3.org/2000/svg" xmlns:xlink="http://www.w3.org/1999/xlink">
<g id="graph0" class="graph" transform="scale(1 1) rotate(0) translate(4 203)">
<title>src/core/application.cpp</title>
<!-- Node1 -->
<g id="node1" class="node">
<title>Node1</title>
<g id="a_node1"><a xlink:title=" ">
<polygon fill="#bfbfbf" stroke="black" points="693.5,-179.5 693.5,-198.5 825.5,-198.5 825.5,-179.5 693.5,-179.5"/>
<text text-anchor="middle" x="759.5" y="-186.5" font-family="Helvetica,sans-Serif" font-size="10.00">src/core/application.cpp</text>
</a>
</g>
</g>
<!-- Node2 -->
<g id="node2" class="node">
<title>Node2</title>
<g id="a_node2"><a xlink:href="application_8h.html" target="_top" xlink:title=" ">
<polygon fill="none" stroke="black" points="186.5,-123.5 186.5,-142.5 266.5,-142.5 266.5,-123.5 186.5,-123.5"/>
<text text-anchor="middle" x="226.5" y="-130.5" font-family="Helvetica,sans-Serif" font-size="10.00">application.h</text>
</a>
</g>
</g>
<!-- Node1&#45;&gt;Node2 -->
<g id="edge1" class="edge">
<title>Node1&#45;&gt;Node2</title>
<path fill="none" stroke="midnightblue" d="M693.34,-181.3C585.34,-170.36 373.52,-148.9 276.81,-139.1"/>
<polygon fill="midnightblue" stroke="midnightblue" points="277.01,-135.6 266.71,-138.07 276.3,-142.56 277.01,-135.6"/>
</g>
<!-- Node9 -->
<g id="node9" class="node">
<title>Node9</title>
<g id="a_node9"><a xlink:href="config_8h.html" target="_top" xlink:title=" ">
<polygon fill="none" stroke="black" points="788,-123.5 788,-142.5 843,-142.5 843,-123.5 788,-123.5"/>
<text text-anchor="middle" x="815.5" y="-130.5" font-family="Helvetica,sans-Serif" font-size="10.00">config.h</text>
</a>
</g>
</g>
<!-- Node1&#45;&gt;Node9 -->
<g id="edge8" class="edge">
<title>Node1&#45;&gt;Node9</title>
<path fill="none" stroke="midnightblue" d="M768.5,-179.32C776.69,-171.42 789.01,-159.55 798.97,-149.94"/>
<polygon fill="midnightblue" stroke="midnightblue" points="801.57,-152.29 806.34,-142.83 796.71,-147.26 801.57,-152.29"/>
</g>
<!-- Node10 -->
<g id="node10" class="node">
<title>Node10</title>
<g id="a_node10"><a xlink:title=" ">
<polygon fill="none" stroke="#bfbfbf" points="861,-123.5 861,-142.5 916,-142.5 916,-123.5 861,-123.5"/>
<text text-anchor="middle" x="888.5" y="-130.5" font-family="Helvetica,sans-Serif" font-size="10.00">sentry.h</text>
</a>
</g>
</g>
<!-- Node1&#45;&gt;Node10 -->
<g id="edge9" class="edge">
<title>Node1&#45;&gt;Node10</title>
<path fill="none" stroke="midnightblue" d="M779.94,-179.44C801.17,-170.56 834.6,-156.56 858.75,-146.45"/>
<polygon fill="midnightblue" stroke="midnightblue" points="860.28,-149.61 868.16,-142.52 857.58,-143.15 860.28,-149.61"/>
</g>
<!-- Node11 -->
<g id="node11" class="node">
<title>Node11</title>
<g id="a_node11"><a xlink:title=" ">
<polygon fill="none" stroke="#bfbfbf" points="934,-123.5 934,-142.5 1013,-142.5 1013,-123.5 934,-123.5"/>
<text text-anchor="middle" x="973.5" y="-130.5" font-family="Helvetica,sans-Serif" font-size="10.00">QApplication</text>
</a>
</g>
</g>
<!-- Node1&#45;&gt;Node11 -->
<g id="edge10" class="edge">
<title>Node1&#45;&gt;Node11</title>
<path fill="none" stroke="midnightblue" d="M793.41,-179.44C830.35,-170.12 889.55,-155.18 929.92,-145"/>
<polygon fill="midnightblue" stroke="midnightblue" points="930.91,-148.36 939.75,-142.52 929.2,-141.57 930.91,-148.36"/>
</g>
<!-- Node12 -->
<g id="node12" class="node">
<title>Node12</title>
<g id="a_node12"><a xlink:href="logger_8h.html" target="_top" xlink:title=" ">
<polygon fill="none" stroke="black" points="553.5,-123.5 553.5,-142.5 609.5,-142.5 609.5,-123.5 553.5,-123.5"/>
<text text-anchor="middle" x="581.5" y="-130.5" font-family="Helvetica,sans-Serif" font-size="10.00">logger.h</text>
</a>
</g>
</g>
<!-- Node1&#45;&gt;Node12 -->
<g id="edge11" class="edge">
<title>Node1&#45;&gt;Node12</title>
<path fill="none" stroke="midnightblue" d="M731.3,-179.44C701.09,-170.28 652.99,-155.69 619.47,-145.52"/>
<polygon fill="midnightblue" stroke="midnightblue" points="620.16,-142.07 609.57,-142.52 618.13,-148.77 620.16,-142.07"/>
</g>
<!-- Node15 -->
<g id="node15" class="node">
<title>Node15</title>
<g id="a_node15"><a xlink:title=" ">
<polygon fill="none" stroke="#bfbfbf" points="718,-62 718,-81 811,-81 811,-62 718,-62"/>
<text text-anchor="middle" x="764.5" y="-69" font-family="Helvetica,sans-Serif" font-size="10.00">spdlog/spdlog.h</text>
</a>
</g>
</g>
<!-- Node1&#45;&gt;Node15 -->
<g id="edge21" class="edge">
<title>Node1&#45;&gt;Node15</title>
<path fill="none" stroke="midnightblue" d="M755.37,-179.2C750.03,-166.74 741.82,-143.22 745.5,-123 747.54,-111.76 751.95,-99.78 756,-90.3"/>
<polygon fill="midnightblue" stroke="midnightblue" points="759.21,-91.72 760.14,-81.16 752.83,-88.83 759.21,-91.72"/>
</g>
<!-- Node16 -->
<g id="node16" class="node">
<title>Node16</title>
<g id="a_node16"><a xlink:href="parameters_8h.html" target="_top" xlink:title=" ">
<polygon fill="none" stroke="black" points="829.5,-62 829.5,-81 911.5,-81 911.5,-62 829.5,-62"/>
<text text-anchor="middle" x="870.5" y="-69" font-family="Helvetica,sans-Serif" font-size="10.00">parameters.h</text>
</a>
</g>
</g>
<!-- Node1&#45;&gt;Node16 -->
<g id="edge20" class="edge">
<title>Node1&#45;&gt;Node16</title>
<path fill="none" stroke="midnightblue" d="M760.11,-179.47C761.47,-166.07 765.82,-139.87 779.5,-123 793.65,-105.55 815.52,-93.14 834.27,-84.99"/>
<polygon fill="midnightblue" stroke="midnightblue" points="835.81,-88.14 843.74,-81.11 833.16,-81.66 835.81,-88.14"/>
</g>
<!-- Node3 -->
<g id="node3" class="node">
<title>Node3</title>
<g id="a_node3"><a xlink:title=" ">
<polygon fill="none" stroke="#bfbfbf" points="0,-62 0,-81 101,-81 101,-62 0,-62"/>
<text text-anchor="middle" x="50.5" y="-69" font-family="Helvetica,sans-Serif" font-size="10.00">QCoreApplication</text>
</a>
</g>
</g>
<!-- Node2&#45;&gt;Node3 -->
<g id="edge2" class="edge">
<title>Node2&#45;&gt;Node3</title>
<path fill="none" stroke="midnightblue" d="M201.28,-123.48C170.83,-113.18 119.45,-95.81 85.26,-84.25"/>
<polygon fill="midnightblue" stroke="midnightblue" points="86.26,-80.9 75.67,-81.01 84.02,-87.53 86.26,-80.9"/>
</g>
<!-- Node4 -->
<g id="node4" class="node">
<title>Node4</title>
<g id="a_node4"><a xlink:title=" ">
<polygon fill="none" stroke="#bfbfbf" points="202.5,-62 202.5,-81 250.5,-81 250.5,-62 202.5,-62"/>
<text text-anchor="middle" x="226.5" y="-69" font-family="Helvetica,sans-Serif" font-size="10.00">QtQml</text>
</a>
</g>
</g>
<!-- Node2&#45;&gt;Node4 -->
<g id="edge3" class="edge">
<title>Node2&#45;&gt;Node4</title>
<path fill="none" stroke="midnightblue" d="M226.5,-123.48C226.5,-115.08 226.5,-101.98 226.5,-91.16"/>
<polygon fill="midnightblue" stroke="midnightblue" points="230,-91.01 226.5,-81.01 223,-91.01 230,-91.01"/>
</g>
<!-- Node5 -->
<g id="node5" class="node">
<title>Node5</title>
<g id="a_node5"><a xlink:href="base_8h.html" target="_top" xlink:title=" ">
<polygon fill="none" stroke="black" points="269,-62 269,-81 318,-81 318,-62 269,-62"/>
<text text-anchor="middle" x="293.5" y="-69" font-family="Helvetica,sans-Serif" font-size="10.00">base.h</text>
</a>
</g>
</g>
<!-- Node2&#45;&gt;Node5 -->
<g id="edge4" class="edge">
<title>Node2&#45;&gt;Node5</title>
<path fill="none" stroke="midnightblue" d="M236.1,-123.48C246.55,-114.2 263.47,-99.17 276.24,-87.83"/>
<polygon fill="midnightblue" stroke="midnightblue" points="278.77,-90.27 283.92,-81.01 274.12,-85.03 278.77,-90.27"/>
</g>
<!-- Node7 -->
<g id="node7" class="node">
<title>Node7</title>
<g id="a_node7"><a xlink:href="settings_8h.html" target="_top" xlink:title=" ">
<polygon fill="none" stroke="black" points="119,-62 119,-81 184,-81 184,-62 119,-62"/>
<text text-anchor="middle" x="151.5" y="-69" font-family="Helvetica,sans-Serif" font-size="10.00">settings.h</text>
</a>
</g>
</g>
<!-- Node2&#45;&gt;Node7 -->
<g id="edge6" class="edge">
<title>Node2&#45;&gt;Node7</title>
<path fill="none" stroke="midnightblue" d="M215.75,-123.48C203.95,-114.11 184.76,-98.88 170.42,-87.51"/>
<polygon fill="midnightblue" stroke="midnightblue" points="172.24,-84.48 162.23,-81.01 167.88,-89.97 172.24,-84.48"/>
</g>
<!-- Node6 -->
<g id="node6" class="node">
<title>Node6</title>
<g id="a_node6"><a xlink:title=" ">
<polygon fill="none" stroke="#bfbfbf" points="346.5,-0.5 346.5,-19.5 404.5,-19.5 404.5,-0.5 346.5,-0.5"/>
<text text-anchor="middle" x="375.5" y="-7.5" font-family="Helvetica,sans-Serif" font-size="10.00">memory</text>
</a>
</g>
</g>
<!-- Node5&#45;&gt;Node6 -->
<g id="edge5" class="edge">
<title>Node5&#45;&gt;Node6</title>
<path fill="none" stroke="midnightblue" d="M305.25,-61.98C318.28,-52.52 339.54,-37.1 355.26,-25.69"/>
<polygon fill="midnightblue" stroke="midnightblue" points="357.73,-28.21 363.77,-19.51 353.62,-22.55 357.73,-28.21"/>
</g>
<!-- Node8 -->
<g id="node8" class="node">
<title>Node8</title>
<g id="a_node8"><a xlink:title=" ">
<polygon fill="none" stroke="#bfbfbf" points="119.5,-0.5 119.5,-19.5 183.5,-19.5 183.5,-0.5 119.5,-0.5"/>
<text text-anchor="middle" x="151.5" y="-7.5" font-family="Helvetica,sans-Serif" font-size="10.00">QSettings</text>
</a>
</g>
</g>
<!-- Node7&#45;&gt;Node8 -->
<g id="edge7" class="edge">
<title>Node7&#45;&gt;Node8</title>
<path fill="none" stroke="midnightblue" d="M151.5,-61.98C151.5,-53.58 151.5,-40.48 151.5,-29.66"/>
<polygon fill="midnightblue" stroke="midnightblue" points="155,-29.51 151.5,-19.51 148,-29.51 155,-29.51"/>
</g>
<!-- Node12&#45;&gt;Node5 -->
<g id="edge16" class="edge">
<title>Node12&#45;&gt;Node5</title>
<path fill="none" stroke="midnightblue" d="M553.2,-129.12C505.77,-123.82 407.55,-110.82 327.5,-87 325.35,-86.36 323.16,-85.63 320.97,-84.83"/>
<polygon fill="midnightblue" stroke="midnightblue" points="322.16,-81.54 311.57,-81.11 319.58,-88.05 322.16,-81.54"/>
</g>
<!-- Node12&#45;&gt;Node6 -->
<g id="edge12" class="edge">
<title>Node12&#45;&gt;Node6</title>
<path fill="none" stroke="midnightblue" d="M562.81,-123.49C545,-115.08 517.68,-101.43 495.5,-87 476.94,-74.92 474.91,-68.31 456.5,-56 438.84,-44.19 417.84,-32.59 401.65,-24.12"/>
<polygon fill="midnightblue" stroke="midnightblue" points="403.22,-21 392.73,-19.52 400.02,-27.22 403.22,-21"/>
</g>
<!-- Node13 -->
<g id="node13" class="node">
<title>Node13</title>
<g id="a_node13"><a xlink:title=" ">
<polygon fill="none" stroke="#bfbfbf" points="593.5,-56.5 593.5,-86.5 699.5,-86.5 699.5,-56.5 593.5,-56.5"/>
<text text-anchor="start" x="601.5" y="-74.5" font-family="Helvetica,sans-Serif" font-size="10.00">spdlog/sinks/basic</text>
<text text-anchor="middle" x="646.5" y="-63.5" font-family="Helvetica,sans-Serif" font-size="10.00">_file_sink.h</text>
</a>
</g>
</g>
<!-- Node12&#45;&gt;Node13 -->
<g id="edge13" class="edge">
<title>Node12&#45;&gt;Node13</title>
<path fill="none" stroke="midnightblue" d="M590.81,-123.48C599.37,-115.64 612.4,-103.71 623.71,-93.37"/>
<polygon fill="midnightblue" stroke="midnightblue" points="626.17,-95.86 631.18,-86.52 621.44,-90.69 626.17,-95.86"/>
</g>
<!-- Node14 -->
<g id="node14" class="node">
<title>Node14</title>
<g id="a_node14"><a xlink:title=" ">
<polygon fill="none" stroke="#bfbfbf" points="336,-56.5 336,-86.5 447,-86.5 447,-56.5 336,-56.5"/>
<text text-anchor="start" x="344" y="-74.5" font-family="Helvetica,sans-Serif" font-size="10.00">spdlog/sinks/stdout</text>
<text text-anchor="middle" x="391.5" y="-63.5" font-family="Helvetica,sans-Serif" font-size="10.00">_color_sinks.h</text>
</a>
</g>
</g>
<!-- Node12&#45;&gt;Node14 -->
<g id="edge14" class="edge">
<title>Node12&#45;&gt;Node14</title>
<path fill="none" stroke="midnightblue" d="M554.28,-123.48C526.14,-114.66 481.45,-100.67 446.01,-89.57"/>
<polygon fill="midnightblue" stroke="midnightblue" points="446.87,-86.17 436.28,-86.52 444.78,-92.85 446.87,-86.17"/>
</g>
<!-- Node12&#45;&gt;Node15 -->
<g id="edge15" class="edge">
<title>Node12&#45;&gt;Node15</title>
<path fill="none" stroke="midnightblue" d="M607.72,-123.48C639.52,-113.14 693.27,-95.66 728.82,-84.1"/>
<polygon fill="midnightblue" stroke="midnightblue" points="729.9,-87.43 738.33,-81.01 727.74,-80.77 729.9,-87.43"/>
</g>
<!-- Node12&#45;&gt;Node16 -->
<g id="edge17" class="edge">
<title>Node12&#45;&gt;Node16</title>
<path fill="none" stroke="midnightblue" d="M609.65,-127.6C654.53,-120.39 744.93,-105.03 820.5,-87 824.6,-86.02 828.87,-84.92 833.11,-83.77"/>
<polygon fill="midnightblue" stroke="midnightblue" points="834.17,-87.1 842.86,-81.03 832.28,-80.36 834.17,-87.1"/>
</g>
<!-- Node17 -->
<g id="node17" class="node">
<title>Node17</title>
<g id="a_node17"><a xlink:href="singleton_8h.html" target="_top" xlink:title=" ">
<polygon fill="none" stroke="black" points="504,-62 504,-81 575,-81 575,-62 504,-62"/>
<text text-anchor="middle" x="539.5" y="-69" font-family="Helvetica,sans-Serif" font-size="10.00">singleton.h</text>
</a>
</g>
</g>
<!-- Node12&#45;&gt;Node17 -->
<g id="edge18" class="edge">
<title>Node12&#45;&gt;Node17</title>
<path fill="none" stroke="midnightblue" d="M575.48,-123.48C569.24,-114.64 559.33,-100.59 551.48,-89.48"/>
<polygon fill="midnightblue" stroke="midnightblue" points="554.13,-87.16 545.51,-81.01 548.41,-91.2 554.13,-87.16"/>
</g>
<!-- Node18 -->
<g id="node18" class="node">
<title>Node18</title>
<g id="a_node18"><a xlink:title=" ">
<polygon fill="none" stroke="#bfbfbf" points="505,-0.5 505,-19.5 574,-19.5 574,-0.5 505,-0.5"/>
<text text-anchor="middle" x="539.5" y="-7.5" font-family="Helvetica,sans-Serif" font-size="10.00">type_traits</text>
</a>
</g>
</g>
<!-- Node17&#45;&gt;Node18 -->
<g id="edge19" class="edge">
<title>Node17&#45;&gt;Node18</title>
<path fill="none" stroke="midnightblue" d="M539.5,-61.98C539.5,-53.58 539.5,-40.48 539.5,-29.66"/>
<polygon fill="midnightblue" stroke="midnightblue" points="543,-29.51 539.5,-19.51 536,-29.51 543,-29.51"/>
</g>
</g>
</svg>
