<?xml version="1.0" encoding="UTF-8" standalone="no"?>
<!DOCTYPE svg PUBLIC "-//W3C//DTD SVG 1.1//EN"
 "http://www.w3.org/Graphics/SVG/1.1/DTD/svg11.dtd">
<!-- Generated by graphviz version 2.43.0 (0)
 -->
<!-- Title: myproject::Settings::saveShortcutChanged Pages: 1 -->
<svg width="392pt" height="73pt"
 viewBox="0.00 0.00 392.00 72.50" xmlns="http://www.w3.org/2000/svg" xmlns:xlink="http://www.w3.org/1999/xlink">
<g id="graph0" class="graph" transform="scale(1 1) rotate(0) translate(4 68.5)">
<title>myproject::Settings::saveShortcutChanged</title>
<!-- Node1 -->
<g id="Node000001" class="node">
<title>Node1</title>
<g id="a_Node000001"><a xlink:title="Emitted when the save shortcut is changed.">
<polygon fill="#999999" stroke="#666666" points="384,-42.5 255,-42.5 255,-12.5 384,-12.5 384,-42.5"/>
<text text-anchor="start" x="263" y="-30.5" font-family="Helvetica,sans-Serif" font-size="10.00">myproject::Settings</text>
<text text-anchor="middle" x="319.5" y="-19.5" font-family="Helvetica,sans-Serif" font-size="10.00">::saveShortcutChanged</text>
</a>
</g>
</g>
<!-- Node2 -->
<g id="Node000002" class="node">
<title>Node2</title>
<g id="a_Node000002"><a xlink:href="classmyproject_1_1Settings.html#a955a79a03d952ab1f539bb8fdd18f317" target="_top" xlink:title="Sets the current save shortcut for the application.">
<polygon fill="white" stroke="#666666" points="219,-64.5 107,-64.5 107,-34.5 219,-34.5 219,-64.5"/>
<text text-anchor="start" x="115" y="-52.5" font-family="Helvetica,sans-Serif" font-size="10.00">myproject::Settings</text>
<text text-anchor="middle" x="163" y="-41.5" font-family="Helvetica,sans-Serif" font-size="10.00">::setSaveShortcut</text>
</a>
</g>
</g>
<!-- Node1&#45;&gt;Node2 -->
<g id="edge1_Node000001_Node000002" class="edge">
<title>Node1&#45;&gt;Node2</title>
<g id="a_edge1_Node000001_Node000002"><a xlink:title=" ">
<path fill="none" stroke="#63b8ff" d="M244.73,-38C236.14,-39.23 227.48,-40.46 219.2,-41.64"/>
<polygon fill="#63b8ff" stroke="#63b8ff" points="245.36,-41.45 254.77,-36.58 244.37,-34.52 245.36,-41.45"/>
</a>
</g>
</g>
<!-- Node4 -->
<g id="Node000004" class="node">
<title>Node4</title>
<g id="a_Node000004"><a xlink:href="tst__settings_8cpp.html#ae997a1c026401d069f8be1f213344276" target="_top" xlink:title=" ">
<polygon fill="white" stroke="#666666" points="71,-19 0,-19 0,0 71,0 71,-19"/>
<text text-anchor="middle" x="35.5" y="-7" font-family="Helvetica,sans-Serif" font-size="10.00">TEST_CASE</text>
</a>
</g>
</g>
<!-- Node1&#45;&gt;Node4 -->
<g id="edge4_Node000001_Node000004" class="edge">
<title>Node1&#45;&gt;Node4</title>
<g id="a_edge4_Node000001_Node000004"><a xlink:title=" ">
<path fill="none" stroke="#63b8ff" d="M244.63,-22.78C188.62,-19.21 114.17,-14.46 71.17,-11.71"/>
<polygon fill="#63b8ff" stroke="#63b8ff" points="244.66,-26.29 254.86,-23.44 245.11,-19.31 244.66,-26.29"/>
</a>
</g>
</g>
<!-- Node3 -->
<g id="Node000003" class="node">
<title>Node3</title>
<g id="a_Node000003"><a xlink:href="tst__settings_8cpp.html#a21102cab53cc05cb45a7ceda014091d7" target="_top" xlink:title=" ">
<polygon fill="white" stroke="#666666" points="71,-59 0,-59 0,-40 71,-40 71,-59"/>
<text text-anchor="middle" x="35.5" y="-47" font-family="Helvetica,sans-Serif" font-size="10.00">TEST_CASE</text>
</a>
</g>
</g>
<!-- Node2&#45;&gt;Node3 -->
<g id="edge2_Node000002_Node000003" class="edge">
<title>Node2&#45;&gt;Node3</title>
<g id="a_edge2_Node000002_Node000003"><a xlink:title=" ">
<path fill="none" stroke="#63b8ff" d="M96.68,-49.5C87.92,-49.5 79.22,-49.5 71.28,-49.5"/>
<polygon fill="#63b8ff" stroke="#63b8ff" points="96.95,-53 106.95,-49.5 96.95,-46 96.95,-53"/>
</a>
</g>
</g>
<!-- Node2&#45;&gt;Node4 -->
<g id="edge3_Node000002_Node000004" class="edge">
<title>Node2&#45;&gt;Node4</title>
<g id="a_edge3_Node000002_Node000004"><a xlink:title=" ">
<path fill="none" stroke="#63b8ff" d="M105.24,-31.41C91.82,-27.13 78.03,-22.74 66.35,-19.01"/>
<polygon fill="#63b8ff" stroke="#63b8ff" points="104.32,-34.79 114.91,-34.49 106.45,-28.12 104.32,-34.79"/>
</a>
</g>
</g>
</g>
</svg>
