<?xml version="1.0" encoding="UTF-8" standalone="no"?>
<!DOCTYPE svg PUBLIC "-//W3C//DTD SVG 1.1//EN"
 "http://www.w3.org/Graphics/SVG/1.1/DTD/svg11.dtd">
<!-- Generated by graphviz version 2.43.0 (0)
 -->
<!-- Title: myproject::Settings::defaultOptionsShortcut Pages: 1 -->
<svg width="402pt" height="162pt"
 viewBox="0.00 0.00 402.00 161.50" xmlns="http://www.w3.org/2000/svg" xmlns:xlink="http://www.w3.org/1999/xlink">
<g id="graph0" class="graph" transform="scale(1 1) rotate(0) translate(4 157.5)">
<title>myproject::Settings::defaultOptionsShortcut</title>
<!-- Node1 -->
<g id="Node000001" class="node">
<title>Node1</title>
<g id="a_Node000001"><a xlink:title="Returns the default options shortcut for the application.">
<polygon fill="#999999" stroke="#666666" points="394,-83.5 259,-83.5 259,-53.5 394,-53.5 394,-83.5"/>
<text text-anchor="start" x="267" y="-71.5" font-family="Helvetica,sans-Serif" font-size="10.00">myproject::Settings</text>
<text text-anchor="middle" x="326.5" y="-60.5" font-family="Helvetica,sans-Serif" font-size="10.00">::defaultOptionsShortcut</text>
</a>
</g>
</g>
<!-- Node2 -->
<g id="Node000002" class="node">
<title>Node2</title>
<g id="a_Node000002"><a xlink:href="classmyproject_1_1Settings.html#a59c4c8fa447c73040fbfc891b3acfbae" target="_top" xlink:title="Returns the current options shortcut for the application.">
<polygon fill="white" stroke="#666666" points="221,-153.5 109,-153.5 109,-123.5 221,-123.5 221,-153.5"/>
<text text-anchor="start" x="117" y="-141.5" font-family="Helvetica,sans-Serif" font-size="10.00">myproject::Settings</text>
<text text-anchor="middle" x="165" y="-130.5" font-family="Helvetica,sans-Serif" font-size="10.00">::optionsShortcut</text>
</a>
</g>
</g>
<!-- Node1&#45;&gt;Node2 -->
<g id="edge1_Node000001_Node000002" class="edge">
<title>Node1&#45;&gt;Node2</title>
<g id="a_edge1_Node000001_Node000002"><a xlink:title=" ">
<path fill="none" stroke="#63b8ff" d="M283.06,-87.81C264.64,-96.12 242.8,-105.89 223,-114.5 216.3,-117.41 209.14,-120.47 202.24,-123.39"/>
<polygon fill="#63b8ff" stroke="#63b8ff" points="284.68,-90.92 292.35,-83.61 281.8,-84.54 284.68,-90.92"/>
</a>
</g>
</g>
<!-- Node3 -->
<g id="Node000003" class="node">
<title>Node3</title>
<g id="a_Node000003"><a xlink:href="classmyproject_1_1Settings.html#a47af30e166f78fe478324fa0ed02429e" target="_top" xlink:title="Sets the current options shortcut for the application.">
<polygon fill="white" stroke="#666666" points="223,-105.5 107,-105.5 107,-75.5 223,-75.5 223,-105.5"/>
<text text-anchor="start" x="115" y="-93.5" font-family="Helvetica,sans-Serif" font-size="10.00">myproject::Settings</text>
<text text-anchor="middle" x="165" y="-82.5" font-family="Helvetica,sans-Serif" font-size="10.00">::setOptionsShortcut</text>
</a>
</g>
</g>
<!-- Node1&#45;&gt;Node3 -->
<g id="edge2_Node000001_Node000003" class="edge">
<title>Node1&#45;&gt;Node3</title>
<g id="a_edge2_Node000001_Node000003"><a xlink:title=" ">
<path fill="none" stroke="#63b8ff" d="M248.77,-79.08C240.21,-80.26 231.6,-81.45 223.34,-82.59"/>
<polygon fill="#63b8ff" stroke="#63b8ff" points="249.35,-82.54 258.78,-77.7 248.4,-75.6 249.35,-82.54"/>
</a>
</g>
</g>
<!-- Node5 -->
<g id="Node000005" class="node">
<title>Node5</title>
<g id="a_Node000005"><a xlink:href="tst__settings_8cpp.html#a21102cab53cc05cb45a7ceda014091d7" target="_top" xlink:title=" ">
<polygon fill="white" stroke="#666666" points="71,-60 0,-60 0,-41 71,-41 71,-60"/>
<text text-anchor="middle" x="35.5" y="-48" font-family="Helvetica,sans-Serif" font-size="10.00">TEST_CASE</text>
</a>
</g>
</g>
<!-- Node1&#45;&gt;Node5 -->
<g id="edge6_Node000001_Node000005" class="edge">
<title>Node1&#45;&gt;Node5</title>
<g id="a_edge6_Node000001_Node000005"><a xlink:title=" ">
<path fill="none" stroke="#63b8ff" d="M248.67,-63.71C191.06,-60.13 114.92,-55.38 71.27,-52.67"/>
<polygon fill="#63b8ff" stroke="#63b8ff" points="248.64,-67.22 258.83,-64.35 249.07,-60.23 248.64,-67.22"/>
</a>
</g>
</g>
<!-- Node6 -->
<g id="Node000006" class="node">
<title>Node6</title>
<g id="a_Node000006"><a xlink:href="tst__settings_8cpp.html#ad9d8c2ff30fae39b4ceba73773acf481" target="_top" xlink:title=" ">
<polygon fill="white" stroke="#666666" points="200.5,-19 129.5,-19 129.5,0 200.5,0 200.5,-19"/>
<text text-anchor="middle" x="165" y="-7" font-family="Helvetica,sans-Serif" font-size="10.00">TEST_CASE</text>
</a>
</g>
</g>
<!-- Node1&#45;&gt;Node6 -->
<g id="edge5_Node000001_Node000006" class="edge">
<title>Node1&#45;&gt;Node6</title>
<g id="a_edge5_Node000001_Node000006"><a xlink:title=" ">
<path fill="none" stroke="#63b8ff" d="M275.33,-49.94C247.71,-39.73 214.59,-27.47 192.09,-19.15"/>
<polygon fill="#63b8ff" stroke="#63b8ff" points="274.25,-53.27 284.84,-53.46 276.67,-46.71 274.25,-53.27"/>
</a>
</g>
</g>
<!-- Node4 -->
<g id="Node000004" class="node">
<title>Node4</title>
<g id="a_Node000004"><a xlink:href="tst__settings_8cpp.html#ad7d06a20b0bcf6053d09ee6efe4ddade" target="_top" xlink:title=" ">
<polygon fill="white" stroke="#666666" points="71,-100 0,-100 0,-81 71,-81 71,-100"/>
<text text-anchor="middle" x="35.5" y="-88" font-family="Helvetica,sans-Serif" font-size="10.00">TEST_CASE</text>
</a>
</g>
</g>
<!-- Node3&#45;&gt;Node4 -->
<g id="edge3_Node000003_Node000004" class="edge">
<title>Node3&#45;&gt;Node4</title>
<g id="a_edge3_Node000003_Node000004"><a xlink:title=" ">
<path fill="none" stroke="#63b8ff" d="M96.92,-90.5C88.02,-90.5 79.21,-90.5 71.18,-90.5"/>
<polygon fill="#63b8ff" stroke="#63b8ff" points="96.96,-94 106.96,-90.5 96.96,-87 96.96,-94"/>
</a>
</g>
</g>
<!-- Node3&#45;&gt;Node5 -->
<g id="edge4_Node000003_Node000005" class="edge">
<title>Node3&#45;&gt;Node5</title>
<g id="a_edge4_Node000003_Node000005"><a xlink:title=" ">
<path fill="none" stroke="#63b8ff" d="M106.33,-72.41C92.7,-68.13 78.69,-63.74 66.83,-60.01"/>
<polygon fill="#63b8ff" stroke="#63b8ff" points="105.57,-75.84 116.16,-75.49 107.67,-69.16 105.57,-75.84"/>
</a>
</g>
</g>
</g>
</svg>
