<?xml version="1.0" encoding="UTF-8" standalone="no"?>
<!DOCTYPE svg PUBLIC "-//W3C//DTD SVG 1.1//EN"
 "http://www.w3.org/Graphics/SVG/1.1/DTD/svg11.dtd">
<!-- Generated by graphviz version 2.43.0 (0)
 -->
<!-- Title: myproject::Settings::windowOpacityChanged Pages: 1 -->
<svg width="405pt" height="60pt"
 viewBox="0.00 0.00 405.00 60.00" xmlns="http://www.w3.org/2000/svg" xmlns:xlink="http://www.w3.org/1999/xlink">
<g id="graph0" class="graph" transform="scale(1 1) rotate(0) translate(4 56)">
<title>myproject::Settings::windowOpacityChanged</title>
<!-- Node1 -->
<g id="Node000001" class="node">
<title>Node1</title>
<g id="a_Node000001"><a xlink:title="Emitted when the window opacity is changed.">
<polygon fill="#999999" stroke="#666666" points="397,-30 257,-30 257,0 397,0 397,-30"/>
<text text-anchor="start" x="265" y="-18" font-family="Helvetica,sans-Serif" font-size="10.00">myproject::Settings</text>
<text text-anchor="middle" x="327" y="-7" font-family="Helvetica,sans-Serif" font-size="10.00">::windowOpacityChanged</text>
</a>
</g>
</g>
<!-- Node2 -->
<g id="Node000002" class="node">
<title>Node2</title>
<g id="a_Node000002"><a xlink:href="classmyproject_1_1Settings.html#a4c87a4e06a00249786212ead10c458cb" target="_top" xlink:title="Sets the current window opacity for the application.">
<polygon fill="white" stroke="#666666" points="221,-52 107,-52 107,-22 221,-22 221,-52"/>
<text text-anchor="start" x="115" y="-40" font-family="Helvetica,sans-Serif" font-size="10.00">myproject::Settings</text>
<text text-anchor="middle" x="164" y="-29" font-family="Helvetica,sans-Serif" font-size="10.00">::setWindowOpacity</text>
</a>
</g>
</g>
<!-- Node1&#45;&gt;Node2 -->
<g id="edge1_Node000001_Node000002" class="edge">
<title>Node1&#45;&gt;Node2</title>
<g id="a_edge1_Node000001_Node000002"><a xlink:title=" ">
<path fill="none" stroke="#63b8ff" d="M246.66,-25.84C238.01,-27.02 229.34,-28.21 221.06,-29.34"/>
<polygon fill="#63b8ff" stroke="#63b8ff" points="247.35,-29.28 256.79,-24.46 246.41,-22.34 247.35,-29.28"/>
</a>
</g>
</g>
<!-- Node3 -->
<g id="Node000003" class="node">
<title>Node3</title>
<g id="a_Node000003"><a xlink:href="tst__settings_8cpp.html#afa4944155863b5df223df38ab12eaadf" target="_top" xlink:title=" ">
<polygon fill="white" stroke="#666666" points="71,-24.5 0,-24.5 0,-5.5 71,-5.5 71,-24.5"/>
<text text-anchor="middle" x="35.5" y="-12.5" font-family="Helvetica,sans-Serif" font-size="10.00">TEST_CASE</text>
</a>
</g>
</g>
<!-- Node1&#45;&gt;Node3 -->
<g id="edge3_Node000001_Node000003" class="edge">
<title>Node1&#45;&gt;Node3</title>
<g id="a_edge3_Node000001_Node000003"><a xlink:title=" ">
<path fill="none" stroke="#63b8ff" d="M246.68,-13.33C238.01,-13.19 229.32,-13.08 221,-13 170.34,-12.52 157.66,-12.28 107,-13 95.37,-13.16 82.66,-13.48 71.28,-13.82"/>
<polygon fill="#63b8ff" stroke="#63b8ff" points="246.76,-16.83 256.81,-13.5 246.87,-9.83 246.76,-16.83"/>
</a>
</g>
</g>
<!-- Node2&#45;&gt;Node3 -->
<g id="edge2_Node000002_Node000003" class="edge">
<title>Node2&#45;&gt;Node3</title>
<g id="a_edge2_Node000002_Node000003"><a xlink:title=" ">
<path fill="none" stroke="#63b8ff" d="M96.78,-25.48C87.92,-23.94 79.13,-22.41 71.12,-21.02"/>
<polygon fill="#63b8ff" stroke="#63b8ff" points="96.33,-28.96 106.78,-27.22 97.53,-22.06 96.33,-28.96"/>
</a>
</g>
</g>
</g>
</svg>
