<?xml version="1.0" encoding="UTF-8" standalone="no"?>
<!DOCTYPE svg PUBLIC "-//W3C//DTD SVG 1.1//EN"
 "http://www.w3.org/Graphics/SVG/1.1/DTD/svg11.dtd">
<!-- Generated by graphviz version 2.43.0 (0)
 -->
<!-- Title: myproject::Settings::setCopyShortcut Pages: 1 -->
<svg width="285pt" height="86pt"
 viewBox="0.00 0.00 285.00 86.00" xmlns="http://www.w3.org/2000/svg" xmlns:xlink="http://www.w3.org/1999/xlink">
<g id="graph0" class="graph" transform="scale(1 1) rotate(0) translate(4 82)">
<title>myproject::Settings::setCopyShortcut</title>
<!-- Node1 -->
<g id="Node000001" class="node">
<title>Node1</title>
<g id="a_Node000001"><a xlink:title="Sets the current copy shortcut for the application.">
<polygon fill="#999999" stroke="#666666" points="112,-54 0,-54 0,-24 112,-24 112,-54"/>
<text text-anchor="start" x="8" y="-42" font-family="Helvetica,sans-Serif" font-size="10.00">myproject::Settings</text>
<text text-anchor="middle" x="56" y="-31" font-family="Helvetica,sans-Serif" font-size="10.00">::setCopyShortcut</text>
</a>
</g>
</g>
<!-- Node2 -->
<g id="Node000002" class="node">
<title>Node2</title>
<g id="a_Node000002"><a xlink:href="classmyproject_1_1Settings.html#ab2da2035bc125ce50e038b3a80ea7030" target="_top" xlink:title="Emitted when the copy shortcut is changed.">
<polygon fill="white" stroke="#666666" points="277,-78 148,-78 148,-48 277,-48 277,-78"/>
<text text-anchor="start" x="156" y="-66" font-family="Helvetica,sans-Serif" font-size="10.00">myproject::Settings</text>
<text text-anchor="middle" x="212.5" y="-55" font-family="Helvetica,sans-Serif" font-size="10.00">::copyShortcutChanged</text>
</a>
</g>
</g>
<!-- Node1&#45;&gt;Node2 -->
<g id="edge1_Node000001_Node000002" class="edge">
<title>Node1&#45;&gt;Node2</title>
<g id="a_edge1_Node000001_Node000002"><a xlink:title=" ">
<path fill="none" stroke="#63b8ff" d="M112.34,-47.6C120.62,-48.88 129.26,-50.23 137.85,-51.56"/>
<polygon fill="#63b8ff" stroke="#63b8ff" points="137.45,-55.04 147.87,-53.12 138.52,-48.12 137.45,-55.04"/>
</a>
</g>
</g>
<!-- Node3 -->
<g id="Node000003" class="node">
<title>Node3</title>
<g id="a_Node000003"><a xlink:href="classmyproject_1_1Settings.html#a5b57c90ed6e15c4fa81363ad9219fa5e" target="_top" xlink:title="Returns the default copy shortcut for the application.">
<polygon fill="white" stroke="#666666" points="273.5,-30 151.5,-30 151.5,0 273.5,0 273.5,-30"/>
<text text-anchor="start" x="159.5" y="-18" font-family="Helvetica,sans-Serif" font-size="10.00">myproject::Settings</text>
<text text-anchor="middle" x="212.5" y="-7" font-family="Helvetica,sans-Serif" font-size="10.00">::defaultCopyShortcut</text>
</a>
</g>
</g>
<!-- Node1&#45;&gt;Node3 -->
<g id="edge2_Node000001_Node000003" class="edge">
<title>Node1&#45;&gt;Node3</title>
<g id="a_edge2_Node000001_Node000003"><a xlink:title=" ">
<path fill="none" stroke="#63b8ff" d="M112.34,-30.4C121.72,-28.95 131.58,-27.42 141.28,-25.91"/>
<polygon fill="#63b8ff" stroke="#63b8ff" points="141.97,-29.34 151.31,-24.35 140.89,-22.43 141.97,-29.34"/>
</a>
</g>
</g>
</g>
</svg>
