<?xml version="1.0" encoding="UTF-8" standalone="no"?>
<!DOCTYPE svg PUBLIC "-//W3C//DTD SVG 1.1//EN"
 "http://www.w3.org/Graphics/SVG/1.1/DTD/svg11.dtd">
<!-- Generated by graphviz version 2.43.0 (0)
 -->
<!-- Title: myproject::Settings::defaultSaveAsShortcut Pages: 1 -->
<svg width="399pt" height="162pt"
 viewBox="0.00 0.00 399.00 161.50" xmlns="http://www.w3.org/2000/svg" xmlns:xlink="http://www.w3.org/1999/xlink">
<g id="graph0" class="graph" transform="scale(1 1) rotate(0) translate(4 157.5)">
<title>myproject::Settings::defaultSaveAsShortcut</title>
<!-- Node1 -->
<g id="Node000001" class="node">
<title>Node1</title>
<g id="a_Node000001"><a xlink:title="Returns the default save as shortcut for the application.">
<polygon fill="#999999" stroke="#666666" points="391,-88.5 257,-88.5 257,-58.5 391,-58.5 391,-88.5"/>
<text text-anchor="start" x="265" y="-76.5" font-family="Helvetica,sans-Serif" font-size="10.00">myproject::Settings</text>
<text text-anchor="middle" x="324" y="-65.5" font-family="Helvetica,sans-Serif" font-size="10.00">::defaultSaveAsShortcut</text>
</a>
</g>
</g>
<!-- Node2 -->
<g id="Node000002" class="node">
<title>Node2</title>
<g id="a_Node000002"><a xlink:href="classmyproject_1_1Settings.html#adb649acf8217908c3c61221364844bef" target="_top" xlink:title="Returns the current save as shortcut for the application.">
<polygon fill="white" stroke="#666666" points="220,-153.5 108,-153.5 108,-123.5 220,-123.5 220,-153.5"/>
<text text-anchor="start" x="116" y="-141.5" font-family="Helvetica,sans-Serif" font-size="10.00">myproject::Settings</text>
<text text-anchor="middle" x="164" y="-130.5" font-family="Helvetica,sans-Serif" font-size="10.00">::saveAsShortcut</text>
</a>
</g>
</g>
<!-- Node1&#45;&gt;Node2 -->
<g id="edge1_Node000001_Node000002" class="edge">
<title>Node1&#45;&gt;Node2</title>
<g id="a_edge1_Node000001_Node000002"><a xlink:title=" ">
<path fill="none" stroke="#63b8ff" d="M277.1,-92.38C253.12,-102.25 224.19,-114.15 201.72,-123.39"/>
<polygon fill="#63b8ff" stroke="#63b8ff" points="278.44,-95.62 286.35,-88.58 275.77,-89.14 278.44,-95.62"/>
</a>
</g>
</g>
<!-- Node3 -->
<g id="Node000003" class="node">
<title>Node3</title>
<g id="a_Node000003"><a xlink:href="classmyproject_1_1Settings.html#ab8945e6a735ce71b904c528c57570a80" target="_top" xlink:title="Sets the current save as shortcut for the application.">
<polygon fill="white" stroke="#666666" points="221,-67.5 107,-67.5 107,-37.5 221,-37.5 221,-67.5"/>
<text text-anchor="start" x="115" y="-55.5" font-family="Helvetica,sans-Serif" font-size="10.00">myproject::Settings</text>
<text text-anchor="middle" x="164" y="-44.5" font-family="Helvetica,sans-Serif" font-size="10.00">::setSaveAsShortcut</text>
</a>
</g>
</g>
<!-- Node1&#45;&gt;Node3 -->
<g id="edge2_Node000001_Node000003" class="edge">
<title>Node1&#45;&gt;Node3</title>
<g id="a_edge2_Node000001_Node000003"><a xlink:title=" ">
<path fill="none" stroke="#63b8ff" d="M246.85,-63.38C238.24,-62.23 229.59,-61.08 221.3,-59.98"/>
<polygon fill="#63b8ff" stroke="#63b8ff" points="246.54,-66.87 256.91,-64.72 247.46,-59.93 246.54,-66.87"/>
</a>
</g>
</g>
<!-- Node4 -->
<g id="Node000004" class="node">
<title>Node4</title>
<g id="a_Node000004"><a xlink:href="tst__settings_8cpp.html#a21102cab53cc05cb45a7ceda014091d7" target="_top" xlink:title=" ">
<polygon fill="white" stroke="#666666" points="71,-102 0,-102 0,-83 71,-83 71,-102"/>
<text text-anchor="middle" x="35.5" y="-90" font-family="Helvetica,sans-Serif" font-size="10.00">TEST_CASE</text>
</a>
</g>
</g>
<!-- Node1&#45;&gt;Node4 -->
<g id="edge6_Node000001_Node000004" class="edge">
<title>Node1&#45;&gt;Node4</title>
<g id="a_edge6_Node000001_Node000004"><a xlink:title=" ">
<path fill="none" stroke="#63b8ff" d="M246.86,-78.55C189.93,-82.33 114.71,-87.31 71.36,-90.19"/>
<polygon fill="#63b8ff" stroke="#63b8ff" points="247.16,-82.04 256.91,-77.88 246.7,-75.05 247.16,-82.04"/>
</a>
</g>
</g>
<!-- Node6 -->
<g id="Node000006" class="node">
<title>Node6</title>
<g id="a_Node000006"><a xlink:href="tst__settings_8cpp.html#ad9d8c2ff30fae39b4ceba73773acf481" target="_top" xlink:title=" ">
<polygon fill="white" stroke="#666666" points="199.5,-19 128.5,-19 128.5,0 199.5,0 199.5,-19"/>
<text text-anchor="middle" x="164" y="-7" font-family="Helvetica,sans-Serif" font-size="10.00">TEST_CASE</text>
</a>
</g>
</g>
<!-- Node1&#45;&gt;Node6 -->
<g id="edge5_Node000001_Node000006" class="edge">
<title>Node1&#45;&gt;Node6</title>
<g id="a_edge5_Node000001_Node000006"><a xlink:title=" ">
<path fill="none" stroke="#63b8ff" d="M281.44,-54.17C263.07,-45.89 241.12,-36.33 221,-28.5 212.58,-25.22 203.33,-21.95 194.82,-19.07"/>
<polygon fill="#63b8ff" stroke="#63b8ff" points="280.14,-57.42 290.69,-58.37 283.03,-51.05 280.14,-57.42"/>
</a>
</g>
</g>
<!-- Node3&#45;&gt;Node4 -->
<g id="edge3_Node000003_Node000004" class="edge">
<title>Node3&#45;&gt;Node4</title>
<g id="a_edge3_Node000003_Node000004"><a xlink:title=" ">
<path fill="none" stroke="#63b8ff" d="M105.79,-70.59C92.26,-74.87 78.36,-79.26 66.59,-82.99"/>
<polygon fill="#63b8ff" stroke="#63b8ff" points="107.06,-73.86 115.54,-67.51 104.95,-67.19 107.06,-73.86"/>
</a>
</g>
</g>
<!-- Node5 -->
<g id="Node000005" class="node">
<title>Node5</title>
<g id="a_Node000005"><a xlink:href="tst__settings_8cpp.html#a15df0ad6cf261c017da426744e803b0b" target="_top" xlink:title=" ">
<polygon fill="white" stroke="#666666" points="71,-62 0,-62 0,-43 71,-43 71,-62"/>
<text text-anchor="middle" x="35.5" y="-50" font-family="Helvetica,sans-Serif" font-size="10.00">TEST_CASE</text>
</a>
</g>
</g>
<!-- Node3&#45;&gt;Node5 -->
<g id="edge4_Node000003_Node000005" class="edge">
<title>Node3&#45;&gt;Node5</title>
<g id="a_edge4_Node000003_Node000005"><a xlink:title=" ">
<path fill="none" stroke="#63b8ff" d="M96.78,-52.5C87.92,-52.5 79.13,-52.5 71.12,-52.5"/>
<polygon fill="#63b8ff" stroke="#63b8ff" points="96.78,-56 106.78,-52.5 96.78,-49 96.78,-56"/>
</a>
</g>
</g>
</g>
</svg>
