<?xml version="1.0" encoding="UTF-8" standalone="no"?>
<!DOCTYPE svg PUBLIC "-//W3C//DTD SVG 1.1//EN"
 "http://www.w3.org/Graphics/SVG/1.1/DTD/svg11.dtd">
<!-- Generated by graphviz version 2.43.0 (0)
 -->
<!-- Title: myproject::Settings::saveAsShortcutChanged Pages: 1 -->
<svg width="406pt" height="73pt"
 viewBox="0.00 0.00 406.00 72.50" xmlns="http://www.w3.org/2000/svg" xmlns:xlink="http://www.w3.org/1999/xlink">
<g id="graph0" class="graph" transform="scale(1 1) rotate(0) translate(4 68.5)">
<title>myproject::Settings::saveAsShortcutChanged</title>
<!-- Node1 -->
<g id="Node000001" class="node">
<title>Node1</title>
<g id="a_Node000001"><a xlink:title="Emitted when the save as shortcut is changed.">
<polygon fill="#999999" stroke="#666666" points="398,-42.5 257,-42.5 257,-12.5 398,-12.5 398,-42.5"/>
<text text-anchor="start" x="265" y="-30.5" font-family="Helvetica,sans-Serif" font-size="10.00">myproject::Settings</text>
<text text-anchor="middle" x="327.5" y="-19.5" font-family="Helvetica,sans-Serif" font-size="10.00">::saveAsShortcutChanged</text>
</a>
</g>
</g>
<!-- Node2 -->
<g id="Node000002" class="node">
<title>Node2</title>
<g id="a_Node000002"><a xlink:href="classmyproject_1_1Settings.html#ab8945e6a735ce71b904c528c57570a80" target="_top" xlink:title="Sets the current save as shortcut for the application.">
<polygon fill="white" stroke="#666666" points="221,-64.5 107,-64.5 107,-34.5 221,-34.5 221,-64.5"/>
<text text-anchor="start" x="115" y="-52.5" font-family="Helvetica,sans-Serif" font-size="10.00">myproject::Settings</text>
<text text-anchor="middle" x="164" y="-41.5" font-family="Helvetica,sans-Serif" font-size="10.00">::setSaveAsShortcut</text>
</a>
</g>
</g>
<!-- Node1&#45;&gt;Node2 -->
<g id="edge1_Node000001_Node000002" class="edge">
<title>Node1&#45;&gt;Node2</title>
<g id="a_edge1_Node000001_Node000002"><a xlink:title=" ">
<path fill="none" stroke="#63b8ff" d="M246.63,-38.38C238.1,-39.54 229.56,-40.7 221.39,-41.82"/>
<polygon fill="#63b8ff" stroke="#63b8ff" points="247.17,-41.84 256.6,-37.02 246.22,-34.9 247.17,-41.84"/>
</a>
</g>
</g>
<!-- Node4 -->
<g id="Node000004" class="node">
<title>Node4</title>
<g id="a_Node000004"><a xlink:href="tst__settings_8cpp.html#a15df0ad6cf261c017da426744e803b0b" target="_top" xlink:title=" ">
<polygon fill="white" stroke="#666666" points="71,-19 0,-19 0,0 71,0 71,-19"/>
<text text-anchor="middle" x="35.5" y="-7" font-family="Helvetica,sans-Serif" font-size="10.00">TEST_CASE</text>
</a>
</g>
</g>
<!-- Node1&#45;&gt;Node4 -->
<g id="edge4_Node000001_Node000004" class="edge">
<title>Node1&#45;&gt;Node4</title>
<g id="a_edge4_Node000001_Node000004"><a xlink:title=" ">
<path fill="none" stroke="#63b8ff" d="M246.49,-22.53C188.91,-18.96 114.08,-14.32 71.06,-11.65"/>
<polygon fill="#63b8ff" stroke="#63b8ff" points="246.47,-26.04 256.67,-23.17 246.9,-19.05 246.47,-26.04"/>
</a>
</g>
</g>
<!-- Node3 -->
<g id="Node000003" class="node">
<title>Node3</title>
<g id="a_Node000003"><a xlink:href="tst__settings_8cpp.html#a21102cab53cc05cb45a7ceda014091d7" target="_top" xlink:title=" ">
<polygon fill="white" stroke="#666666" points="71,-59 0,-59 0,-40 71,-40 71,-59"/>
<text text-anchor="middle" x="35.5" y="-47" font-family="Helvetica,sans-Serif" font-size="10.00">TEST_CASE</text>
</a>
</g>
</g>
<!-- Node2&#45;&gt;Node3 -->
<g id="edge2_Node000002_Node000003" class="edge">
<title>Node2&#45;&gt;Node3</title>
<g id="a_edge2_Node000002_Node000003"><a xlink:title=" ">
<path fill="none" stroke="#63b8ff" d="M96.78,-49.5C87.92,-49.5 79.13,-49.5 71.12,-49.5"/>
<polygon fill="#63b8ff" stroke="#63b8ff" points="96.78,-53 106.78,-49.5 96.78,-46 96.78,-53"/>
</a>
</g>
</g>
<!-- Node2&#45;&gt;Node4 -->
<g id="edge3_Node000002_Node000004" class="edge">
<title>Node2&#45;&gt;Node4</title>
<g id="a_edge3_Node000002_Node000004"><a xlink:title=" ">
<path fill="none" stroke="#63b8ff" d="M105.79,-31.41C92.26,-27.13 78.36,-22.74 66.59,-19.01"/>
<polygon fill="#63b8ff" stroke="#63b8ff" points="104.95,-34.81 115.54,-34.49 107.06,-28.14 104.95,-34.81"/>
</a>
</g>
</g>
</g>
</svg>
