<?xml version="1.0" encoding="UTF-8" standalone="no"?>
<!DOCTYPE svg PUBLIC "-//W3C//DTD SVG 1.1//EN"
 "http://www.w3.org/Graphics/SVG/1.1/DTD/svg11.dtd">
<!-- Generated by graphviz version 2.43.0 (0)
 -->
<!-- Title: myproject::Settings::defaultSaveShortcut Pages: 1 -->
<svg width="385pt" height="162pt"
 viewBox="0.00 0.00 385.00 161.50" xmlns="http://www.w3.org/2000/svg" xmlns:xlink="http://www.w3.org/1999/xlink">
<g id="graph0" class="graph" transform="scale(1 1) rotate(0) translate(4 157.5)">
<title>myproject::Settings::defaultSaveShortcut</title>
<!-- Node1 -->
<g id="Node000001" class="node">
<title>Node1</title>
<g id="a_Node000001"><a xlink:title="Returns the default save shortcut for the application.">
<polygon fill="#999999" stroke="#666666" points="377,-88.5 255,-88.5 255,-58.5 377,-58.5 377,-88.5"/>
<text text-anchor="start" x="263" y="-76.5" font-family="Helvetica,sans-Serif" font-size="10.00">myproject::Settings</text>
<text text-anchor="middle" x="316" y="-65.5" font-family="Helvetica,sans-Serif" font-size="10.00">::defaultSaveShortcut</text>
</a>
</g>
</g>
<!-- Node2 -->
<g id="Node000002" class="node">
<title>Node2</title>
<g id="a_Node000002"><a xlink:href="classmyproject_1_1Settings.html#a19b321b5e837bf4a2548c962e5cf8a32" target="_top" xlink:title="Returns the current save shortcut for the application.">
<polygon fill="white" stroke="#666666" points="219,-153.5 107,-153.5 107,-123.5 219,-123.5 219,-153.5"/>
<text text-anchor="start" x="115" y="-141.5" font-family="Helvetica,sans-Serif" font-size="10.00">myproject::Settings</text>
<text text-anchor="middle" x="163" y="-130.5" font-family="Helvetica,sans-Serif" font-size="10.00">::saveShortcut</text>
</a>
</g>
</g>
<!-- Node1&#45;&gt;Node2 -->
<g id="edge1_Node000001_Node000002" class="edge">
<title>Node1&#45;&gt;Node2</title>
<g id="a_edge1_Node000001_Node000002"><a xlink:title=" ">
<path fill="none" stroke="#63b8ff" d="M270.52,-92.65C247.73,-102.46 220.38,-114.23 199.09,-123.39"/>
<polygon fill="#63b8ff" stroke="#63b8ff" points="272.18,-95.74 279.98,-88.58 269.41,-89.31 272.18,-95.74"/>
</a>
</g>
</g>
<!-- Node3 -->
<g id="Node000003" class="node">
<title>Node3</title>
<g id="a_Node000003"><a xlink:href="classmyproject_1_1Settings.html#a955a79a03d952ab1f539bb8fdd18f317" target="_top" xlink:title="Sets the current save shortcut for the application.">
<polygon fill="white" stroke="#666666" points="219,-67.5 107,-67.5 107,-37.5 219,-37.5 219,-67.5"/>
<text text-anchor="start" x="115" y="-55.5" font-family="Helvetica,sans-Serif" font-size="10.00">myproject::Settings</text>
<text text-anchor="middle" x="163" y="-44.5" font-family="Helvetica,sans-Serif" font-size="10.00">::setSaveShortcut</text>
</a>
</g>
</g>
<!-- Node1&#45;&gt;Node3 -->
<g id="edge2_Node000001_Node000003" class="edge">
<title>Node1&#45;&gt;Node3</title>
<g id="a_edge2_Node000001_Node000003"><a xlink:title=" ">
<path fill="none" stroke="#63b8ff" d="M244.8,-63.74C236.14,-62.53 227.39,-61.32 219.01,-60.15"/>
<polygon fill="#63b8ff" stroke="#63b8ff" points="244.5,-67.23 254.89,-65.14 245.46,-60.3 244.5,-67.23"/>
</a>
</g>
</g>
<!-- Node4 -->
<g id="Node000004" class="node">
<title>Node4</title>
<g id="a_Node000004"><a xlink:href="tst__settings_8cpp.html#a21102cab53cc05cb45a7ceda014091d7" target="_top" xlink:title=" ">
<polygon fill="white" stroke="#666666" points="71,-102 0,-102 0,-83 71,-83 71,-102"/>
<text text-anchor="middle" x="35.5" y="-90" font-family="Helvetica,sans-Serif" font-size="10.00">TEST_CASE</text>
</a>
</g>
</g>
<!-- Node1&#45;&gt;Node4 -->
<g id="edge6_Node000001_Node000004" class="edge">
<title>Node1&#45;&gt;Node4</title>
<g id="a_edge6_Node000001_Node000004"><a xlink:title=" ">
<path fill="none" stroke="#63b8ff" d="M244.79,-78.29C189.32,-82.07 114.28,-87.19 71.06,-90.14"/>
<polygon fill="#63b8ff" stroke="#63b8ff" points="245.17,-81.77 254.91,-77.6 244.7,-74.79 245.17,-81.77"/>
</a>
</g>
</g>
<!-- Node6 -->
<g id="Node000006" class="node">
<title>Node6</title>
<g id="a_Node000006"><a xlink:href="tst__settings_8cpp.html#ad9d8c2ff30fae39b4ceba73773acf481" target="_top" xlink:title=" ">
<polygon fill="white" stroke="#666666" points="198.5,-19 127.5,-19 127.5,0 198.5,0 198.5,-19"/>
<text text-anchor="middle" x="163" y="-7" font-family="Helvetica,sans-Serif" font-size="10.00">TEST_CASE</text>
</a>
</g>
</g>
<!-- Node1&#45;&gt;Node6 -->
<g id="edge5_Node000001_Node000006" class="edge">
<title>Node1&#45;&gt;Node6</title>
<g id="a_edge5_Node000001_Node000006"><a xlink:title=" ">
<path fill="none" stroke="#63b8ff" d="M275.89,-54.02C258.63,-45.73 238,-36.21 219,-28.5 210.86,-25.2 201.9,-21.94 193.61,-19.09"/>
<polygon fill="#63b8ff" stroke="#63b8ff" points="274.57,-57.27 285.1,-58.48 277.62,-50.97 274.57,-57.27"/>
</a>
</g>
</g>
<!-- Node3&#45;&gt;Node4 -->
<g id="edge3_Node000003_Node000004" class="edge">
<title>Node3&#45;&gt;Node4</title>
<g id="a_edge3_Node000003_Node000004"><a xlink:title=" ">
<path fill="none" stroke="#63b8ff" d="M105.24,-70.59C91.82,-74.87 78.03,-79.26 66.35,-82.99"/>
<polygon fill="#63b8ff" stroke="#63b8ff" points="106.45,-73.88 114.91,-67.51 104.32,-67.21 106.45,-73.88"/>
</a>
</g>
</g>
<!-- Node5 -->
<g id="Node000005" class="node">
<title>Node5</title>
<g id="a_Node000005"><a xlink:href="tst__settings_8cpp.html#ae997a1c026401d069f8be1f213344276" target="_top" xlink:title=" ">
<polygon fill="white" stroke="#666666" points="71,-62 0,-62 0,-43 71,-43 71,-62"/>
<text text-anchor="middle" x="35.5" y="-50" font-family="Helvetica,sans-Serif" font-size="10.00">TEST_CASE</text>
</a>
</g>
</g>
<!-- Node3&#45;&gt;Node5 -->
<g id="edge4_Node000003_Node000005" class="edge">
<title>Node3&#45;&gt;Node5</title>
<g id="a_edge4_Node000003_Node000005"><a xlink:title=" ">
<path fill="none" stroke="#63b8ff" d="M96.68,-52.5C87.92,-52.5 79.22,-52.5 71.28,-52.5"/>
<polygon fill="#63b8ff" stroke="#63b8ff" points="96.95,-56 106.95,-52.5 96.95,-49 96.95,-56"/>
</a>
</g>
</g>
</g>
</svg>
