<?xml version="1.0" encoding="UTF-8" standalone="no"?>
<!DOCTYPE svg PUBLIC "-//W3C//DTD SVG 1.1//EN"
 "http://www.w3.org/Graphics/SVG/1.1/DTD/svg11.dtd">
<!-- Generated by graphviz version 2.43.0 (0)
 -->
<!-- Title: myproject::Settings::languageChanged Pages: 1 -->
<svg width="375pt" height="60pt"
 viewBox="0.00 0.00 375.00 60.00" xmlns="http://www.w3.org/2000/svg" xmlns:xlink="http://www.w3.org/1999/xlink">
<g id="graph0" class="graph" transform="scale(1 1) rotate(0) translate(4 56)">
<title>myproject::Settings::languageChanged</title>
<!-- Node1 -->
<g id="Node000001" class="node">
<title>Node1</title>
<g id="a_Node000001"><a xlink:title="Emitted when the language is changed.">
<polygon fill="#999999" stroke="#666666" points="367,-30 255,-30 255,0 367,0 367,-30"/>
<text text-anchor="start" x="263" y="-18" font-family="Helvetica,sans-Serif" font-size="10.00">myproject::Settings</text>
<text text-anchor="middle" x="311" y="-7" font-family="Helvetica,sans-Serif" font-size="10.00">::languageChanged</text>
</a>
</g>
</g>
<!-- Node2 -->
<g id="Node000002" class="node">
<title>Node2</title>
<g id="a_Node000002"><a xlink:href="classmyproject_1_1Settings.html#a724460352906b6d11a80d9395676beea" target="_top" xlink:title="Sets the current language for the application.">
<polygon fill="white" stroke="#666666" points="219,-52 107,-52 107,-22 219,-22 219,-52"/>
<text text-anchor="start" x="115" y="-40" font-family="Helvetica,sans-Serif" font-size="10.00">myproject::Settings</text>
<text text-anchor="middle" x="163" y="-29" font-family="Helvetica,sans-Serif" font-size="10.00">::setLanguage</text>
</a>
</g>
</g>
<!-- Node1&#45;&gt;Node2 -->
<g id="edge1_Node000001_Node000002" class="edge">
<title>Node1&#45;&gt;Node2</title>
<g id="a_edge1_Node000001_Node000002"><a xlink:title=" ">
<path fill="none" stroke="#63b8ff" d="M244.87,-24.81C236.32,-26.1 227.63,-27.41 219.27,-28.67"/>
<polygon fill="#63b8ff" stroke="#63b8ff" points="245.44,-28.27 254.8,-23.32 244.39,-21.35 245.44,-28.27"/>
</a>
</g>
</g>
<!-- Node3 -->
<g id="Node000003" class="node">
<title>Node3</title>
<g id="a_Node000003"><a xlink:href="tst__settings_8cpp.html#a5c04d16a5a907a0efde133b34787f356" target="_top" xlink:title=" ">
<polygon fill="white" stroke="#666666" points="71,-24.5 0,-24.5 0,-5.5 71,-5.5 71,-24.5"/>
<text text-anchor="middle" x="35.5" y="-12.5" font-family="Helvetica,sans-Serif" font-size="10.00">TEST_CASE</text>
</a>
</g>
</g>
<!-- Node1&#45;&gt;Node3 -->
<g id="edge3_Node000001_Node000003" class="edge">
<title>Node1&#45;&gt;Node3</title>
<g id="a_edge3_Node000001_Node000003"><a xlink:title=" ">
<path fill="none" stroke="#63b8ff" d="M244.62,-13.39C236.01,-13.23 227.29,-13.09 219,-13 169.23,-12.45 156.77,-12.29 107,-13 95.37,-13.16 82.66,-13.48 71.28,-13.82"/>
<polygon fill="#63b8ff" stroke="#63b8ff" points="244.59,-16.89 254.66,-13.59 244.73,-9.89 244.59,-16.89"/>
</a>
</g>
</g>
<!-- Node2&#45;&gt;Node3 -->
<g id="edge2_Node000002_Node000003" class="edge">
<title>Node2&#45;&gt;Node3</title>
<g id="a_edge2_Node000002_Node000003"><a xlink:title=" ">
<path fill="none" stroke="#63b8ff" d="M96.96,-25.6C88.1,-24.05 79.31,-22.5 71.28,-21.1"/>
<polygon fill="#63b8ff" stroke="#63b8ff" points="96.5,-29.07 106.95,-27.35 97.71,-22.18 96.5,-29.07"/>
</a>
</g>
</g>
</g>
</svg>
