<?xml version="1.0" encoding="UTF-8" standalone="no"?>
<!DOCTYPE svg PUBLIC "-//W3C//DTD SVG 1.1//EN"
 "http://www.w3.org/Graphics/SVG/1.1/DTD/svg11.dtd">
<!-- Generated by graphviz version 2.43.0 (0)
 -->
<!-- Title: myproject::Settings::defaultFpsVisible Pages: 1 -->
<svg width="375pt" height="124pt"
 viewBox="0.00 0.00 375.00 123.50" xmlns="http://www.w3.org/2000/svg" xmlns:xlink="http://www.w3.org/1999/xlink">
<g id="graph0" class="graph" transform="scale(1 1) rotate(0) translate(4 119.5)">
<title>myproject::Settings::defaultFpsVisible</title>
<!-- Node1 -->
<g id="Node000001" class="node">
<title>Node1</title>
<g id="a_Node000001"><a xlink:title="Returns the default FPS visibility for the application.">
<polygon fill="#999999" stroke="#666666" points="367,-67.5 255,-67.5 255,-37.5 367,-37.5 367,-67.5"/>
<text text-anchor="start" x="263" y="-55.5" font-family="Helvetica,sans-Serif" font-size="10.00">myproject::Settings</text>
<text text-anchor="middle" x="311" y="-44.5" font-family="Helvetica,sans-Serif" font-size="10.00">::defaultFpsVisible</text>
</a>
</g>
</g>
<!-- Node2 -->
<g id="Node000002" class="node">
<title>Node2</title>
<g id="a_Node000002"><a xlink:href="classmyproject_1_1Settings.html#a42ad9d4d5f512fbb827795c83c393f2b" target="_top" xlink:title="Returns the current FPS visibility for the application.">
<polygon fill="white" stroke="#666666" points="219,-115.5 107,-115.5 107,-85.5 219,-85.5 219,-115.5"/>
<text text-anchor="start" x="115" y="-103.5" font-family="Helvetica,sans-Serif" font-size="10.00">myproject::Settings</text>
<text text-anchor="middle" x="163" y="-92.5" font-family="Helvetica,sans-Serif" font-size="10.00">::isFpsVisible</text>
</a>
</g>
</g>
<!-- Node1&#45;&gt;Node2 -->
<g id="edge1_Node000001_Node000002" class="edge">
<title>Node1&#45;&gt;Node2</title>
<g id="a_edge1_Node000001_Node000002"><a xlink:title=" ">
<path fill="none" stroke="#63b8ff" d="M254.62,-70.71C239.77,-75.59 223.89,-80.81 209.63,-85.5"/>
<polygon fill="#63b8ff" stroke="#63b8ff" points="255.8,-74 264.21,-67.56 253.61,-67.35 255.8,-74"/>
</a>
</g>
</g>
<!-- Node4 -->
<g id="Node000004" class="node">
<title>Node4</title>
<g id="a_Node000004"><a xlink:href="classmyproject_1_1Settings.html#ad9011ea62284028bde0fd492529298cd" target="_top" xlink:title="Sets the current FPS visibility for the application.">
<polygon fill="white" stroke="#666666" points="219,-67.5 107,-67.5 107,-37.5 219,-37.5 219,-67.5"/>
<text text-anchor="start" x="115" y="-55.5" font-family="Helvetica,sans-Serif" font-size="10.00">myproject::Settings</text>
<text text-anchor="middle" x="163" y="-44.5" font-family="Helvetica,sans-Serif" font-size="10.00">::setFpsVisible</text>
</a>
</g>
</g>
<!-- Node1&#45;&gt;Node4 -->
<g id="edge3_Node000001_Node000004" class="edge">
<title>Node1&#45;&gt;Node4</title>
<g id="a_edge3_Node000001_Node000004"><a xlink:title=" ">
<path fill="none" stroke="#63b8ff" d="M244.59,-52.5C236.14,-52.5 227.54,-52.5 219.27,-52.5"/>
<polygon fill="#63b8ff" stroke="#63b8ff" points="244.8,-56 254.8,-52.5 244.8,-49 244.8,-56"/>
</a>
</g>
</g>
<!-- Node5 -->
<g id="Node000005" class="node">
<title>Node5</title>
<g id="a_Node000005"><a xlink:href="tst__settings_8cpp.html#ad9d8c2ff30fae39b4ceba73773acf481" target="_top" xlink:title=" ">
<polygon fill="white" stroke="#666666" points="198.5,-19 127.5,-19 127.5,0 198.5,0 198.5,-19"/>
<text text-anchor="middle" x="163" y="-7" font-family="Helvetica,sans-Serif" font-size="10.00">TEST_CASE</text>
</a>
</g>
</g>
<!-- Node1&#45;&gt;Node5 -->
<g id="edge5_Node000001_Node000005" class="edge">
<title>Node1&#45;&gt;Node5</title>
<g id="a_edge5_Node000001_Node000005"><a xlink:title=" ">
<path fill="none" stroke="#63b8ff" d="M249.06,-34.55C231.05,-29.25 212.03,-23.64 196.55,-19.09"/>
<polygon fill="#63b8ff" stroke="#63b8ff" points="248.35,-37.99 258.94,-37.46 250.33,-31.28 248.35,-37.99"/>
</a>
</g>
</g>
<!-- Node3 -->
<g id="Node000003" class="node">
<title>Node3</title>
<g id="a_Node000003"><a xlink:href="tst__settings_8cpp.html#ad92d094058c332311f48714e87bab29d" target="_top" xlink:title=" ">
<polygon fill="white" stroke="#666666" points="71,-86 0,-86 0,-67 71,-67 71,-86"/>
<text text-anchor="middle" x="35.5" y="-74" font-family="Helvetica,sans-Serif" font-size="10.00">TEST_CASE</text>
</a>
</g>
</g>
<!-- Node2&#45;&gt;Node3 -->
<g id="edge2_Node000002_Node000003" class="edge">
<title>Node2&#45;&gt;Node3</title>
<g id="a_edge2_Node000002_Node000003"><a xlink:title=" ">
<path fill="none" stroke="#63b8ff" d="M96.96,-88.06C88.1,-86.37 79.31,-84.69 71.28,-83.15"/>
<polygon fill="#63b8ff" stroke="#63b8ff" points="96.47,-91.53 106.95,-89.97 97.79,-84.66 96.47,-91.53"/>
</a>
</g>
</g>
<!-- Node4&#45;&gt;Node3 -->
<g id="edge4_Node000004_Node000003" class="edge">
<title>Node4&#45;&gt;Node3</title>
<g id="a_edge4_Node000004_Node000003"><a xlink:title=" ">
<path fill="none" stroke="#63b8ff" d="M96.96,-64.94C88.1,-66.63 79.31,-68.31 71.28,-69.85"/>
<polygon fill="#63b8ff" stroke="#63b8ff" points="97.79,-68.34 106.95,-63.03 96.47,-61.47 97.79,-68.34"/>
</a>
</g>
</g>
</g>
</svg>
