<?xml version="1.0" encoding="UTF-8" standalone="no"?>
<!DOCTYPE svg PUBLIC "-//W3C//DTD SVG 1.1//EN"
 "http://www.w3.org/Graphics/SVG/1.1/DTD/svg11.dtd">
<!-- Generated by graphviz version 2.43.0 (0)
 -->
<!-- Title: myproject::Settings::appThemeChanged Pages: 1 -->
<svg width="380pt" height="60pt"
 viewBox="0.00 0.00 380.00 60.00" xmlns="http://www.w3.org/2000/svg" xmlns:xlink="http://www.w3.org/1999/xlink">
<g id="graph0" class="graph" transform="scale(1 1) rotate(0) translate(4 56)">
<title>myproject::Settings::appThemeChanged</title>
<!-- Node1 -->
<g id="Node000001" class="node">
<title>Node1</title>
<g id="a_Node000001"><a xlink:title="Emitted when the app theme is changed.">
<polygon fill="#999999" stroke="#666666" points="372,-30 255,-30 255,0 372,0 372,-30"/>
<text text-anchor="start" x="263" y="-18" font-family="Helvetica,sans-Serif" font-size="10.00">myproject::Settings</text>
<text text-anchor="middle" x="313.5" y="-7" font-family="Helvetica,sans-Serif" font-size="10.00">::appThemeChanged</text>
</a>
</g>
</g>
<!-- Node2 -->
<g id="Node000002" class="node">
<title>Node2</title>
<g id="a_Node000002"><a xlink:href="classmyproject_1_1Settings.html#a6b0fa5f30d9ec1a95e509ddcda2de7fd" target="_top" xlink:title="Sets the current app theme for the application.">
<polygon fill="white" stroke="#666666" points="219,-52 107,-52 107,-22 219,-22 219,-52"/>
<text text-anchor="start" x="115" y="-40" font-family="Helvetica,sans-Serif" font-size="10.00">myproject::Settings</text>
<text text-anchor="middle" x="163" y="-29" font-family="Helvetica,sans-Serif" font-size="10.00">::setAppTheme</text>
</a>
</g>
</g>
<!-- Node1&#45;&gt;Node2 -->
<g id="edge1_Node000001_Node000002" class="edge">
<title>Node1&#45;&gt;Node2</title>
<g id="a_edge1_Node000001_Node000002"><a xlink:title=" ">
<path fill="none" stroke="#63b8ff" d="M244.66,-25.05C236.07,-26.32 227.36,-27.61 219.01,-28.85"/>
<polygon fill="#63b8ff" stroke="#63b8ff" points="245.28,-28.5 254.66,-23.57 244.26,-21.57 245.28,-28.5"/>
</a>
</g>
</g>
<!-- Node3 -->
<g id="Node000003" class="node">
<title>Node3</title>
<g id="a_Node000003"><a xlink:href="tst__settings_8cpp.html#abd5b80c5ad1ff6aa0a6bd9a8ef49b9b9" target="_top" xlink:title=" ">
<polygon fill="white" stroke="#666666" points="71,-24.5 0,-24.5 0,-5.5 71,-5.5 71,-24.5"/>
<text text-anchor="middle" x="35.5" y="-12.5" font-family="Helvetica,sans-Serif" font-size="10.00">TEST_CASE</text>
</a>
</g>
</g>
<!-- Node1&#45;&gt;Node3 -->
<g id="edge3_Node000001_Node000003" class="edge">
<title>Node1&#45;&gt;Node3</title>
<g id="a_edge3_Node000001_Node000003"><a xlink:title=" ">
<path fill="none" stroke="#63b8ff" d="M244.6,-13.38C235.98,-13.22 227.29,-13.09 219,-13 169.23,-12.47 156.77,-12.29 107,-13 95.37,-13.16 82.66,-13.48 71.28,-13.82"/>
<polygon fill="#63b8ff" stroke="#63b8ff" points="244.58,-16.88 254.65,-13.57 244.71,-9.88 244.58,-16.88"/>
</a>
</g>
</g>
<!-- Node2&#45;&gt;Node3 -->
<g id="edge2_Node000002_Node000003" class="edge">
<title>Node2&#45;&gt;Node3</title>
<g id="a_edge2_Node000002_Node000003"><a xlink:title=" ">
<path fill="none" stroke="#63b8ff" d="M96.96,-25.6C88.1,-24.05 79.31,-22.5 71.28,-21.1"/>
<polygon fill="#63b8ff" stroke="#63b8ff" points="96.5,-29.07 106.95,-27.35 97.71,-22.18 96.5,-29.07"/>
</a>
</g>
</g>
</g>
</svg>
