<?xml version="1.0" encoding="UTF-8" standalone="no"?>
<!DOCTYPE svg PUBLIC "-//W3C//DTD SVG 1.1//EN"
 "http://www.w3.org/Graphics/SVG/1.1/DTD/svg11.dtd">
<!-- Generated by graphviz version 2.43.0 (0)
 -->
<!-- Title: myproject::Settings::undoShortcutChanged Pages: 1 -->
<svg width="393pt" height="73pt"
 viewBox="0.00 0.00 393.00 72.50" xmlns="http://www.w3.org/2000/svg" xmlns:xlink="http://www.w3.org/1999/xlink">
<g id="graph0" class="graph" transform="scale(1 1) rotate(0) translate(4 68.5)">
<title>myproject::Settings::undoShortcutChanged</title>
<!-- Node1 -->
<g id="Node000001" class="node">
<title>Node1</title>
<g id="a_Node000001"><a xlink:title="Emitted when the undo shortcut is changed.">
<polygon fill="#999999" stroke="#666666" points="385,-42.5 255,-42.5 255,-12.5 385,-12.5 385,-42.5"/>
<text text-anchor="start" x="263" y="-30.5" font-family="Helvetica,sans-Serif" font-size="10.00">myproject::Settings</text>
<text text-anchor="middle" x="320" y="-19.5" font-family="Helvetica,sans-Serif" font-size="10.00">::undoShortcutChanged</text>
</a>
</g>
</g>
<!-- Node2 -->
<g id="Node000002" class="node">
<title>Node2</title>
<g id="a_Node000002"><a xlink:href="classmyproject_1_1Settings.html#a60c36981ae4c1b2799c07dd75538a46d" target="_top" xlink:title="Sets the current undo shortcut for the application.">
<polygon fill="white" stroke="#666666" points="219,-64.5 107,-64.5 107,-34.5 219,-34.5 219,-64.5"/>
<text text-anchor="start" x="115" y="-52.5" font-family="Helvetica,sans-Serif" font-size="10.00">myproject::Settings</text>
<text text-anchor="middle" x="163" y="-41.5" font-family="Helvetica,sans-Serif" font-size="10.00">::setUndoShortcut</text>
</a>
</g>
</g>
<!-- Node1&#45;&gt;Node2 -->
<g id="edge1_Node000001_Node000002" class="edge">
<title>Node1&#45;&gt;Node2</title>
<g id="a_edge1_Node000001_Node000002"><a xlink:title=" ">
<path fill="none" stroke="#63b8ff" d="M244.57,-38.06C235.98,-39.28 227.34,-40.51 219.06,-41.68"/>
<polygon fill="#63b8ff" stroke="#63b8ff" points="245.2,-41.51 254.61,-36.64 244.22,-34.58 245.2,-41.51"/>
</a>
</g>
</g>
<!-- Node4 -->
<g id="Node000004" class="node">
<title>Node4</title>
<g id="a_Node000004"><a xlink:href="tst__settings_8cpp.html#a57beb3c718464b5d49f1bb630eecdae9" target="_top" xlink:title=" ">
<polygon fill="white" stroke="#666666" points="71,-19 0,-19 0,0 71,0 71,-19"/>
<text text-anchor="middle" x="35.5" y="-7" font-family="Helvetica,sans-Serif" font-size="10.00">TEST_CASE</text>
</a>
</g>
</g>
<!-- Node1&#45;&gt;Node4 -->
<g id="edge4_Node000001_Node000004" class="edge">
<title>Node1&#45;&gt;Node4</title>
<g id="a_edge4_Node000001_Node000004"><a xlink:title=" ">
<path fill="none" stroke="#63b8ff" d="M244.64,-22.76C188.53,-19.19 114.11,-14.45 71.14,-11.71"/>
<polygon fill="#63b8ff" stroke="#63b8ff" points="244.69,-26.27 254.9,-23.42 245.14,-19.29 244.69,-26.27"/>
</a>
</g>
</g>
<!-- Node3 -->
<g id="Node000003" class="node">
<title>Node3</title>
<g id="a_Node000003"><a xlink:href="tst__settings_8cpp.html#a21102cab53cc05cb45a7ceda014091d7" target="_top" xlink:title=" ">
<polygon fill="white" stroke="#666666" points="71,-59 0,-59 0,-40 71,-40 71,-59"/>
<text text-anchor="middle" x="35.5" y="-47" font-family="Helvetica,sans-Serif" font-size="10.00">TEST_CASE</text>
</a>
</g>
</g>
<!-- Node2&#45;&gt;Node3 -->
<g id="edge2_Node000002_Node000003" class="edge">
<title>Node2&#45;&gt;Node3</title>
<g id="a_edge2_Node000002_Node000003"><a xlink:title=" ">
<path fill="none" stroke="#63b8ff" d="M96.68,-49.5C87.92,-49.5 79.22,-49.5 71.28,-49.5"/>
<polygon fill="#63b8ff" stroke="#63b8ff" points="96.95,-53 106.95,-49.5 96.95,-46 96.95,-53"/>
</a>
</g>
</g>
<!-- Node2&#45;&gt;Node4 -->
<g id="edge3_Node000002_Node000004" class="edge">
<title>Node2&#45;&gt;Node4</title>
<g id="a_edge3_Node000002_Node000004"><a xlink:title=" ">
<path fill="none" stroke="#63b8ff" d="M105.24,-31.41C91.82,-27.13 78.03,-22.74 66.35,-19.01"/>
<polygon fill="#63b8ff" stroke="#63b8ff" points="104.32,-34.79 114.91,-34.49 106.45,-28.12 104.32,-34.79"/>
</a>
</g>
</g>
</g>
</svg>
