<?xml version="1.0" encoding="UTF-8" standalone="no"?>
<!DOCTYPE svg PUBLIC "-//W3C//DTD SVG 1.1//EN"
 "http://www.w3.org/Graphics/SVG/1.1/DTD/svg11.dtd">
<!-- Generated by graphviz version 2.43.0 (0)
 -->
<!-- Title: myproject::Settings::defaultWindowOpacity Pages: 1 -->
<svg width="290pt" height="76pt"
 viewBox="0.00 0.00 290.00 75.50" xmlns="http://www.w3.org/2000/svg" xmlns:xlink="http://www.w3.org/1999/xlink">
<g id="graph0" class="graph" transform="scale(1 1) rotate(0) translate(4 71.5)">
<title>myproject::Settings::defaultWindowOpacity</title>
<!-- Node1 -->
<g id="Node000001" class="node">
<title>Node1</title>
<g id="a_Node000001"><a xlink:title="Returns the default window opacity for the application.">
<polygon fill="#999999" stroke="#666666" points="282,-51 148,-51 148,-21 282,-21 282,-51"/>
<text text-anchor="start" x="156" y="-39" font-family="Helvetica,sans-Serif" font-size="10.00">myproject::Settings</text>
<text text-anchor="middle" x="215" y="-28" font-family="Helvetica,sans-Serif" font-size="10.00">::defaultWindowOpacity</text>
</a>
</g>
</g>
<!-- Node2 -->
<g id="Node000002" class="node">
<title>Node2</title>
<g id="a_Node000002"><a xlink:href="tst__settings_8cpp.html#ad9d8c2ff30fae39b4ceba73773acf481" target="_top" xlink:title=" ">
<polygon fill="white" stroke="#666666" points="91.5,-67.5 20.5,-67.5 20.5,-48.5 91.5,-48.5 91.5,-67.5"/>
<text text-anchor="middle" x="56" y="-55.5" font-family="Helvetica,sans-Serif" font-size="10.00">TEST_CASE</text>
</a>
</g>
</g>
<!-- Node1&#45;&gt;Node2 -->
<g id="edge1_Node000001_Node000002" class="edge">
<title>Node1&#45;&gt;Node2</title>
<g id="a_edge1_Node000001_Node000002"><a xlink:title=" ">
<path fill="none" stroke="#63b8ff" d="M137.87,-46.67C121.73,-48.93 105.47,-51.21 91.79,-53.12"/>
<polygon fill="#63b8ff" stroke="#63b8ff" points="138.46,-50.12 147.87,-45.27 137.48,-43.19 138.46,-50.12"/>
</a>
</g>
</g>
<!-- Node3 -->
<g id="Node000003" class="node">
<title>Node3</title>
<g id="a_Node000003"><a xlink:href="classmyproject_1_1Settings.html#a218dac451845e014fd29c39a5633fd69" target="_top" xlink:title="Returns the current window opacity for the application.">
<polygon fill="white" stroke="#666666" points="112,-30 0,-30 0,0 112,0 112,-30"/>
<text text-anchor="start" x="8" y="-18" font-family="Helvetica,sans-Serif" font-size="10.00">myproject::Settings</text>
<text text-anchor="middle" x="56" y="-7" font-family="Helvetica,sans-Serif" font-size="10.00">::windowOpacity</text>
</a>
</g>
</g>
<!-- Node1&#45;&gt;Node3 -->
<g id="edge2_Node000001_Node000003" class="edge">
<title>Node1&#45;&gt;Node3</title>
<g id="a_edge2_Node000001_Node000003"><a xlink:title=" ">
<path fill="none" stroke="#63b8ff" d="M137.77,-25.8C129.12,-24.65 120.44,-23.49 112.14,-22.37"/>
<polygon fill="#63b8ff" stroke="#63b8ff" points="137.5,-29.3 147.87,-27.15 138.43,-22.36 137.5,-29.3"/>
</a>
</g>
</g>
</g>
</svg>
