<?xml version="1.0" encoding="UTF-8" standalone="no"?>
<!DOCTYPE svg PUBLIC "-//W3C//DTD SVG 1.1//EN"
 "http://www.w3.org/Graphics/SVG/1.1/DTD/svg11.dtd">
<!-- Generated by graphviz version 2.43.0 (0)
 -->
<!-- Title: myproject::Settings::defaultRedoShortcut Pages: 1 -->
<svg width="385pt" height="162pt"
 viewBox="0.00 0.00 385.00 161.50" xmlns="http://www.w3.org/2000/svg" xmlns:xlink="http://www.w3.org/1999/xlink">
<g id="graph0" class="graph" transform="scale(1 1) rotate(0) translate(4 157.5)">
<title>myproject::Settings::defaultRedoShortcut</title>
<!-- Node1 -->
<g id="Node000001" class="node">
<title>Node1</title>
<g id="a_Node000001"><a xlink:title="Returns the default redo shortcut for the application.">
<polygon fill="#999999" stroke="#666666" points="377,-83.5 255,-83.5 255,-53.5 377,-53.5 377,-83.5"/>
<text text-anchor="start" x="263" y="-71.5" font-family="Helvetica,sans-Serif" font-size="10.00">myproject::Settings</text>
<text text-anchor="middle" x="316" y="-60.5" font-family="Helvetica,sans-Serif" font-size="10.00">::defaultRedoShortcut</text>
</a>
</g>
</g>
<!-- Node2 -->
<g id="Node000002" class="node">
<title>Node2</title>
<g id="a_Node000002"><a xlink:href="classmyproject_1_1Settings.html#a9480f4c76fcdc257625916421a6d61eb" target="_top" xlink:title="Returns the current redo shortcut for the application.">
<polygon fill="white" stroke="#666666" points="219,-153.5 107,-153.5 107,-123.5 219,-123.5 219,-153.5"/>
<text text-anchor="start" x="115" y="-141.5" font-family="Helvetica,sans-Serif" font-size="10.00">myproject::Settings</text>
<text text-anchor="middle" x="163" y="-130.5" font-family="Helvetica,sans-Serif" font-size="10.00">::redoShortcut</text>
</a>
</g>
</g>
<!-- Node1&#45;&gt;Node2 -->
<g id="edge1_Node000001_Node000002" class="edge">
<title>Node1&#45;&gt;Node2</title>
<g id="a_edge1_Node000001_Node000002"><a xlink:title=" ">
<path fill="none" stroke="#63b8ff" d="M274.83,-88.14C257.69,-96.41 237.43,-106.07 219,-114.5 212.56,-117.45 205.66,-120.52 199,-123.45"/>
<polygon fill="#63b8ff" stroke="#63b8ff" points="276.53,-91.2 284,-83.7 273.48,-84.9 276.53,-91.2"/>
</a>
</g>
</g>
<!-- Node3 -->
<g id="Node000003" class="node">
<title>Node3</title>
<g id="a_Node000003"><a xlink:href="classmyproject_1_1Settings.html#a847dbb74022d60df6703892190ca022d" target="_top" xlink:title="Sets the current redo shortcut for the application.">
<polygon fill="white" stroke="#666666" points="219,-105.5 107,-105.5 107,-75.5 219,-75.5 219,-105.5"/>
<text text-anchor="start" x="115" y="-93.5" font-family="Helvetica,sans-Serif" font-size="10.00">myproject::Settings</text>
<text text-anchor="middle" x="163" y="-82.5" font-family="Helvetica,sans-Serif" font-size="10.00">::setRedoShortcut</text>
</a>
</g>
</g>
<!-- Node1&#45;&gt;Node3 -->
<g id="edge2_Node000001_Node000003" class="edge">
<title>Node1&#45;&gt;Node3</title>
<g id="a_edge2_Node000001_Node000003"><a xlink:title=" ">
<path fill="none" stroke="#63b8ff" d="M244.8,-78.73C236.14,-79.99 227.39,-81.26 219.01,-82.49"/>
<polygon fill="#63b8ff" stroke="#63b8ff" points="245.5,-82.16 254.89,-77.26 244.49,-75.24 245.5,-82.16"/>
</a>
</g>
</g>
<!-- Node5 -->
<g id="Node000005" class="node">
<title>Node5</title>
<g id="a_Node000005"><a xlink:href="tst__settings_8cpp.html#a21102cab53cc05cb45a7ceda014091d7" target="_top" xlink:title=" ">
<polygon fill="white" stroke="#666666" points="71,-60 0,-60 0,-41 71,-41 71,-60"/>
<text text-anchor="middle" x="35.5" y="-48" font-family="Helvetica,sans-Serif" font-size="10.00">TEST_CASE</text>
</a>
</g>
</g>
<!-- Node1&#45;&gt;Node5 -->
<g id="edge6_Node000001_Node000005" class="edge">
<title>Node1&#45;&gt;Node5</title>
<g id="a_edge6_Node000001_Node000005"><a xlink:title=" ">
<path fill="none" stroke="#63b8ff" d="M244.79,-63.96C189.32,-60.38 114.28,-55.53 71.06,-52.73"/>
<polygon fill="#63b8ff" stroke="#63b8ff" points="244.71,-67.46 254.91,-64.62 245.16,-60.48 244.71,-67.46"/>
</a>
</g>
</g>
<!-- Node6 -->
<g id="Node000006" class="node">
<title>Node6</title>
<g id="a_Node000006"><a xlink:href="tst__settings_8cpp.html#ad9d8c2ff30fae39b4ceba73773acf481" target="_top" xlink:title=" ">
<polygon fill="white" stroke="#666666" points="198.5,-19 127.5,-19 127.5,0 198.5,0 198.5,-19"/>
<text text-anchor="middle" x="163" y="-7" font-family="Helvetica,sans-Serif" font-size="10.00">TEST_CASE</text>
</a>
</g>
</g>
<!-- Node1&#45;&gt;Node6 -->
<g id="edge5_Node000001_Node000006" class="edge">
<title>Node1&#45;&gt;Node6</title>
<g id="a_edge5_Node000001_Node000006"><a xlink:title=" ">
<path fill="none" stroke="#63b8ff" d="M267.16,-49.81C241.09,-39.62 209.91,-27.44 188.7,-19.15"/>
<polygon fill="#63b8ff" stroke="#63b8ff" points="265.92,-53.08 276.51,-53.46 268.47,-46.56 265.92,-53.08"/>
</a>
</g>
</g>
<!-- Node4 -->
<g id="Node000004" class="node">
<title>Node4</title>
<g id="a_Node000004"><a xlink:href="tst__settings_8cpp.html#a982a6c91bbbc31664f39a0b84b02c062" target="_top" xlink:title=" ">
<polygon fill="white" stroke="#666666" points="71,-100 0,-100 0,-81 71,-81 71,-100"/>
<text text-anchor="middle" x="35.5" y="-88" font-family="Helvetica,sans-Serif" font-size="10.00">TEST_CASE</text>
</a>
</g>
</g>
<!-- Node3&#45;&gt;Node4 -->
<g id="edge3_Node000003_Node000004" class="edge">
<title>Node3&#45;&gt;Node4</title>
<g id="a_edge3_Node000003_Node000004"><a xlink:title=" ">
<path fill="none" stroke="#63b8ff" d="M96.68,-90.5C87.92,-90.5 79.22,-90.5 71.28,-90.5"/>
<polygon fill="#63b8ff" stroke="#63b8ff" points="96.95,-94 106.95,-90.5 96.95,-87 96.95,-94"/>
</a>
</g>
</g>
<!-- Node3&#45;&gt;Node5 -->
<g id="edge4_Node000003_Node000005" class="edge">
<title>Node3&#45;&gt;Node5</title>
<g id="a_edge4_Node000003_Node000005"><a xlink:title=" ">
<path fill="none" stroke="#63b8ff" d="M105.24,-72.41C91.82,-68.13 78.03,-63.74 66.35,-60.01"/>
<polygon fill="#63b8ff" stroke="#63b8ff" points="104.32,-75.79 114.91,-75.49 106.45,-69.12 104.32,-75.79"/>
</a>
</g>
</g>
</g>
</svg>
