<?xml version="1.0" encoding="UTF-8" standalone="no"?>
<!DOCTYPE svg PUBLIC "-//W3C//DTD SVG 1.1//EN"
 "http://www.w3.org/Graphics/SVG/1.1/DTD/svg11.dtd">
<!-- Generated by graphviz version 2.43.0 (0)
 -->
<!-- Title: myproject::Settings::defaultUndoShortcut Pages: 1 -->
<svg width="386pt" height="159pt"
 viewBox="0.00 0.00 386.00 158.50" xmlns="http://www.w3.org/2000/svg" xmlns:xlink="http://www.w3.org/1999/xlink">
<g id="graph0" class="graph" transform="scale(1 1) rotate(0) translate(4 154.5)">
<title>myproject::Settings::defaultUndoShortcut</title>
<!-- Node1 -->
<g id="Node000001" class="node">
<title>Node1</title>
<g id="a_Node000001"><a xlink:title="Returns the default undo shortcut for the application.">
<polygon fill="#999999" stroke="#666666" points="378,-94 255,-94 255,-64 378,-64 378,-94"/>
<text text-anchor="start" x="263" y="-82" font-family="Helvetica,sans-Serif" font-size="10.00">myproject::Settings</text>
<text text-anchor="middle" x="316.5" y="-71" font-family="Helvetica,sans-Serif" font-size="10.00">::defaultUndoShortcut</text>
</a>
</g>
</g>
<!-- Node2 -->
<g id="Node000002" class="node">
<title>Node2</title>
<g id="a_Node000002"><a xlink:href="classmyproject_1_1Settings.html#a60c36981ae4c1b2799c07dd75538a46d" target="_top" xlink:title="Sets the current undo shortcut for the application.">
<polygon fill="white" stroke="#666666" points="219,-116 107,-116 107,-86 219,-86 219,-116"/>
<text text-anchor="start" x="115" y="-104" font-family="Helvetica,sans-Serif" font-size="10.00">myproject::Settings</text>
<text text-anchor="middle" x="163" y="-93" font-family="Helvetica,sans-Serif" font-size="10.00">::setUndoShortcut</text>
</a>
</g>
</g>
<!-- Node1&#45;&gt;Node2 -->
<g id="edge1_Node000001_Node000002" class="edge">
<title>Node1&#45;&gt;Node2</title>
<g id="a_edge1_Node000001_Node000002"><a xlink:title=" ">
<path fill="none" stroke="#63b8ff" d="M244.8,-89.27C236.26,-90.51 227.64,-91.76 219.37,-92.96"/>
<polygon fill="#63b8ff" stroke="#63b8ff" points="245.36,-92.72 254.75,-87.82 244.35,-85.79 245.36,-92.72"/>
</a>
</g>
</g>
<!-- Node3 -->
<g id="Node000003" class="node">
<title>Node3</title>
<g id="a_Node000003"><a xlink:href="tst__settings_8cpp.html#a21102cab53cc05cb45a7ceda014091d7" target="_top" xlink:title=" ">
<polygon fill="white" stroke="#666666" points="71,-150.5 0,-150.5 0,-131.5 71,-131.5 71,-150.5"/>
<text text-anchor="middle" x="35.5" y="-138.5" font-family="Helvetica,sans-Serif" font-size="10.00">TEST_CASE</text>
</a>
</g>
</g>
<!-- Node1&#45;&gt;Node3 -->
<g id="edge5_Node000001_Node000003" class="edge">
<title>Node1&#45;&gt;Node3</title>
<g id="a_edge5_Node000001_Node000003"><a xlink:title=" ">
<path fill="none" stroke="#63b8ff" d="M281.34,-98.98C263.38,-108.51 240.65,-119.1 219,-125 168.83,-138.68 108.3,-141.41 71.11,-141.6"/>
<polygon fill="#63b8ff" stroke="#63b8ff" points="283.15,-101.97 290.26,-94.12 279.8,-95.83 283.15,-101.97"/>
</a>
</g>
</g>
<!-- Node5 -->
<g id="Node000005" class="node">
<title>Node5</title>
<g id="a_Node000005"><a xlink:href="tst__settings_8cpp.html#ad9d8c2ff30fae39b4ceba73773acf481" target="_top" xlink:title=" ">
<polygon fill="white" stroke="#666666" points="198.5,-67.5 127.5,-67.5 127.5,-48.5 198.5,-48.5 198.5,-67.5"/>
<text text-anchor="middle" x="163" y="-55.5" font-family="Helvetica,sans-Serif" font-size="10.00">TEST_CASE</text>
</a>
</g>
</g>
<!-- Node1&#45;&gt;Node5 -->
<g id="edge4_Node000001_Node000005" class="edge">
<title>Node1&#45;&gt;Node5</title>
<g id="a_edge4_Node000001_Node000005"><a xlink:title=" ">
<path fill="none" stroke="#63b8ff" d="M244.81,-69.2C228.75,-66.97 212.37,-64.71 198.6,-62.8"/>
<polygon fill="#63b8ff" stroke="#63b8ff" points="244.37,-72.67 254.75,-70.58 245.33,-65.74 244.37,-72.67"/>
</a>
</g>
</g>
<!-- Node6 -->
<g id="Node000006" class="node">
<title>Node6</title>
<g id="a_Node000006"><a xlink:href="classmyproject_1_1Settings.html#a3ffcb7f150ee67c49e731ee3e4b83b30" target="_top" xlink:title="Returns the current undo shortcut for the application.">
<polygon fill="white" stroke="#666666" points="219,-30 107,-30 107,0 219,0 219,-30"/>
<text text-anchor="start" x="115" y="-18" font-family="Helvetica,sans-Serif" font-size="10.00">myproject::Settings</text>
<text text-anchor="middle" x="163" y="-7" font-family="Helvetica,sans-Serif" font-size="10.00">::undoShortcut</text>
</a>
</g>
</g>
<!-- Node1&#45;&gt;Node6 -->
<g id="edge6_Node000001_Node000006" class="edge">
<title>Node1&#45;&gt;Node6</title>
<g id="a_edge6_Node000001_Node000006"><a xlink:title=" ">
<path fill="none" stroke="#63b8ff" d="M270.56,-60.02C247.88,-50.44 220.76,-38.98 199.56,-30.02"/>
<polygon fill="#63b8ff" stroke="#63b8ff" points="269.41,-63.33 279.98,-63.99 272.13,-56.88 269.41,-63.33"/>
</a>
</g>
</g>
<!-- Node2&#45;&gt;Node3 -->
<g id="edge2_Node000002_Node000003" class="edge">
<title>Node2&#45;&gt;Node3</title>
<g id="a_edge2_Node000002_Node000003"><a xlink:title=" ">
<path fill="none" stroke="#63b8ff" d="M105.24,-119.09C91.82,-123.37 78.03,-127.76 66.35,-131.49"/>
<polygon fill="#63b8ff" stroke="#63b8ff" points="106.45,-122.38 114.91,-116.01 104.32,-115.71 106.45,-122.38"/>
</a>
</g>
</g>
<!-- Node4 -->
<g id="Node000004" class="node">
<title>Node4</title>
<g id="a_Node000004"><a xlink:href="tst__settings_8cpp.html#a57beb3c718464b5d49f1bb630eecdae9" target="_top" xlink:title=" ">
<polygon fill="white" stroke="#666666" points="71,-110.5 0,-110.5 0,-91.5 71,-91.5 71,-110.5"/>
<text text-anchor="middle" x="35.5" y="-98.5" font-family="Helvetica,sans-Serif" font-size="10.00">TEST_CASE</text>
</a>
</g>
</g>
<!-- Node2&#45;&gt;Node4 -->
<g id="edge3_Node000002_Node000004" class="edge">
<title>Node2&#45;&gt;Node4</title>
<g id="a_edge3_Node000002_Node000004"><a xlink:title=" ">
<path fill="none" stroke="#63b8ff" d="M96.68,-101C87.92,-101 79.22,-101 71.28,-101"/>
<polygon fill="#63b8ff" stroke="#63b8ff" points="96.95,-104.5 106.95,-101 96.95,-97.5 96.95,-104.5"/>
</a>
</g>
</g>
</g>
</svg>
