<?xml version="1.0" encoding="UTF-8" standalone="no"?>
<!DOCTYPE svg PUBLIC "-//W3C//DTD SVG 1.1//EN"
 "http://www.w3.org/Graphics/SVG/1.1/DTD/svg11.dtd">
<!-- Generated by graphviz version 2.43.0 (0)
 -->
<!-- Title: myproject::Settings::setOptionsShortcut Pages: 1 -->
<svg width="302pt" height="86pt"
 viewBox="0.00 0.00 302.00 86.00" xmlns="http://www.w3.org/2000/svg" xmlns:xlink="http://www.w3.org/1999/xlink">
<g id="graph0" class="graph" transform="scale(1 1) rotate(0) translate(4 82)">
<title>myproject::Settings::setOptionsShortcut</title>
<!-- Node1 -->
<g id="Node000001" class="node">
<title>Node1</title>
<g id="a_Node000001"><a xlink:title="Sets the current options shortcut for the application.">
<polygon fill="#999999" stroke="#666666" points="116,-54 0,-54 0,-24 116,-24 116,-54"/>
<text text-anchor="start" x="8" y="-42" font-family="Helvetica,sans-Serif" font-size="10.00">myproject::Settings</text>
<text text-anchor="middle" x="58" y="-31" font-family="Helvetica,sans-Serif" font-size="10.00">::setOptionsShortcut</text>
</a>
</g>
</g>
<!-- Node2 -->
<g id="Node000002" class="node">
<title>Node2</title>
<g id="a_Node000002"><a xlink:href="classmyproject_1_1Settings.html#ab1a1ef6af237d00cc3f1e7ce9b282538" target="_top" xlink:title="Returns the default options shortcut for the application.">
<polygon fill="white" stroke="#666666" points="290.5,-78 155.5,-78 155.5,-48 290.5,-48 290.5,-78"/>
<text text-anchor="start" x="163.5" y="-66" font-family="Helvetica,sans-Serif" font-size="10.00">myproject::Settings</text>
<text text-anchor="middle" x="223" y="-55" font-family="Helvetica,sans-Serif" font-size="10.00">::defaultOptionsShortcut</text>
</a>
</g>
</g>
<!-- Node1&#45;&gt;Node2 -->
<g id="edge1_Node000001_Node000002" class="edge">
<title>Node1&#45;&gt;Node2</title>
<g id="a_edge1_Node000001_Node000002"><a xlink:title=" ">
<path fill="none" stroke="#63b8ff" d="M116.01,-47.39C125.41,-48.78 135.29,-50.23 145.09,-51.68"/>
<polygon fill="#63b8ff" stroke="#63b8ff" points="144.84,-55.18 155.24,-53.17 145.86,-48.25 144.84,-55.18"/>
</a>
</g>
</g>
<!-- Node3 -->
<g id="Node000003" class="node">
<title>Node3</title>
<g id="a_Node000003"><a xlink:href="classmyproject_1_1Settings.html#a9288082a6302c1f7a7673ff5d3087856" target="_top" xlink:title="Emitted when the options shortcut is changed.">
<polygon fill="white" stroke="#666666" points="294,-30 152,-30 152,0 294,0 294,-30"/>
<text text-anchor="start" x="160" y="-18" font-family="Helvetica,sans-Serif" font-size="10.00">myproject::Settings</text>
<text text-anchor="middle" x="223" y="-7" font-family="Helvetica,sans-Serif" font-size="10.00">::optionsShortcutChanged</text>
</a>
</g>
</g>
<!-- Node1&#45;&gt;Node3 -->
<g id="edge2_Node000001_Node000003" class="edge">
<title>Node1&#45;&gt;Node3</title>
<g id="a_edge2_Node000001_Node000003"><a xlink:title=" ">
<path fill="none" stroke="#63b8ff" d="M116.01,-30.61C124.32,-29.38 133.01,-28.1 141.68,-26.83"/>
<polygon fill="#63b8ff" stroke="#63b8ff" points="142.45,-30.25 151.83,-25.33 141.43,-23.33 142.45,-30.25"/>
</a>
</g>
</g>
</g>
</svg>
