<?xml version="1.0" encoding="UTF-8" standalone="no"?>
<!DOCTYPE svg PUBLIC "-//W3C//DTD SVG 1.1//EN"
 "http://www.w3.org/Graphics/SVG/1.1/DTD/svg11.dtd">
<!-- Generated by graphviz version 2.43.0 (0)
 -->
<!-- Title: KeySequenceEditor::setOriginalSequence Pages: 1 -->
<svg width="304pt" height="134pt"
 viewBox="0.00 0.00 304.00 134.00" xmlns="http://www.w3.org/2000/svg" xmlns:xlink="http://www.w3.org/1999/xlink">
<g id="graph0" class="graph" transform="scale(1 1) rotate(0) translate(4 130)">
<title>KeySequenceEditor::setOriginalSequence</title>
<!-- Node1 -->
<g id="Node000001" class="node">
<title>Node1</title>
<g id="a_Node000001"><a xlink:title=" ">
<polygon fill="#999999" stroke="#666666" points="117,-78 0,-78 0,-48 117,-48 117,-78"/>
<text text-anchor="start" x="8" y="-66" font-family="Helvetica,sans-Serif" font-size="10.00">KeySequenceEditor::</text>
<text text-anchor="middle" x="58.5" y="-55" font-family="Helvetica,sans-Serif" font-size="10.00">setOriginalSequence</text>
</a>
</g>
</g>
<!-- Node2 -->
<g id="Node000002" class="node">
<title>Node2</title>
<g id="a_Node000002"><a xlink:href="classKeySequenceEditor.html#ab6bdf43e6b9bc3f54de37095cf25f2d1" target="_top" xlink:title=" ">
<polygon fill="white" stroke="#666666" points="295.5,-126 153.5,-126 153.5,-96 295.5,-96 295.5,-126"/>
<text text-anchor="start" x="161.5" y="-114" font-family="Helvetica,sans-Serif" font-size="10.00">KeySequenceEditor::</text>
<text text-anchor="middle" x="224.5" y="-103" font-family="Helvetica,sans-Serif" font-size="10.00">displaySequenceChanged</text>
</a>
</g>
</g>
<!-- Node1&#45;&gt;Node2 -->
<g id="edge1_Node000001_Node000002" class="edge">
<title>Node1&#45;&gt;Node2</title>
<g id="a_edge1_Node000001_Node000002"><a xlink:title=" ">
<path fill="none" stroke="#63b8ff" d="M110.94,-78.06C127.27,-82.84 145.49,-88.17 162.44,-93.13"/>
<polygon fill="#63b8ff" stroke="#63b8ff" points="161.66,-96.55 172.24,-96 163.63,-89.83 161.66,-96.55"/>
</a>
</g>
</g>
<!-- Node3 -->
<g id="Node000003" class="node">
<title>Node3</title>
<g id="a_Node000003"><a xlink:href="classKeySequenceEditor.html#a42e335b5ee6f3842328b2a1845526f35" target="_top" xlink:title=" ">
<polygon fill="white" stroke="#666666" points="284,-78 165,-78 165,-48 284,-48 284,-78"/>
<text text-anchor="start" x="173" y="-66" font-family="Helvetica,sans-Serif" font-size="10.00">KeySequenceEditor::</text>
<text text-anchor="middle" x="224.5" y="-55" font-family="Helvetica,sans-Serif" font-size="10.00">hasChangedChanged</text>
</a>
</g>
</g>
<!-- Node1&#45;&gt;Node3 -->
<g id="edge2_Node000001_Node000003" class="edge">
<title>Node1&#45;&gt;Node3</title>
<g id="a_edge2_Node000001_Node000003"><a xlink:title=" ">
<path fill="none" stroke="#63b8ff" d="M117.32,-63C129.35,-63 142.15,-63 154.53,-63"/>
<polygon fill="#63b8ff" stroke="#63b8ff" points="154.82,-66.5 164.82,-63 154.82,-59.5 154.82,-66.5"/>
</a>
</g>
</g>
<!-- Node4 -->
<g id="Node000004" class="node">
<title>Node4</title>
<g id="a_Node000004"><a xlink:href="classKeySequenceEditor.html#ae0513df1612227c7c003181d2c83630c" target="_top" xlink:title=" ">
<polygon fill="white" stroke="#666666" points="296,-30 153,-30 153,0 296,0 296,-30"/>
<text text-anchor="start" x="161" y="-18" font-family="Helvetica,sans-Serif" font-size="10.00">KeySequenceEditor::</text>
<text text-anchor="middle" x="224.5" y="-7" font-family="Helvetica,sans-Serif" font-size="10.00">originalSequenceChanged</text>
</a>
</g>
</g>
<!-- Node1&#45;&gt;Node4 -->
<g id="edge3_Node000001_Node000004" class="edge">
<title>Node1&#45;&gt;Node4</title>
<g id="a_edge3_Node000001_Node000004"><a xlink:title=" ">
<path fill="none" stroke="#63b8ff" d="M110.94,-47.94C127.27,-43.16 145.49,-37.83 162.44,-32.87"/>
<polygon fill="#63b8ff" stroke="#63b8ff" points="163.63,-36.17 172.24,-30 161.66,-29.45 163.63,-36.17"/>
</a>
</g>
</g>
</g>
</svg>
