<?xml version="1.0" encoding="UTF-8" standalone="no"?>
<!DOCTYPE svg PUBLIC "-//W3C//DTD SVG 1.1//EN"
 "http://www.w3.org/Graphics/SVG/1.1/DTD/svg11.dtd">
<!-- Generated by graphviz version 2.43.0 (0)
 -->
<!-- Title: myproject::Settings::setNewShortcut Pages: 1 -->
<svg width="282pt" height="86pt"
 viewBox="0.00 0.00 282.00 86.00" xmlns="http://www.w3.org/2000/svg" xmlns:xlink="http://www.w3.org/1999/xlink">
<g id="graph0" class="graph" transform="scale(1 1) rotate(0) translate(4 82)">
<title>myproject::Settings::setNewShortcut</title>
<!-- Node1 -->
<g id="Node000001" class="node">
<title>Node1</title>
<g id="a_Node000001"><a xlink:title="Sets the current new shortcut for the application.">
<polygon fill="#999999" stroke="#666666" points="112,-54 0,-54 0,-24 112,-24 112,-54"/>
<text text-anchor="start" x="8" y="-42" font-family="Helvetica,sans-Serif" font-size="10.00">myproject::Settings</text>
<text text-anchor="middle" x="56" y="-31" font-family="Helvetica,sans-Serif" font-size="10.00">::setNewShortcut</text>
</a>
</g>
</g>
<!-- Node2 -->
<g id="Node000002" class="node">
<title>Node2</title>
<g id="a_Node000002"><a xlink:href="classmyproject_1_1Settings.html#ae1758a160f0afd96feaed24ddcdd6189" target="_top" xlink:title="Returns the default new shortcut for the application.">
<polygon fill="white" stroke="#666666" points="270.5,-78 151.5,-78 151.5,-48 270.5,-48 270.5,-78"/>
<text text-anchor="start" x="159.5" y="-66" font-family="Helvetica,sans-Serif" font-size="10.00">myproject::Settings</text>
<text text-anchor="middle" x="211" y="-55" font-family="Helvetica,sans-Serif" font-size="10.00">::defaultNewShortcut</text>
</a>
</g>
</g>
<!-- Node1&#45;&gt;Node2 -->
<g id="edge1_Node000001_Node000002" class="edge">
<title>Node1&#45;&gt;Node2</title>
<g id="a_edge1_Node000001_Node000002"><a xlink:title=" ">
<path fill="none" stroke="#63b8ff" d="M112.24,-47.66C121.7,-49.15 131.64,-50.71 141.4,-52.24"/>
<polygon fill="#63b8ff" stroke="#63b8ff" points="141.07,-55.73 151.49,-53.82 142.15,-48.81 141.07,-55.73"/>
</a>
</g>
</g>
<!-- Node3 -->
<g id="Node000003" class="node">
<title>Node3</title>
<g id="a_Node000003"><a xlink:href="classmyproject_1_1Settings.html#a81e53e5d111a3c2d92e037d07c3b7fe7" target="_top" xlink:title="Emitted when the new shortcut is changed.">
<polygon fill="white" stroke="#666666" points="274,-30 148,-30 148,0 274,0 274,-30"/>
<text text-anchor="start" x="156" y="-18" font-family="Helvetica,sans-Serif" font-size="10.00">myproject::Settings</text>
<text text-anchor="middle" x="211" y="-7" font-family="Helvetica,sans-Serif" font-size="10.00">::newShortcutChanged</text>
</a>
</g>
</g>
<!-- Node1&#45;&gt;Node3 -->
<g id="edge2_Node000001_Node000003" class="edge">
<title>Node1&#45;&gt;Node3</title>
<g id="a_edge2_Node000001_Node000003"><a xlink:title=" ">
<path fill="none" stroke="#63b8ff" d="M112.24,-30.34C120.54,-29.03 129.21,-27.67 137.81,-26.32"/>
<polygon fill="#63b8ff" stroke="#63b8ff" points="138.5,-29.76 147.84,-24.75 137.42,-22.84 138.5,-29.76"/>
</a>
</g>
</g>
</g>
</svg>
