<?xml version="1.0" encoding="UTF-8" standalone="no"?>
<!DOCTYPE svg PUBLIC "-//W3C//DTD SVG 1.1//EN"
 "http://www.w3.org/Graphics/SVG/1.1/DTD/svg11.dtd">
<!-- Generated by graphviz version 2.43.0 (0)
 -->
<!-- Title: myproject::Settings::defaultQuitShortcut Pages: 1 -->
<svg width="381pt" height="162pt"
 viewBox="0.00 0.00 381.00 161.50" xmlns="http://www.w3.org/2000/svg" xmlns:xlink="http://www.w3.org/1999/xlink">
<g id="graph0" class="graph" transform="scale(1 1) rotate(0) translate(4 157.5)">
<title>myproject::Settings::defaultQuitShortcut</title>
<!-- Node1 -->
<g id="Node000001" class="node">
<title>Node1</title>
<g id="a_Node000001"><a xlink:title="Returns the default quit shortcut for the application.">
<polygon fill="#999999" stroke="#666666" points="373,-83.5 255,-83.5 255,-53.5 373,-53.5 373,-83.5"/>
<text text-anchor="start" x="263" y="-71.5" font-family="Helvetica,sans-Serif" font-size="10.00">myproject::Settings</text>
<text text-anchor="middle" x="314" y="-60.5" font-family="Helvetica,sans-Serif" font-size="10.00">::defaultQuitShortcut</text>
</a>
</g>
</g>
<!-- Node2 -->
<g id="Node000002" class="node">
<title>Node2</title>
<g id="a_Node000002"><a xlink:href="classmyproject_1_1Settings.html#a93d66a51e2a318daf88f6902009fdb61" target="_top" xlink:title="Returns the current quit shortcut for the application.">
<polygon fill="white" stroke="#666666" points="219,-153.5 107,-153.5 107,-123.5 219,-123.5 219,-153.5"/>
<text text-anchor="start" x="115" y="-141.5" font-family="Helvetica,sans-Serif" font-size="10.00">myproject::Settings</text>
<text text-anchor="middle" x="163" y="-130.5" font-family="Helvetica,sans-Serif" font-size="10.00">::quitShortcut</text>
</a>
</g>
</g>
<!-- Node1&#45;&gt;Node2 -->
<g id="edge1_Node000001_Node000002" class="edge">
<title>Node1&#45;&gt;Node2</title>
<g id="a_edge1_Node000001_Node000002"><a xlink:title=" ">
<path fill="none" stroke="#63b8ff" d="M274.09,-88.01C257.24,-96.34 237.23,-106.07 219,-114.5 212.57,-117.47 205.68,-120.56 199.02,-123.49"/>
<polygon fill="#63b8ff" stroke="#63b8ff" points="275.7,-91.12 283.1,-83.54 272.59,-84.85 275.7,-91.12"/>
</a>
</g>
</g>
<!-- Node3 -->
<g id="Node000003" class="node">
<title>Node3</title>
<g id="a_Node000003"><a xlink:href="classmyproject_1_1Settings.html#a912bd9f2cf554030010dedc4a136a4ff" target="_top" xlink:title="Sets the current quit shortcut for the application.">
<polygon fill="white" stroke="#666666" points="219,-105.5 107,-105.5 107,-75.5 219,-75.5 219,-105.5"/>
<text text-anchor="start" x="115" y="-93.5" font-family="Helvetica,sans-Serif" font-size="10.00">myproject::Settings</text>
<text text-anchor="middle" x="163" y="-82.5" font-family="Helvetica,sans-Serif" font-size="10.00">::setQuitShortcut</text>
</a>
</g>
</g>
<!-- Node1&#45;&gt;Node3 -->
<g id="edge2_Node000001_Node000003" class="edge">
<title>Node1&#45;&gt;Node3</title>
<g id="a_edge2_Node000001_Node000003"><a xlink:title=" ">
<path fill="none" stroke="#63b8ff" d="M244.93,-78.55C236.31,-79.82 227.58,-81.11 219.19,-82.35"/>
<polygon fill="#63b8ff" stroke="#63b8ff" points="245.58,-81.99 254.97,-77.07 244.56,-75.07 245.58,-81.99"/>
</a>
</g>
</g>
<!-- Node5 -->
<g id="Node000005" class="node">
<title>Node5</title>
<g id="a_Node000005"><a xlink:href="tst__settings_8cpp.html#a21102cab53cc05cb45a7ceda014091d7" target="_top" xlink:title=" ">
<polygon fill="white" stroke="#666666" points="71,-60 0,-60 0,-41 71,-41 71,-60"/>
<text text-anchor="middle" x="35.5" y="-48" font-family="Helvetica,sans-Serif" font-size="10.00">TEST_CASE</text>
</a>
</g>
</g>
<!-- Node1&#45;&gt;Node5 -->
<g id="edge6_Node000001_Node000005" class="edge">
<title>Node1&#45;&gt;Node5</title>
<g id="a_edge6_Node000001_Node000005"><a xlink:title=" ">
<path fill="none" stroke="#63b8ff" d="M244.67,-64.05C189.61,-60.47 114.48,-55.58 71.16,-52.76"/>
<polygon fill="#63b8ff" stroke="#63b8ff" points="244.49,-67.55 254.7,-64.7 244.95,-60.56 244.49,-67.55"/>
</a>
</g>
</g>
<!-- Node6 -->
<g id="Node000006" class="node">
<title>Node6</title>
<g id="a_Node000006"><a xlink:href="tst__settings_8cpp.html#ad9d8c2ff30fae39b4ceba73773acf481" target="_top" xlink:title=" ">
<polygon fill="white" stroke="#666666" points="198.5,-19 127.5,-19 127.5,0 198.5,0 198.5,-19"/>
<text text-anchor="middle" x="163" y="-7" font-family="Helvetica,sans-Serif" font-size="10.00">TEST_CASE</text>
</a>
</g>
</g>
<!-- Node1&#45;&gt;Node6 -->
<g id="edge5_Node000001_Node000006" class="edge">
<title>Node1&#45;&gt;Node6</title>
<g id="a_edge5_Node000001_Node000006"><a xlink:title=" ">
<path fill="none" stroke="#63b8ff" d="M265.45,-49.67C239.79,-39.51 209.21,-27.4 188.37,-19.15"/>
<polygon fill="#63b8ff" stroke="#63b8ff" points="264.43,-53.03 275.02,-53.46 267.01,-46.52 264.43,-53.03"/>
</a>
</g>
</g>
<!-- Node4 -->
<g id="Node000004" class="node">
<title>Node4</title>
<g id="a_Node000004"><a xlink:href="tst__settings_8cpp.html#abbef4b32fa1bb7655438319bdba67165" target="_top" xlink:title=" ">
<polygon fill="white" stroke="#666666" points="71,-100 0,-100 0,-81 71,-81 71,-100"/>
<text text-anchor="middle" x="35.5" y="-88" font-family="Helvetica,sans-Serif" font-size="10.00">TEST_CASE</text>
</a>
</g>
</g>
<!-- Node3&#45;&gt;Node4 -->
<g id="edge3_Node000003_Node000004" class="edge">
<title>Node3&#45;&gt;Node4</title>
<g id="a_edge3_Node000003_Node000004"><a xlink:title=" ">
<path fill="none" stroke="#63b8ff" d="M96.68,-90.5C87.92,-90.5 79.22,-90.5 71.28,-90.5"/>
<polygon fill="#63b8ff" stroke="#63b8ff" points="96.95,-94 106.95,-90.5 96.95,-87 96.95,-94"/>
</a>
</g>
</g>
<!-- Node3&#45;&gt;Node5 -->
<g id="edge4_Node000003_Node000005" class="edge">
<title>Node3&#45;&gt;Node5</title>
<g id="a_edge4_Node000003_Node000005"><a xlink:title=" ">
<path fill="none" stroke="#63b8ff" d="M105.24,-72.41C91.82,-68.13 78.03,-63.74 66.35,-60.01"/>
<polygon fill="#63b8ff" stroke="#63b8ff" points="104.32,-75.79 114.91,-75.49 106.45,-69.12 104.32,-75.79"/>
</a>
</g>
</g>
</g>
</svg>
