<?xml version="1.0" encoding="UTF-8" standalone="no"?>
<!DOCTYPE svg PUBLIC "-//W3C//DTD SVG 1.1//EN"
 "http://www.w3.org/Graphics/SVG/1.1/DTD/svg11.dtd">
<!-- Generated by graphviz version 2.43.0 (0)
 -->
<!-- Title: myproject::Settings::defaultCutShortcut Pages: 1 -->
<svg width="377pt" height="162pt"
 viewBox="0.00 0.00 377.00 161.50" xmlns="http://www.w3.org/2000/svg" xmlns:xlink="http://www.w3.org/1999/xlink">
<g id="graph0" class="graph" transform="scale(1 1) rotate(0) translate(4 157.5)">
<title>myproject::Settings::defaultCutShortcut</title>
<!-- Node1 -->
<g id="Node000001" class="node">
<title>Node1</title>
<g id="a_Node000001"><a xlink:title="Returns the default cut shortcut for the application.">
<polygon fill="#999999" stroke="#666666" points="369,-83.5 255,-83.5 255,-53.5 369,-53.5 369,-83.5"/>
<text text-anchor="start" x="263" y="-71.5" font-family="Helvetica,sans-Serif" font-size="10.00">myproject::Settings</text>
<text text-anchor="middle" x="312" y="-60.5" font-family="Helvetica,sans-Serif" font-size="10.00">::defaultCutShortcut</text>
</a>
</g>
</g>
<!-- Node2 -->
<g id="Node000002" class="node">
<title>Node2</title>
<g id="a_Node000002"><a xlink:href="classmyproject_1_1Settings.html#a52f14fe0f69553795a10fadd63d393bf" target="_top" xlink:title="Returns the current cut shortcut for the application.">
<polygon fill="white" stroke="#666666" points="219,-153.5 107,-153.5 107,-123.5 219,-123.5 219,-153.5"/>
<text text-anchor="start" x="115" y="-141.5" font-family="Helvetica,sans-Serif" font-size="10.00">myproject::Settings</text>
<text text-anchor="middle" x="163" y="-130.5" font-family="Helvetica,sans-Serif" font-size="10.00">::cutShortcut</text>
</a>
</g>
</g>
<!-- Node1&#45;&gt;Node2 -->
<g id="edge1_Node000001_Node000002" class="edge">
<title>Node1&#45;&gt;Node2</title>
<g id="a_edge1_Node000001_Node000002"><a xlink:title=" ">
<path fill="none" stroke="#63b8ff" d="M272.5,-88.31C256.11,-96.6 236.71,-106.21 219,-114.5 212.68,-117.46 205.9,-120.51 199.33,-123.41"/>
<polygon fill="#63b8ff" stroke="#63b8ff" points="274.44,-91.25 281.77,-83.6 271.27,-85.01 274.44,-91.25"/>
</a>
</g>
</g>
<!-- Node3 -->
<g id="Node000003" class="node">
<title>Node3</title>
<g id="a_Node000003"><a xlink:href="classmyproject_1_1Settings.html#af899ea9e4b0db3844add3572d43a717c" target="_top" xlink:title="Sets the current cut shortcut for the application.">
<polygon fill="white" stroke="#666666" points="219,-105.5 107,-105.5 107,-75.5 219,-75.5 219,-105.5"/>
<text text-anchor="start" x="115" y="-93.5" font-family="Helvetica,sans-Serif" font-size="10.00">myproject::Settings</text>
<text text-anchor="middle" x="163" y="-82.5" font-family="Helvetica,sans-Serif" font-size="10.00">::setCutShortcut</text>
</a>
</g>
</g>
<!-- Node1&#45;&gt;Node3 -->
<g id="edge2_Node000001_Node000003" class="edge">
<title>Node1&#45;&gt;Node3</title>
<g id="a_edge2_Node000001_Node000003"><a xlink:title=" ">
<path fill="none" stroke="#63b8ff" d="M244.63,-78.43C236.08,-79.71 227.4,-81.01 219.05,-82.26"/>
<polygon fill="#63b8ff" stroke="#63b8ff" points="245.21,-81.88 254.59,-76.94 244.18,-74.96 245.21,-81.88"/>
</a>
</g>
</g>
<!-- Node5 -->
<g id="Node000005" class="node">
<title>Node5</title>
<g id="a_Node000005"><a xlink:href="tst__settings_8cpp.html#a21102cab53cc05cb45a7ceda014091d7" target="_top" xlink:title=" ">
<polygon fill="white" stroke="#666666" points="71,-60 0,-60 0,-41 71,-41 71,-60"/>
<text text-anchor="middle" x="35.5" y="-48" font-family="Helvetica,sans-Serif" font-size="10.00">TEST_CASE</text>
</a>
</g>
</g>
<!-- Node1&#45;&gt;Node5 -->
<g id="edge6_Node000001_Node000005" class="edge">
<title>Node1&#45;&gt;Node5</title>
<g id="a_edge6_Node000001_Node000005"><a xlink:title=" ">
<path fill="none" stroke="#63b8ff" d="M244.5,-64.14C189.92,-60.56 114.77,-55.63 71.35,-52.79"/>
<polygon fill="#63b8ff" stroke="#63b8ff" points="244.58,-67.65 254.79,-64.81 245.04,-60.67 244.58,-67.65"/>
</a>
</g>
</g>
<!-- Node6 -->
<g id="Node000006" class="node">
<title>Node6</title>
<g id="a_Node000006"><a xlink:href="tst__settings_8cpp.html#ad9d8c2ff30fae39b4ceba73773acf481" target="_top" xlink:title=" ">
<polygon fill="white" stroke="#666666" points="198.5,-19 127.5,-19 127.5,0 198.5,0 198.5,-19"/>
<text text-anchor="middle" x="163" y="-7" font-family="Helvetica,sans-Serif" font-size="10.00">TEST_CASE</text>
</a>
</g>
</g>
<!-- Node1&#45;&gt;Node6 -->
<g id="edge5_Node000001_Node000006" class="edge">
<title>Node1&#45;&gt;Node6</title>
<g id="a_edge5_Node000001_Node000006"><a xlink:title=" ">
<path fill="none" stroke="#63b8ff" d="M264.09,-49.67C238.78,-39.51 208.6,-27.4 188.05,-19.15"/>
<polygon fill="#63b8ff" stroke="#63b8ff" points="262.94,-52.98 273.53,-53.46 265.55,-46.49 262.94,-52.98"/>
</a>
</g>
</g>
<!-- Node4 -->
<g id="Node000004" class="node">
<title>Node4</title>
<g id="a_Node000004"><a xlink:href="tst__settings_8cpp.html#a8a9d7d1bb87c5534e9174a0978389396" target="_top" xlink:title=" ">
<polygon fill="white" stroke="#666666" points="71,-100 0,-100 0,-81 71,-81 71,-100"/>
<text text-anchor="middle" x="35.5" y="-88" font-family="Helvetica,sans-Serif" font-size="10.00">TEST_CASE</text>
</a>
</g>
</g>
<!-- Node3&#45;&gt;Node4 -->
<g id="edge3_Node000003_Node000004" class="edge">
<title>Node3&#45;&gt;Node4</title>
<g id="a_edge3_Node000003_Node000004"><a xlink:title=" ">
<path fill="none" stroke="#63b8ff" d="M96.68,-90.5C87.92,-90.5 79.22,-90.5 71.28,-90.5"/>
<polygon fill="#63b8ff" stroke="#63b8ff" points="96.95,-94 106.95,-90.5 96.95,-87 96.95,-94"/>
</a>
</g>
</g>
<!-- Node3&#45;&gt;Node5 -->
<g id="edge4_Node000003_Node000005" class="edge">
<title>Node3&#45;&gt;Node5</title>
<g id="a_edge4_Node000003_Node000005"><a xlink:title=" ">
<path fill="none" stroke="#63b8ff" d="M105.24,-72.41C91.82,-68.13 78.03,-63.74 66.35,-60.01"/>
<polygon fill="#63b8ff" stroke="#63b8ff" points="104.32,-75.79 114.91,-75.49 106.45,-69.12 104.32,-75.79"/>
</a>
</g>
</g>
</g>
</svg>
