<?xml version="1.0" encoding="UTF-8" standalone="no"?>
<!DOCTYPE svg PUBLIC "-//W3C//DTD SVG 1.1//EN"
 "http://www.w3.org/Graphics/SVG/1.1/DTD/svg11.dtd">
<!-- Generated by graphviz version 2.43.0 (0)
 -->
<!-- Title: myproject::Settings::setQuitShortcut Pages: 1 -->
<svg width="281pt" height="86pt"
 viewBox="0.00 0.00 281.00 86.00" xmlns="http://www.w3.org/2000/svg" xmlns:xlink="http://www.w3.org/1999/xlink">
<g id="graph0" class="graph" transform="scale(1 1) rotate(0) translate(4 82)">
<title>myproject::Settings::setQuitShortcut</title>
<!-- Node1 -->
<g id="Node000001" class="node">
<title>Node1</title>
<g id="a_Node000001"><a xlink:title="Sets the current quit shortcut for the application.">
<polygon fill="#999999" stroke="#666666" points="112,-54 0,-54 0,-24 112,-24 112,-54"/>
<text text-anchor="start" x="8" y="-42" font-family="Helvetica,sans-Serif" font-size="10.00">myproject::Settings</text>
<text text-anchor="middle" x="56" y="-31" font-family="Helvetica,sans-Serif" font-size="10.00">::setQuitShortcut</text>
</a>
</g>
</g>
<!-- Node2 -->
<g id="Node000002" class="node">
<title>Node2</title>
<g id="a_Node000002"><a xlink:href="classmyproject_1_1Settings.html#ab1d031494a6ee6b8a4bf6ddd576407bf" target="_top" xlink:title="Returns the default quit shortcut for the application.">
<polygon fill="white" stroke="#666666" points="269.5,-78 151.5,-78 151.5,-48 269.5,-48 269.5,-78"/>
<text text-anchor="start" x="159.5" y="-66" font-family="Helvetica,sans-Serif" font-size="10.00">myproject::Settings</text>
<text text-anchor="middle" x="210.5" y="-55" font-family="Helvetica,sans-Serif" font-size="10.00">::defaultQuitShortcut</text>
</a>
</g>
</g>
<!-- Node1&#45;&gt;Node2 -->
<g id="edge1_Node000001_Node000002" class="edge">
<title>Node1&#45;&gt;Node2</title>
<g id="a_edge1_Node000001_Node000002"><a xlink:title=" ">
<path fill="none" stroke="#63b8ff" d="M112.06,-47.66C121.55,-49.16 131.53,-50.73 141.32,-52.27"/>
<polygon fill="#63b8ff" stroke="#63b8ff" points="141.02,-55.77 151.44,-53.86 142.1,-48.85 141.02,-55.77"/>
</a>
</g>
</g>
<!-- Node3 -->
<g id="Node000003" class="node">
<title>Node3</title>
<g id="a_Node000003"><a xlink:href="classmyproject_1_1Settings.html#aad13bda42478ac1136c430547bc1e37d" target="_top" xlink:title="Emitted when the quit shortcut is changed.">
<polygon fill="white" stroke="#666666" points="273,-30 148,-30 148,0 273,0 273,-30"/>
<text text-anchor="start" x="156" y="-18" font-family="Helvetica,sans-Serif" font-size="10.00">myproject::Settings</text>
<text text-anchor="middle" x="210.5" y="-7" font-family="Helvetica,sans-Serif" font-size="10.00">::quitShortcutChanged</text>
</a>
</g>
</g>
<!-- Node1&#45;&gt;Node3 -->
<g id="edge2_Node000001_Node000003" class="edge">
<title>Node1&#45;&gt;Node3</title>
<g id="a_edge2_Node000001_Node000003"><a xlink:title=" ">
<path fill="none" stroke="#63b8ff" d="M112.06,-30.34C120.4,-29.02 129.1,-27.65 137.73,-26.29"/>
<polygon fill="#63b8ff" stroke="#63b8ff" points="138.47,-29.72 147.8,-24.71 137.38,-22.81 138.47,-29.72"/>
</a>
</g>
</g>
</g>
</svg>
