<?xml version="1.0" encoding="UTF-8" standalone="no"?>
<!DOCTYPE svg PUBLIC "-//W3C//DTD SVG 1.1//EN"
 "http://www.w3.org/Graphics/SVG/1.1/DTD/svg11.dtd">
<!-- Generated by graphviz version 2.43.0 (0)
 -->
<!-- Title: myproject::Settings::defaultOpenShortcut Pages: 1 -->
<svg width="386pt" height="162pt"
 viewBox="0.00 0.00 386.00 161.50" xmlns="http://www.w3.org/2000/svg" xmlns:xlink="http://www.w3.org/1999/xlink">
<g id="graph0" class="graph" transform="scale(1 1) rotate(0) translate(4 157.5)">
<title>myproject::Settings::defaultOpenShortcut</title>
<!-- Node1 -->
<g id="Node000001" class="node">
<title>Node1</title>
<g id="a_Node000001"><a xlink:title="Returns the default open shortcut for the application.">
<polygon fill="#999999" stroke="#666666" points="378,-83.5 255,-83.5 255,-53.5 378,-53.5 378,-83.5"/>
<text text-anchor="start" x="263" y="-71.5" font-family="Helvetica,sans-Serif" font-size="10.00">myproject::Settings</text>
<text text-anchor="middle" x="316.5" y="-60.5" font-family="Helvetica,sans-Serif" font-size="10.00">::defaultOpenShortcut</text>
</a>
</g>
</g>
<!-- Node2 -->
<g id="Node000002" class="node">
<title>Node2</title>
<g id="a_Node000002"><a xlink:href="classmyproject_1_1Settings.html#a8ec95c588635f70ab7fa6dbb2280bebe" target="_top" xlink:title="Returns the current open shortcut for the application.">
<polygon fill="white" stroke="#666666" points="219,-153.5 107,-153.5 107,-123.5 219,-123.5 219,-153.5"/>
<text text-anchor="start" x="115" y="-141.5" font-family="Helvetica,sans-Serif" font-size="10.00">myproject::Settings</text>
<text text-anchor="middle" x="163" y="-130.5" font-family="Helvetica,sans-Serif" font-size="10.00">::openShortcut</text>
</a>
</g>
</g>
<!-- Node1&#45;&gt;Node2 -->
<g id="edge1_Node000001_Node000002" class="edge">
<title>Node1&#45;&gt;Node2</title>
<g id="a_edge1_Node000001_Node000002"><a xlink:title=" ">
<path fill="none" stroke="#63b8ff" d="M275.11,-88.12C257.89,-96.39 237.52,-106.05 219,-114.5 212.56,-117.44 205.65,-120.51 198.99,-123.44"/>
<polygon fill="#63b8ff" stroke="#63b8ff" points="276.84,-91.17 284.33,-83.68 273.8,-84.87 276.84,-91.17"/>
</a>
</g>
</g>
<!-- Node3 -->
<g id="Node000003" class="node">
<title>Node3</title>
<g id="a_Node000003"><a xlink:href="classmyproject_1_1Settings.html#aedb7ec5a225dc077c1377b2d769edbc4" target="_top" xlink:title="Sets the current open shortcut for the application.">
<polygon fill="white" stroke="#666666" points="219,-105.5 107,-105.5 107,-75.5 219,-75.5 219,-105.5"/>
<text text-anchor="start" x="115" y="-93.5" font-family="Helvetica,sans-Serif" font-size="10.00">myproject::Settings</text>
<text text-anchor="middle" x="163" y="-82.5" font-family="Helvetica,sans-Serif" font-size="10.00">::setOpenShortcut</text>
</a>
</g>
</g>
<!-- Node1&#45;&gt;Node3 -->
<g id="edge2_Node000001_Node000003" class="edge">
<title>Node1&#45;&gt;Node3</title>
<g id="a_edge2_Node000001_Node000003"><a xlink:title=" ">
<path fill="none" stroke="#63b8ff" d="M244.8,-78.77C236.26,-80.01 227.64,-81.26 219.37,-82.46"/>
<polygon fill="#63b8ff" stroke="#63b8ff" points="245.36,-82.22 254.75,-77.32 244.35,-75.29 245.36,-82.22"/>
</a>
</g>
</g>
<!-- Node5 -->
<g id="Node000005" class="node">
<title>Node5</title>
<g id="a_Node000005"><a xlink:href="tst__settings_8cpp.html#a21102cab53cc05cb45a7ceda014091d7" target="_top" xlink:title=" ">
<polygon fill="white" stroke="#666666" points="71,-60 0,-60 0,-41 71,-41 71,-60"/>
<text text-anchor="middle" x="35.5" y="-48" font-family="Helvetica,sans-Serif" font-size="10.00">TEST_CASE</text>
</a>
</g>
</g>
<!-- Node1&#45;&gt;Node5 -->
<g id="edge6_Node000001_Node000005" class="edge">
<title>Node1&#45;&gt;Node5</title>
<g id="a_edge6_Node000001_Node000005"><a xlink:title=" ">
<path fill="none" stroke="#63b8ff" d="M244.82,-63.94C189.25,-60.35 114.22,-55.51 71.03,-52.73"/>
<polygon fill="#63b8ff" stroke="#63b8ff" points="244.76,-67.44 254.96,-64.59 245.21,-60.46 244.76,-67.44"/>
</a>
</g>
</g>
<!-- Node6 -->
<g id="Node000006" class="node">
<title>Node6</title>
<g id="a_Node000006"><a xlink:href="tst__settings_8cpp.html#ad9d8c2ff30fae39b4ceba73773acf481" target="_top" xlink:title=" ">
<polygon fill="white" stroke="#666666" points="198.5,-19 127.5,-19 127.5,0 198.5,0 198.5,-19"/>
<text text-anchor="middle" x="163" y="-7" font-family="Helvetica,sans-Serif" font-size="10.00">TEST_CASE</text>
</a>
</g>
</g>
<!-- Node1&#45;&gt;Node6 -->
<g id="edge5_Node000001_Node000006" class="edge">
<title>Node1&#45;&gt;Node6</title>
<g id="a_edge5_Node000001_Node000006"><a xlink:title=" ">
<path fill="none" stroke="#63b8ff" d="M267.5,-49.81C241.34,-39.62 210.06,-27.44 188.78,-19.15"/>
<polygon fill="#63b8ff" stroke="#63b8ff" points="266.29,-53.09 276.88,-53.46 268.83,-46.57 266.29,-53.09"/>
</a>
</g>
</g>
<!-- Node4 -->
<g id="Node000004" class="node">
<title>Node4</title>
<g id="a_Node000004"><a xlink:href="tst__settings_8cpp.html#ac2d312847a22728cccf042d7b3dba2e4" target="_top" xlink:title=" ">
<polygon fill="white" stroke="#666666" points="71,-100 0,-100 0,-81 71,-81 71,-100"/>
<text text-anchor="middle" x="35.5" y="-88" font-family="Helvetica,sans-Serif" font-size="10.00">TEST_CASE</text>
</a>
</g>
</g>
<!-- Node3&#45;&gt;Node4 -->
<g id="edge3_Node000003_Node000004" class="edge">
<title>Node3&#45;&gt;Node4</title>
<g id="a_edge3_Node000003_Node000004"><a xlink:title=" ">
<path fill="none" stroke="#63b8ff" d="M96.68,-90.5C87.92,-90.5 79.22,-90.5 71.28,-90.5"/>
<polygon fill="#63b8ff" stroke="#63b8ff" points="96.95,-94 106.95,-90.5 96.95,-87 96.95,-94"/>
</a>
</g>
</g>
<!-- Node3&#45;&gt;Node5 -->
<g id="edge4_Node000003_Node000005" class="edge">
<title>Node3&#45;&gt;Node5</title>
<g id="a_edge4_Node000003_Node000005"><a xlink:title=" ">
<path fill="none" stroke="#63b8ff" d="M105.24,-72.41C91.82,-68.13 78.03,-63.74 66.35,-60.01"/>
<polygon fill="#63b8ff" stroke="#63b8ff" points="104.32,-75.79 114.91,-75.49 106.45,-69.12 104.32,-75.79"/>
</a>
</g>
</g>
</g>
</svg>
