<?xml version="1.0" encoding="UTF-8" standalone="no"?>
<!DOCTYPE svg PUBLIC "-//W3C//DTD SVG 1.1//EN"
 "http://www.w3.org/Graphics/SVG/1.1/DTD/svg11.dtd">
<!-- Generated by graphviz version 2.43.0 (0)
 -->
<!-- Title: myproject::Settings::newShortcutChanged Pages: 1 -->
<svg width="389pt" height="73pt"
 viewBox="0.00 0.00 389.00 72.50" xmlns="http://www.w3.org/2000/svg" xmlns:xlink="http://www.w3.org/1999/xlink">
<g id="graph0" class="graph" transform="scale(1 1) rotate(0) translate(4 68.5)">
<title>myproject::Settings::newShortcutChanged</title>
<!-- Node1 -->
<g id="Node000001" class="node">
<title>Node1</title>
<g id="a_Node000001"><a xlink:title="Emitted when the new shortcut is changed.">
<polygon fill="#999999" stroke="#666666" points="381,-51 255,-51 255,-21 381,-21 381,-51"/>
<text text-anchor="start" x="263" y="-39" font-family="Helvetica,sans-Serif" font-size="10.00">myproject::Settings</text>
<text text-anchor="middle" x="318" y="-28" font-family="Helvetica,sans-Serif" font-size="10.00">::newShortcutChanged</text>
</a>
</g>
</g>
<!-- Node2 -->
<g id="Node000002" class="node">
<title>Node2</title>
<g id="a_Node000002"><a xlink:href="classmyproject_1_1Settings.html#a4cf08fce6d8b9d2721f40da992444dce" target="_top" xlink:title="Sets the current new shortcut for the application.">
<polygon fill="white" stroke="#666666" points="219,-30 107,-30 107,0 219,0 219,-30"/>
<text text-anchor="start" x="115" y="-18" font-family="Helvetica,sans-Serif" font-size="10.00">myproject::Settings</text>
<text text-anchor="middle" x="163" y="-7" font-family="Helvetica,sans-Serif" font-size="10.00">::setNewShortcut</text>
</a>
</g>
</g>
<!-- Node1&#45;&gt;Node2 -->
<g id="edge1_Node000001_Node000002" class="edge">
<title>Node1&#45;&gt;Node2</title>
<g id="a_edge1_Node000001_Node000002"><a xlink:title=" ">
<path fill="none" stroke="#63b8ff" d="M244.77,-26.09C236.21,-24.91 227.57,-23.73 219.29,-22.59"/>
<polygon fill="#63b8ff" stroke="#63b8ff" points="244.39,-29.57 254.77,-27.46 245.34,-22.63 244.39,-29.57"/>
</a>
</g>
</g>
<!-- Node3 -->
<g id="Node000003" class="node">
<title>Node3</title>
<g id="a_Node000003"><a xlink:href="tst__settings_8cpp.html#a18696d5364bebc6847e2540243cadb63" target="_top" xlink:title=" ">
<polygon fill="white" stroke="#666666" points="71,-64.5 0,-64.5 0,-45.5 71,-45.5 71,-64.5"/>
<text text-anchor="middle" x="35.5" y="-52.5" font-family="Helvetica,sans-Serif" font-size="10.00">TEST_CASE</text>
</a>
</g>
</g>
<!-- Node1&#45;&gt;Node3 -->
<g id="edge4_Node000001_Node000003" class="edge">
<title>Node1&#45;&gt;Node3</title>
<g id="a_edge4_Node000001_Node000003"><a xlink:title=" ">
<path fill="none" stroke="#63b8ff" d="M244.58,-40.91C188.86,-44.68 114.33,-49.73 71.26,-52.65"/>
<polygon fill="#63b8ff" stroke="#63b8ff" points="245.01,-44.38 254.75,-40.22 244.53,-37.4 245.01,-44.38"/>
</a>
</g>
</g>
<!-- Node2&#45;&gt;Node3 -->
<g id="edge2_Node000002_Node000003" class="edge">
<title>Node2&#45;&gt;Node3</title>
<g id="a_edge2_Node000002_Node000003"><a xlink:title=" ">
<path fill="none" stroke="#63b8ff" d="M105.24,-33.09C91.82,-37.37 78.03,-41.76 66.35,-45.49"/>
<polygon fill="#63b8ff" stroke="#63b8ff" points="106.45,-36.38 114.91,-30.01 104.32,-29.71 106.45,-36.38"/>
</a>
</g>
</g>
<!-- Node4 -->
<g id="Node000004" class="node">
<title>Node4</title>
<g id="a_Node000004"><a xlink:href="tst__settings_8cpp.html#a21102cab53cc05cb45a7ceda014091d7" target="_top" xlink:title=" ">
<polygon fill="white" stroke="#666666" points="71,-24.5 0,-24.5 0,-5.5 71,-5.5 71,-24.5"/>
<text text-anchor="middle" x="35.5" y="-12.5" font-family="Helvetica,sans-Serif" font-size="10.00">TEST_CASE</text>
</a>
</g>
</g>
<!-- Node2&#45;&gt;Node4 -->
<g id="edge3_Node000002_Node000004" class="edge">
<title>Node2&#45;&gt;Node4</title>
<g id="a_edge3_Node000002_Node000004"><a xlink:title=" ">
<path fill="none" stroke="#63b8ff" d="M96.68,-15C87.92,-15 79.22,-15 71.28,-15"/>
<polygon fill="#63b8ff" stroke="#63b8ff" points="96.95,-18.5 106.95,-15 96.95,-11.5 96.95,-18.5"/>
</a>
</g>
</g>
</g>
</svg>
