<?xml version="1.0" encoding="UTF-8" standalone="no"?>
<!DOCTYPE svg PUBLIC "-//W3C//DTD SVG 1.1//EN"
 "http://www.w3.org/Graphics/SVG/1.1/DTD/svg11.dtd">
<!-- Generated by graphviz version 2.43.0 (0)
 -->
<!-- Title: myproject::Settings::setFpsVisible Pages: 1 -->
<svg width="269pt" height="86pt"
 viewBox="0.00 0.00 269.00 86.00" xmlns="http://www.w3.org/2000/svg" xmlns:xlink="http://www.w3.org/1999/xlink">
<g id="graph0" class="graph" transform="scale(1 1) rotate(0) translate(4 82)">
<title>myproject::Settings::setFpsVisible</title>
<!-- Node1 -->
<g id="Node000001" class="node">
<title>Node1</title>
<g id="a_Node000001"><a xlink:title="Sets the current FPS visibility for the application.">
<polygon fill="#999999" stroke="#666666" points="112,-54 0,-54 0,-24 112,-24 112,-54"/>
<text text-anchor="start" x="8" y="-42" font-family="Helvetica,sans-Serif" font-size="10.00">myproject::Settings</text>
<text text-anchor="middle" x="56" y="-31" font-family="Helvetica,sans-Serif" font-size="10.00">::setFpsVisible</text>
</a>
</g>
</g>
<!-- Node2 -->
<g id="Node000002" class="node">
<title>Node2</title>
<g id="a_Node000002"><a xlink:href="classmyproject_1_1Settings.html#a281627edb0185afa72671adcbaa86267" target="_top" xlink:title="Returns the default FPS visibility for the application.">
<polygon fill="white" stroke="#666666" points="260.5,-78 148.5,-78 148.5,-48 260.5,-48 260.5,-78"/>
<text text-anchor="start" x="156.5" y="-66" font-family="Helvetica,sans-Serif" font-size="10.00">myproject::Settings</text>
<text text-anchor="middle" x="204.5" y="-55" font-family="Helvetica,sans-Serif" font-size="10.00">::defaultFpsVisible</text>
</a>
</g>
</g>
<!-- Node1&#45;&gt;Node2 -->
<g id="edge1_Node000001_Node000002" class="edge">
<title>Node1&#45;&gt;Node2</title>
<g id="a_edge1_Node000001_Node000002"><a xlink:title=" ">
<path fill="none" stroke="#63b8ff" d="M112.39,-48.07C120.77,-49.45 129.49,-50.88 138.07,-52.28"/>
<polygon fill="#63b8ff" stroke="#63b8ff" points="137.6,-55.75 148.04,-53.91 138.73,-48.84 137.6,-55.75"/>
</a>
</g>
</g>
<!-- Node3 -->
<g id="Node000003" class="node">
<title>Node3</title>
<g id="a_Node000003"><a xlink:href="classmyproject_1_1Settings.html#a465a9e7e922710537f4527db63b11182" target="_top" xlink:title="Emitted when the FPS visibility is changed.">
<polygon fill="white" stroke="#666666" points="261,-30 148,-30 148,0 261,0 261,-30"/>
<text text-anchor="start" x="156" y="-18" font-family="Helvetica,sans-Serif" font-size="10.00">myproject::Settings</text>
<text text-anchor="middle" x="204.5" y="-7" font-family="Helvetica,sans-Serif" font-size="10.00">::fpsVisibleChanged</text>
</a>
</g>
</g>
<!-- Node1&#45;&gt;Node3 -->
<g id="edge2_Node000001_Node000003" class="edge">
<title>Node1&#45;&gt;Node3</title>
<g id="a_edge2_Node000001_Node000003"><a xlink:title=" ">
<path fill="none" stroke="#63b8ff" d="M112.39,-29.93C120.57,-28.59 129.06,-27.19 137.43,-25.82"/>
<polygon fill="#63b8ff" stroke="#63b8ff" points="138.25,-29.24 147.55,-24.17 137.12,-22.33 138.25,-29.24"/>
</a>
</g>
</g>
</g>
</svg>
