<?xml version="1.0" encoding="UTF-8" standalone="no"?>
<!DOCTYPE svg PUBLIC "-//W3C//DTD SVG 1.1//EN"
 "http://www.w3.org/Graphics/SVG/1.1/DTD/svg11.dtd">
<!-- Generated by graphviz version 2.43.0 (0)
 -->
<!-- Title: myproject::Settings::setOptionsShortcut Pages: 1 -->
<svg width="231pt" height="64pt"
 viewBox="0.00 0.00 231.00 64.00" xmlns="http://www.w3.org/2000/svg" xmlns:xlink="http://www.w3.org/1999/xlink">
<g id="graph0" class="graph" transform="scale(1 1) rotate(0) translate(4 60)">
<title>myproject::Settings::setOptionsShortcut</title>
<!-- Node1 -->
<g id="Node000001" class="node">
<title>Node1</title>
<g id="a_Node000001"><a xlink:title="Sets the current options shortcut for the application.">
<polygon fill="#999999" stroke="#666666" points="223,-42.5 107,-42.5 107,-12.5 223,-12.5 223,-42.5"/>
<text text-anchor="start" x="115" y="-30.5" font-family="Helvetica,sans-Serif" font-size="10.00">myproject::Settings</text>
<text text-anchor="middle" x="165" y="-19.5" font-family="Helvetica,sans-Serif" font-size="10.00">::setOptionsShortcut</text>
</a>
</g>
</g>
<!-- Node2 -->
<g id="Node000002" class="node">
<title>Node2</title>
<g id="a_Node000002"><a xlink:href="tst__settings_8cpp.html#ad7d06a20b0bcf6053d09ee6efe4ddade" target="_top" xlink:title=" ">
<polygon fill="white" stroke="#666666" points="71,-56 0,-56 0,-37 71,-37 71,-56"/>
<text text-anchor="middle" x="35.5" y="-44" font-family="Helvetica,sans-Serif" font-size="10.00">TEST_CASE</text>
</a>
</g>
</g>
<!-- Node1&#45;&gt;Node2 -->
<g id="edge1_Node000001_Node000002" class="edge">
<title>Node1&#45;&gt;Node2</title>
<g id="a_edge1_Node000001_Node000002"><a xlink:title=" ">
<path fill="none" stroke="#63b8ff" d="M96.92,-37.5C88.02,-38.82 79.21,-40.14 71.18,-41.33"/>
<polygon fill="#63b8ff" stroke="#63b8ff" points="97.59,-40.94 106.96,-36 96.56,-34.01 97.59,-40.94"/>
</a>
</g>
</g>
<!-- Node3 -->
<g id="Node000003" class="node">
<title>Node3</title>
<g id="a_Node000003"><a xlink:href="tst__settings_8cpp.html#a21102cab53cc05cb45a7ceda014091d7" target="_top" xlink:title=" ">
<polygon fill="white" stroke="#666666" points="71,-19 0,-19 0,0 71,0 71,-19"/>
<text text-anchor="middle" x="35.5" y="-7" font-family="Helvetica,sans-Serif" font-size="10.00">TEST_CASE</text>
</a>
</g>
</g>
<!-- Node1&#45;&gt;Node3 -->
<g id="edge2_Node000001_Node000003" class="edge">
<title>Node1&#45;&gt;Node3</title>
<g id="a_edge2_Node000001_Node000003"><a xlink:title=" ">
<path fill="none" stroke="#63b8ff" d="M96.92,-18.03C88.02,-16.77 79.21,-15.53 71.18,-14.4"/>
<polygon fill="#63b8ff" stroke="#63b8ff" points="96.57,-21.52 106.96,-19.45 97.55,-14.58 96.57,-21.52"/>
</a>
</g>
</g>
</g>
</svg>
