<?xml version="1.0" encoding="UTF-8" standalone="no"?>
<!DOCTYPE svg PUBLIC "-//W3C//DTD SVG 1.1//EN"
 "http://www.w3.org/Graphics/SVG/1.1/DTD/svg11.dtd">
<!-- Generated by graphviz version 2.43.0 (0)
 -->
<!-- Title: myproject::Settings::fpsVisibleChanged Pages: 1 -->
<svg width="376pt" height="60pt"
 viewBox="0.00 0.00 376.00 60.00" xmlns="http://www.w3.org/2000/svg" xmlns:xlink="http://www.w3.org/1999/xlink">
<g id="graph0" class="graph" transform="scale(1 1) rotate(0) translate(4 56)">
<title>myproject::Settings::fpsVisibleChanged</title>
<!-- Node1 -->
<g id="Node000001" class="node">
<title>Node1</title>
<g id="a_Node000001"><a xlink:title="Emitted when the FPS visibility is changed.">
<polygon fill="#999999" stroke="#666666" points="368,-30 255,-30 255,0 368,0 368,-30"/>
<text text-anchor="start" x="263" y="-18" font-family="Helvetica,sans-Serif" font-size="10.00">myproject::Settings</text>
<text text-anchor="middle" x="311.5" y="-7" font-family="Helvetica,sans-Serif" font-size="10.00">::fpsVisibleChanged</text>
</a>
</g>
</g>
<!-- Node2 -->
<g id="Node000002" class="node">
<title>Node2</title>
<g id="a_Node000002"><a xlink:href="classmyproject_1_1Settings.html#ad9011ea62284028bde0fd492529298cd" target="_top" xlink:title="Sets the current FPS visibility for the application.">
<polygon fill="white" stroke="#666666" points="219,-52 107,-52 107,-22 219,-22 219,-52"/>
<text text-anchor="start" x="115" y="-40" font-family="Helvetica,sans-Serif" font-size="10.00">myproject::Settings</text>
<text text-anchor="middle" x="163" y="-29" font-family="Helvetica,sans-Serif" font-size="10.00">::setFpsVisible</text>
</a>
</g>
</g>
<!-- Node1&#45;&gt;Node2 -->
<g id="edge1_Node000001_Node000002" class="edge">
<title>Node1&#45;&gt;Node2</title>
<g id="a_edge1_Node000001_Node000002"><a xlink:title=" ">
<path fill="none" stroke="#63b8ff" d="M244.75,-24.87C236.2,-26.16 227.52,-27.46 219.16,-28.72"/>
<polygon fill="#63b8ff" stroke="#63b8ff" points="245.33,-28.33 254.7,-23.38 244.29,-21.4 245.33,-28.33"/>
</a>
</g>
</g>
<!-- Node3 -->
<g id="Node000003" class="node">
<title>Node3</title>
<g id="a_Node000003"><a xlink:href="tst__settings_8cpp.html#ad92d094058c332311f48714e87bab29d" target="_top" xlink:title=" ">
<polygon fill="white" stroke="#666666" points="71,-24.5 0,-24.5 0,-5.5 71,-5.5 71,-24.5"/>
<text text-anchor="middle" x="35.5" y="-12.5" font-family="Helvetica,sans-Serif" font-size="10.00">TEST_CASE</text>
</a>
</g>
</g>
<!-- Node1&#45;&gt;Node3 -->
<g id="edge3_Node000001_Node000003" class="edge">
<title>Node1&#45;&gt;Node3</title>
<g id="a_edge3_Node000001_Node000003"><a xlink:title=" ">
<path fill="none" stroke="#63b8ff" d="M244.76,-13.39C236.1,-13.23 227.34,-13.09 219,-13 169.23,-12.46 156.77,-12.29 107,-13 95.37,-13.16 82.66,-13.48 71.28,-13.82"/>
<polygon fill="#63b8ff" stroke="#63b8ff" points="244.79,-16.89 254.86,-13.59 244.93,-9.89 244.79,-16.89"/>
</a>
</g>
</g>
<!-- Node2&#45;&gt;Node3 -->
<g id="edge2_Node000002_Node000003" class="edge">
<title>Node2&#45;&gt;Node3</title>
<g id="a_edge2_Node000002_Node000003"><a xlink:title=" ">
<path fill="none" stroke="#63b8ff" d="M96.96,-25.6C88.1,-24.05 79.31,-22.5 71.28,-21.1"/>
<polygon fill="#63b8ff" stroke="#63b8ff" points="96.5,-29.07 106.95,-27.35 97.71,-22.18 96.5,-29.07"/>
</a>
</g>
</g>
</g>
</svg>
