<?xml version="1.0" encoding="UTF-8" standalone="no"?>
<!DOCTYPE svg PUBLIC "-//W3C//DTD SVG 1.1//EN"
 "http://www.w3.org/Graphics/SVG/1.1/DTD/svg11.dtd">
<!-- Generated by graphviz version 2.43.0 (0)
 -->
<!-- Title: myproject::Settings::optionsShortcutChanged Pages: 1 -->
<svg width="409pt" height="73pt"
 viewBox="0.00 0.00 409.00 72.50" xmlns="http://www.w3.org/2000/svg" xmlns:xlink="http://www.w3.org/1999/xlink">
<g id="graph0" class="graph" transform="scale(1 1) rotate(0) translate(4 68.5)">
<title>myproject::Settings::optionsShortcutChanged</title>
<!-- Node1 -->
<g id="Node000001" class="node">
<title>Node1</title>
<g id="a_Node000001"><a xlink:title="Emitted when the options shortcut is changed.">
<polygon fill="#999999" stroke="#666666" points="401,-51 259,-51 259,-21 401,-21 401,-51"/>
<text text-anchor="start" x="267" y="-39" font-family="Helvetica,sans-Serif" font-size="10.00">myproject::Settings</text>
<text text-anchor="middle" x="330" y="-28" font-family="Helvetica,sans-Serif" font-size="10.00">::optionsShortcutChanged</text>
</a>
</g>
</g>
<!-- Node2 -->
<g id="Node000002" class="node">
<title>Node2</title>
<g id="a_Node000002"><a xlink:href="classmyproject_1_1Settings.html#a47af30e166f78fe478324fa0ed02429e" target="_top" xlink:title="Sets the current options shortcut for the application.">
<polygon fill="white" stroke="#666666" points="223,-30 107,-30 107,0 223,0 223,-30"/>
<text text-anchor="start" x="115" y="-18" font-family="Helvetica,sans-Serif" font-size="10.00">myproject::Settings</text>
<text text-anchor="middle" x="165" y="-7" font-family="Helvetica,sans-Serif" font-size="10.00">::setOptionsShortcut</text>
</a>
</g>
</g>
<!-- Node1&#45;&gt;Node2 -->
<g id="edge1_Node000001_Node000002" class="edge">
<title>Node1&#45;&gt;Node2</title>
<g id="a_edge1_Node000001_Node000002"><a xlink:title=" ">
<path fill="none" stroke="#63b8ff" d="M248.75,-25.66C240.06,-24.54 231.34,-23.42 223,-22.34"/>
<polygon fill="#63b8ff" stroke="#63b8ff" points="248.56,-29.17 258.93,-26.97 249.46,-22.22 248.56,-29.17"/>
</a>
</g>
</g>
<!-- Node3 -->
<g id="Node000003" class="node">
<title>Node3</title>
<g id="a_Node000003"><a xlink:href="tst__settings_8cpp.html#ad7d06a20b0bcf6053d09ee6efe4ddade" target="_top" xlink:title=" ">
<polygon fill="white" stroke="#666666" points="71,-64.5 0,-64.5 0,-45.5 71,-45.5 71,-64.5"/>
<text text-anchor="middle" x="35.5" y="-52.5" font-family="Helvetica,sans-Serif" font-size="10.00">TEST_CASE</text>
</a>
</g>
</g>
<!-- Node1&#45;&gt;Node3 -->
<g id="edge4_Node000001_Node000003" class="edge">
<title>Node1&#45;&gt;Node3</title>
<g id="a_edge4_Node000001_Node000003"><a xlink:title=" ">
<path fill="none" stroke="#63b8ff" d="M248.65,-41.22C190.38,-45 114.48,-49.93 71.05,-52.76"/>
<polygon fill="#63b8ff" stroke="#63b8ff" points="249.19,-44.69 258.94,-40.55 248.73,-37.71 249.19,-44.69"/>
</a>
</g>
</g>
<!-- Node2&#45;&gt;Node3 -->
<g id="edge2_Node000002_Node000003" class="edge">
<title>Node2&#45;&gt;Node3</title>
<g id="a_edge2_Node000002_Node000003"><a xlink:title=" ">
<path fill="none" stroke="#63b8ff" d="M106.33,-33.09C92.7,-37.37 78.69,-41.76 66.83,-45.49"/>
<polygon fill="#63b8ff" stroke="#63b8ff" points="107.67,-36.34 116.16,-30.01 105.57,-29.66 107.67,-36.34"/>
</a>
</g>
</g>
<!-- Node4 -->
<g id="Node000004" class="node">
<title>Node4</title>
<g id="a_Node000004"><a xlink:href="tst__settings_8cpp.html#a21102cab53cc05cb45a7ceda014091d7" target="_top" xlink:title=" ">
<polygon fill="white" stroke="#666666" points="71,-24.5 0,-24.5 0,-5.5 71,-5.5 71,-24.5"/>
<text text-anchor="middle" x="35.5" y="-12.5" font-family="Helvetica,sans-Serif" font-size="10.00">TEST_CASE</text>
</a>
</g>
</g>
<!-- Node2&#45;&gt;Node4 -->
<g id="edge3_Node000002_Node000004" class="edge">
<title>Node2&#45;&gt;Node4</title>
<g id="a_edge3_Node000002_Node000004"><a xlink:title=" ">
<path fill="none" stroke="#63b8ff" d="M96.92,-15C88.02,-15 79.21,-15 71.18,-15"/>
<polygon fill="#63b8ff" stroke="#63b8ff" points="96.96,-18.5 106.96,-15 96.96,-11.5 96.96,-18.5"/>
</a>
</g>
</g>
</g>
</svg>
