<?xml version="1.0" encoding="UTF-8" standalone="no"?>
<!DOCTYPE svg PUBLIC "-//W3C//DTD SVG 1.1//EN"
 "http://www.w3.org/Graphics/SVG/1.1/DTD/svg11.dtd">
<!-- Generated by graphviz version 2.43.0 (0)
 -->
<!-- Title: myproject::Settings::defaultFullScreenShortcut Pages: 1 -->
<svg width="427pt" height="162pt"
 viewBox="0.00 0.00 427.00 161.50" xmlns="http://www.w3.org/2000/svg" xmlns:xlink="http://www.w3.org/1999/xlink">
<g id="graph0" class="graph" transform="scale(1 1) rotate(0) translate(4 157.5)">
<title>myproject::Settings::defaultFullScreenShortcut</title>
<!-- Node1 -->
<g id="Node000001" class="node">
<title>Node1</title>
<g id="a_Node000001"><a xlink:title="Returns the default full screen shortcut for the application.">
<polygon fill="#999999" stroke="#666666" points="419,-83.5 271,-83.5 271,-53.5 419,-53.5 419,-83.5"/>
<text text-anchor="start" x="279" y="-71.5" font-family="Helvetica,sans-Serif" font-size="10.00">myproject::Settings</text>
<text text-anchor="middle" x="345" y="-60.5" font-family="Helvetica,sans-Serif" font-size="10.00">::defaultFullScreenShortcut</text>
</a>
</g>
</g>
<!-- Node2 -->
<g id="Node000002" class="node">
<title>Node2</title>
<g id="a_Node000002"><a xlink:href="classmyproject_1_1Settings.html#aec7b0ccc9d512efbe673a75349f21a6b" target="_top" xlink:title="Returns the current full screen shortcut for the application.">
<polygon fill="white" stroke="#666666" points="227,-153.5 115,-153.5 115,-123.5 227,-123.5 227,-153.5"/>
<text text-anchor="start" x="123" y="-141.5" font-family="Helvetica,sans-Serif" font-size="10.00">myproject::Settings</text>
<text text-anchor="middle" x="171" y="-130.5" font-family="Helvetica,sans-Serif" font-size="10.00">::fullScreenShortcut</text>
</a>
</g>
</g>
<!-- Node1&#45;&gt;Node2 -->
<g id="edge1_Node000001_Node000002" class="edge">
<title>Node1&#45;&gt;Node2</title>
<g id="a_edge1_Node000001_Node000002"><a xlink:title=" ">
<path fill="none" stroke="#63b8ff" d="M299.9,-87.53C280.12,-95.95 256.46,-105.89 235,-114.5 227.61,-117.46 219.71,-120.55 212.08,-123.48"/>
<polygon fill="#63b8ff" stroke="#63b8ff" points="301.46,-90.67 309.28,-83.52 298.71,-84.23 301.46,-90.67"/>
</a>
</g>
</g>
<!-- Node3 -->
<g id="Node000003" class="node">
<title>Node3</title>
<g id="a_Node000003"><a xlink:href="classmyproject_1_1Settings.html#afb6632600dde242082182298dfa4bfc4" target="_top" xlink:title="Sets the current full screen shortcut for the application.">
<polygon fill="white" stroke="#666666" points="235,-105.5 107,-105.5 107,-75.5 235,-75.5 235,-105.5"/>
<text text-anchor="start" x="115" y="-93.5" font-family="Helvetica,sans-Serif" font-size="10.00">myproject::Settings</text>
<text text-anchor="middle" x="171" y="-82.5" font-family="Helvetica,sans-Serif" font-size="10.00">::setFullScreenShortcut</text>
</a>
</g>
</g>
<!-- Node1&#45;&gt;Node3 -->
<g id="edge2_Node000001_Node000003" class="edge">
<title>Node1&#45;&gt;Node3</title>
<g id="a_edge2_Node000001_Node000003"><a xlink:title=" ">
<path fill="none" stroke="#63b8ff" d="M260.56,-79.17C252.02,-80.26 243.44,-81.36 235.17,-82.42"/>
<polygon fill="#63b8ff" stroke="#63b8ff" points="261.08,-82.63 270.56,-77.89 260.19,-75.69 261.08,-82.63"/>
</a>
</g>
</g>
<!-- Node5 -->
<g id="Node000005" class="node">
<title>Node5</title>
<g id="a_Node000005"><a xlink:href="tst__settings_8cpp.html#a21102cab53cc05cb45a7ceda014091d7" target="_top" xlink:title=" ">
<polygon fill="white" stroke="#666666" points="71,-60 0,-60 0,-41 71,-41 71,-60"/>
<text text-anchor="middle" x="35.5" y="-48" font-family="Helvetica,sans-Serif" font-size="10.00">TEST_CASE</text>
</a>
</g>
</g>
<!-- Node1&#45;&gt;Node5 -->
<g id="edge6_Node000001_Node000005" class="edge">
<title>Node1&#45;&gt;Node5</title>
<g id="a_edge6_Node000001_Node000005"><a xlink:title=" ">
<path fill="none" stroke="#63b8ff" d="M260.56,-63.62C198.48,-59.98 116.91,-55.21 71.28,-52.54"/>
<polygon fill="#63b8ff" stroke="#63b8ff" points="260.55,-67.12 270.74,-64.21 260.96,-60.13 260.55,-67.12"/>
</a>
</g>
</g>
<!-- Node6 -->
<g id="Node000006" class="node">
<title>Node6</title>
<g id="a_Node000006"><a xlink:href="tst__settings_8cpp.html#ad9d8c2ff30fae39b4ceba73773acf481" target="_top" xlink:title=" ">
<polygon fill="white" stroke="#666666" points="206.5,-19 135.5,-19 135.5,0 206.5,0 206.5,-19"/>
<text text-anchor="middle" x="171" y="-7" font-family="Helvetica,sans-Serif" font-size="10.00">TEST_CASE</text>
</a>
</g>
</g>
<!-- Node1&#45;&gt;Node6 -->
<g id="edge5_Node000001_Node000006" class="edge">
<title>Node1&#45;&gt;Node6</title>
<g id="a_edge5_Node000001_Node000006"><a xlink:title=" ">
<path fill="none" stroke="#63b8ff" d="M290.64,-50.2C260.61,-39.9 224.35,-27.46 199.88,-19.06"/>
<polygon fill="#63b8ff" stroke="#63b8ff" points="289.56,-53.53 300.15,-53.46 291.83,-46.9 289.56,-53.53"/>
</a>
</g>
</g>
<!-- Node4 -->
<g id="Node000004" class="node">
<title>Node4</title>
<g id="a_Node000004"><a xlink:href="tst__settings_8cpp.html#a49a03d31b59881f5b1b4f7eaa97443c3" target="_top" xlink:title=" ">
<polygon fill="white" stroke="#666666" points="71,-100 0,-100 0,-81 71,-81 71,-100"/>
<text text-anchor="middle" x="35.5" y="-88" font-family="Helvetica,sans-Serif" font-size="10.00">TEST_CASE</text>
</a>
</g>
</g>
<!-- Node3&#45;&gt;Node4 -->
<g id="edge3_Node000003_Node000004" class="edge">
<title>Node3&#45;&gt;Node4</title>
<g id="a_edge3_Node000003_Node000004"><a xlink:title=" ">
<path fill="none" stroke="#63b8ff" d="M96.71,-90.5C87.82,-90.5 79.09,-90.5 71.16,-90.5"/>
<polygon fill="#63b8ff" stroke="#63b8ff" points="96.77,-94 106.77,-90.5 96.77,-87 96.77,-94"/>
</a>
</g>
</g>
<!-- Node3&#45;&gt;Node5 -->
<g id="edge4_Node000003_Node000005" class="edge">
<title>Node3&#45;&gt;Node5</title>
<g id="a_edge4_Node000003_Node000005"><a xlink:title=" ">
<path fill="none" stroke="#63b8ff" d="M110.04,-72.53C95.63,-68.22 80.79,-63.77 68.26,-60.01"/>
<polygon fill="#63b8ff" stroke="#63b8ff" points="109.33,-75.97 119.91,-75.49 111.34,-69.27 109.33,-75.97"/>
</a>
</g>
</g>
</g>
</svg>
