<?xml version="1.0" encoding="UTF-8" standalone="no"?>
<!DOCTYPE svg PUBLIC "-//W3C//DTD SVG 1.1//EN"
 "http://www.w3.org/Graphics/SVG/1.1/DTD/svg11.dtd">
<!-- Generated by graphviz version 2.43.0 (0)
 -->
<!-- Title: myproject::Settings::setSaveAsShortcut Pages: 1 -->
<svg width="299pt" height="86pt"
 viewBox="0.00 0.00 299.00 86.00" xmlns="http://www.w3.org/2000/svg" xmlns:xlink="http://www.w3.org/1999/xlink">
<g id="graph0" class="graph" transform="scale(1 1) rotate(0) translate(4 82)">
<title>myproject::Settings::setSaveAsShortcut</title>
<!-- Node1 -->
<g id="Node000001" class="node">
<title>Node1</title>
<g id="a_Node000001"><a xlink:title="Sets the current save as shortcut for the application.">
<polygon fill="#999999" stroke="#666666" points="114,-54 0,-54 0,-24 114,-24 114,-54"/>
<text text-anchor="start" x="8" y="-42" font-family="Helvetica,sans-Serif" font-size="10.00">myproject::Settings</text>
<text text-anchor="middle" x="57" y="-31" font-family="Helvetica,sans-Serif" font-size="10.00">::setSaveAsShortcut</text>
</a>
</g>
</g>
<!-- Node2 -->
<g id="Node000002" class="node">
<title>Node2</title>
<g id="a_Node000002"><a xlink:href="classmyproject_1_1Settings.html#a929f5c91fb00048653bf1ac1146035c5" target="_top" xlink:title="Returns the default save as shortcut for the application.">
<polygon fill="white" stroke="#666666" points="287.5,-78 153.5,-78 153.5,-48 287.5,-48 287.5,-78"/>
<text text-anchor="start" x="161.5" y="-66" font-family="Helvetica,sans-Serif" font-size="10.00">myproject::Settings</text>
<text text-anchor="middle" x="220.5" y="-55" font-family="Helvetica,sans-Serif" font-size="10.00">::defaultSaveAsShortcut</text>
</a>
</g>
</g>
<!-- Node1&#45;&gt;Node2 -->
<g id="edge1_Node000001_Node000002" class="edge">
<title>Node1&#45;&gt;Node2</title>
<g id="a_edge1_Node000001_Node000002"><a xlink:title=" ">
<path fill="none" stroke="#63b8ff" d="M114.03,-47.33C123.43,-48.72 133.32,-50.19 143.13,-51.65"/>
<polygon fill="#63b8ff" stroke="#63b8ff" points="142.89,-55.15 153.29,-53.16 143.92,-48.23 142.89,-55.15"/>
</a>
</g>
</g>
<!-- Node3 -->
<g id="Node000003" class="node">
<title>Node3</title>
<g id="a_Node000003"><a xlink:href="classmyproject_1_1Settings.html#a33b25c1e4b03f98374c091940d51efec" target="_top" xlink:title="Emitted when the save as shortcut is changed.">
<polygon fill="white" stroke="#666666" points="291,-30 150,-30 150,0 291,0 291,-30"/>
<text text-anchor="start" x="158" y="-18" font-family="Helvetica,sans-Serif" font-size="10.00">myproject::Settings</text>
<text text-anchor="middle" x="220.5" y="-7" font-family="Helvetica,sans-Serif" font-size="10.00">::saveAsShortcutChanged</text>
</a>
</g>
</g>
<!-- Node1&#45;&gt;Node3 -->
<g id="edge2_Node000001_Node000003" class="edge">
<title>Node1&#45;&gt;Node3</title>
<g id="a_edge2_Node000001_Node000003"><a xlink:title=" ">
<path fill="none" stroke="#63b8ff" d="M114.03,-30.67C122.35,-29.44 131.05,-28.14 139.74,-26.85"/>
<polygon fill="#63b8ff" stroke="#63b8ff" points="140.53,-30.27 149.91,-25.34 139.5,-23.35 140.53,-30.27"/>
</a>
</g>
</g>
</g>
</svg>
