<?xml version="1.0" encoding="UTF-8" standalone="no"?>
<!DOCTYPE svg PUBLIC "-//W3C//DTD SVG 1.1//EN"
 "http://www.w3.org/Graphics/SVG/1.1/DTD/svg11.dtd">
<!-- Generated by graphviz version 2.43.0 (0)
 -->
<!-- Title: myproject::Settings::defaultLanguage Pages: 1 -->
<svg width="375pt" height="124pt"
 viewBox="0.00 0.00 375.00 123.50" xmlns="http://www.w3.org/2000/svg" xmlns:xlink="http://www.w3.org/1999/xlink">
<g id="graph0" class="graph" transform="scale(1 1) rotate(0) translate(4 119.5)">
<title>myproject::Settings::defaultLanguage</title>
<!-- Node1 -->
<g id="Node000001" class="node">
<title>Node1</title>
<g id="a_Node000001"><a xlink:title="Returns the default language for the application.">
<polygon fill="#999999" stroke="#666666" points="367,-67.5 255,-67.5 255,-37.5 367,-37.5 367,-67.5"/>
<text text-anchor="start" x="263" y="-55.5" font-family="Helvetica,sans-Serif" font-size="10.00">myproject::Settings</text>
<text text-anchor="middle" x="311" y="-44.5" font-family="Helvetica,sans-Serif" font-size="10.00">::defaultLanguage</text>
</a>
</g>
</g>
<!-- Node2 -->
<g id="Node000002" class="node">
<title>Node2</title>
<g id="a_Node000002"><a xlink:href="classmyproject_1_1Settings.html#a9dd2b0b255dc2ee50a393a2d3cc73142" target="_top" xlink:title="Returns the current language for the application.">
<polygon fill="white" stroke="#666666" points="219,-115.5 107,-115.5 107,-85.5 219,-85.5 219,-115.5"/>
<text text-anchor="start" x="115" y="-103.5" font-family="Helvetica,sans-Serif" font-size="10.00">myproject::Settings</text>
<text text-anchor="middle" x="163" y="-92.5" font-family="Helvetica,sans-Serif" font-size="10.00">::language</text>
</a>
</g>
</g>
<!-- Node1&#45;&gt;Node2 -->
<g id="edge1_Node000001_Node000002" class="edge">
<title>Node1&#45;&gt;Node2</title>
<g id="a_edge1_Node000001_Node000002"><a xlink:title=" ">
<path fill="none" stroke="#63b8ff" d="M254.62,-70.71C239.77,-75.59 223.89,-80.81 209.63,-85.5"/>
<polygon fill="#63b8ff" stroke="#63b8ff" points="255.8,-74 264.21,-67.56 253.61,-67.35 255.8,-74"/>
</a>
</g>
</g>
<!-- Node3 -->
<g id="Node000003" class="node">
<title>Node3</title>
<g id="a_Node000003"><a xlink:href="classmyproject_1_1Settings.html#a724460352906b6d11a80d9395676beea" target="_top" xlink:title="Sets the current language for the application.">
<polygon fill="white" stroke="#666666" points="219,-67.5 107,-67.5 107,-37.5 219,-37.5 219,-67.5"/>
<text text-anchor="start" x="115" y="-55.5" font-family="Helvetica,sans-Serif" font-size="10.00">myproject::Settings</text>
<text text-anchor="middle" x="163" y="-44.5" font-family="Helvetica,sans-Serif" font-size="10.00">::setLanguage</text>
</a>
</g>
</g>
<!-- Node1&#45;&gt;Node3 -->
<g id="edge2_Node000001_Node000003" class="edge">
<title>Node1&#45;&gt;Node3</title>
<g id="a_edge2_Node000001_Node000003"><a xlink:title=" ">
<path fill="none" stroke="#63b8ff" d="M244.59,-52.5C236.14,-52.5 227.54,-52.5 219.27,-52.5"/>
<polygon fill="#63b8ff" stroke="#63b8ff" points="244.8,-56 254.8,-52.5 244.8,-49 244.8,-56"/>
</a>
</g>
</g>
<!-- Node5 -->
<g id="Node000005" class="node">
<title>Node5</title>
<g id="a_Node000005"><a xlink:href="tst__settings_8cpp.html#ad9d8c2ff30fae39b4ceba73773acf481" target="_top" xlink:title=" ">
<polygon fill="white" stroke="#666666" points="198.5,-19 127.5,-19 127.5,0 198.5,0 198.5,-19"/>
<text text-anchor="middle" x="163" y="-7" font-family="Helvetica,sans-Serif" font-size="10.00">TEST_CASE</text>
</a>
</g>
</g>
<!-- Node1&#45;&gt;Node5 -->
<g id="edge4_Node000001_Node000005" class="edge">
<title>Node1&#45;&gt;Node5</title>
<g id="a_edge4_Node000001_Node000005"><a xlink:title=" ">
<path fill="none" stroke="#63b8ff" d="M249.06,-34.55C231.05,-29.25 212.03,-23.64 196.55,-19.09"/>
<polygon fill="#63b8ff" stroke="#63b8ff" points="248.35,-37.99 258.94,-37.46 250.33,-31.28 248.35,-37.99"/>
</a>
</g>
</g>
<!-- Node4 -->
<g id="Node000004" class="node">
<title>Node4</title>
<g id="a_Node000004"><a xlink:href="tst__settings_8cpp.html#a5c04d16a5a907a0efde133b34787f356" target="_top" xlink:title=" ">
<polygon fill="white" stroke="#666666" points="71,-62 0,-62 0,-43 71,-43 71,-62"/>
<text text-anchor="middle" x="35.5" y="-50" font-family="Helvetica,sans-Serif" font-size="10.00">TEST_CASE</text>
</a>
</g>
</g>
<!-- Node3&#45;&gt;Node4 -->
<g id="edge3_Node000003_Node000004" class="edge">
<title>Node3&#45;&gt;Node4</title>
<g id="a_edge3_Node000003_Node000004"><a xlink:title=" ">
<path fill="none" stroke="#63b8ff" d="M96.68,-52.5C87.92,-52.5 79.22,-52.5 71.28,-52.5"/>
<polygon fill="#63b8ff" stroke="#63b8ff" points="96.95,-56 106.95,-52.5 96.95,-49 96.95,-56"/>
</a>
</g>
</g>
</g>
</svg>
