<?xml version="1.0" encoding="UTF-8" standalone="no"?>
<!DOCTYPE svg PUBLIC "-//W3C//DTD SVG 1.1//EN"
 "http://www.w3.org/Graphics/SVG/1.1/DTD/svg11.dtd">
<!-- Generated by graphviz version 2.43.0 (0)
 -->
<!-- Title: KeySequenceEditor::displaySequenceChanged Pages: 1 -->
<svg width="303pt" height="86pt"
 viewBox="0.00 0.00 303.00 86.00" xmlns="http://www.w3.org/2000/svg" xmlns:xlink="http://www.w3.org/1999/xlink">
<g id="graph0" class="graph" transform="scale(1 1) rotate(0) translate(4 82)">
<title>KeySequenceEditor::displaySequenceChanged</title>
<!-- Node1 -->
<g id="Node000001" class="node">
<title>Node1</title>
<g id="a_Node000001"><a xlink:title=" ">
<polygon fill="#999999" stroke="#666666" points="295,-54 153,-54 153,-24 295,-24 295,-54"/>
<text text-anchor="start" x="161" y="-42" font-family="Helvetica,sans-Serif" font-size="10.00">KeySequenceEditor::</text>
<text text-anchor="middle" x="224" y="-31" font-family="Helvetica,sans-Serif" font-size="10.00">displaySequenceChanged</text>
</a>
</g>
</g>
<!-- Node2 -->
<g id="Node000002" class="node">
<title>Node2</title>
<g id="a_Node000002"><a xlink:href="classKeySequenceEditor.html#ad32ee01a5e7c4d5c6087b920650f2921" target="_top" xlink:title=" ">
<polygon fill="white" stroke="#666666" points="116.5,-78 0.5,-78 0.5,-48 116.5,-48 116.5,-78"/>
<text text-anchor="start" x="8.5" y="-66" font-family="Helvetica,sans-Serif" font-size="10.00">KeySequenceEditor::</text>
<text text-anchor="middle" x="58.5" y="-55" font-family="Helvetica,sans-Serif" font-size="10.00">focusInEvent</text>
</a>
</g>
</g>
<!-- Node1&#45;&gt;Node2 -->
<g id="edge1_Node000001_Node000002" class="edge">
<title>Node1&#45;&gt;Node2</title>
<g id="a_edge1_Node000001_Node000002"><a xlink:title=" ">
<path fill="none" stroke="#63b8ff" d="M142.79,-50.77C133.97,-52.07 125.13,-53.37 116.68,-54.61"/>
<polygon fill="#63b8ff" stroke="#63b8ff" points="143.33,-54.23 152.71,-49.32 142.31,-47.31 143.33,-54.23"/>
</a>
</g>
</g>
<!-- Node3 -->
<g id="Node000003" class="node">
<title>Node3</title>
<g id="a_Node000003"><a xlink:href="classKeySequenceEditor.html#a9cd0a9658bb1963b598afd87c0ae6db0" target="_top" xlink:title=" ">
<polygon fill="white" stroke="#666666" points="117,-30 0,-30 0,0 117,0 117,-30"/>
<text text-anchor="start" x="8" y="-18" font-family="Helvetica,sans-Serif" font-size="10.00">KeySequenceEditor::</text>
<text text-anchor="middle" x="58.5" y="-7" font-family="Helvetica,sans-Serif" font-size="10.00">setOriginalSequence</text>
</a>
</g>
</g>
<!-- Node1&#45;&gt;Node3 -->
<g id="edge2_Node000001_Node000003" class="edge">
<title>Node1&#45;&gt;Node3</title>
<g id="a_edge2_Node000001_Node000003"><a xlink:title=" ">
<path fill="none" stroke="#63b8ff" d="M142.65,-27.21C134.06,-25.94 125.44,-24.68 117.18,-23.47"/>
<polygon fill="#63b8ff" stroke="#63b8ff" points="142.31,-30.69 152.71,-28.68 143.33,-23.77 142.31,-30.69"/>
</a>
</g>
</g>
</g>
</svg>
