<?xml version="1.0" encoding="UTF-8" standalone="no"?>
<!DOCTYPE svg PUBLIC "-//W3C//DTD SVG 1.1//EN"
 "http://www.w3.org/Graphics/SVG/1.1/DTD/svg11.dtd">
<!-- Generated by graphviz version 2.43.0 (0)
 -->
<!-- Title: myproject::Settings::setAppTheme Pages: 1 -->
<svg width="273pt" height="86pt"
 viewBox="0.00 0.00 273.00 86.00" xmlns="http://www.w3.org/2000/svg" xmlns:xlink="http://www.w3.org/1999/xlink">
<g id="graph0" class="graph" transform="scale(1 1) rotate(0) translate(4 82)">
<title>myproject::Settings::setAppTheme</title>
<!-- Node1 -->
<g id="Node000001" class="node">
<title>Node1</title>
<g id="a_Node000001"><a xlink:title="Sets the current app theme for the application.">
<polygon fill="#999999" stroke="#666666" points="112,-54 0,-54 0,-24 112,-24 112,-54"/>
<text text-anchor="start" x="8" y="-42" font-family="Helvetica,sans-Serif" font-size="10.00">myproject::Settings</text>
<text text-anchor="middle" x="56" y="-31" font-family="Helvetica,sans-Serif" font-size="10.00">::setAppTheme</text>
</a>
</g>
</g>
<!-- Node2 -->
<g id="Node000002" class="node">
<title>Node2</title>
<g id="a_Node000002"><a xlink:href="classmyproject_1_1Settings.html#afe9642f3398e80093b7e94817540e2ac" target="_top" xlink:title="Emitted when the app theme is changed.">
<polygon fill="white" stroke="#666666" points="265,-78 148,-78 148,-48 265,-48 265,-78"/>
<text text-anchor="start" x="156" y="-66" font-family="Helvetica,sans-Serif" font-size="10.00">myproject::Settings</text>
<text text-anchor="middle" x="206.5" y="-55" font-family="Helvetica,sans-Serif" font-size="10.00">::appThemeChanged</text>
</a>
</g>
</g>
<!-- Node1&#45;&gt;Node2 -->
<g id="edge1_Node000001_Node000002" class="edge">
<title>Node1&#45;&gt;Node2</title>
<g id="a_edge1_Node000001_Node000002"><a xlink:title=" ">
<path fill="none" stroke="#63b8ff" d="M112.3,-47.94C120.59,-49.28 129.23,-50.67 137.75,-52.05"/>
<polygon fill="#63b8ff" stroke="#63b8ff" points="137.24,-55.51 147.67,-53.65 138.36,-48.6 137.24,-55.51"/>
</a>
</g>
</g>
<!-- Node3 -->
<g id="Node000003" class="node">
<title>Node3</title>
<g id="a_Node000003"><a xlink:href="classmyproject_1_1Settings.html#ab06fc5b21393f1f529409aae0d6b8a6c" target="_top" xlink:title="Returns the default app theme for the application.">
<polygon fill="white" stroke="#666666" points="262.5,-30 150.5,-30 150.5,0 262.5,0 262.5,-30"/>
<text text-anchor="start" x="158.5" y="-18" font-family="Helvetica,sans-Serif" font-size="10.00">myproject::Settings</text>
<text text-anchor="middle" x="206.5" y="-7" font-family="Helvetica,sans-Serif" font-size="10.00">::defaultAppTheme</text>
</a>
</g>
</g>
<!-- Node1&#45;&gt;Node3 -->
<g id="edge2_Node000001_Node000003" class="edge">
<title>Node1&#45;&gt;Node3</title>
<g id="a_edge2_Node000001_Node000003"><a xlink:title=" ">
<path fill="none" stroke="#63b8ff" d="M112.3,-30.06C121.38,-28.6 130.87,-27.06 140.17,-25.56"/>
<polygon fill="#63b8ff" stroke="#63b8ff" points="140.84,-28.99 150.16,-23.94 139.73,-22.08 140.84,-28.99"/>
</a>
</g>
</g>
</g>
</svg>
