<?xml version="1.0" encoding="UTF-8" standalone="no"?>
<!DOCTYPE svg PUBLIC "-//W3C//DTD SVG 1.1//EN"
 "http://www.w3.org/Graphics/SVG/1.1/DTD/svg11.dtd">
<!-- Generated by graphviz version 2.43.0 (0)
 -->
<!-- Title: myproject::Settings::setLanguage Pages: 1 -->
<svg width="268pt" height="86pt"
 viewBox="0.00 0.00 268.00 86.00" xmlns="http://www.w3.org/2000/svg" xmlns:xlink="http://www.w3.org/1999/xlink">
<g id="graph0" class="graph" transform="scale(1 1) rotate(0) translate(4 82)">
<title>myproject::Settings::setLanguage</title>
<!-- Node1 -->
<g id="Node000001" class="node">
<title>Node1</title>
<g id="a_Node000001"><a xlink:title="Sets the current language for the application.">
<polygon fill="#999999" stroke="#666666" points="112,-54 0,-54 0,-24 112,-24 112,-54"/>
<text text-anchor="start" x="8" y="-42" font-family="Helvetica,sans-Serif" font-size="10.00">myproject::Settings</text>
<text text-anchor="middle" x="56" y="-31" font-family="Helvetica,sans-Serif" font-size="10.00">::setLanguage</text>
</a>
</g>
</g>
<!-- Node2 -->
<g id="Node000002" class="node">
<title>Node2</title>
<g id="a_Node000002"><a xlink:href="classmyproject_1_1Settings.html#a68e9757c5f627d4ec48776d8f8f9bad2" target="_top" xlink:title="Returns the default language for the application.">
<polygon fill="white" stroke="#666666" points="260,-78 148,-78 148,-48 260,-48 260,-78"/>
<text text-anchor="start" x="156" y="-66" font-family="Helvetica,sans-Serif" font-size="10.00">myproject::Settings</text>
<text text-anchor="middle" x="204" y="-55" font-family="Helvetica,sans-Serif" font-size="10.00">::defaultLanguage</text>
</a>
</g>
</g>
<!-- Node1&#45;&gt;Node2 -->
<g id="edge1_Node000001_Node000002" class="edge">
<title>Node1&#45;&gt;Node2</title>
<g id="a_edge1_Node000001_Node000002"><a xlink:title=" ">
<path fill="none" stroke="#63b8ff" d="M112.2,-48.07C120.55,-49.45 129.24,-50.88 137.79,-52.28"/>
<polygon fill="#63b8ff" stroke="#63b8ff" points="137.29,-55.75 147.73,-53.91 138.43,-48.84 137.29,-55.75"/>
</a>
</g>
</g>
<!-- Node3 -->
<g id="Node000003" class="node">
<title>Node3</title>
<g id="a_Node000003"><a xlink:href="classmyproject_1_1Settings.html#ad40518c9fd66d8e1cb85ec017715e7af" target="_top" xlink:title="Emitted when the language is changed.">
<polygon fill="white" stroke="#666666" points="260,-30 148,-30 148,0 260,0 260,-30"/>
<text text-anchor="start" x="156" y="-18" font-family="Helvetica,sans-Serif" font-size="10.00">myproject::Settings</text>
<text text-anchor="middle" x="204" y="-7" font-family="Helvetica,sans-Serif" font-size="10.00">::languageChanged</text>
</a>
</g>
</g>
<!-- Node1&#45;&gt;Node3 -->
<g id="edge2_Node000001_Node000003" class="edge">
<title>Node1&#45;&gt;Node3</title>
<g id="a_edge2_Node000001_Node000003"><a xlink:title=" ">
<path fill="none" stroke="#63b8ff" d="M112.2,-29.93C120.55,-28.55 129.24,-27.12 137.79,-25.72"/>
<polygon fill="#63b8ff" stroke="#63b8ff" points="138.43,-29.16 147.73,-24.09 137.29,-22.25 138.43,-29.16"/>
</a>
</g>
</g>
</g>
</svg>
