<?xml version="1.0" encoding="UTF-8" standalone="no"?>
<!DOCTYPE svg PUBLIC "-//W3C//DTD SVG 1.1//EN"
 "http://www.w3.org/Graphics/SVG/1.1/DTD/svg11.dtd">
<!-- Generated by graphviz version 2.43.0 (0)
 -->
<!-- Title: myproject::Settings::setPasteShortcut Pages: 1 -->
<svg width="289pt" height="86pt"
 viewBox="0.00 0.00 289.00 86.00" xmlns="http://www.w3.org/2000/svg" xmlns:xlink="http://www.w3.org/1999/xlink">
<g id="graph0" class="graph" transform="scale(1 1) rotate(0) translate(4 82)">
<title>myproject::Settings::setPasteShortcut</title>
<!-- Node1 -->
<g id="Node000001" class="node">
<title>Node1</title>
<g id="a_Node000001"><a xlink:title="Sets the current paste shortcut for the application.">
<polygon fill="#999999" stroke="#666666" points="112,-54 0,-54 0,-24 112,-24 112,-54"/>
<text text-anchor="start" x="8" y="-42" font-family="Helvetica,sans-Serif" font-size="10.00">myproject::Settings</text>
<text text-anchor="middle" x="56" y="-31" font-family="Helvetica,sans-Serif" font-size="10.00">::setPasteShortcut</text>
</a>
</g>
</g>
<!-- Node2 -->
<g id="Node000002" class="node">
<title>Node2</title>
<g id="a_Node000002"><a xlink:href="classmyproject_1_1Settings.html#ae02e97b96b97a3f3c6d0fd9821c98af9" target="_top" xlink:title="Returns the default paste shortcut for the application.">
<polygon fill="white" stroke="#666666" points="276.5,-78 152.5,-78 152.5,-48 276.5,-48 276.5,-78"/>
<text text-anchor="start" x="160.5" y="-66" font-family="Helvetica,sans-Serif" font-size="10.00">myproject::Settings</text>
<text text-anchor="middle" x="214.5" y="-55" font-family="Helvetica,sans-Serif" font-size="10.00">::defaultPasteShortcut</text>
</a>
</g>
</g>
<!-- Node1&#45;&gt;Node2 -->
<g id="edge1_Node000001_Node000002" class="edge">
<title>Node1&#45;&gt;Node2</title>
<g id="a_edge1_Node000001_Node000002"><a xlink:title=" ">
<path fill="none" stroke="#63b8ff" d="M112.18,-47.46C121.94,-48.96 132.24,-50.54 142.37,-52.09"/>
<polygon fill="#63b8ff" stroke="#63b8ff" points="142.01,-55.58 152.43,-53.63 143.08,-48.66 142.01,-55.58"/>
</a>
</g>
</g>
<!-- Node3 -->
<g id="Node000003" class="node">
<title>Node3</title>
<g id="a_Node000003"><a xlink:href="classmyproject_1_1Settings.html#a998c69fdb351bf80358452fac40e4c98" target="_top" xlink:title="Emitted when the paste shortcut is changed.">
<polygon fill="white" stroke="#666666" points="281,-30 148,-30 148,0 281,0 281,-30"/>
<text text-anchor="start" x="156" y="-18" font-family="Helvetica,sans-Serif" font-size="10.00">myproject::Settings</text>
<text text-anchor="middle" x="214.5" y="-7" font-family="Helvetica,sans-Serif" font-size="10.00">::pasteShortcutChanged</text>
</a>
</g>
</g>
<!-- Node1&#45;&gt;Node3 -->
<g id="edge2_Node000001_Node000003" class="edge">
<title>Node1&#45;&gt;Node3</title>
<g id="a_edge2_Node000001_Node000003"><a xlink:title=" ">
<path fill="none" stroke="#63b8ff" d="M112.18,-30.54C120.46,-29.27 129.13,-27.94 137.75,-26.62"/>
<polygon fill="#63b8ff" stroke="#63b8ff" points="138.48,-30.05 147.83,-25.07 137.42,-23.13 138.48,-30.05"/>
</a>
</g>
</g>
</g>
</svg>
