<?xml version="1.0" encoding="UTF-8" standalone="no"?>
<!DOCTYPE svg PUBLIC "-//W3C//DTD SVG 1.1//EN"
 "http://www.w3.org/Graphics/SVG/1.1/DTD/svg11.dtd">
<!-- Generated by graphviz version 2.43.0 (0)
 -->
<!-- Title: src/quick/keysequenceeditor.cpp Pages: 1 -->
<svg width="852pt" height="137pt"
 viewBox="0.00 0.00 851.50 137.00" xmlns="http://www.w3.org/2000/svg" xmlns:xlink="http://www.w3.org/1999/xlink">
<g id="graph0" class="graph" transform="scale(1 1) rotate(0) translate(4 133)">
<title>src/quick/keysequenceeditor.cpp</title>
<!-- Node1 -->
<g id="Node000001" class="node">
<title>Node1</title>
<g id="a_Node000001"><a xlink:title=" ">
<polygon fill="#999999" stroke="#666666" points="717,-129 542,-129 542,-110 717,-110 717,-129"/>
<text text-anchor="middle" x="629.5" y="-117" font-family="Helvetica,sans-Serif" font-size="10.00">src/quick/keysequenceeditor.cpp</text>
</a>
</g>
</g>
<!-- Node2 -->
<g id="Node000002" class="node">
<title>Node2</title>
<g id="a_Node000002"><a xlink:href="keysequenceeditor_8h.html" target="_top" xlink:title=" ">
<polygon fill="white" stroke="#666666" points="477,-74 360,-74 360,-55 477,-55 477,-74"/>
<text text-anchor="middle" x="418.5" y="-62" font-family="Helvetica,sans-Serif" font-size="10.00">keysequenceeditor.h</text>
</a>
</g>
</g>
<!-- Node1&#45;&gt;Node2 -->
<g id="edge1_Node000001_Node000002" class="edge">
<title>Node1&#45;&gt;Node2</title>
<g id="a_edge1_Node000001_Node000002"><a xlink:title=" ">
<path fill="none" stroke="#63b8ff" d="M595.6,-109.98C559.48,-100.91 502.18,-86.52 462.58,-76.57"/>
<polygon fill="#63b8ff" stroke="#63b8ff" points="463.22,-73.12 452.67,-74.08 461.51,-79.91 463.22,-73.12"/>
</a>
</g>
</g>
<!-- Node9 -->
<g id="Node000009" class="node">
<title>Node9</title>
<g id="a_Node000009"><a xlink:title=" ">
<polygon fill="#e0e0e0" stroke="#999999" points="583.5,-74 495.5,-74 495.5,-55 583.5,-55 583.5,-74"/>
<text text-anchor="middle" x="539.5" y="-62" font-family="Helvetica,sans-Serif" font-size="10.00">qnamespace.h</text>
</a>
</g>
</g>
<!-- Node1&#45;&gt;Node9 -->
<g id="edge8_Node000001_Node000009" class="edge">
<title>Node1&#45;&gt;Node9</title>
<g id="a_edge8_Node000001_Node000009"><a xlink:title=" ">
<path fill="none" stroke="#63b8ff" d="M615.04,-109.98C601.08,-101.77 579.71,-89.18 563.25,-79.49"/>
<polygon fill="#63b8ff" stroke="#63b8ff" points="564.62,-76.23 554.22,-74.17 561.06,-82.26 564.62,-76.23"/>
</a>
</g>
</g>
<!-- Node10 -->
<g id="Node000010" class="node">
<title>Node10</title>
<g id="a_Node000010"><a xlink:title=" ">
<polygon fill="#e0e0e0" stroke="#999999" points="657.5,-74 601.5,-74 601.5,-55 657.5,-55 657.5,-74"/>
<text text-anchor="middle" x="629.5" y="-62" font-family="Helvetica,sans-Serif" font-size="10.00">QDebug</text>
</a>
</g>
</g>
<!-- Node1&#45;&gt;Node10 -->
<g id="edge9_Node000001_Node000010" class="edge">
<title>Node1&#45;&gt;Node10</title>
<g id="a_edge9_Node000001_Node000010"><a xlink:title=" ">
<path fill="none" stroke="#63b8ff" d="M629.5,-109.75C629.5,-102.8 629.5,-92.85 629.5,-84.13"/>
<polygon fill="#63b8ff" stroke="#63b8ff" points="633,-84.09 629.5,-74.09 626,-84.09 633,-84.09"/>
</a>
</g>
</g>
<!-- Node11 -->
<g id="Node000011" class="node">
<title>Node11</title>
<g id="a_Node000011"><a xlink:title=" ">
<polygon fill="#e0e0e0" stroke="#999999" points="755.5,-74 675.5,-74 675.5,-55 755.5,-55 755.5,-74"/>
<text text-anchor="middle" x="715.5" y="-62" font-family="Helvetica,sans-Serif" font-size="10.00">QFocusEvent</text>
</a>
</g>
</g>
<!-- Node1&#45;&gt;Node11 -->
<g id="edge10_Node000001_Node000011" class="edge">
<title>Node1&#45;&gt;Node11</title>
<g id="a_edge10_Node000001_Node000011"><a xlink:title=" ">
<path fill="none" stroke="#63b8ff" d="M643.32,-109.98C656.65,-101.77 677.08,-89.18 692.81,-79.49"/>
<polygon fill="#63b8ff" stroke="#63b8ff" points="694.75,-82.4 701.43,-74.17 691.08,-76.44 694.75,-82.4"/>
</a>
</g>
</g>
<!-- Node12 -->
<g id="Node000012" class="node">
<title>Node12</title>
<g id="a_Node000012"><a xlink:title=" ">
<polygon fill="#e0e0e0" stroke="#999999" points="843.5,-74 773.5,-74 773.5,-55 843.5,-55 843.5,-74"/>
<text text-anchor="middle" x="808.5" y="-62" font-family="Helvetica,sans-Serif" font-size="10.00">QKeyEvent</text>
</a>
</g>
</g>
<!-- Node1&#45;&gt;Node12 -->
<g id="edge11_Node000001_Node000012" class="edge">
<title>Node1&#45;&gt;Node12</title>
<g id="a_edge11_Node000001_Node000012"><a xlink:title=" ">
<path fill="none" stroke="#63b8ff" d="M658.26,-109.98C688.44,-101.05 736.07,-86.94 769.6,-77.02"/>
<polygon fill="#63b8ff" stroke="#63b8ff" points="770.92,-80.28 779.52,-74.08 768.93,-73.57 770.92,-80.28"/>
</a>
</g>
</g>
<!-- Node3 -->
<g id="Node000003" class="node">
<title>Node3</title>
<g id="a_Node000003"><a xlink:title=" ">
<polygon fill="#e0e0e0" stroke="#999999" points="191,-19 0,-19 0,0 191,0 191,-19"/>
<text text-anchor="middle" x="95.5" y="-7" font-family="Helvetica,sans-Serif" font-size="10.00">QtQmlIntegration/qqmlintegration.h</text>
</a>
</g>
</g>
<!-- Node2&#45;&gt;Node3 -->
<g id="edge2_Node000002_Node000003" class="edge">
<title>Node2&#45;&gt;Node3</title>
<g id="a_edge2_Node000002_Node000003"><a xlink:title=" ">
<path fill="none" stroke="#63b8ff" d="M366.6,-54.98C309.71,-45.65 218.45,-30.67 157.75,-20.71"/>
<polygon fill="#63b8ff" stroke="#63b8ff" points="157.97,-17.2 147.53,-19.04 156.84,-24.11 157.97,-17.2"/>
</a>
</g>
</g>
<!-- Node4 -->
<g id="Node000004" class="node">
<title>Node4</title>
<g id="a_Node000004"><a xlink:title=" ">
<polygon fill="#e0e0e0" stroke="#999999" points="306,-19 209,-19 209,0 306,0 306,-19"/>
<text text-anchor="middle" x="257.5" y="-7" font-family="Helvetica,sans-Serif" font-size="10.00">qtmetamacros.h</text>
</a>
</g>
</g>
<!-- Node2&#45;&gt;Node4 -->
<g id="edge3_Node000002_Node000004" class="edge">
<title>Node2&#45;&gt;Node4</title>
<g id="a_edge3_Node000002_Node000004"><a xlink:title=" ">
<path fill="none" stroke="#63b8ff" d="M392.63,-54.98C365.72,-46.13 323.38,-32.19 293.27,-22.28"/>
<polygon fill="#63b8ff" stroke="#63b8ff" points="294.16,-18.88 283.57,-19.08 291.97,-25.53 294.16,-18.88"/>
</a>
</g>
</g>
<!-- Node5 -->
<g id="Node000005" class="node">
<title>Node5</title>
<g id="a_Node000005"><a xlink:title=" ">
<polygon fill="#e0e0e0" stroke="#999999" points="413,-19 324,-19 324,0 413,0 413,-19"/>
<text text-anchor="middle" x="368.5" y="-7" font-family="Helvetica,sans-Serif" font-size="10.00">QKeySequence</text>
</a>
</g>
</g>
<!-- Node2&#45;&gt;Node5 -->
<g id="edge4_Node000002_Node000005" class="edge">
<title>Node2&#45;&gt;Node5</title>
<g id="a_edge4_Node000002_Node000005"><a xlink:title=" ">
<path fill="none" stroke="#63b8ff" d="M410.24,-54.75C403.04,-47.11 392.39,-35.82 383.65,-26.56"/>
<polygon fill="#63b8ff" stroke="#63b8ff" points="386.01,-23.96 376.6,-19.09 380.92,-28.76 386.01,-23.96"/>
</a>
</g>
</g>
<!-- Node6 -->
<g id="Node000006" class="node">
<title>Node6</title>
<g id="a_Node000006"><a xlink:title=" ">
<polygon fill="#e0e0e0" stroke="#999999" points="505.5,-19 431.5,-19 431.5,0 505.5,0 505.5,-19"/>
<text text-anchor="middle" x="468.5" y="-7" font-family="Helvetica,sans-Serif" font-size="10.00">QQuickItem</text>
</a>
</g>
</g>
<!-- Node2&#45;&gt;Node6 -->
<g id="edge5_Node000002_Node000006" class="edge">
<title>Node2&#45;&gt;Node6</title>
<g id="a_edge5_Node000002_Node000006"><a xlink:title=" ">
<path fill="none" stroke="#63b8ff" d="M426.76,-54.75C433.96,-47.11 444.61,-35.82 453.35,-26.56"/>
<polygon fill="#63b8ff" stroke="#63b8ff" points="456.08,-28.76 460.4,-19.09 450.99,-23.96 456.08,-28.76"/>
</a>
</g>
</g>
<!-- Node7 -->
<g id="Node000007" class="node">
<title>Node7</title>
<g id="a_Node000007"><a xlink:title=" ">
<polygon fill="#e0e0e0" stroke="#999999" points="577,-19 524,-19 524,0 577,0 577,-19"/>
<text text-anchor="middle" x="550.5" y="-7" font-family="Helvetica,sans-Serif" font-size="10.00">QString</text>
</a>
</g>
</g>
<!-- Node2&#45;&gt;Node7 -->
<g id="edge6_Node000002_Node000007" class="edge">
<title>Node2&#45;&gt;Node7</title>
<g id="a_edge6_Node000002_Node000007"><a xlink:title=" ">
<path fill="none" stroke="#63b8ff" d="M439.71,-54.98C461.23,-46.34 494.78,-32.87 519.33,-23.02"/>
<polygon fill="#63b8ff" stroke="#63b8ff" points="520.93,-26.14 528.91,-19.17 518.32,-19.65 520.93,-26.14"/>
</a>
</g>
</g>
<!-- Node8 -->
<g id="Node000008" class="node">
<title>Node8</title>
<g id="a_Node000008"><a xlink:title=" ">
<polygon fill="#e0e0e0" stroke="#999999" points="650,-19 595,-19 595,0 650,0 650,-19"/>
<text text-anchor="middle" x="622.5" y="-7" font-family="Helvetica,sans-Serif" font-size="10.00">QVector</text>
</a>
</g>
</g>
<!-- Node2&#45;&gt;Node8 -->
<g id="edge7_Node000002_Node000008" class="edge">
<title>Node2&#45;&gt;Node8</title>
<g id="a_edge7_Node000002_Node000008"><a xlink:title=" ">
<path fill="none" stroke="#63b8ff" d="M451.28,-54.98C487.77,-45.5 546.66,-30.2 584.97,-20.25"/>
<polygon fill="#63b8ff" stroke="#63b8ff" points="585.92,-23.62 594.72,-17.72 584.16,-16.84 585.92,-23.62"/>
</a>
</g>
</g>
</g>
</svg>
