<?xml version="1.0" encoding="UTF-8" standalone="no"?>
<!DOCTYPE svg PUBLIC "-//W3C//DTD SVG 1.1//EN"
 "http://www.w3.org/Graphics/SVG/1.1/DTD/svg11.dtd">
<!-- Generated by graphviz version 2.43.0 (0)
 -->
<!-- Title: src/core/logger.h Pages: 1 -->
<svg width="630pt" height="151pt"
 viewBox="0.00 0.00 629.85 151.00" xmlns="http://www.w3.org/2000/svg" xmlns:xlink="http://www.w3.org/1999/xlink">
<g id="graph0" class="graph" transform="scale(1 1) rotate(0) translate(4 147)">
<title>src/core/logger.h</title>
<!-- Node1 -->
<g id="node1" class="node">
<title>Node1</title>
<g id="a_node1"><a xlink:title=" ">
<polygon fill="#bfbfbf" stroke="black" points="269.85,-123.5 269.85,-142.5 366.85,-142.5 366.85,-123.5 269.85,-123.5"/>
<text text-anchor="middle" x="318.35" y="-130.5" font-family="Helvetica,sans-Serif" font-size="10.00">src/core/logger.h</text>
</a>
</g>
</g>
<!-- Node2 -->
<g id="node2" class="node">
<title>Node2</title>
<g id="a_node2"><a xlink:title=" ">
<polygon fill="none" stroke="#bfbfbf" points="170.35,-0.5 170.35,-19.5 228.35,-19.5 228.35,-0.5 170.35,-0.5"/>
<text text-anchor="middle" x="199.35" y="-7.5" font-family="Helvetica,sans-Serif" font-size="10.00">memory</text>
</a>
</g>
</g>
<!-- Node1&#45;&gt;Node2 -->
<g id="edge1" class="edge">
<title>Node1&#45;&gt;Node2</title>
<path fill="none" stroke="midnightblue" d="M269.7,-132.31C191.3,-131.64 42.42,-125.23 9.35,-87 -34.99,-35.73 92.3,-18.67 160.02,-13.3"/>
<polygon fill="midnightblue" stroke="midnightblue" points="160.63,-16.77 170.34,-12.54 160.11,-9.79 160.63,-16.77"/>
</g>
<!-- Node3 -->
<g id="node3" class="node">
<title>Node3</title>
<g id="a_node3"><a xlink:title=" ">
<polygon fill="none" stroke="#bfbfbf" points="18.35,-56.5 18.35,-86.5 124.35,-86.5 124.35,-56.5 18.35,-56.5"/>
<text text-anchor="start" x="26.35" y="-74.5" font-family="Helvetica,sans-Serif" font-size="10.00">spdlog/sinks/basic</text>
<text text-anchor="middle" x="71.35" y="-63.5" font-family="Helvetica,sans-Serif" font-size="10.00">_file_sink.h</text>
</a>
</g>
</g>
<!-- Node1&#45;&gt;Node3 -->
<g id="edge2" class="edge">
<title>Node1&#45;&gt;Node3</title>
<path fill="none" stroke="midnightblue" d="M282.96,-123.48C244.23,-114.15 181.38,-99 134.21,-87.64"/>
<polygon fill="midnightblue" stroke="midnightblue" points="134.94,-84.22 124.4,-85.28 133.3,-91.02 134.94,-84.22"/>
</g>
<!-- Node4 -->
<g id="node4" class="node">
<title>Node4</title>
<g id="a_node4"><a xlink:title=" ">
<polygon fill="none" stroke="#bfbfbf" points="142.85,-56.5 142.85,-86.5 253.85,-86.5 253.85,-56.5 142.85,-56.5"/>
<text text-anchor="start" x="150.85" y="-74.5" font-family="Helvetica,sans-Serif" font-size="10.00">spdlog/sinks/stdout</text>
<text text-anchor="middle" x="198.35" y="-63.5" font-family="Helvetica,sans-Serif" font-size="10.00">_color_sinks.h</text>
</a>
</g>
</g>
<!-- Node1&#45;&gt;Node4 -->
<g id="edge3" class="edge">
<title>Node1&#45;&gt;Node4</title>
<path fill="none" stroke="midnightblue" d="M301.16,-123.48C284.15,-115.04 257.55,-101.86 235.68,-91.01"/>
<polygon fill="midnightblue" stroke="midnightblue" points="237.15,-87.83 226.63,-86.52 234.04,-94.1 237.15,-87.83"/>
</g>
<!-- Node5 -->
<g id="node5" class="node">
<title>Node5</title>
<g id="a_node5"><a xlink:title=" ">
<polygon fill="none" stroke="#bfbfbf" points="271.85,-62 271.85,-81 364.85,-81 364.85,-62 271.85,-62"/>
<text text-anchor="middle" x="318.35" y="-69" font-family="Helvetica,sans-Serif" font-size="10.00">spdlog/spdlog.h</text>
</a>
</g>
</g>
<!-- Node1&#45;&gt;Node5 -->
<g id="edge4" class="edge">
<title>Node1&#45;&gt;Node5</title>
<path fill="none" stroke="midnightblue" d="M318.35,-123.48C318.35,-115.08 318.35,-101.98 318.35,-91.16"/>
<polygon fill="midnightblue" stroke="midnightblue" points="321.85,-91.01 318.35,-81.01 314.85,-91.01 321.85,-91.01"/>
</g>
<!-- Node6 -->
<g id="node6" class="node">
<title>Node6</title>
<g id="a_node6"><a xlink:href="base_8h.html" target="_top" xlink:title=" ">
<polygon fill="none" stroke="black" points="382.85,-62 382.85,-81 431.85,-81 431.85,-62 382.85,-62"/>
<text text-anchor="middle" x="407.35" y="-69" font-family="Helvetica,sans-Serif" font-size="10.00">base.h</text>
</a>
</g>
</g>
<!-- Node1&#45;&gt;Node6 -->
<g id="edge5" class="edge">
<title>Node1&#45;&gt;Node6</title>
<path fill="none" stroke="midnightblue" d="M331.1,-123.48C345.38,-113.93 368.75,-98.31 385.86,-86.87"/>
<polygon fill="midnightblue" stroke="midnightblue" points="388.25,-89.48 394.62,-81.01 384.36,-83.66 388.25,-89.48"/>
</g>
<!-- Node7 -->
<g id="node7" class="node">
<title>Node7</title>
<g id="a_node7"><a xlink:href="parameters_8h.html" target="_top" xlink:title=" ">
<polygon fill="none" stroke="black" points="450.35,-62 450.35,-81 532.35,-81 532.35,-62 450.35,-62"/>
<text text-anchor="middle" x="491.35" y="-69" font-family="Helvetica,sans-Serif" font-size="10.00">parameters.h</text>
</a>
</g>
</g>
<!-- Node1&#45;&gt;Node7 -->
<g id="edge7" class="edge">
<title>Node1&#45;&gt;Node7</title>
<path fill="none" stroke="midnightblue" d="M343.14,-123.48C372.94,-113.22 423.14,-95.96 456.75,-84.4"/>
<polygon fill="midnightblue" stroke="midnightblue" points="458.29,-87.57 466.61,-81.01 456.01,-80.95 458.29,-87.57"/>
</g>
<!-- Node8 -->
<g id="node8" class="node">
<title>Node8</title>
<g id="a_node8"><a xlink:href="singleton_8h.html" target="_top" xlink:title=" ">
<polygon fill="none" stroke="black" points="550.85,-62 550.85,-81 621.85,-81 621.85,-62 550.85,-62"/>
<text text-anchor="middle" x="586.35" y="-69" font-family="Helvetica,sans-Serif" font-size="10.00">singleton.h</text>
</a>
</g>
</g>
<!-- Node1&#45;&gt;Node8 -->
<g id="edge8" class="edge">
<title>Node1&#45;&gt;Node8</title>
<path fill="none" stroke="midnightblue" d="M367,-123.81C412.42,-115.79 481.93,-102.52 541.35,-87 544.71,-86.12 548.18,-85.14 551.65,-84.11"/>
<polygon fill="midnightblue" stroke="midnightblue" points="552.75,-87.43 561.27,-81.13 550.68,-80.75 552.75,-87.43"/>
</g>
<!-- Node6&#45;&gt;Node2 -->
<g id="edge6" class="edge">
<title>Node6&#45;&gt;Node2</title>
<path fill="none" stroke="midnightblue" d="M388.48,-61.86C383.61,-59.79 378.33,-57.7 373.35,-56 327.78,-40.49 273.95,-27.33 238.35,-19.32"/>
<polygon fill="midnightblue" stroke="midnightblue" points="238.89,-15.86 228.37,-17.1 237.38,-22.69 238.89,-15.86"/>
</g>
<!-- Node9 -->
<g id="node9" class="node">
<title>Node9</title>
<g id="a_node9"><a xlink:title=" ">
<polygon fill="none" stroke="#bfbfbf" points="551.85,-0.5 551.85,-19.5 620.85,-19.5 620.85,-0.5 551.85,-0.5"/>
<text text-anchor="middle" x="586.35" y="-7.5" font-family="Helvetica,sans-Serif" font-size="10.00">type_traits</text>
</a>
</g>
</g>
<!-- Node8&#45;&gt;Node9 -->
<g id="edge9" class="edge">
<title>Node8&#45;&gt;Node9</title>
<path fill="none" stroke="midnightblue" d="M586.35,-61.98C586.35,-53.58 586.35,-40.48 586.35,-29.66"/>
<polygon fill="midnightblue" stroke="midnightblue" points="589.85,-29.51 586.35,-19.51 582.85,-29.51 589.85,-29.51"/>
</g>
</g>
</svg>
