<?xml version="1.0" encoding="UTF-8" standalone="no"?>
<!DOCTYPE svg PUBLIC "-//W3C//DTD SVG 1.1//EN"
 "http://www.w3.org/Graphics/SVG/1.1/DTD/svg11.dtd">
<!-- Generated by graphviz version 2.43.0 (0)
 -->
<!-- Title: src/core/logger.h Pages: 1 -->
<svg width="651pt" height="148pt"
 viewBox="0.00 0.00 650.50 148.00" xmlns="http://www.w3.org/2000/svg" xmlns:xlink="http://www.w3.org/1999/xlink">
<g id="graph0" class="graph" transform="scale(1 1) rotate(0) translate(4 144)">
<title>src/core/logger.h</title>
<!-- Node1 -->
<g id="Node000001" class="node">
<title>Node1</title>
<g id="a_Node000001"><a xlink:title=" ">
<polygon fill="#999999" stroke="#666666" points="423.5,-140 326.5,-140 326.5,-121 423.5,-121 423.5,-140"/>
<text text-anchor="middle" x="375" y="-128" font-family="Helvetica,sans-Serif" font-size="10.00">src/core/logger.h</text>
</a>
</g>
</g>
<!-- Node2 -->
<g id="Node000002" class="node">
<title>Node2</title>
<g id="a_Node000002"><a xlink:title=" ">
<polygon fill="#e0e0e0" stroke="#999999" points="106,-85 0,-85 0,-55 106,-55 106,-85"/>
<text text-anchor="start" x="8" y="-73" font-family="Helvetica,sans-Serif" font-size="10.00">spdlog/sinks/basic</text>
<text text-anchor="middle" x="53" y="-62" font-family="Helvetica,sans-Serif" font-size="10.00">_file_sink.h</text>
</a>
</g>
</g>
<!-- Node1&#45;&gt;Node2 -->
<g id="edge1_Node000001_Node000002" class="edge">
<title>Node1&#45;&gt;Node2</title>
<g id="a_edge1_Node000001_Node000002"><a xlink:title=" ">
<path fill="none" stroke="#63b8ff" d="M326.46,-121.97C276.28,-114.02 195.42,-100.71 116.21,-85.18"/>
<polygon fill="#63b8ff" stroke="#63b8ff" points="116.55,-81.68 106.06,-83.17 115.19,-88.55 116.55,-81.68"/>
</a>
</g>
</g>
<!-- Node3 -->
<g id="Node000003" class="node">
<title>Node3</title>
<g id="a_Node000003"><a xlink:title=" ">
<polygon fill="#e0e0e0" stroke="#999999" points="235.5,-85 124.5,-85 124.5,-55 235.5,-55 235.5,-85"/>
<text text-anchor="start" x="132.5" y="-73" font-family="Helvetica,sans-Serif" font-size="10.00">spdlog/sinks/stdout</text>
<text text-anchor="middle" x="180" y="-62" font-family="Helvetica,sans-Serif" font-size="10.00">_color_sinks.h</text>
</a>
</g>
</g>
<!-- Node1&#45;&gt;Node3 -->
<g id="edge2_Node000001_Node000003" class="edge">
<title>Node1&#45;&gt;Node3</title>
<g id="a_edge2_Node000001_Node000003"><a xlink:title=" ">
<path fill="none" stroke="#63b8ff" d="M346.65,-120.99C317.97,-112.39 272.85,-98.86 236.79,-88.04"/>
<polygon fill="#63b8ff" stroke="#63b8ff" points="237.46,-84.59 226.88,-85.06 235.45,-91.29 237.46,-84.59"/>
</a>
</g>
</g>
<!-- Node4 -->
<g id="Node000004" class="node">
<title>Node4</title>
<g id="a_Node000004"><a xlink:title=" ">
<polygon fill="#e0e0e0" stroke="#999999" points="346.5,-79.5 253.5,-79.5 253.5,-60.5 346.5,-60.5 346.5,-79.5"/>
<text text-anchor="middle" x="300" y="-67.5" font-family="Helvetica,sans-Serif" font-size="10.00">spdlog/spdlog.h</text>
</a>
</g>
</g>
<!-- Node1&#45;&gt;Node4 -->
<g id="edge3_Node000001_Node000004" class="edge">
<title>Node1&#45;&gt;Node4</title>
<g id="a_edge3_Node000001_Node000004"><a xlink:title=" ">
<path fill="none" stroke="#63b8ff" d="M363.93,-120.87C352.19,-111.71 333.41,-97.06 319.24,-86.01"/>
<polygon fill="#63b8ff" stroke="#63b8ff" points="321.15,-83.06 311.11,-79.67 316.84,-88.58 321.15,-83.06"/>
</a>
</g>
</g>
<!-- Node5 -->
<g id="Node000005" class="node">
<title>Node5</title>
<g id="a_Node000005"><a xlink:title=" ">
<polygon fill="#e0e0e0" stroke="#999999" points="404,-19 346,-19 346,0 404,0 404,-19"/>
<text text-anchor="middle" x="375" y="-7" font-family="Helvetica,sans-Serif" font-size="10.00">memory</text>
</a>
</g>
</g>
<!-- Node1&#45;&gt;Node5 -->
<g id="edge4_Node000001_Node000005" class="edge">
<title>Node1&#45;&gt;Node5</title>
<g id="a_edge4_Node000001_Node000005"><a xlink:title=" ">
<path fill="none" stroke="#63b8ff" d="M375,-120.94C375,-101.91 375,-55.69 375,-29.47"/>
<polygon fill="#63b8ff" stroke="#63b8ff" points="378.5,-29.3 375,-19.3 371.5,-29.3 378.5,-29.3"/>
</a>
</g>
</g>
<!-- Node6 -->
<g id="Node000006" class="node">
<title>Node6</title>
<g id="a_Node000006"><a xlink:href="base_8h.html" target="_top" xlink:title=" ">
<polygon fill="white" stroke="#666666" points="452.5,-79.5 403.5,-79.5 403.5,-60.5 452.5,-60.5 452.5,-79.5"/>
<text text-anchor="middle" x="428" y="-67.5" font-family="Helvetica,sans-Serif" font-size="10.00">base.h</text>
</a>
</g>
</g>
<!-- Node1&#45;&gt;Node6 -->
<g id="edge5_Node000001_Node000006" class="edge">
<title>Node1&#45;&gt;Node6</title>
<g id="a_edge5_Node000001_Node000006"><a xlink:title=" ">
<path fill="none" stroke="#63b8ff" d="M382.82,-120.87C390.81,-112.05 403.39,-98.16 413.26,-87.27"/>
<polygon fill="#63b8ff" stroke="#63b8ff" points="416.03,-89.43 420.15,-79.67 410.84,-84.73 416.03,-89.43"/>
</a>
</g>
</g>
<!-- Node8 -->
<g id="Node000008" class="node">
<title>Node8</title>
<g id="a_Node000008"><a xlink:href="parameters_8h.html" target="_top" xlink:title=" ">
<polygon fill="white" stroke="#666666" points="553,-79.5 471,-79.5 471,-60.5 553,-60.5 553,-79.5"/>
<text text-anchor="middle" x="512" y="-67.5" font-family="Helvetica,sans-Serif" font-size="10.00">parameters.h</text>
</a>
</g>
</g>
<!-- Node1&#45;&gt;Node8 -->
<g id="edge8_Node000001_Node000008" class="edge">
<title>Node1&#45;&gt;Node8</title>
<g id="a_edge8_Node000001_Node000008"><a xlink:title=" ">
<path fill="none" stroke="#63b8ff" d="M394.92,-120.99C417.95,-111.16 456.08,-94.88 482.54,-83.58"/>
<polygon fill="#63b8ff" stroke="#63b8ff" points="484.23,-86.66 492.05,-79.52 481.48,-80.22 484.23,-86.66"/>
</a>
</g>
</g>
<!-- Node9 -->
<g id="Node000009" class="node">
<title>Node9</title>
<g id="a_Node000009"><a xlink:href="singleton_8h.html" target="_top" xlink:title=" ">
<polygon fill="white" stroke="#666666" points="642.5,-79.5 571.5,-79.5 571.5,-60.5 642.5,-60.5 642.5,-79.5"/>
<text text-anchor="middle" x="607" y="-67.5" font-family="Helvetica,sans-Serif" font-size="10.00">singleton.h</text>
</a>
</g>
</g>
<!-- Node1&#45;&gt;Node9 -->
<g id="edge9_Node000001_Node000009" class="edge">
<title>Node1&#45;&gt;Node9</title>
<g id="a_edge9_Node000001_Node000009"><a xlink:title=" ">
<path fill="none" stroke="#63b8ff" d="M414.24,-120.98C452.21,-112.54 511.31,-98.9 562,-85 564.81,-84.23 567.71,-83.4 570.62,-82.55"/>
<polygon fill="#63b8ff" stroke="#63b8ff" points="571.87,-85.83 580.44,-79.59 569.85,-79.12 571.87,-85.83"/>
</a>
</g>
</g>
<!-- Node6&#45;&gt;Node5 -->
<g id="edge6_Node000006_Node000005" class="edge">
<title>Node6&#45;&gt;Node5</title>
<g id="a_edge6_Node000006_Node000005"><a xlink:title=" ">
<path fill="none" stroke="#63b8ff" d="M420.18,-60.37C412.19,-51.55 399.61,-37.66 389.74,-26.77"/>
<polygon fill="#63b8ff" stroke="#63b8ff" points="392.16,-24.23 382.85,-19.17 386.97,-28.93 392.16,-24.23"/>
</a>
</g>
</g>
<!-- Node7 -->
<g id="Node000007" class="node">
<title>Node7</title>
<g id="a_Node000007"><a xlink:title=" ">
<polygon fill="#e0e0e0" stroke="#999999" points="467.5,-19 422.5,-19 422.5,0 467.5,0 467.5,-19"/>
<text text-anchor="middle" x="445" y="-7" font-family="Helvetica,sans-Serif" font-size="10.00">utility</text>
</a>
</g>
</g>
<!-- Node6&#45;&gt;Node7 -->
<g id="edge7_Node000006_Node000007" class="edge">
<title>Node6&#45;&gt;Node7</title>
<g id="a_edge7_Node000006_Node000007"><a xlink:title=" ">
<path fill="none" stroke="#63b8ff" d="M430.51,-60.37C432.89,-52.16 436.56,-39.54 439.61,-29.05"/>
<polygon fill="#63b8ff" stroke="#63b8ff" points="443.05,-29.75 442.48,-19.17 436.33,-27.79 443.05,-29.75"/>
</a>
</g>
</g>
<!-- Node10 -->
<g id="Node000010" class="node">
<title>Node10</title>
<g id="a_Node000010"><a xlink:title=" ">
<polygon fill="#e0e0e0" stroke="#999999" points="641.5,-19 572.5,-19 572.5,0 641.5,0 641.5,-19"/>
<text text-anchor="middle" x="607" y="-7" font-family="Helvetica,sans-Serif" font-size="10.00">type_traits</text>
</a>
</g>
</g>
<!-- Node9&#45;&gt;Node10 -->
<g id="edge10_Node000009_Node000010" class="edge">
<title>Node9&#45;&gt;Node10</title>
<g id="a_edge10_Node000009_Node000010"><a xlink:title=" ">
<path fill="none" stroke="#63b8ff" d="M607,-60.37C607,-52.25 607,-39.81 607,-29.39"/>
<polygon fill="#63b8ff" stroke="#63b8ff" points="610.5,-29.17 607,-19.17 603.5,-29.17 610.5,-29.17"/>
</a>
</g>
</g>
</g>
</svg>
