<?xml version="1.0" encoding="UTF-8" standalone="no"?>
<!DOCTYPE svg PUBLIC "-//W3C//DTD SVG 1.1//EN"
 "http://www.w3.org/Graphics/SVG/1.1/DTD/svg11.dtd">
<!-- Generated by graphviz version 2.43.0 (0)
 -->
<!-- Title: main Pages: 1 -->
<svg width="234pt" height="76pt"
 viewBox="0.00 0.00 234.00 75.50" xmlns="http://www.w3.org/2000/svg" xmlns:xlink="http://www.w3.org/1999/xlink">
<g id="graph0" class="graph" transform="scale(1 1) rotate(0) translate(4 71.5)">
<title>main</title>
<!-- Node1 -->
<g id="Node000001" class="node">
<title>Node1</title>
<g id="a_Node000001"><a xlink:title=" ">
<polygon fill="#999999" stroke="#666666" points="41,-40 0,-40 0,-21 41,-21 41,-40"/>
<text text-anchor="middle" x="20.5" y="-28" font-family="Helvetica,sans-Serif" font-size="10.00">main</text>
</a>
</g>
</g>
<!-- Node2 -->
<g id="Node000002" class="node">
<title>Node2</title>
<g id="a_Node000002"><a xlink:href="classmyproject_1_1Application.html#a2e6590fff4945fb989b80bc5a2d73690" target="_top" xlink:title="Returns the QML engine.">
<polygon fill="white" stroke="#666666" points="215,-67.5 88,-67.5 88,-37.5 215,-37.5 215,-67.5"/>
<text text-anchor="start" x="96" y="-55.5" font-family="Helvetica,sans-Serif" font-size="10.00">myproject::Application</text>
<text text-anchor="middle" x="151.5" y="-44.5" font-family="Helvetica,sans-Serif" font-size="10.00">::qmlEngine</text>
</a>
</g>
</g>
<!-- Node1&#45;&gt;Node2 -->
<g id="edge1_Node000001_Node000002" class="edge">
<title>Node1&#45;&gt;Node2</title>
<g id="a_edge1_Node000001_Node000002"><a xlink:title=" ">
<path fill="none" stroke="#63b8ff" d="M41.09,-33.84C51.24,-35.57 64.34,-37.81 77.93,-40.12"/>
<polygon fill="#63b8ff" stroke="#63b8ff" points="77.42,-43.59 87.87,-41.82 78.6,-36.69 77.42,-43.59"/>
</a>
</g>
</g>
<!-- Node3 -->
<g id="Node000003" class="node">
<title>Node3</title>
<g id="a_Node000003"><a xlink:href="classmyproject_1_1Application.html#a7aab3f877dbb4218b820cfbfe84f83d6" target="_top" xlink:title="Runs the application.">
<polygon fill="white" stroke="#666666" points="226,-19 77,-19 77,0 226,0 226,-19"/>
<text text-anchor="middle" x="151.5" y="-7" font-family="Helvetica,sans-Serif" font-size="10.00">myproject::Application::run</text>
</a>
</g>
</g>
<!-- Node1&#45;&gt;Node3 -->
<g id="edge2_Node000001_Node000003" class="edge">
<title>Node1&#45;&gt;Node3</title>
<g id="a_edge2_Node000001_Node000003"><a xlink:title=" ">
<path fill="none" stroke="#63b8ff" d="M41.09,-27.31C52.31,-25.48 67.12,-23.07 82.21,-20.62"/>
<polygon fill="#63b8ff" stroke="#63b8ff" points="82.83,-24.06 92.14,-19 81.7,-17.15 82.83,-24.06"/>
</a>
</g>
</g>
</g>
</svg>
