<?xml version="1.0" encoding="UTF-8" standalone="no"?>
<!DOCTYPE svg PUBLIC "-//W3C//DTD SVG 1.1//EN"
 "http://www.w3.org/Graphics/SVG/1.1/DTD/svg11.dtd">
<!-- Generated by graphviz version 2.43.0 (0)
 -->
<!-- Title: main Pages: 1 -->
<svg width="256pt" height="78pt"
 viewBox="0.00 0.00 256.00 77.50" xmlns="http://www.w3.org/2000/svg" xmlns:xlink="http://www.w3.org/1999/xlink">
<g id="graph0" class="graph" transform="scale(1 1) rotate(0) translate(4 73.5)">
<title>main</title>
<!-- Node1 -->
<g id="node1" class="node">
<title>Node1</title>
<g id="a_node1"><a xlink:title=" ">
<polygon fill="#bfbfbf" stroke="black" points="0,-22.5 0,-41.5 41,-41.5 41,-22.5 0,-22.5"/>
<text text-anchor="middle" x="20.5" y="-29.5" font-family="Helvetica,sans-Serif" font-size="10.00">main</text>
</a>
</g>
</g>
<!-- Node2 -->
<g id="node2" class="node">
<title>Node2</title>
<g id="a_node2"><a xlink:href="classroom__sketcher_1_1Application.html#a92d559d66ef0f1d9902c137bc5c28b06" target="_top" xlink:title=" ">
<polygon fill="none" stroke="black" points="88,-39 88,-69 237,-69 237,-39 88,-39"/>
<text text-anchor="start" x="96" y="-57" font-family="Helvetica,sans-Serif" font-size="10.00">room_sketcher::Application</text>
<text text-anchor="middle" x="162.5" y="-46" font-family="Helvetica,sans-Serif" font-size="10.00">::qmlEngine</text>
</a>
</g>
</g>
<!-- Node1&#45;&gt;Node2 -->
<g id="edge1" class="edge">
<title>Node1&#45;&gt;Node2</title>
<path fill="none" stroke="midnightblue" d="M41.26,-35.11C51.27,-36.68 64.17,-38.71 77.8,-40.85"/>
<polygon fill="midnightblue" stroke="midnightblue" points="77.39,-44.33 87.81,-42.42 78.48,-37.41 77.39,-44.33"/>
</g>
<!-- Node3 -->
<g id="node3" class="node">
<title>Node3</title>
<g id="a_node3"><a xlink:href="classroom__sketcher_1_1Application.html#a9deac88182b09d4cc44ff155f7d6289b" target="_top" xlink:title=" ">
<polygon fill="none" stroke="black" points="77,-0.5 77,-19.5 248,-19.5 248,-0.5 77,-0.5"/>
<text text-anchor="middle" x="162.5" y="-7.5" font-family="Helvetica,sans-Serif" font-size="10.00">room_sketcher::Application::run</text>
</a>
</g>
</g>
<!-- Node1&#45;&gt;Node3 -->
<g id="edge2" class="edge">
<title>Node1&#45;&gt;Node3</title>
<path fill="none" stroke="midnightblue" d="M41.26,-28.89C54.43,-26.83 72.6,-23.97 90.84,-21.1"/>
<polygon fill="midnightblue" stroke="midnightblue" points="91.61,-24.53 100.94,-19.52 90.52,-17.61 91.61,-24.53"/>
</g>
</g>
</svg>
