<?xml version="1.0" encoding="UTF-8" standalone="no"?>
<!DOCTYPE svg PUBLIC "-//W3C//DTD SVG 1.1//EN"
 "http://www.w3.org/Graphics/SVG/1.1/DTD/svg11.dtd">
<!-- Generated by graphviz version 2.43.0 (0)
 -->
<!-- Title: TEST_CASE Pages: 1 -->
<svg width="393pt" height="86pt"
 viewBox="0.00 0.00 393.00 86.00" xmlns="http://www.w3.org/2000/svg" xmlns:xlink="http://www.w3.org/1999/xlink">
<g id="graph0" class="graph" transform="scale(1 1) rotate(0) translate(4 82)">
<title>TEST_CASE</title>
<!-- Node1 -->
<g id="Node000001" class="node">
<title>Node1</title>
<g id="a_Node000001"><a xlink:title=" ">
<polygon fill="#999999" stroke="#666666" points="71,-50.5 0,-50.5 0,-31.5 71,-31.5 71,-50.5"/>
<text text-anchor="middle" x="35.5" y="-38.5" font-family="Helvetica,sans-Serif" font-size="10.00">TEST_CASE</text>
</a>
</g>
</g>
<!-- Node2 -->
<g id="Node000002" class="node">
<title>Node2</title>
<g id="a_Node000002"><a xlink:href="classmyproject_1_1Settings.html#a5fdde332391adf74abb89c5ff97b067d" target="_top" xlink:title="Emitted when the open shortcut is changed.">
<polygon fill="white" stroke="#666666" points="385,-78 255,-78 255,-48 385,-48 385,-78"/>
<text text-anchor="start" x="263" y="-66" font-family="Helvetica,sans-Serif" font-size="10.00">myproject::Settings</text>
<text text-anchor="middle" x="320" y="-55" font-family="Helvetica,sans-Serif" font-size="10.00">::openShortcutChanged</text>
</a>
</g>
</g>
<!-- Node1&#45;&gt;Node2 -->
<g id="edge1_Node000001_Node000002" class="edge">
<title>Node1&#45;&gt;Node2</title>
<g id="a_edge1_Node000001_Node000002"><a xlink:title=" ">
<path fill="none" stroke="#63b8ff" d="M71.14,-43.7C114.07,-47.04 188.41,-52.83 244.5,-57.2"/>
<polygon fill="#63b8ff" stroke="#63b8ff" points="244.51,-60.71 254.75,-58 245.05,-53.73 244.51,-60.71"/>
</a>
</g>
</g>
<!-- Node3 -->
<g id="Node000003" class="node">
<title>Node3</title>
<g id="a_Node000003"><a xlink:href="classmyproject_1_1Settings.html#aedb7ec5a225dc077c1377b2d769edbc4" target="_top" xlink:title="Sets the current open shortcut for the application.">
<polygon fill="white" stroke="#666666" points="219,-35 107,-35 107,-5 219,-5 219,-35"/>
<text text-anchor="start" x="115" y="-23" font-family="Helvetica,sans-Serif" font-size="10.00">myproject::Settings</text>
<text text-anchor="middle" x="163" y="-12" font-family="Helvetica,sans-Serif" font-size="10.00">::setOpenShortcut</text>
</a>
</g>
</g>
<!-- Node1&#45;&gt;Node3 -->
<g id="edge2_Node000001_Node000003" class="edge">
<title>Node1&#45;&gt;Node3</title>
<g id="a_edge2_Node000001_Node000003"><a xlink:title=" ">
<path fill="none" stroke="#63b8ff" d="M71.13,-35.21C79.14,-33.87 87.92,-32.4 96.77,-30.91"/>
<polygon fill="#63b8ff" stroke="#63b8ff" points="97.47,-34.35 106.75,-29.24 96.31,-27.44 97.47,-34.35"/>
</a>
</g>
</g>
<!-- Node3&#45;&gt;Node2 -->
<g id="edge4_Node000003_Node000002" class="edge">
<title>Node3&#45;&gt;Node2</title>
<g id="a_edge4_Node000003_Node000002"><a xlink:title=" ">
<path fill="none" stroke="#63b8ff" d="M218.21,-35.04C230.13,-38.35 242.86,-41.88 255.11,-45.28"/>
<polygon fill="#63b8ff" stroke="#63b8ff" points="254.25,-48.67 264.82,-47.97 256.12,-41.92 254.25,-48.67"/>
</a>
</g>
</g>
<!-- Node4 -->
<g id="Node000004" class="node">
<title>Node4</title>
<g id="a_Node000004"><a xlink:href="classmyproject_1_1Settings.html#a65bca73ffafab7c0eec57cdfa1509e12" target="_top" xlink:title="Returns the default open shortcut for the application.">
<polygon fill="white" stroke="#666666" points="381.5,-30 258.5,-30 258.5,0 381.5,0 381.5,-30"/>
<text text-anchor="start" x="266.5" y="-18" font-family="Helvetica,sans-Serif" font-size="10.00">myproject::Settings</text>
<text text-anchor="middle" x="320" y="-7" font-family="Helvetica,sans-Serif" font-size="10.00">::defaultOpenShortcut</text>
</a>
</g>
</g>
<!-- Node3&#45;&gt;Node4 -->
<g id="edge3_Node000003_Node000004" class="edge">
<title>Node3&#45;&gt;Node4</title>
<g id="a_edge3_Node000003_Node000004"><a xlink:title=" ">
<path fill="none" stroke="#63b8ff" d="M219.08,-18.22C228.51,-17.92 238.43,-17.6 248.2,-17.28"/>
<polygon fill="#63b8ff" stroke="#63b8ff" points="248.42,-20.78 258.3,-16.96 248.19,-13.78 248.42,-20.78"/>
</a>
</g>
</g>
</g>
</svg>
