<?xml version="1.0" encoding="UTF-8" standalone="no"?>
<!DOCTYPE svg PUBLIC "-//W3C//DTD SVG 1.1//EN"
 "http://www.w3.org/Graphics/SVG/1.1/DTD/svg11.dtd">
<!-- Generated by graphviz version 2.43.0 (0)
 -->
<!-- Title: TEST_CASE Pages: 1 -->
<svg width="434pt" height="86pt"
 viewBox="0.00 0.00 434.00 86.00" xmlns="http://www.w3.org/2000/svg" xmlns:xlink="http://www.w3.org/1999/xlink">
<g id="graph0" class="graph" transform="scale(1 1) rotate(0) translate(4 82)">
<title>TEST_CASE</title>
<!-- Node1 -->
<g id="Node000001" class="node">
<title>Node1</title>
<g id="a_Node000001"><a xlink:title=" ">
<polygon fill="#999999" stroke="#666666" points="71,-50.5 0,-50.5 0,-31.5 71,-31.5 71,-50.5"/>
<text text-anchor="middle" x="35.5" y="-38.5" font-family="Helvetica,sans-Serif" font-size="10.00">TEST_CASE</text>
</a>
</g>
</g>
<!-- Node2 -->
<g id="Node000002" class="node">
<title>Node2</title>
<g id="a_Node000002"><a xlink:href="classmyproject_1_1Settings.html#a97cd8f29bdc99337862619fe56dcf235" target="_top" xlink:title="Emitted when the full screen shortcut is changed.">
<polygon fill="white" stroke="#666666" points="426,-78 271,-78 271,-48 426,-48 426,-78"/>
<text text-anchor="start" x="279" y="-66" font-family="Helvetica,sans-Serif" font-size="10.00">myproject::Settings</text>
<text text-anchor="middle" x="348.5" y="-55" font-family="Helvetica,sans-Serif" font-size="10.00">::fullScreenShortcutChanged</text>
</a>
</g>
</g>
<!-- Node1&#45;&gt;Node2 -->
<g id="edge1_Node000001_Node000002" class="edge">
<title>Node1&#45;&gt;Node2</title>
<g id="a_edge1_Node000001_Node000002"><a xlink:title=" ">
<path fill="none" stroke="#63b8ff" d="M71.27,-43.46C116.69,-46.67 197.79,-52.41 260.41,-56.84"/>
<polygon fill="#63b8ff" stroke="#63b8ff" points="260.46,-60.35 270.69,-57.57 260.96,-53.37 260.46,-60.35"/>
</a>
</g>
</g>
<!-- Node3 -->
<g id="Node000003" class="node">
<title>Node3</title>
<g id="a_Node000003"><a xlink:href="classmyproject_1_1Settings.html#afb6632600dde242082182298dfa4bfc4" target="_top" xlink:title="Sets the current full screen shortcut for the application.">
<polygon fill="white" stroke="#666666" points="235,-35 107,-35 107,-5 235,-5 235,-35"/>
<text text-anchor="start" x="115" y="-23" font-family="Helvetica,sans-Serif" font-size="10.00">myproject::Settings</text>
<text text-anchor="middle" x="171" y="-12" font-family="Helvetica,sans-Serif" font-size="10.00">::setFullScreenShortcut</text>
</a>
</g>
</g>
<!-- Node1&#45;&gt;Node3 -->
<g id="edge2_Node000001_Node000003" class="edge">
<title>Node1&#45;&gt;Node3</title>
<g id="a_edge2_Node000001_Node000003"><a xlink:title=" ">
<path fill="none" stroke="#63b8ff" d="M71.23,-35.54C79.2,-34.28 87.97,-32.9 96.89,-31.5"/>
<polygon fill="#63b8ff" stroke="#63b8ff" points="97.66,-34.92 106.99,-29.91 96.57,-28.01 97.66,-34.92"/>
</a>
</g>
</g>
<!-- Node3&#45;&gt;Node2 -->
<g id="edge4_Node000003_Node000002" class="edge">
<title>Node3&#45;&gt;Node2</title>
<g id="a_edge4_Node000003_Node000002"><a xlink:title=" ">
<path fill="none" stroke="#63b8ff" d="M233.38,-35.04C247.28,-38.44 262.14,-42.09 276.4,-45.58"/>
<polygon fill="#63b8ff" stroke="#63b8ff" points="275.61,-48.99 286.15,-47.97 277.27,-42.19 275.61,-48.99"/>
</a>
</g>
</g>
<!-- Node4 -->
<g id="Node000004" class="node">
<title>Node4</title>
<g id="a_Node000004"><a xlink:href="classmyproject_1_1Settings.html#a1356f33fbca31fb90758636fe2621b6e" target="_top" xlink:title="Returns the default full screen shortcut for the application.">
<polygon fill="white" stroke="#666666" points="422.5,-30 274.5,-30 274.5,0 422.5,0 422.5,-30"/>
<text text-anchor="start" x="282.5" y="-18" font-family="Helvetica,sans-Serif" font-size="10.00">myproject::Settings</text>
<text text-anchor="middle" x="348.5" y="-7" font-family="Helvetica,sans-Serif" font-size="10.00">::defaultFullScreenShortcut</text>
</a>
</g>
</g>
<!-- Node3&#45;&gt;Node4 -->
<g id="edge3_Node000003_Node000004" class="edge">
<title>Node3&#45;&gt;Node4</title>
<g id="a_edge3_Node000003_Node000004"><a xlink:title=" ">
<path fill="none" stroke="#63b8ff" d="M235.36,-18.19C244.76,-17.93 254.57,-17.65 264.3,-17.37"/>
<polygon fill="#63b8ff" stroke="#63b8ff" points="264.49,-20.87 274.39,-17.08 264.29,-13.87 264.49,-20.87"/>
</a>
</g>
</g>
</g>
</svg>
