<?xml version="1.0" encoding="UTF-8" standalone="no"?>
<!DOCTYPE svg PUBLIC "-//W3C//DTD SVG 1.1//EN"
 "http://www.w3.org/Graphics/SVG/1.1/DTD/svg11.dtd">
<!-- Generated by graphviz version 2.43.0 (0)
 -->
<!-- Title: TEST_CASE Pages: 1 -->
<svg width="409pt" height="86pt"
 viewBox="0.00 0.00 409.00 86.00" xmlns="http://www.w3.org/2000/svg" xmlns:xlink="http://www.w3.org/1999/xlink">
<g id="graph0" class="graph" transform="scale(1 1) rotate(0) translate(4 82)">
<title>TEST_CASE</title>
<!-- Node1 -->
<g id="Node000001" class="node">
<title>Node1</title>
<g id="a_Node000001"><a xlink:title=" ">
<polygon fill="#999999" stroke="#666666" points="71,-50.5 0,-50.5 0,-31.5 71,-31.5 71,-50.5"/>
<text text-anchor="middle" x="35.5" y="-38.5" font-family="Helvetica,sans-Serif" font-size="10.00">TEST_CASE</text>
</a>
</g>
</g>
<!-- Node2 -->
<g id="Node000002" class="node">
<title>Node2</title>
<g id="a_Node000002"><a xlink:href="classmyproject_1_1Settings.html#a9288082a6302c1f7a7673ff5d3087856" target="_top" xlink:title="Emitted when the options shortcut is changed.">
<polygon fill="white" stroke="#666666" points="401,-78 259,-78 259,-48 401,-48 401,-78"/>
<text text-anchor="start" x="267" y="-66" font-family="Helvetica,sans-Serif" font-size="10.00">myproject::Settings</text>
<text text-anchor="middle" x="330" y="-55" font-family="Helvetica,sans-Serif" font-size="10.00">::optionsShortcutChanged</text>
</a>
</g>
</g>
<!-- Node1&#45;&gt;Node2 -->
<g id="edge1_Node000001_Node000002" class="edge">
<title>Node1&#45;&gt;Node2</title>
<g id="a_edge1_Node000001_Node000002"><a xlink:title=" ">
<path fill="none" stroke="#63b8ff" d="M71.2,-43.61C114.67,-46.88 190.51,-52.58 248.72,-56.96"/>
<polygon fill="#63b8ff" stroke="#63b8ff" points="248.76,-60.47 259,-57.73 249.29,-53.49 248.76,-60.47"/>
</a>
</g>
</g>
<!-- Node3 -->
<g id="Node000003" class="node">
<title>Node3</title>
<g id="a_Node000003"><a xlink:href="classmyproject_1_1Settings.html#a47af30e166f78fe478324fa0ed02429e" target="_top" xlink:title="Sets the current options shortcut for the application.">
<polygon fill="white" stroke="#666666" points="223,-35 107,-35 107,-5 223,-5 223,-35"/>
<text text-anchor="start" x="115" y="-23" font-family="Helvetica,sans-Serif" font-size="10.00">myproject::Settings</text>
<text text-anchor="middle" x="165" y="-12" font-family="Helvetica,sans-Serif" font-size="10.00">::setOptionsShortcut</text>
</a>
</g>
</g>
<!-- Node1&#45;&gt;Node3 -->
<g id="edge2_Node000001_Node000003" class="edge">
<title>Node1&#45;&gt;Node3</title>
<g id="a_edge2_Node000001_Node000003"><a xlink:title=" ">
<path fill="none" stroke="#63b8ff" d="M71,-35.32C79.04,-33.99 87.87,-32.54 96.79,-31.07"/>
<polygon fill="#63b8ff" stroke="#63b8ff" points="97.56,-34.49 106.86,-29.41 96.43,-27.58 97.56,-34.49"/>
</a>
</g>
</g>
<!-- Node3&#45;&gt;Node2 -->
<g id="edge4_Node000003_Node000002" class="edge">
<title>Node3&#45;&gt;Node2</title>
<g id="a_edge4_Node000003_Node000002"><a xlink:title=" ">
<path fill="none" stroke="#63b8ff" d="M223.01,-35.04C235.67,-38.38 249.19,-41.95 262.2,-45.38"/>
<polygon fill="#63b8ff" stroke="#63b8ff" points="261.46,-48.8 272.02,-47.97 263.25,-42.03 261.46,-48.8"/>
</a>
</g>
</g>
<!-- Node4 -->
<g id="Node000004" class="node">
<title>Node4</title>
<g id="a_Node000004"><a xlink:href="classmyproject_1_1Settings.html#ab1a1ef6af237d00cc3f1e7ce9b282538" target="_top" xlink:title="Returns the default options shortcut for the application.">
<polygon fill="white" stroke="#666666" points="397.5,-30 262.5,-30 262.5,0 397.5,0 397.5,-30"/>
<text text-anchor="start" x="270.5" y="-18" font-family="Helvetica,sans-Serif" font-size="10.00">myproject::Settings</text>
<text text-anchor="middle" x="330" y="-7" font-family="Helvetica,sans-Serif" font-size="10.00">::defaultOptionsShortcut</text>
</a>
</g>
</g>
<!-- Node3&#45;&gt;Node4 -->
<g id="edge3_Node000003_Node000004" class="edge">
<title>Node3&#45;&gt;Node4</title>
<g id="a_edge3_Node000003_Node000004"><a xlink:title=" ">
<path fill="none" stroke="#63b8ff" d="M223.01,-18.25C232.41,-17.96 242.29,-17.66 252.09,-17.36"/>
<polygon fill="#63b8ff" stroke="#63b8ff" points="252.35,-20.85 262.24,-17.05 252.14,-13.86 252.35,-20.85"/>
</a>
</g>
</g>
</g>
</svg>
