<?xml version="1.0" encoding="UTF-8" standalone="no"?>
<!DOCTYPE svg PUBLIC "-//W3C//DTD SVG 1.1//EN"
 "http://www.w3.org/Graphics/SVG/1.1/DTD/svg11.dtd">
<!-- Generated by graphviz version 2.43.0 (0)
 -->
<!-- Title: TEST_CASE Pages: 1 -->
<svg width="263pt" height="710pt"
 viewBox="0.00 0.00 263.00 710.00" xmlns="http://www.w3.org/2000/svg" xmlns:xlink="http://www.w3.org/1999/xlink">
<g id="graph0" class="graph" transform="scale(1 1) rotate(0) translate(4 706)">
<title>TEST_CASE</title>
<!-- Node1 -->
<g id="Node000001" class="node">
<title>Node1</title>
<g id="a_Node000001"><a xlink:title=" ">
<polygon fill="#999999" stroke="#666666" points="71,-360.5 0,-360.5 0,-341.5 71,-341.5 71,-360.5"/>
<text text-anchor="middle" x="35.5" y="-348.5" font-family="Helvetica,sans-Serif" font-size="10.00">TEST_CASE</text>
</a>
</g>
</g>
<!-- Node2 -->
<g id="Node000002" class="node">
<title>Node2</title>
<g id="a_Node000002"><a xlink:href="classmyproject_1_1Settings.html#a5b57c90ed6e15c4fa81363ad9219fa5e" target="_top" xlink:title="Returns the default copy shortcut for the application.">
<polygon fill="white" stroke="#666666" points="242,-702 120,-702 120,-672 242,-672 242,-702"/>
<text text-anchor="start" x="128" y="-690" font-family="Helvetica,sans-Serif" font-size="10.00">myproject::Settings</text>
<text text-anchor="middle" x="181" y="-679" font-family="Helvetica,sans-Serif" font-size="10.00">::defaultCopyShortcut</text>
</a>
</g>
</g>
<!-- Node1&#45;&gt;Node2 -->
<g id="edge1_Node000001_Node000002" class="edge">
<title>Node1&#45;&gt;Node2</title>
<g id="a_edge1_Node000001_Node000002"><a xlink:title=" ">
<path fill="none" stroke="#63b8ff" d="M37.41,-360.62C42.06,-408.04 64.7,-616.46 107,-663 108.38,-664.52 109.86,-665.94 111.41,-667.27"/>
<polygon fill="#63b8ff" stroke="#63b8ff" points="109.62,-670.29 119.8,-673.21 113.67,-664.58 109.62,-670.29"/>
</a>
</g>
</g>
<!-- Node3 -->
<g id="Node000003" class="node">
<title>Node3</title>
<g id="a_Node000003"><a xlink:href="classmyproject_1_1Settings.html#aae5e192a3d5dcb20bd4b8142febcb3be" target="_top" xlink:title="Returns the default cut shortcut for the application.">
<polygon fill="white" stroke="#666666" points="238,-654 124,-654 124,-624 238,-624 238,-654"/>
<text text-anchor="start" x="132" y="-642" font-family="Helvetica,sans-Serif" font-size="10.00">myproject::Settings</text>
<text text-anchor="middle" x="181" y="-631" font-family="Helvetica,sans-Serif" font-size="10.00">::defaultCutShortcut</text>
</a>
</g>
</g>
<!-- Node1&#45;&gt;Node3 -->
<g id="edge2_Node000001_Node000003" class="edge">
<title>Node1&#45;&gt;Node3</title>
<g id="a_edge2_Node000001_Node000003"><a xlink:title=" ">
<path fill="none" stroke="#63b8ff" d="M36.04,-360.69C34.77,-398.69 35.32,-539.14 107,-615 109.46,-617.6 112.2,-619.92 115.14,-621.99"/>
<polygon fill="#63b8ff" stroke="#63b8ff" points="113.5,-625.08 123.89,-627.17 117.07,-619.06 113.5,-625.08"/>
</a>
</g>
</g>
<!-- Node4 -->
<g id="Node000004" class="node">
<title>Node4</title>
<g id="a_Node000004"><a xlink:href="classmyproject_1_1Settings.html#a281627edb0185afa72671adcbaa86267" target="_top" xlink:title="Returns the default FPS visibility for the application.">
<polygon fill="white" stroke="#666666" points="237,-606 125,-606 125,-576 237,-576 237,-606"/>
<text text-anchor="start" x="133" y="-594" font-family="Helvetica,sans-Serif" font-size="10.00">myproject::Settings</text>
<text text-anchor="middle" x="181" y="-583" font-family="Helvetica,sans-Serif" font-size="10.00">::defaultFpsVisible</text>
</a>
</g>
</g>
<!-- Node1&#45;&gt;Node4 -->
<g id="edge3_Node000001_Node000004" class="edge">
<title>Node1&#45;&gt;Node4</title>
<g id="a_edge3_Node000001_Node000004"><a xlink:title=" ">
<path fill="none" stroke="#63b8ff" d="M36.72,-360.75C38,-394.38 46.82,-506.69 107,-567 109.7,-569.71 112.72,-572.11 115.94,-574.24"/>
<polygon fill="#63b8ff" stroke="#63b8ff" points="114.45,-577.42 124.88,-579.28 117.88,-571.32 114.45,-577.42"/>
</a>
</g>
</g>
<!-- Node5 -->
<g id="Node000005" class="node">
<title>Node5</title>
<g id="a_Node000005"><a xlink:href="classmyproject_1_1Settings.html#a1356f33fbca31fb90758636fe2621b6e" target="_top" xlink:title="Returns the default full screen shortcut for the application.">
<polygon fill="white" stroke="#666666" points="255,-558 107,-558 107,-528 255,-528 255,-558"/>
<text text-anchor="start" x="115" y="-546" font-family="Helvetica,sans-Serif" font-size="10.00">myproject::Settings</text>
<text text-anchor="middle" x="181" y="-535" font-family="Helvetica,sans-Serif" font-size="10.00">::defaultFullScreenShortcut</text>
</a>
</g>
</g>
<!-- Node1&#45;&gt;Node5 -->
<g id="edge4_Node000001_Node000005" class="edge">
<title>Node1&#45;&gt;Node5</title>
<g id="a_edge4_Node000001_Node000005"><a xlink:title=" ">
<path fill="none" stroke="#63b8ff" d="M37.72,-360.55C41.87,-388.95 57.96,-473.72 107,-519 108.28,-520.18 109.62,-521.31 111.01,-522.37"/>
<polygon fill="#63b8ff" stroke="#63b8ff" points="109.17,-525.35 119.45,-527.91 113.01,-519.5 109.17,-525.35"/>
</a>
</g>
</g>
<!-- Node6 -->
<g id="Node000006" class="node">
<title>Node6</title>
<g id="a_Node000006"><a xlink:href="classmyproject_1_1Settings.html#a68e9757c5f627d4ec48776d8f8f9bad2" target="_top" xlink:title="Returns the default language for the application.">
<polygon fill="white" stroke="#666666" points="237,-510 125,-510 125,-480 237,-480 237,-510"/>
<text text-anchor="start" x="133" y="-498" font-family="Helvetica,sans-Serif" font-size="10.00">myproject::Settings</text>
<text text-anchor="middle" x="181" y="-487" font-family="Helvetica,sans-Serif" font-size="10.00">::defaultLanguage</text>
</a>
</g>
</g>
<!-- Node1&#45;&gt;Node6 -->
<g id="edge5_Node000001_Node000006" class="edge">
<title>Node1&#45;&gt;Node6</title>
<g id="a_edge5_Node000001_Node000006"><a xlink:title=" ">
<path fill="none" stroke="#63b8ff" d="M39.52,-360.68C47.08,-383.36 69.01,-440.36 107,-471 109.73,-473.2 112.67,-475.21 115.75,-477.03"/>
<polygon fill="#63b8ff" stroke="#63b8ff" points="114.24,-480.19 124.73,-481.69 117.47,-473.98 114.24,-480.19"/>
</a>
</g>
</g>
<!-- Node7 -->
<g id="Node000007" class="node">
<title>Node7</title>
<g id="a_Node000007"><a xlink:href="classmyproject_1_1Settings.html#ae1758a160f0afd96feaed24ddcdd6189" target="_top" xlink:title="Returns the default new shortcut for the application.">
<polygon fill="white" stroke="#666666" points="240.5,-462 121.5,-462 121.5,-432 240.5,-432 240.5,-462"/>
<text text-anchor="start" x="129.5" y="-450" font-family="Helvetica,sans-Serif" font-size="10.00">myproject::Settings</text>
<text text-anchor="middle" x="181" y="-439" font-family="Helvetica,sans-Serif" font-size="10.00">::defaultNewShortcut</text>
</a>
</g>
</g>
<!-- Node1&#45;&gt;Node7 -->
<g id="edge6_Node000001_Node000007" class="edge">
<title>Node1&#45;&gt;Node7</title>
<g id="a_edge6_Node000001_Node000007"><a xlink:title=" ">
<path fill="none" stroke="#63b8ff" d="M43.61,-360.85C55.21,-376.24 79.67,-405.99 107,-423 109.63,-424.64 112.39,-426.18 115.23,-427.62"/>
<polygon fill="#63b8ff" stroke="#63b8ff" points="113.96,-430.89 124.5,-431.92 116.9,-424.54 113.96,-430.89"/>
</a>
</g>
</g>
<!-- Node8 -->
<g id="Node000008" class="node">
<title>Node8</title>
<g id="a_Node000008"><a xlink:href="classmyproject_1_1Settings.html#a65bca73ffafab7c0eec57cdfa1509e12" target="_top" xlink:title="Returns the default open shortcut for the application.">
<polygon fill="white" stroke="#666666" points="242.5,-414 119.5,-414 119.5,-384 242.5,-384 242.5,-414"/>
<text text-anchor="start" x="127.5" y="-402" font-family="Helvetica,sans-Serif" font-size="10.00">myproject::Settings</text>
<text text-anchor="middle" x="181" y="-391" font-family="Helvetica,sans-Serif" font-size="10.00">::defaultOpenShortcut</text>
</a>
</g>
</g>
<!-- Node1&#45;&gt;Node8 -->
<g id="edge7_Node000001_Node000008" class="edge">
<title>Node1&#45;&gt;Node8</title>
<g id="a_edge7_Node000001_Node000008"><a xlink:title=" ">
<path fill="none" stroke="#63b8ff" d="M64.27,-360.53C77.24,-364.96 92.9,-370.28 107,-375 112.59,-376.87 118.43,-378.81 124.26,-380.74"/>
<polygon fill="#63b8ff" stroke="#63b8ff" points="123.43,-384.15 134.02,-383.97 125.63,-377.51 123.43,-384.15"/>
</a>
</g>
</g>
<!-- Node9 -->
<g id="Node000009" class="node">
<title>Node9</title>
<g id="a_Node000009"><a xlink:href="classmyproject_1_1Settings.html#ab1a1ef6af237d00cc3f1e7ce9b282538" target="_top" xlink:title="Returns the default options shortcut for the application.">
<polygon fill="white" stroke="#666666" points="248.5,-366 113.5,-366 113.5,-336 248.5,-336 248.5,-366"/>
<text text-anchor="start" x="121.5" y="-354" font-family="Helvetica,sans-Serif" font-size="10.00">myproject::Settings</text>
<text text-anchor="middle" x="181" y="-343" font-family="Helvetica,sans-Serif" font-size="10.00">::defaultOptionsShortcut</text>
</a>
</g>
</g>
<!-- Node1&#45;&gt;Node9 -->
<g id="edge8_Node000001_Node000009" class="edge">
<title>Node1&#45;&gt;Node9</title>
<g id="a_edge8_Node000001_Node000009"><a xlink:title=" ">
<path fill="none" stroke="#63b8ff" d="M71.24,-351C80.95,-351 91.92,-351 103.05,-351"/>
<polygon fill="#63b8ff" stroke="#63b8ff" points="103.29,-354.5 113.29,-351 103.29,-347.5 103.29,-354.5"/>
</a>
</g>
</g>
<!-- Node10 -->
<g id="Node000010" class="node">
<title>Node10</title>
<g id="a_Node000010"><a xlink:href="classmyproject_1_1Settings.html#ae02e97b96b97a3f3c6d0fd9821c98af9" target="_top" xlink:title="Returns the default paste shortcut for the application.">
<polygon fill="white" stroke="#666666" points="243,-318 119,-318 119,-288 243,-288 243,-318"/>
<text text-anchor="start" x="127" y="-306" font-family="Helvetica,sans-Serif" font-size="10.00">myproject::Settings</text>
<text text-anchor="middle" x="181" y="-295" font-family="Helvetica,sans-Serif" font-size="10.00">::defaultPasteShortcut</text>
</a>
</g>
</g>
<!-- Node1&#45;&gt;Node10 -->
<g id="edge9_Node000001_Node000010" class="edge">
<title>Node1&#45;&gt;Node10</title>
<g id="a_edge9_Node000001_Node000010"><a xlink:title=" ">
<path fill="none" stroke="#63b8ff" d="M64.27,-341.47C77.24,-337.04 92.9,-331.72 107,-327 112.59,-325.13 118.43,-323.19 124.26,-321.26"/>
<polygon fill="#63b8ff" stroke="#63b8ff" points="125.63,-324.49 134.02,-318.03 123.43,-317.85 125.63,-324.49"/>
</a>
</g>
</g>
<!-- Node11 -->
<g id="Node000011" class="node">
<title>Node11</title>
<g id="a_Node000011"><a xlink:href="classmyproject_1_1Settings.html#ab1d031494a6ee6b8a4bf6ddd576407bf" target="_top" xlink:title="Returns the default quit shortcut for the application.">
<polygon fill="white" stroke="#666666" points="240,-270 122,-270 122,-240 240,-240 240,-270"/>
<text text-anchor="start" x="130" y="-258" font-family="Helvetica,sans-Serif" font-size="10.00">myproject::Settings</text>
<text text-anchor="middle" x="181" y="-247" font-family="Helvetica,sans-Serif" font-size="10.00">::defaultQuitShortcut</text>
</a>
</g>
</g>
<!-- Node1&#45;&gt;Node11 -->
<g id="edge10_Node000001_Node000011" class="edge">
<title>Node1&#45;&gt;Node11</title>
<g id="a_edge10_Node000001_Node000011"><a xlink:title=" ">
<path fill="none" stroke="#63b8ff" d="M43.61,-341.15C55.21,-325.76 79.67,-296.01 107,-279 109.63,-277.36 112.39,-275.82 115.23,-274.38"/>
<polygon fill="#63b8ff" stroke="#63b8ff" points="116.9,-277.46 124.5,-270.08 113.96,-271.11 116.9,-277.46"/>
</a>
</g>
</g>
<!-- Node12 -->
<g id="Node000012" class="node">
<title>Node12</title>
<g id="a_Node000012"><a xlink:href="classmyproject_1_1Settings.html#aea1fd61399dc3ac7e8104e417d3be490" target="_top" xlink:title="Returns the default redo shortcut for the application.">
<polygon fill="white" stroke="#666666" points="242,-222 120,-222 120,-192 242,-192 242,-222"/>
<text text-anchor="start" x="128" y="-210" font-family="Helvetica,sans-Serif" font-size="10.00">myproject::Settings</text>
<text text-anchor="middle" x="181" y="-199" font-family="Helvetica,sans-Serif" font-size="10.00">::defaultRedoShortcut</text>
</a>
</g>
</g>
<!-- Node1&#45;&gt;Node12 -->
<g id="edge11_Node000001_Node000012" class="edge">
<title>Node1&#45;&gt;Node12</title>
<g id="a_edge11_Node000001_Node000012"><a xlink:title=" ">
<path fill="none" stroke="#63b8ff" d="M39.52,-341.32C47.08,-318.64 69.01,-261.64 107,-231 108.6,-229.71 110.26,-228.49 111.99,-227.34"/>
<polygon fill="#63b8ff" stroke="#63b8ff" points="114.14,-230.14 121.03,-222.08 110.62,-224.08 114.14,-230.14"/>
</a>
</g>
</g>
<!-- Node13 -->
<g id="Node000013" class="node">
<title>Node13</title>
<g id="a_Node000013"><a xlink:href="classmyproject_1_1Settings.html#a929f5c91fb00048653bf1ac1146035c5" target="_top" xlink:title="Returns the default save as shortcut for the application.">
<polygon fill="white" stroke="#666666" points="248,-174 114,-174 114,-144 248,-144 248,-174"/>
<text text-anchor="start" x="122" y="-162" font-family="Helvetica,sans-Serif" font-size="10.00">myproject::Settings</text>
<text text-anchor="middle" x="181" y="-151" font-family="Helvetica,sans-Serif" font-size="10.00">::defaultSaveAsShortcut</text>
</a>
</g>
</g>
<!-- Node1&#45;&gt;Node13 -->
<g id="edge12_Node000001_Node000013" class="edge">
<title>Node1&#45;&gt;Node13</title>
<g id="a_edge12_Node000001_Node000013"><a xlink:title=" ">
<path fill="none" stroke="#63b8ff" d="M37.72,-341.45C41.87,-313.05 57.96,-228.28 107,-183 108.28,-181.82 109.62,-180.69 111.01,-179.63"/>
<polygon fill="#63b8ff" stroke="#63b8ff" points="113.01,-182.5 119.45,-174.09 109.17,-176.65 113.01,-182.5"/>
</a>
</g>
</g>
<!-- Node14 -->
<g id="Node000014" class="node">
<title>Node14</title>
<g id="a_Node000014"><a xlink:href="classmyproject_1_1Settings.html#a5fcefff42c541af58a34cb865d18fcf4" target="_top" xlink:title="Returns the default save shortcut for the application.">
<polygon fill="white" stroke="#666666" points="242,-126 120,-126 120,-96 242,-96 242,-126"/>
<text text-anchor="start" x="128" y="-114" font-family="Helvetica,sans-Serif" font-size="10.00">myproject::Settings</text>
<text text-anchor="middle" x="181" y="-103" font-family="Helvetica,sans-Serif" font-size="10.00">::defaultSaveShortcut</text>
</a>
</g>
</g>
<!-- Node1&#45;&gt;Node14 -->
<g id="edge13_Node000001_Node000014" class="edge">
<title>Node1&#45;&gt;Node14</title>
<g id="a_edge13_Node000001_Node000014"><a xlink:title=" ">
<path fill="none" stroke="#63b8ff" d="M36.72,-341.25C38,-307.62 46.82,-195.31 107,-135 108.41,-133.58 109.91,-132.25 111.48,-131"/>
<polygon fill="#63b8ff" stroke="#63b8ff" points="113.51,-133.85 119.84,-125.36 109.59,-128.05 113.51,-133.85"/>
</a>
</g>
</g>
<!-- Node15 -->
<g id="Node000015" class="node">
<title>Node15</title>
<g id="a_Node000015"><a xlink:href="classmyproject_1_1Settings.html#ab1555e99c76110b4053f40982a43bb31" target="_top" xlink:title="Returns the default undo shortcut for the application.">
<polygon fill="white" stroke="#666666" points="242.5,-78 119.5,-78 119.5,-48 242.5,-48 242.5,-78"/>
<text text-anchor="start" x="127.5" y="-66" font-family="Helvetica,sans-Serif" font-size="10.00">myproject::Settings</text>
<text text-anchor="middle" x="181" y="-55" font-family="Helvetica,sans-Serif" font-size="10.00">::defaultUndoShortcut</text>
</a>
</g>
</g>
<!-- Node1&#45;&gt;Node15 -->
<g id="edge14_Node000001_Node000015" class="edge">
<title>Node1&#45;&gt;Node15</title>
<g id="a_edge14_Node000001_Node000015"><a xlink:title=" ">
<path fill="none" stroke="#63b8ff" d="M36.04,-341.31C34.77,-303.31 35.32,-162.86 107,-87 108.23,-85.7 109.53,-84.47 110.89,-83.31"/>
<polygon fill="#63b8ff" stroke="#63b8ff" points="113.15,-85.99 119.27,-77.35 109.09,-80.29 113.15,-85.99"/>
</a>
</g>
</g>
<!-- Node16 -->
<g id="Node000016" class="node">
<title>Node16</title>
<g id="a_Node000016"><a xlink:href="classmyproject_1_1Settings.html#a457da351a648b3f2f9d85605cdb78572" target="_top" xlink:title="Returns the default window opacity for the application.">
<polygon fill="white" stroke="#666666" points="248,-30 114,-30 114,0 248,0 248,-30"/>
<text text-anchor="start" x="122" y="-18" font-family="Helvetica,sans-Serif" font-size="10.00">myproject::Settings</text>
<text text-anchor="middle" x="181" y="-7" font-family="Helvetica,sans-Serif" font-size="10.00">::defaultWindowOpacity</text>
</a>
</g>
</g>
<!-- Node1&#45;&gt;Node16 -->
<g id="edge15_Node000001_Node000016" class="edge">
<title>Node1&#45;&gt;Node16</title>
<g id="a_edge15_Node000001_Node000016"><a xlink:title=" ">
<path fill="none" stroke="#63b8ff" d="M37.41,-341.38C42.06,-293.96 64.7,-85.54 107,-39 107.88,-38.03 108.81,-37.1 109.77,-36.2"/>
<polygon fill="#63b8ff" stroke="#63b8ff" points="111.96,-38.93 117.74,-30.05 107.69,-33.39 111.96,-38.93"/>
</a>
</g>
</g>
</g>
</svg>
