<?xml version="1.0" encoding="UTF-8" standalone="no"?>
<!DOCTYPE svg PUBLIC "-//W3C//DTD SVG 1.1//EN"
 "http://www.w3.org/Graphics/SVG/1.1/DTD/svg11.dtd">
<!-- Generated by graphviz version 2.43.0 (0)
 -->
<!-- Title: TEST_CASE Pages: 1 -->
<svg width="263pt" height="758pt"
 viewBox="0.00 0.00 263.00 758.00" xmlns="http://www.w3.org/2000/svg" xmlns:xlink="http://www.w3.org/1999/xlink">
<g id="graph0" class="graph" transform="scale(1 1) rotate(0) translate(4 754)">
<title>TEST_CASE</title>
<!-- Node1 -->
<g id="Node000001" class="node">
<title>Node1</title>
<g id="a_Node000001"><a xlink:title=" ">
<polygon fill="#999999" stroke="#666666" points="71,-384.5 0,-384.5 0,-365.5 71,-365.5 71,-384.5"/>
<text text-anchor="middle" x="35.5" y="-372.5" font-family="Helvetica,sans-Serif" font-size="10.00">TEST_CASE</text>
</a>
</g>
</g>
<!-- Node2 -->
<g id="Node000002" class="node">
<title>Node2</title>
<g id="a_Node000002"><a xlink:href="classmyproject_1_1Settings.html#ab06fc5b21393f1f529409aae0d6b8a6c" target="_top" xlink:title="Returns the default app theme for the application.">
<polygon fill="white" stroke="#666666" points="237,-750 125,-750 125,-720 237,-720 237,-750"/>
<text text-anchor="start" x="133" y="-738" font-family="Helvetica,sans-Serif" font-size="10.00">myproject::Settings</text>
<text text-anchor="middle" x="181" y="-727" font-family="Helvetica,sans-Serif" font-size="10.00">::defaultAppTheme</text>
</a>
</g>
</g>
<!-- Node1&#45;&gt;Node2 -->
<g id="edge1_Node000001_Node000002" class="edge">
<title>Node1&#45;&gt;Node2</title>
<g id="a_edge1_Node000001_Node000002"><a xlink:title=" ">
<path fill="none" stroke="#63b8ff" d="M37.25,-384.69C41.26,-434.4 61.79,-660.48 107,-711 109.68,-713.99 112.73,-716.61 116.04,-718.9"/>
<polygon fill="#63b8ff" stroke="#63b8ff" points="114.31,-721.95 124.71,-723.96 117.83,-715.9 114.31,-721.95"/>
</a>
</g>
</g>
<!-- Node3 -->
<g id="Node000003" class="node">
<title>Node3</title>
<g id="a_Node000003"><a xlink:href="classmyproject_1_1Settings.html#a5b57c90ed6e15c4fa81363ad9219fa5e" target="_top" xlink:title="Returns the default copy shortcut for the application.">
<polygon fill="white" stroke="#666666" points="242,-702 120,-702 120,-672 242,-672 242,-702"/>
<text text-anchor="start" x="128" y="-690" font-family="Helvetica,sans-Serif" font-size="10.00">myproject::Settings</text>
<text text-anchor="middle" x="181" y="-679" font-family="Helvetica,sans-Serif" font-size="10.00">::defaultCopyShortcut</text>
</a>
</g>
</g>
<!-- Node1&#45;&gt;Node3 -->
<g id="edge2_Node000001_Node000003" class="edge">
<title>Node1&#45;&gt;Node3</title>
<g id="a_edge2_Node000001_Node000003"><a xlink:title=" ">
<path fill="none" stroke="#63b8ff" d="M37.62,-384.78C43.02,-430.23 67.67,-620.49 107,-663 108.39,-664.51 109.88,-665.92 111.45,-667.24"/>
<polygon fill="#63b8ff" stroke="#63b8ff" points="109.68,-670.27 119.88,-673.14 113.7,-664.54 109.68,-670.27"/>
</a>
</g>
</g>
<!-- Node4 -->
<g id="Node000004" class="node">
<title>Node4</title>
<g id="a_Node000004"><a xlink:href="classmyproject_1_1Settings.html#aae5e192a3d5dcb20bd4b8142febcb3be" target="_top" xlink:title="Returns the default cut shortcut for the application.">
<polygon fill="white" stroke="#666666" points="238,-654 124,-654 124,-624 238,-624 238,-654"/>
<text text-anchor="start" x="132" y="-642" font-family="Helvetica,sans-Serif" font-size="10.00">myproject::Settings</text>
<text text-anchor="middle" x="181" y="-631" font-family="Helvetica,sans-Serif" font-size="10.00">::defaultCutShortcut</text>
</a>
</g>
</g>
<!-- Node1&#45;&gt;Node4 -->
<g id="edge3_Node000001_Node000004" class="edge">
<title>Node1&#45;&gt;Node4</title>
<g id="a_edge3_Node000001_Node000004"><a xlink:title=" ">
<path fill="none" stroke="#63b8ff" d="M36.35,-384.8C36.32,-420.77 41.13,-547 107,-615 109.37,-617.44 111.99,-619.64 114.79,-621.61"/>
<polygon fill="#63b8ff" stroke="#63b8ff" points="113.26,-624.78 123.64,-626.88 116.84,-618.76 113.26,-624.78"/>
</a>
</g>
</g>
<!-- Node5 -->
<g id="Node000005" class="node">
<title>Node5</title>
<g id="a_Node000005"><a xlink:href="classmyproject_1_1Settings.html#a281627edb0185afa72671adcbaa86267" target="_top" xlink:title="Returns the default FPS visibility for the application.">
<polygon fill="white" stroke="#666666" points="237,-606 125,-606 125,-576 237,-576 237,-606"/>
<text text-anchor="start" x="133" y="-594" font-family="Helvetica,sans-Serif" font-size="10.00">myproject::Settings</text>
<text text-anchor="middle" x="181" y="-583" font-family="Helvetica,sans-Serif" font-size="10.00">::defaultFpsVisible</text>
</a>
</g>
</g>
<!-- Node1&#45;&gt;Node5 -->
<g id="edge4_Node000001_Node000005" class="edge">
<title>Node1&#45;&gt;Node5</title>
<g id="a_edge4_Node000001_Node000005"><a xlink:title=" ">
<path fill="none" stroke="#63b8ff" d="M37.16,-384.54C39.8,-415.51 52.35,-514.2 107,-567 109.7,-569.61 112.69,-571.94 115.87,-574.01"/>
<polygon fill="#63b8ff" stroke="#63b8ff" points="114.25,-577.11 124.68,-578.93 117.66,-571 114.25,-577.11"/>
</a>
</g>
</g>
<!-- Node6 -->
<g id="Node000006" class="node">
<title>Node6</title>
<g id="a_Node000006"><a xlink:href="classmyproject_1_1Settings.html#a1356f33fbca31fb90758636fe2621b6e" target="_top" xlink:title="Returns the default full screen shortcut for the application.">
<polygon fill="white" stroke="#666666" points="255,-558 107,-558 107,-528 255,-528 255,-558"/>
<text text-anchor="start" x="115" y="-546" font-family="Helvetica,sans-Serif" font-size="10.00">myproject::Settings</text>
<text text-anchor="middle" x="181" y="-535" font-family="Helvetica,sans-Serif" font-size="10.00">::defaultFullScreenShortcut</text>
</a>
</g>
</g>
<!-- Node1&#45;&gt;Node6 -->
<g id="edge5_Node000001_Node000006" class="edge">
<title>Node1&#45;&gt;Node6</title>
<g id="a_edge5_Node000001_Node000006"><a xlink:title=" ">
<path fill="none" stroke="#63b8ff" d="M38.48,-384.65C44.27,-410.36 63.55,-481.16 107,-519 108.35,-520.17 109.76,-521.29 111.21,-522.36"/>
<polygon fill="#63b8ff" stroke="#63b8ff" points="109.69,-525.53 120.02,-527.87 113.4,-519.6 109.69,-525.53"/>
</a>
</g>
</g>
<!-- Node7 -->
<g id="Node000007" class="node">
<title>Node7</title>
<g id="a_Node000007"><a xlink:href="classmyproject_1_1Settings.html#a68e9757c5f627d4ec48776d8f8f9bad2" target="_top" xlink:title="Returns the default language for the application.">
<polygon fill="white" stroke="#666666" points="237,-510 125,-510 125,-480 237,-480 237,-510"/>
<text text-anchor="start" x="133" y="-498" font-family="Helvetica,sans-Serif" font-size="10.00">myproject::Settings</text>
<text text-anchor="middle" x="181" y="-487" font-family="Helvetica,sans-Serif" font-size="10.00">::defaultLanguage</text>
</a>
</g>
</g>
<!-- Node1&#45;&gt;Node7 -->
<g id="edge6_Node000001_Node000007" class="edge">
<title>Node1&#45;&gt;Node7</title>
<g id="a_edge6_Node000001_Node000007"><a xlink:title=" ">
<path fill="none" stroke="#63b8ff" d="M41.04,-384.72C50.54,-404.02 74.36,-447.33 107,-471 109.7,-472.96 112.57,-474.76 115.55,-476.43"/>
<polygon fill="#63b8ff" stroke="#63b8ff" points="114.24,-479.68 124.76,-481 117.36,-473.42 114.24,-479.68"/>
</a>
</g>
</g>
<!-- Node8 -->
<g id="Node000008" class="node">
<title>Node8</title>
<g id="a_Node000008"><a xlink:href="classmyproject_1_1Settings.html#ae1758a160f0afd96feaed24ddcdd6189" target="_top" xlink:title="Returns the default new shortcut for the application.">
<polygon fill="white" stroke="#666666" points="240.5,-462 121.5,-462 121.5,-432 240.5,-432 240.5,-462"/>
<text text-anchor="start" x="129.5" y="-450" font-family="Helvetica,sans-Serif" font-size="10.00">myproject::Settings</text>
<text text-anchor="middle" x="181" y="-439" font-family="Helvetica,sans-Serif" font-size="10.00">::defaultNewShortcut</text>
</a>
</g>
</g>
<!-- Node1&#45;&gt;Node8 -->
<g id="edge7_Node000001_Node000008" class="edge">
<title>Node1&#45;&gt;Node8</title>
<g id="a_edge7_Node000001_Node000008"><a xlink:title=" ">
<path fill="none" stroke="#63b8ff" d="M48.34,-384.6C61.85,-395.18 84.95,-412.14 107,-423 110.77,-424.86 114.72,-426.62 118.74,-428.28"/>
<polygon fill="#63b8ff" stroke="#63b8ff" points="117.63,-431.61 128.22,-431.99 120.18,-425.09 117.63,-431.61"/>
</a>
</g>
</g>
<!-- Node9 -->
<g id="Node000009" class="node">
<title>Node9</title>
<g id="a_Node000009"><a xlink:href="classmyproject_1_1Settings.html#a65bca73ffafab7c0eec57cdfa1509e12" target="_top" xlink:title="Returns the default open shortcut for the application.">
<polygon fill="white" stroke="#666666" points="242.5,-414 119.5,-414 119.5,-384 242.5,-384 242.5,-414"/>
<text text-anchor="start" x="127.5" y="-402" font-family="Helvetica,sans-Serif" font-size="10.00">myproject::Settings</text>
<text text-anchor="middle" x="181" y="-391" font-family="Helvetica,sans-Serif" font-size="10.00">::defaultOpenShortcut</text>
</a>
</g>
</g>
<!-- Node1&#45;&gt;Node9 -->
<g id="edge8_Node000001_Node000009" class="edge">
<title>Node1&#45;&gt;Node9</title>
<g id="a_edge8_Node000001_Node000009"><a xlink:title=" ">
<path fill="none" stroke="#63b8ff" d="M71.24,-380.81C82.74,-382.73 95.99,-384.95 109.19,-387.16"/>
<polygon fill="#63b8ff" stroke="#63b8ff" points="108.81,-390.64 119.25,-388.84 109.97,-383.74 108.81,-390.64"/>
</a>
</g>
</g>
<!-- Node10 -->
<g id="Node000010" class="node">
<title>Node10</title>
<g id="a_Node000010"><a xlink:href="classmyproject_1_1Settings.html#ab1a1ef6af237d00cc3f1e7ce9b282538" target="_top" xlink:title="Returns the default options shortcut for the application.">
<polygon fill="white" stroke="#666666" points="248.5,-366 113.5,-366 113.5,-336 248.5,-336 248.5,-366"/>
<text text-anchor="start" x="121.5" y="-354" font-family="Helvetica,sans-Serif" font-size="10.00">myproject::Settings</text>
<text text-anchor="middle" x="181" y="-343" font-family="Helvetica,sans-Serif" font-size="10.00">::defaultOptionsShortcut</text>
</a>
</g>
</g>
<!-- Node1&#45;&gt;Node10 -->
<g id="edge9_Node000001_Node000010" class="edge">
<title>Node1&#45;&gt;Node10</title>
<g id="a_edge9_Node000001_Node000010"><a xlink:title=" ">
<path fill="none" stroke="#63b8ff" d="M71.24,-369.19C81.05,-367.55 92.14,-365.69 103.39,-363.81"/>
<polygon fill="#63b8ff" stroke="#63b8ff" points="104,-367.26 113.29,-362.16 102.85,-360.36 104,-367.26"/>
</a>
</g>
</g>
<!-- Node11 -->
<g id="Node000011" class="node">
<title>Node11</title>
<g id="a_Node000011"><a xlink:href="classmyproject_1_1Settings.html#ae02e97b96b97a3f3c6d0fd9821c98af9" target="_top" xlink:title="Returns the default paste shortcut for the application.">
<polygon fill="white" stroke="#666666" points="243,-318 119,-318 119,-288 243,-288 243,-318"/>
<text text-anchor="start" x="127" y="-306" font-family="Helvetica,sans-Serif" font-size="10.00">myproject::Settings</text>
<text text-anchor="middle" x="181" y="-295" font-family="Helvetica,sans-Serif" font-size="10.00">::defaultPasteShortcut</text>
</a>
</g>
</g>
<!-- Node1&#45;&gt;Node11 -->
<g id="edge10_Node000001_Node000011" class="edge">
<title>Node1&#45;&gt;Node11</title>
<g id="a_edge10_Node000001_Node000011"><a xlink:title=" ">
<path fill="none" stroke="#63b8ff" d="M48.34,-365.4C61.85,-354.82 84.95,-337.86 107,-327 110.77,-325.14 114.72,-323.38 118.74,-321.72"/>
<polygon fill="#63b8ff" stroke="#63b8ff" points="120.18,-324.91 128.22,-318.01 117.63,-318.39 120.18,-324.91"/>
</a>
</g>
</g>
<!-- Node12 -->
<g id="Node000012" class="node">
<title>Node12</title>
<g id="a_Node000012"><a xlink:href="classmyproject_1_1Settings.html#ab1d031494a6ee6b8a4bf6ddd576407bf" target="_top" xlink:title="Returns the default quit shortcut for the application.">
<polygon fill="white" stroke="#666666" points="240,-270 122,-270 122,-240 240,-240 240,-270"/>
<text text-anchor="start" x="130" y="-258" font-family="Helvetica,sans-Serif" font-size="10.00">myproject::Settings</text>
<text text-anchor="middle" x="181" y="-247" font-family="Helvetica,sans-Serif" font-size="10.00">::defaultQuitShortcut</text>
</a>
</g>
</g>
<!-- Node1&#45;&gt;Node12 -->
<g id="edge11_Node000001_Node000012" class="edge">
<title>Node1&#45;&gt;Node12</title>
<g id="a_edge11_Node000001_Node000012"><a xlink:title=" ">
<path fill="none" stroke="#63b8ff" d="M41.04,-365.28C50.54,-345.98 74.36,-302.67 107,-279 109.08,-277.49 111.26,-276.08 113.51,-274.74"/>
<polygon fill="#63b8ff" stroke="#63b8ff" points="115.27,-277.77 122.5,-270.03 112.02,-271.57 115.27,-277.77"/>
</a>
</g>
</g>
<!-- Node13 -->
<g id="Node000013" class="node">
<title>Node13</title>
<g id="a_Node000013"><a xlink:href="classmyproject_1_1Settings.html#aea1fd61399dc3ac7e8104e417d3be490" target="_top" xlink:title="Returns the default redo shortcut for the application.">
<polygon fill="white" stroke="#666666" points="242,-222 120,-222 120,-192 242,-192 242,-222"/>
<text text-anchor="start" x="128" y="-210" font-family="Helvetica,sans-Serif" font-size="10.00">myproject::Settings</text>
<text text-anchor="middle" x="181" y="-199" font-family="Helvetica,sans-Serif" font-size="10.00">::defaultRedoShortcut</text>
</a>
</g>
</g>
<!-- Node1&#45;&gt;Node13 -->
<g id="edge12_Node000001_Node000013" class="edge">
<title>Node1&#45;&gt;Node13</title>
<g id="a_edge12_Node000001_Node000013"><a xlink:title=" ">
<path fill="none" stroke="#63b8ff" d="M38.48,-365.35C44.27,-339.64 63.55,-268.84 107,-231 108.35,-229.83 109.76,-228.71 111.21,-227.64"/>
<polygon fill="#63b8ff" stroke="#63b8ff" points="113.4,-230.4 120.02,-222.13 109.69,-224.47 113.4,-230.4"/>
</a>
</g>
</g>
<!-- Node14 -->
<g id="Node000014" class="node">
<title>Node14</title>
<g id="a_Node000014"><a xlink:href="classmyproject_1_1Settings.html#a929f5c91fb00048653bf1ac1146035c5" target="_top" xlink:title="Returns the default save as shortcut for the application.">
<polygon fill="white" stroke="#666666" points="248,-174 114,-174 114,-144 248,-144 248,-174"/>
<text text-anchor="start" x="122" y="-162" font-family="Helvetica,sans-Serif" font-size="10.00">myproject::Settings</text>
<text text-anchor="middle" x="181" y="-151" font-family="Helvetica,sans-Serif" font-size="10.00">::defaultSaveAsShortcut</text>
</a>
</g>
</g>
<!-- Node1&#45;&gt;Node14 -->
<g id="edge13_Node000001_Node000014" class="edge">
<title>Node1&#45;&gt;Node14</title>
<g id="a_edge13_Node000001_Node000014"><a xlink:title=" ">
<path fill="none" stroke="#63b8ff" d="M37.16,-365.46C39.8,-334.49 52.35,-235.8 107,-183 108.11,-181.93 109.27,-180.9 110.47,-179.93"/>
<polygon fill="#63b8ff" stroke="#63b8ff" points="112.67,-182.66 118.93,-174.11 108.7,-176.89 112.67,-182.66"/>
</a>
</g>
</g>
<!-- Node15 -->
<g id="Node000015" class="node">
<title>Node15</title>
<g id="a_Node000015"><a xlink:href="classmyproject_1_1Settings.html#a5fcefff42c541af58a34cb865d18fcf4" target="_top" xlink:title="Returns the default save shortcut for the application.">
<polygon fill="white" stroke="#666666" points="242,-126 120,-126 120,-96 242,-96 242,-126"/>
<text text-anchor="start" x="128" y="-114" font-family="Helvetica,sans-Serif" font-size="10.00">myproject::Settings</text>
<text text-anchor="middle" x="181" y="-103" font-family="Helvetica,sans-Serif" font-size="10.00">::defaultSaveShortcut</text>
</a>
</g>
</g>
<!-- Node1&#45;&gt;Node15 -->
<g id="edge14_Node000001_Node000015" class="edge">
<title>Node1&#45;&gt;Node15</title>
<g id="a_edge14_Node000001_Node000015"><a xlink:title=" ">
<path fill="none" stroke="#63b8ff" d="M36.35,-365.2C36.32,-329.23 41.13,-203 107,-135 108.39,-133.56 109.87,-132.21 111.42,-130.94"/>
<polygon fill="#63b8ff" stroke="#63b8ff" points="113.46,-133.79 119.72,-125.24 109.5,-128.02 113.46,-133.79"/>
</a>
</g>
</g>
<!-- Node16 -->
<g id="Node000016" class="node">
<title>Node16</title>
<g id="a_Node000016"><a xlink:href="classmyproject_1_1Settings.html#ab1555e99c76110b4053f40982a43bb31" target="_top" xlink:title="Returns the default undo shortcut for the application.">
<polygon fill="white" stroke="#666666" points="242.5,-78 119.5,-78 119.5,-48 242.5,-48 242.5,-78"/>
<text text-anchor="start" x="127.5" y="-66" font-family="Helvetica,sans-Serif" font-size="10.00">myproject::Settings</text>
<text text-anchor="middle" x="181" y="-55" font-family="Helvetica,sans-Serif" font-size="10.00">::defaultUndoShortcut</text>
</a>
</g>
</g>
<!-- Node1&#45;&gt;Node16 -->
<g id="edge15_Node000001_Node000016" class="edge">
<title>Node1&#45;&gt;Node16</title>
<g id="a_edge15_Node000001_Node000016"><a xlink:title=" ">
<path fill="none" stroke="#63b8ff" d="M37.62,-365.22C43.02,-319.77 67.67,-129.51 107,-87 108.21,-85.69 109.5,-84.45 110.85,-83.27"/>
<polygon fill="#63b8ff" stroke="#63b8ff" points="113.12,-85.95 119.18,-77.27 109.02,-80.28 113.12,-85.95"/>
</a>
</g>
</g>
<!-- Node17 -->
<g id="Node000017" class="node">
<title>Node17</title>
<g id="a_Node000017"><a xlink:href="classmyproject_1_1Settings.html#a457da351a648b3f2f9d85605cdb78572" target="_top" xlink:title="Returns the default window opacity for the application.">
<polygon fill="white" stroke="#666666" points="248,-30 114,-30 114,0 248,0 248,-30"/>
<text text-anchor="start" x="122" y="-18" font-family="Helvetica,sans-Serif" font-size="10.00">myproject::Settings</text>
<text text-anchor="middle" x="181" y="-7" font-family="Helvetica,sans-Serif" font-size="10.00">::defaultWindowOpacity</text>
</a>
</g>
</g>
<!-- Node1&#45;&gt;Node17 -->
<g id="edge16_Node000001_Node000017" class="edge">
<title>Node1&#45;&gt;Node17</title>
<g id="a_edge16_Node000001_Node000017"><a xlink:title=" ">
<path fill="none" stroke="#63b8ff" d="M37.25,-365.31C41.26,-315.6 61.79,-89.52 107,-39 107.76,-38.15 108.54,-37.34 109.36,-36.55"/>
<polygon fill="#63b8ff" stroke="#63b8ff" points="111.69,-39.17 117.35,-30.22 107.34,-33.69 111.69,-39.17"/>
</a>
</g>
</g>
</g>
</svg>
