<?xml version="1.0" encoding="UTF-8" standalone="no"?>
<!DOCTYPE svg PUBLIC "-//W3C//DTD SVG 1.1//EN"
 "http://www.w3.org/Graphics/SVG/1.1/DTD/svg11.dtd">
<!-- Generated by graphviz version 2.43.0 (0)
 -->
<!-- Title: tests/tst_settings.cpp Pages: 1 -->
<svg width="383pt" height="137pt"
 viewBox="0.00 0.00 383.00 137.00" xmlns="http://www.w3.org/2000/svg" xmlns:xlink="http://www.w3.org/1999/xlink">
<g id="graph0" class="graph" transform="scale(1 1) rotate(0) translate(4 133)">
<title>tests/tst_settings.cpp</title>
<!-- Node1 -->
<g id="Node000001" class="node">
<title>Node1</title>
<g id="a_Node000001"><a xlink:title=" ">
<polygon fill="#999999" stroke="#666666" points="217.5,-129 96.5,-129 96.5,-110 217.5,-110 217.5,-129"/>
<text text-anchor="middle" x="157" y="-117" font-family="Helvetica,sans-Serif" font-size="10.00">tests/tst_settings.cpp</text>
</a>
</g>
</g>
<!-- Node2 -->
<g id="Node000002" class="node">
<title>Node2</title>
<g id="a_Node000002"><a xlink:href="settings_8h.html" target="_top" xlink:title=" ">
<polygon fill="white" stroke="#666666" points="102.5,-74 37.5,-74 37.5,-55 102.5,-55 102.5,-74"/>
<text text-anchor="middle" x="70" y="-62" font-family="Helvetica,sans-Serif" font-size="10.00">settings.h</text>
</a>
</g>
</g>
<!-- Node1&#45;&gt;Node2 -->
<g id="edge1_Node000001_Node000002" class="edge">
<title>Node1&#45;&gt;Node2</title>
<g id="a_edge1_Node000001_Node000002"><a xlink:title=" ">
<path fill="none" stroke="#63b8ff" d="M143.02,-109.98C129.53,-101.77 108.87,-89.18 92.96,-79.49"/>
<polygon fill="#63b8ff" stroke="#63b8ff" points="94.59,-76.38 84.23,-74.17 90.95,-82.36 94.59,-76.38"/>
</a>
</g>
</g>
<!-- Node5 -->
<g id="Node000005" class="node">
<title>Node5</title>
<g id="a_Node000005"><a xlink:title=" ">
<polygon fill="#e0e0e0" stroke="#999999" points="193,-74 121,-74 121,-55 193,-55 193,-74"/>
<text text-anchor="middle" x="157" y="-62" font-family="Helvetica,sans-Serif" font-size="10.00">QSignalSpy</text>
</a>
</g>
</g>
<!-- Node1&#45;&gt;Node5 -->
<g id="edge4_Node000001_Node000005" class="edge">
<title>Node1&#45;&gt;Node5</title>
<g id="a_edge4_Node000001_Node000005"><a xlink:title=" ">
<path fill="none" stroke="#63b8ff" d="M157,-109.75C157,-102.8 157,-92.85 157,-84.13"/>
<polygon fill="#63b8ff" stroke="#63b8ff" points="160.5,-84.09 157,-74.09 153.5,-84.09 160.5,-84.09"/>
</a>
</g>
</g>
<!-- Node6 -->
<g id="Node000006" class="node">
<title>Node6</title>
<g id="a_Node000006"><a xlink:title=" ">
<polygon fill="#e0e0e0" stroke="#999999" points="375,-74 211,-74 211,-55 375,-55 375,-74"/>
<text text-anchor="middle" x="293" y="-62" font-family="Helvetica,sans-Serif" font-size="10.00">catch2/catch_test_macros.hpp</text>
</a>
</g>
</g>
<!-- Node1&#45;&gt;Node6 -->
<g id="edge5_Node000001_Node000006" class="edge">
<title>Node1&#45;&gt;Node6</title>
<g id="a_edge5_Node000001_Node000006"><a xlink:title=" ">
<path fill="none" stroke="#63b8ff" d="M178.85,-109.98C201.12,-101.3 235.9,-87.75 261.22,-77.88"/>
<polygon fill="#63b8ff" stroke="#63b8ff" points="262.71,-81.06 270.75,-74.17 260.16,-74.54 262.71,-81.06"/>
</a>
</g>
</g>
<!-- Node3 -->
<g id="Node000003" class="node">
<title>Node3</title>
<g id="a_Node000003"><a xlink:title=" ">
<polygon fill="#e0e0e0" stroke="#999999" points="64,-19 0,-19 0,0 64,0 64,-19"/>
<text text-anchor="middle" x="32" y="-7" font-family="Helvetica,sans-Serif" font-size="10.00">QSettings</text>
</a>
</g>
</g>
<!-- Node2&#45;&gt;Node3 -->
<g id="edge2_Node000002_Node000003" class="edge">
<title>Node2&#45;&gt;Node3</title>
<g id="a_edge2_Node000002_Node000003"><a xlink:title=" ">
<path fill="none" stroke="#63b8ff" d="M63.73,-54.75C58.41,-47.34 50.64,-36.5 44.12,-27.41"/>
<polygon fill="#63b8ff" stroke="#63b8ff" points="46.83,-25.18 38.16,-19.09 41.14,-29.26 46.83,-25.18"/>
</a>
</g>
</g>
<!-- Node4 -->
<g id="Node000004" class="node">
<title>Node4</title>
<g id="a_Node000004"><a xlink:title=" ">
<polygon fill="#e0e0e0" stroke="#999999" points="135.5,-19 82.5,-19 82.5,0 135.5,0 135.5,-19"/>
<text text-anchor="middle" x="109" y="-7" font-family="Helvetica,sans-Serif" font-size="10.00">QString</text>
</a>
</g>
</g>
<!-- Node2&#45;&gt;Node4 -->
<g id="edge3_Node000002_Node000004" class="edge">
<title>Node2&#45;&gt;Node4</title>
<g id="a_edge3_Node000002_Node000004"><a xlink:title=" ">
<path fill="none" stroke="#63b8ff" d="M76.44,-54.75C81.89,-47.34 89.86,-36.5 96.56,-27.41"/>
<polygon fill="#63b8ff" stroke="#63b8ff" points="99.57,-29.22 102.68,-19.09 93.93,-25.07 99.57,-29.22"/>
</a>
</g>
</g>
</g>
</svg>
