<?xml version="1.0" encoding="UTF-8" standalone="no"?>
<!DOCTYPE svg PUBLIC "-//W3C//DTD SVG 1.1//EN"
 "http://www.w3.org/Graphics/SVG/1.1/DTD/svg11.dtd">
<!-- Generated by graphviz version 2.43.0 (0)
 -->
<!-- Title: TEST_CASE Pages: 1 -->
<svg width="391pt" height="86pt"
 viewBox="0.00 0.00 391.00 86.00" xmlns="http://www.w3.org/2000/svg" xmlns:xlink="http://www.w3.org/1999/xlink">
<g id="graph0" class="graph" transform="scale(1 1) rotate(0) translate(4 82)">
<title>TEST_CASE</title>
<!-- Node1 -->
<g id="Node000001" class="node">
<title>Node1</title>
<g id="a_Node000001"><a xlink:title=" ">
<polygon fill="#999999" stroke="#666666" points="71,-50.5 0,-50.5 0,-31.5 71,-31.5 71,-50.5"/>
<text text-anchor="middle" x="35.5" y="-38.5" font-family="Helvetica,sans-Serif" font-size="10.00">TEST_CASE</text>
</a>
</g>
</g>
<!-- Node2 -->
<g id="Node000002" class="node">
<title>Node2</title>
<g id="a_Node000002"><a xlink:href="classmyproject_1_1Settings.html#a8499cefc0bd93d35c326dd8db18b5096" target="_top" xlink:title="Emitted when the redo shortcut is changed.">
<polygon fill="white" stroke="#666666" points="383,-78 255,-78 255,-48 383,-48 383,-78"/>
<text text-anchor="start" x="263" y="-66" font-family="Helvetica,sans-Serif" font-size="10.00">myproject::Settings</text>
<text text-anchor="middle" x="319" y="-55" font-family="Helvetica,sans-Serif" font-size="10.00">::redoShortcutChanged</text>
</a>
</g>
</g>
<!-- Node1&#45;&gt;Node2 -->
<g id="edge1_Node000001_Node000002" class="edge">
<title>Node1&#45;&gt;Node2</title>
<g id="a_edge1_Node000001_Node000002"><a xlink:title=" ">
<path fill="none" stroke="#63b8ff" d="M71.02,-43.7C114,-47.06 188.59,-52.89 244.58,-57.26"/>
<polygon fill="#63b8ff" stroke="#63b8ff" points="244.56,-60.77 254.8,-58.06 245.11,-53.79 244.56,-60.77"/>
</a>
</g>
</g>
<!-- Node3 -->
<g id="Node000003" class="node">
<title>Node3</title>
<g id="a_Node000003"><a xlink:href="classmyproject_1_1Settings.html#a847dbb74022d60df6703892190ca022d" target="_top" xlink:title="Sets the current redo shortcut for the application.">
<polygon fill="white" stroke="#666666" points="219,-35 107,-35 107,-5 219,-5 219,-35"/>
<text text-anchor="start" x="115" y="-23" font-family="Helvetica,sans-Serif" font-size="10.00">myproject::Settings</text>
<text text-anchor="middle" x="163" y="-12" font-family="Helvetica,sans-Serif" font-size="10.00">::setRedoShortcut</text>
</a>
</g>
</g>
<!-- Node1&#45;&gt;Node3 -->
<g id="edge2_Node000001_Node000003" class="edge">
<title>Node1&#45;&gt;Node3</title>
<g id="a_edge2_Node000001_Node000003"><a xlink:title=" ">
<path fill="none" stroke="#63b8ff" d="M71.13,-35.21C79.14,-33.87 87.92,-32.4 96.77,-30.91"/>
<polygon fill="#63b8ff" stroke="#63b8ff" points="97.47,-34.35 106.75,-29.24 96.31,-27.44 97.47,-34.35"/>
</a>
</g>
</g>
<!-- Node3&#45;&gt;Node2 -->
<g id="edge4_Node000003_Node000002" class="edge">
<title>Node3&#45;&gt;Node2</title>
<g id="a_edge4_Node000003_Node000002"><a xlink:title=" ">
<path fill="none" stroke="#63b8ff" d="M217.86,-35.04C229.7,-38.35 242.35,-41.88 254.53,-45.28"/>
<polygon fill="#63b8ff" stroke="#63b8ff" points="253.6,-48.65 264.17,-47.97 255.48,-41.91 253.6,-48.65"/>
</a>
</g>
</g>
<!-- Node4 -->
<g id="Node000004" class="node">
<title>Node4</title>
<g id="a_Node000004"><a xlink:href="classmyproject_1_1Settings.html#aea1fd61399dc3ac7e8104e417d3be490" target="_top" xlink:title="Returns the default redo shortcut for the application.">
<polygon fill="white" stroke="#666666" points="380,-30 258,-30 258,0 380,0 380,-30"/>
<text text-anchor="start" x="266" y="-18" font-family="Helvetica,sans-Serif" font-size="10.00">myproject::Settings</text>
<text text-anchor="middle" x="319" y="-7" font-family="Helvetica,sans-Serif" font-size="10.00">::defaultRedoShortcut</text>
</a>
</g>
</g>
<!-- Node3&#45;&gt;Node4 -->
<g id="edge3_Node000003_Node000004" class="edge">
<title>Node3&#45;&gt;Node4</title>
<g id="a_edge3_Node000003_Node000004"><a xlink:title=" ">
<path fill="none" stroke="#63b8ff" d="M219.16,-18.21C228.35,-17.91 238,-17.6 247.5,-17.29"/>
<polygon fill="#63b8ff" stroke="#63b8ff" points="247.86,-20.78 257.74,-16.96 247.64,-13.78 247.86,-20.78"/>
</a>
</g>
</g>
</g>
</svg>
