<?xml version="1.0" encoding="UTF-8" standalone="no"?>
<!DOCTYPE svg PUBLIC "-//W3C//DTD SVG 1.1//EN"
 "http://www.w3.org/Graphics/SVG/1.1/DTD/svg11.dtd">
<!-- Generated by graphviz version 2.43.0 (0)
 -->
<!-- Title: TEST_CASE Pages: 1 -->
<svg width="451pt" height="1146pt"
 viewBox="0.00 0.00 451.00 1146.14" xmlns="http://www.w3.org/2000/svg" xmlns:xlink="http://www.w3.org/1999/xlink">
<g id="graph0" class="graph" transform="scale(1 1) rotate(0) translate(4 1142.14)">
<title>TEST_CASE</title>
<!-- Node1 -->
<g id="Node000001" class="node">
<title>Node1</title>
<g id="a_Node000001"><a xlink:title=" ">
<polygon fill="#999999" stroke="#666666" points="71,-586.5 0,-586.5 0,-567.5 71,-567.5 71,-586.5"/>
<text text-anchor="middle" x="35.5" y="-574.5" font-family="Helvetica,sans-Serif" font-size="10.00">TEST_CASE</text>
</a>
</g>
</g>
<!-- Node2 -->
<g id="Node000002" class="node">
<title>Node2</title>
<g id="a_Node000002"><a xlink:href="classmyproject_1_1Settings.html#a5b57c90ed6e15c4fa81363ad9219fa5e" target="_top" xlink:title="Returns the default copy shortcut for the application.">
<polygon fill="white" stroke="#666666" points="426.5,-1134 304.5,-1134 304.5,-1104 426.5,-1104 426.5,-1134"/>
<text text-anchor="start" x="312.5" y="-1122" font-family="Helvetica,sans-Serif" font-size="10.00">myproject::Settings</text>
<text text-anchor="middle" x="365.5" y="-1111" font-family="Helvetica,sans-Serif" font-size="10.00">::defaultCopyShortcut</text>
</a>
</g>
</g>
<!-- Node1&#45;&gt;Node2 -->
<g id="edge1_Node000001_Node000002" class="edge">
<title>Node1&#45;&gt;Node2</title>
<g id="a_edge1_Node000001_Node000002"><a xlink:title=" ">
<path fill="none" stroke="#63b8ff" d="M36.27,-586.6C34.9,-651.16 30.5,-1021.68 107,-1095 155.77,-1141.75 236.17,-1141.83 294.16,-1133.96"/>
<polygon fill="#63b8ff" stroke="#63b8ff" points="294.97,-1137.38 304.36,-1132.46 293.95,-1130.45 294.97,-1137.38"/>
</a>
</g>
</g>
<!-- Node3 -->
<g id="Node000003" class="node">
<title>Node3</title>
<g id="a_Node000003"><a xlink:href="classmyproject_1_1Settings.html#aae5e192a3d5dcb20bd4b8142febcb3be" target="_top" xlink:title="Returns the default cut shortcut for the application.">
<polygon fill="white" stroke="#666666" points="422.5,-1038 308.5,-1038 308.5,-1008 422.5,-1008 422.5,-1038"/>
<text text-anchor="start" x="316.5" y="-1026" font-family="Helvetica,sans-Serif" font-size="10.00">myproject::Settings</text>
<text text-anchor="middle" x="365.5" y="-1015" font-family="Helvetica,sans-Serif" font-size="10.00">::defaultCutShortcut</text>
</a>
</g>
</g>
<!-- Node1&#45;&gt;Node3 -->
<g id="edge2_Node000001_Node000003" class="edge">
<title>Node1&#45;&gt;Node3</title>
<g id="a_edge2_Node000001_Node000003"><a xlink:title=" ">
<path fill="none" stroke="#63b8ff" d="M36.59,-586.62C37.33,-643.99 44.17,-940.58 107,-999 157.56,-1046.01 240.28,-1045.21 298.29,-1037.07"/>
<polygon fill="#63b8ff" stroke="#63b8ff" points="299.1,-1040.49 308.46,-1035.53 298.05,-1033.56 299.1,-1040.49"/>
</a>
</g>
</g>
<!-- Node4 -->
<g id="Node000004" class="node">
<title>Node4</title>
<g id="a_Node000004"><a xlink:href="classmyproject_1_1Settings.html#a1356f33fbca31fb90758636fe2621b6e" target="_top" xlink:title="Returns the default full screen shortcut for the application.">
<polygon fill="white" stroke="#666666" points="439.5,-942 291.5,-942 291.5,-912 439.5,-912 439.5,-942"/>
<text text-anchor="start" x="299.5" y="-930" font-family="Helvetica,sans-Serif" font-size="10.00">myproject::Settings</text>
<text text-anchor="middle" x="365.5" y="-919" font-family="Helvetica,sans-Serif" font-size="10.00">::defaultFullScreenShortcut</text>
</a>
</g>
</g>
<!-- Node1&#45;&gt;Node4 -->
<g id="edge3_Node000001_Node000004" class="edge">
<title>Node1&#45;&gt;Node4</title>
<g id="a_edge3_Node000001_Node000004"><a xlink:title=" ">
<path fill="none" stroke="#63b8ff" d="M37.06,-586.73C40.16,-636.61 56.85,-863.11 107,-907 155.38,-949.34 230.35,-950.53 286.95,-943.37"/>
<polygon fill="#63b8ff" stroke="#63b8ff" points="287.5,-946.83 296.93,-942 286.55,-939.9 287.5,-946.83"/>
</a>
</g>
</g>
<!-- Node5 -->
<g id="Node000005" class="node">
<title>Node5</title>
<g id="a_Node000005"><a xlink:href="classmyproject_1_1Settings.html#ae1758a160f0afd96feaed24ddcdd6189" target="_top" xlink:title="Returns the default new shortcut for the application.">
<polygon fill="white" stroke="#666666" points="425,-846 306,-846 306,-816 425,-816 425,-846"/>
<text text-anchor="start" x="314" y="-834" font-family="Helvetica,sans-Serif" font-size="10.00">myproject::Settings</text>
<text text-anchor="middle" x="365.5" y="-823" font-family="Helvetica,sans-Serif" font-size="10.00">::defaultNewShortcut</text>
</a>
</g>
</g>
<!-- Node1&#45;&gt;Node5 -->
<g id="edge4_Node000001_Node000005" class="edge">
<title>Node1&#45;&gt;Node5</title>
<g id="a_edge4_Node000001_Node000005"><a xlink:title=" ">
<path fill="none" stroke="#63b8ff" d="M37.78,-586.61C43.52,-628.04 68.29,-790.69 107,-821 160.84,-863.14 242.16,-858.53 298.97,-847.97"/>
<polygon fill="#63b8ff" stroke="#63b8ff" points="299.79,-851.38 308.93,-846.02 298.44,-844.51 299.79,-851.38"/>
</a>
</g>
</g>
<!-- Node6 -->
<g id="Node000006" class="node">
<title>Node6</title>
<g id="a_Node000006"><a xlink:href="classmyproject_1_1Settings.html#a65bca73ffafab7c0eec57cdfa1509e12" target="_top" xlink:title="Returns the default open shortcut for the application.">
<polygon fill="white" stroke="#666666" points="427,-750 304,-750 304,-720 427,-720 427,-750"/>
<text text-anchor="start" x="312" y="-738" font-family="Helvetica,sans-Serif" font-size="10.00">myproject::Settings</text>
<text text-anchor="middle" x="365.5" y="-727" font-family="Helvetica,sans-Serif" font-size="10.00">::defaultOpenShortcut</text>
</a>
</g>
</g>
<!-- Node1&#45;&gt;Node6 -->
<g id="edge5_Node000001_Node000006" class="edge">
<title>Node1&#45;&gt;Node6</title>
<g id="a_edge5_Node000001_Node000006"><a xlink:title=" ">
<path fill="none" stroke="#63b8ff" d="M37.34,-586.73C40.41,-615.54 53.83,-700.5 107,-735 165.52,-772.97 248.37,-764.65 304.14,-752.37"/>
<polygon fill="#63b8ff" stroke="#63b8ff" points="305.28,-755.7 314.23,-750.04 303.7,-748.88 305.28,-755.7"/>
</a>
</g>
</g>
<!-- Node7 -->
<g id="Node000007" class="node">
<title>Node7</title>
<g id="a_Node000007"><a xlink:href="classmyproject_1_1Settings.html#ab1a1ef6af237d00cc3f1e7ce9b282538" target="_top" xlink:title="Returns the default options shortcut for the application.">
<polygon fill="white" stroke="#666666" points="433,-654 298,-654 298,-624 433,-624 433,-654"/>
<text text-anchor="start" x="306" y="-642" font-family="Helvetica,sans-Serif" font-size="10.00">myproject::Settings</text>
<text text-anchor="middle" x="365.5" y="-631" font-family="Helvetica,sans-Serif" font-size="10.00">::defaultOptionsShortcut</text>
</a>
</g>
</g>
<!-- Node1&#45;&gt;Node7 -->
<g id="edge6_Node000001_Node000007" class="edge">
<title>Node1&#45;&gt;Node7</title>
<g id="a_edge6_Node000001_Node000007"><a xlink:title=" ">
<path fill="none" stroke="#63b8ff" d="M42.2,-586.58C52.62,-603.05 76.52,-636.19 107,-649 168.7,-674.94 246.23,-667.14 300.01,-656.19"/>
<polygon fill="#63b8ff" stroke="#63b8ff" points="301.05,-659.54 310.11,-654.04 299.6,-652.7 301.05,-659.54"/>
</a>
</g>
</g>
<!-- Node8 -->
<g id="Node000008" class="node">
<title>Node8</title>
<g id="a_Node000008"><a xlink:href="classmyproject_1_1Settings.html#ae02e97b96b97a3f3c6d0fd9821c98af9" target="_top" xlink:title="Returns the default paste shortcut for the application.">
<polygon fill="white" stroke="#666666" points="427.5,-558 303.5,-558 303.5,-528 427.5,-528 427.5,-558"/>
<text text-anchor="start" x="311.5" y="-546" font-family="Helvetica,sans-Serif" font-size="10.00">myproject::Settings</text>
<text text-anchor="middle" x="365.5" y="-535" font-family="Helvetica,sans-Serif" font-size="10.00">::defaultPasteShortcut</text>
</a>
</g>
</g>
<!-- Node1&#45;&gt;Node8 -->
<g id="edge7_Node000001_Node000008" class="edge">
<title>Node1&#45;&gt;Node8</title>
<g id="a_edge7_Node000001_Node000008"><a xlink:title=" ">
<path fill="none" stroke="#63b8ff" d="M59.23,-567.39C72.83,-562.11 90.6,-556.04 107,-553 169.17,-541.46 241.17,-539.62 293.21,-540.28"/>
<polygon fill="#63b8ff" stroke="#63b8ff" points="293.28,-543.78 303.34,-540.44 293.4,-536.78 293.28,-543.78"/>
</a>
</g>
</g>
<!-- Node9 -->
<g id="Node000009" class="node">
<title>Node9</title>
<g id="a_Node000009"><a xlink:href="classmyproject_1_1Settings.html#ab1d031494a6ee6b8a4bf6ddd576407bf" target="_top" xlink:title="Returns the default quit shortcut for the application.">
<polygon fill="white" stroke="#666666" points="424.5,-462 306.5,-462 306.5,-432 424.5,-432 424.5,-462"/>
<text text-anchor="start" x="314.5" y="-450" font-family="Helvetica,sans-Serif" font-size="10.00">myproject::Settings</text>
<text text-anchor="middle" x="365.5" y="-439" font-family="Helvetica,sans-Serif" font-size="10.00">::defaultQuitShortcut</text>
</a>
</g>
</g>
<!-- Node1&#45;&gt;Node9 -->
<g id="edge8_Node000001_Node000009" class="edge">
<title>Node1&#45;&gt;Node9</title>
<g id="a_edge8_Node000001_Node000009"><a xlink:title=" ">
<path fill="none" stroke="#63b8ff" d="M39.45,-567.19C46.73,-544.87 67.88,-490.41 107,-467 164.05,-432.87 241.4,-431.56 296.39,-436.51"/>
<polygon fill="#63b8ff" stroke="#63b8ff" points="296.09,-440 306.39,-437.5 296.78,-433.03 296.09,-440"/>
</a>
</g>
</g>
<!-- Node10 -->
<g id="Node000010" class="node">
<title>Node10</title>
<g id="a_Node000010"><a xlink:href="classmyproject_1_1Settings.html#aea1fd61399dc3ac7e8104e417d3be490" target="_top" xlink:title="Returns the default redo shortcut for the application.">
<polygon fill="white" stroke="#666666" points="426.5,-366 304.5,-366 304.5,-336 426.5,-336 426.5,-366"/>
<text text-anchor="start" x="312.5" y="-354" font-family="Helvetica,sans-Serif" font-size="10.00">myproject::Settings</text>
<text text-anchor="middle" x="365.5" y="-343" font-family="Helvetica,sans-Serif" font-size="10.00">::defaultRedoShortcut</text>
</a>
</g>
</g>
<!-- Node1&#45;&gt;Node10 -->
<g id="edge9_Node000001_Node000010" class="edge">
<title>Node1&#45;&gt;Node10</title>
<g id="a_edge9_Node000001_Node000010"><a xlink:title=" ">
<path fill="none" stroke="#63b8ff" d="M36.66,-567.25C37.77,-534.73 46.1,-429.33 107,-381 135.07,-358.73 227.84,-352.56 293.97,-351.07"/>
<polygon fill="#63b8ff" stroke="#63b8ff" points="294.41,-354.56 304.34,-350.87 294.27,-347.57 294.41,-354.56"/>
</a>
</g>
</g>
<!-- Node11 -->
<g id="Node000011" class="node">
<title>Node11</title>
<g id="a_Node000011"><a xlink:href="classmyproject_1_1Settings.html#a929f5c91fb00048653bf1ac1146035c5" target="_top" xlink:title="Returns the default save as shortcut for the application.">
<polygon fill="white" stroke="#666666" points="432.5,-270 298.5,-270 298.5,-240 432.5,-240 432.5,-270"/>
<text text-anchor="start" x="306.5" y="-258" font-family="Helvetica,sans-Serif" font-size="10.00">myproject::Settings</text>
<text text-anchor="middle" x="365.5" y="-247" font-family="Helvetica,sans-Serif" font-size="10.00">::defaultSaveAsShortcut</text>
</a>
</g>
</g>
<!-- Node1&#45;&gt;Node11 -->
<g id="edge10_Node000001_Node000011" class="edge">
<title>Node1&#45;&gt;Node11</title>
<g id="a_edge10_Node000001_Node000011"><a xlink:title=" ">
<path fill="none" stroke="#63b8ff" d="M37.51,-567.28C42.39,-522.11 65.07,-333.28 107,-295 132.94,-271.32 222.15,-261.65 288.33,-257.71"/>
<polygon fill="#63b8ff" stroke="#63b8ff" points="288.54,-261.2 298.33,-257.14 288.15,-254.21 288.54,-261.2"/>
</a>
</g>
</g>
<!-- Node12 -->
<g id="Node000012" class="node">
<title>Node12</title>
<g id="a_Node000012"><a xlink:href="classmyproject_1_1Settings.html#a5fcefff42c541af58a34cb865d18fcf4" target="_top" xlink:title="Returns the default save shortcut for the application.">
<polygon fill="white" stroke="#666666" points="426.5,-174 304.5,-174 304.5,-144 426.5,-144 426.5,-174"/>
<text text-anchor="start" x="312.5" y="-162" font-family="Helvetica,sans-Serif" font-size="10.00">myproject::Settings</text>
<text text-anchor="middle" x="365.5" y="-151" font-family="Helvetica,sans-Serif" font-size="10.00">::defaultSaveShortcut</text>
</a>
</g>
</g>
<!-- Node1&#45;&gt;Node12 -->
<g id="edge11_Node000001_Node000012" class="edge">
<title>Node1&#45;&gt;Node12</title>
<g id="a_edge11_Node000001_Node000012"><a xlink:title=" ">
<path fill="none" stroke="#63b8ff" d="M36.93,-567.34C39.49,-514.59 54.4,-261.73 107,-209 120.2,-195.77 222.37,-178.94 293.97,-168.58"/>
<polygon fill="#63b8ff" stroke="#63b8ff" points="294.9,-171.98 304.3,-167.09 293.91,-165.05 294.9,-171.98"/>
</a>
</g>
</g>
<!-- Node13 -->
<g id="Node000013" class="node">
<title>Node13</title>
<g id="a_Node000013"><a xlink:href="classmyproject_1_1Settings.html#ab1555e99c76110b4053f40982a43bb31" target="_top" xlink:title="Returns the default undo shortcut for the application.">
<polygon fill="white" stroke="#666666" points="427,-78 304,-78 304,-48 427,-48 427,-78"/>
<text text-anchor="start" x="312" y="-66" font-family="Helvetica,sans-Serif" font-size="10.00">myproject::Settings</text>
<text text-anchor="middle" x="365.5" y="-55" font-family="Helvetica,sans-Serif" font-size="10.00">::defaultUndoShortcut</text>
</a>
</g>
</g>
<!-- Node1&#45;&gt;Node13 -->
<g id="edge12_Node000001_Node000013" class="edge">
<title>Node1&#45;&gt;Node13</title>
<g id="a_edge12_Node000001_Node000013"><a xlink:title=" ">
<path fill="none" stroke="#63b8ff" d="M36.59,-567.18C37.33,-507.21 44.2,-190.68 107,-123 113.48,-116.02 219.76,-92.88 293.73,-77.46"/>
<polygon fill="#63b8ff" stroke="#63b8ff" points="294.86,-80.8 303.94,-75.34 293.43,-73.95 294.86,-80.8"/>
</a>
</g>
</g>
<!-- Node14 -->
<g id="Node000014" class="node">
<title>Node14</title>
<g id="a_Node000014"><a xlink:href="classmyproject_1_1Settings.html#a7666b417762dc9f2a08db63db89297fe" target="_top" xlink:title="Resets all shortcuts to their default values.">
<polygon fill="white" stroke="#666666" points="252,-592 107,-592 107,-562 252,-562 252,-592"/>
<text text-anchor="start" x="115" y="-580" font-family="Helvetica,sans-Serif" font-size="10.00">myproject::Settings</text>
<text text-anchor="middle" x="179.5" y="-569" font-family="Helvetica,sans-Serif" font-size="10.00">::resetShortcutsToDefaults</text>
</a>
</g>
</g>
<!-- Node1&#45;&gt;Node14 -->
<g id="edge13_Node000001_Node000014" class="edge">
<title>Node1&#45;&gt;Node14</title>
<g id="a_edge13_Node000001_Node000014"><a xlink:title=" ">
<path fill="none" stroke="#63b8ff" d="M71.24,-577C79.11,-577 87.8,-577 96.72,-577"/>
<polygon fill="#63b8ff" stroke="#63b8ff" points="96.86,-580.5 106.86,-577 96.86,-573.5 96.86,-580.5"/>
</a>
</g>
</g>
<!-- Node15 -->
<g id="Node000015" class="node">
<title>Node15</title>
<g id="a_Node000015"><a xlink:href="classmyproject_1_1Settings.html#ad43ee86f519ad9e358dc24b62eb6735d" target="_top" xlink:title="Sets the current copy shortcut for the application.">
<polygon fill="white" stroke="#666666" points="235.5,-1086 123.5,-1086 123.5,-1056 235.5,-1056 235.5,-1086"/>
<text text-anchor="start" x="131.5" y="-1074" font-family="Helvetica,sans-Serif" font-size="10.00">myproject::Settings</text>
<text text-anchor="middle" x="179.5" y="-1063" font-family="Helvetica,sans-Serif" font-size="10.00">::setCopyShortcut</text>
</a>
</g>
</g>
<!-- Node1&#45;&gt;Node15 -->
<g id="edge14_Node000001_Node000015" class="edge">
<title>Node1&#45;&gt;Node15</title>
<g id="a_edge14_Node000001_Node000015"><a xlink:title=" ">
<path fill="none" stroke="#63b8ff" d="M36.81,-586.71C38.87,-646.05 52.25,-959.68 107,-1035 111.44,-1041.11 117.21,-1046.24 123.55,-1050.54"/>
<polygon fill="#63b8ff" stroke="#63b8ff" points="122.11,-1053.76 132.48,-1055.91 125.71,-1047.76 122.11,-1053.76"/>
</a>
</g>
</g>
<!-- Node17 -->
<g id="Node000017" class="node">
<title>Node17</title>
<g id="a_Node000017"><a xlink:href="classmyproject_1_1Settings.html#af899ea9e4b0db3844add3572d43a717c" target="_top" xlink:title="Sets the current cut shortcut for the application.">
<polygon fill="white" stroke="#666666" points="235.5,-990 123.5,-990 123.5,-960 235.5,-960 235.5,-990"/>
<text text-anchor="start" x="131.5" y="-978" font-family="Helvetica,sans-Serif" font-size="10.00">myproject::Settings</text>
<text text-anchor="middle" x="179.5" y="-967" font-family="Helvetica,sans-Serif" font-size="10.00">::setCutShortcut</text>
</a>
</g>
</g>
<!-- Node1&#45;&gt;Node17 -->
<g id="edge17_Node000001_Node000017" class="edge">
<title>Node1&#45;&gt;Node17</title>
<g id="a_edge17_Node000001_Node000017"><a xlink:title=" ">
<path fill="none" stroke="#63b8ff" d="M37.22,-586.65C41.25,-638.29 62.4,-881.77 107,-940 111.45,-945.81 117.12,-950.71 123.31,-954.83"/>
<polygon fill="#63b8ff" stroke="#63b8ff" points="121.62,-957.9 132.01,-959.99 125.18,-951.88 121.62,-957.9"/>
</a>
</g>
</g>
<!-- Node19 -->
<g id="Node000019" class="node">
<title>Node19</title>
<g id="a_Node000019"><a xlink:href="classmyproject_1_1Settings.html#afb6632600dde242082182298dfa4bfc4" target="_top" xlink:title="Sets the current full screen shortcut for the application.">
<polygon fill="white" stroke="#666666" points="243.5,-898 115.5,-898 115.5,-868 243.5,-868 243.5,-898"/>
<text text-anchor="start" x="123.5" y="-886" font-family="Helvetica,sans-Serif" font-size="10.00">myproject::Settings</text>
<text text-anchor="middle" x="179.5" y="-875" font-family="Helvetica,sans-Serif" font-size="10.00">::setFullScreenShortcut</text>
</a>
</g>
</g>
<!-- Node1&#45;&gt;Node19 -->
<g id="edge20_Node000001_Node000019" class="edge">
<title>Node1&#45;&gt;Node19</title>
<g id="a_edge20_Node000001_Node000019"><a xlink:title=" ">
<path fill="none" stroke="#63b8ff" d="M36.04,-586.75C34.75,-625.63 35.07,-771.55 107,-854 109.7,-857.09 112.77,-859.86 116.1,-862.33"/>
<polygon fill="#63b8ff" stroke="#63b8ff" points="114.49,-865.46 124.8,-867.91 118.26,-859.57 114.49,-865.46"/>
</a>
</g>
</g>
<!-- Node21 -->
<g id="Node000021" class="node">
<title>Node21</title>
<g id="a_Node000021"><a xlink:href="classmyproject_1_1Settings.html#a4cf08fce6d8b9d2721f40da992444dce" target="_top" xlink:title="Sets the current new shortcut for the application.">
<polygon fill="white" stroke="#666666" points="235.5,-812 123.5,-812 123.5,-782 235.5,-782 235.5,-812"/>
<text text-anchor="start" x="131.5" y="-800" font-family="Helvetica,sans-Serif" font-size="10.00">myproject::Settings</text>
<text text-anchor="middle" x="179.5" y="-789" font-family="Helvetica,sans-Serif" font-size="10.00">::setNewShortcut</text>
</a>
</g>
</g>
<!-- Node1&#45;&gt;Node21 -->
<g id="edge23_Node000001_Node000021" class="edge">
<title>Node1&#45;&gt;Node21</title>
<g id="a_edge23_Node000001_Node000021"><a xlink:title=" ">
<path fill="none" stroke="#63b8ff" d="M37.37,-586.78C40.6,-617.61 54.61,-713.93 107,-768 110.18,-771.28 113.78,-774.2 117.64,-776.8"/>
<polygon fill="#63b8ff" stroke="#63b8ff" points="116.02,-779.92 126.41,-782 119.59,-773.89 116.02,-779.92"/>
</a>
</g>
</g>
<!-- Node23 -->
<g id="Node000023" class="node">
<title>Node23</title>
<g id="a_Node000023"><a xlink:href="classmyproject_1_1Settings.html#aedb7ec5a225dc077c1377b2d769edbc4" target="_top" xlink:title="Sets the current open shortcut for the application.">
<polygon fill="white" stroke="#666666" points="235.5,-726 123.5,-726 123.5,-696 235.5,-696 235.5,-726"/>
<text text-anchor="start" x="131.5" y="-714" font-family="Helvetica,sans-Serif" font-size="10.00">myproject::Settings</text>
<text text-anchor="middle" x="179.5" y="-703" font-family="Helvetica,sans-Serif" font-size="10.00">::setOpenShortcut</text>
</a>
</g>
</g>
<!-- Node1&#45;&gt;Node23 -->
<g id="edge26_Node000001_Node000023" class="edge">
<title>Node1&#45;&gt;Node23</title>
<g id="a_edge26_Node000001_Node000023"><a xlink:title=" ">
<path fill="none" stroke="#63b8ff" d="M40.52,-586.5C49.54,-606.76 73.26,-654.58 107,-682 111.22,-685.43 115.91,-688.51 120.8,-691.25"/>
<polygon fill="#63b8ff" stroke="#63b8ff" points="119.27,-694.4 129.77,-695.83 122.46,-688.16 119.27,-694.4"/>
</a>
</g>
</g>
<!-- Node25 -->
<g id="Node000025" class="node">
<title>Node25</title>
<g id="a_Node000025"><a xlink:href="classmyproject_1_1Settings.html#a47af30e166f78fe478324fa0ed02429e" target="_top" xlink:title="Sets the current options shortcut for the application.">
<polygon fill="white" stroke="#666666" points="237.5,-640 121.5,-640 121.5,-610 237.5,-610 237.5,-640"/>
<text text-anchor="start" x="129.5" y="-628" font-family="Helvetica,sans-Serif" font-size="10.00">myproject::Settings</text>
<text text-anchor="middle" x="179.5" y="-617" font-family="Helvetica,sans-Serif" font-size="10.00">::setOptionsShortcut</text>
</a>
</g>
</g>
<!-- Node1&#45;&gt;Node25 -->
<g id="edge29_Node000001_Node000025" class="edge">
<title>Node1&#45;&gt;Node25</title>
<g id="a_edge29_Node000001_Node000025"><a xlink:title=" ">
<path fill="none" stroke="#63b8ff" d="M64.62,-586.6C77.53,-591 93.04,-596.28 107,-601 112.48,-602.85 118.2,-604.78 123.92,-606.71"/>
<polygon fill="#63b8ff" stroke="#63b8ff" points="122.89,-610.05 133.48,-609.92 125.12,-603.42 122.89,-610.05"/>
</a>
</g>
</g>
<!-- Node27 -->
<g id="Node000027" class="node">
<title>Node27</title>
<g id="a_Node000027"><a xlink:href="classmyproject_1_1Settings.html#a4365a02637afd321e6948b50c1571c34" target="_top" xlink:title="Sets the current paste shortcut for the application.">
<polygon fill="white" stroke="#666666" points="235.5,-506 123.5,-506 123.5,-476 235.5,-476 235.5,-506"/>
<text text-anchor="start" x="131.5" y="-494" font-family="Helvetica,sans-Serif" font-size="10.00">myproject::Settings</text>
<text text-anchor="middle" x="179.5" y="-483" font-family="Helvetica,sans-Serif" font-size="10.00">::setPasteShortcut</text>
</a>
</g>
</g>
<!-- Node1&#45;&gt;Node27 -->
<g id="edge32_Node000001_Node000027" class="edge">
<title>Node1&#45;&gt;Node27</title>
<g id="a_edge32_Node000001_Node000027"><a xlink:title=" ">
<path fill="none" stroke="#63b8ff" d="M46.3,-567.48C59.32,-555.24 83.41,-533.91 107,-520 112.97,-516.48 119.45,-513.2 125.98,-510.2"/>
<polygon fill="#63b8ff" stroke="#63b8ff" points="127.79,-513.24 135.55,-506.03 124.98,-506.82 127.79,-513.24"/>
</a>
</g>
</g>
<!-- Node29 -->
<g id="Node000029" class="node">
<title>Node29</title>
<g id="a_Node000029"><a xlink:href="classmyproject_1_1Settings.html#a912bd9f2cf554030010dedc4a136a4ff" target="_top" xlink:title="Sets the current quit shortcut for the application.">
<polygon fill="white" stroke="#666666" points="235.5,-420 123.5,-420 123.5,-390 235.5,-390 235.5,-420"/>
<text text-anchor="start" x="131.5" y="-408" font-family="Helvetica,sans-Serif" font-size="10.00">myproject::Settings</text>
<text text-anchor="middle" x="179.5" y="-397" font-family="Helvetica,sans-Serif" font-size="10.00">::setQuitShortcut</text>
</a>
</g>
</g>
<!-- Node1&#45;&gt;Node29 -->
<g id="edge35_Node000001_Node000029" class="edge">
<title>Node1&#45;&gt;Node29</title>
<g id="a_edge35_Node000001_Node000029"><a xlink:title=" ">
<path fill="none" stroke="#63b8ff" d="M38.74,-567.21C45.04,-541.76 65.24,-472.83 107,-434 110.55,-430.7 114.53,-427.75 118.74,-425.12"/>
<polygon fill="#63b8ff" stroke="#63b8ff" points="120.62,-428.08 127.66,-420.16 117.22,-421.96 120.62,-428.08"/>
</a>
</g>
</g>
<!-- Node31 -->
<g id="Node000031" class="node">
<title>Node31</title>
<g id="a_Node000031"><a xlink:href="classmyproject_1_1Settings.html#a847dbb74022d60df6703892190ca022d" target="_top" xlink:title="Sets the current redo shortcut for the application.">
<polygon fill="white" stroke="#666666" points="235.5,-334 123.5,-334 123.5,-304 235.5,-304 235.5,-334"/>
<text text-anchor="start" x="131.5" y="-322" font-family="Helvetica,sans-Serif" font-size="10.00">myproject::Settings</text>
<text text-anchor="middle" x="179.5" y="-311" font-family="Helvetica,sans-Serif" font-size="10.00">::setRedoShortcut</text>
</a>
</g>
</g>
<!-- Node1&#45;&gt;Node31 -->
<g id="edge38_Node000001_Node000031" class="edge">
<title>Node1&#45;&gt;Node31</title>
<g id="a_edge38_Node000001_Node000031"><a xlink:title=" ">
<path fill="none" stroke="#63b8ff" d="M36.66,-567.31C37.76,-532.81 46,-414.53 107,-348 109.9,-344.83 113.2,-342.01 116.75,-339.48"/>
<polygon fill="#63b8ff" stroke="#63b8ff" points="118.75,-342.36 125.41,-334.13 115.06,-336.41 118.75,-342.36"/>
</a>
</g>
</g>
<!-- Node33 -->
<g id="Node000033" class="node">
<title>Node33</title>
<g id="a_Node000033"><a xlink:href="classmyproject_1_1Settings.html#ab8945e6a735ce71b904c528c57570a80" target="_top" xlink:title="Sets the current save as shortcut for the application.">
<polygon fill="white" stroke="#666666" points="236.5,-248 122.5,-248 122.5,-218 236.5,-218 236.5,-248"/>
<text text-anchor="start" x="130.5" y="-236" font-family="Helvetica,sans-Serif" font-size="10.00">myproject::Settings</text>
<text text-anchor="middle" x="179.5" y="-225" font-family="Helvetica,sans-Serif" font-size="10.00">::setSaveAsShortcut</text>
</a>
</g>
</g>
<!-- Node1&#45;&gt;Node33 -->
<g id="edge41_Node000001_Node000033" class="edge">
<title>Node1&#45;&gt;Node33</title>
<g id="a_edge41_Node000001_Node000033"><a xlink:title=" ">
<path fill="none" stroke="#63b8ff" d="M37.46,-567.34C42.36,-519.75 65.98,-310.43 107,-262 109.6,-258.93 112.58,-256.17 115.81,-253.71"/>
<polygon fill="#63b8ff" stroke="#63b8ff" points="117.84,-256.57 124.29,-248.16 114.01,-250.71 117.84,-256.57"/>
</a>
</g>
</g>
<!-- Node35 -->
<g id="Node000035" class="node">
<title>Node35</title>
<g id="a_Node000035"><a xlink:href="classmyproject_1_1Settings.html#a955a79a03d952ab1f539bb8fdd18f317" target="_top" xlink:title="Sets the current save shortcut for the application.">
<polygon fill="white" stroke="#666666" points="235.5,-162 123.5,-162 123.5,-132 235.5,-132 235.5,-162"/>
<text text-anchor="start" x="131.5" y="-150" font-family="Helvetica,sans-Serif" font-size="10.00">myproject::Settings</text>
<text text-anchor="middle" x="179.5" y="-139" font-family="Helvetica,sans-Serif" font-size="10.00">::setSaveShortcut</text>
</a>
</g>
</g>
<!-- Node1&#45;&gt;Node35 -->
<g id="edge44_Node000001_Node000035" class="edge">
<title>Node1&#45;&gt;Node35</title>
<g id="a_edge44_Node000001_Node000035"><a xlink:title=" ">
<path fill="none" stroke="#63b8ff" d="M36.95,-567.39C39.71,-512.52 55.9,-239.22 107,-176 109.42,-173.01 112.19,-170.33 115.21,-167.92"/>
<polygon fill="#63b8ff" stroke="#63b8ff" points="117.38,-170.67 123.7,-162.17 113.45,-164.88 117.38,-170.67"/>
</a>
</g>
</g>
<!-- Node37 -->
<g id="Node000037" class="node">
<title>Node37</title>
<g id="a_Node000037"><a xlink:href="classmyproject_1_1Settings.html#a60c36981ae4c1b2799c07dd75538a46d" target="_top" xlink:title="Sets the current undo shortcut for the application.">
<polygon fill="white" stroke="#666666" points="235.5,-76 123.5,-76 123.5,-46 235.5,-46 235.5,-76"/>
<text text-anchor="start" x="131.5" y="-64" font-family="Helvetica,sans-Serif" font-size="10.00">myproject::Settings</text>
<text text-anchor="middle" x="179.5" y="-53" font-family="Helvetica,sans-Serif" font-size="10.00">::setUndoShortcut</text>
</a>
</g>
</g>
<!-- Node1&#45;&gt;Node37 -->
<g id="edge47_Node000001_Node000037" class="edge">
<title>Node1&#45;&gt;Node37</title>
<g id="a_edge47_Node000001_Node000037"><a xlink:title=" ">
<path fill="none" stroke="#63b8ff" d="M36.62,-567.42C37.6,-506.05 45.75,-168.17 107,-90 109.37,-86.98 112.11,-84.26 115.1,-81.83"/>
<polygon fill="#63b8ff" stroke="#63b8ff" points="117.27,-84.59 123.54,-76.04 113.31,-78.82 117.27,-84.59"/>
</a>
</g>
</g>
<!-- Node15&#45;&gt;Node2 -->
<g id="edge16_Node000015_Node000002" class="edge">
<title>Node15&#45;&gt;Node2</title>
<g id="a_edge16_Node000015_Node000002"><a xlink:title=" ">
<path fill="none" stroke="#63b8ff" d="M235.71,-1085.4C254.99,-1090.43 276.86,-1096.14 297.03,-1101.4"/>
<polygon fill="#63b8ff" stroke="#63b8ff" points="296.22,-1104.8 306.78,-1103.94 297.99,-1098.03 296.22,-1104.8"/>
</a>
</g>
</g>
<!-- Node16 -->
<g id="Node000016" class="node">
<title>Node16</title>
<g id="a_Node000016"><a xlink:href="classmyproject_1_1Settings.html#ab2da2035bc125ce50e038b3a80ea7030" target="_top" xlink:title="Emitted when the copy shortcut is changed.">
<polygon fill="white" stroke="#666666" points="430,-1086 301,-1086 301,-1056 430,-1056 430,-1086"/>
<text text-anchor="start" x="309" y="-1074" font-family="Helvetica,sans-Serif" font-size="10.00">myproject::Settings</text>
<text text-anchor="middle" x="365.5" y="-1063" font-family="Helvetica,sans-Serif" font-size="10.00">::copyShortcutChanged</text>
</a>
</g>
</g>
<!-- Node15&#45;&gt;Node16 -->
<g id="edge15_Node000015_Node000016" class="edge">
<title>Node15&#45;&gt;Node16</title>
<g id="a_edge15_Node000015_Node000016"><a xlink:title=" ">
<path fill="none" stroke="#63b8ff" d="M235.71,-1071C253.03,-1071 272.45,-1071 290.84,-1071"/>
<polygon fill="#63b8ff" stroke="#63b8ff" points="290.93,-1074.5 300.93,-1071 290.93,-1067.5 290.93,-1074.5"/>
</a>
</g>
</g>
<!-- Node17&#45;&gt;Node3 -->
<g id="edge19_Node000017_Node000003" class="edge">
<title>Node17&#45;&gt;Node3</title>
<g id="a_edge19_Node000017_Node000003"><a xlink:title=" ">
<path fill="none" stroke="#63b8ff" d="M235.71,-989.4C255.45,-994.55 277.89,-1000.41 298.46,-1005.77"/>
<polygon fill="#63b8ff" stroke="#63b8ff" points="297.82,-1009.22 308.38,-1008.36 299.59,-1002.45 297.82,-1009.22"/>
</a>
</g>
</g>
<!-- Node18 -->
<g id="Node000018" class="node">
<title>Node18</title>
<g id="a_Node000018"><a xlink:href="classmyproject_1_1Settings.html#aa9e7d595ec8f1dca931ca644b528b692" target="_top" xlink:title="Emitted when the cut shortcut is changed.">
<polygon fill="white" stroke="#666666" points="426,-990 305,-990 305,-960 426,-960 426,-990"/>
<text text-anchor="start" x="313" y="-978" font-family="Helvetica,sans-Serif" font-size="10.00">myproject::Settings</text>
<text text-anchor="middle" x="365.5" y="-967" font-family="Helvetica,sans-Serif" font-size="10.00">::cutShortcutChanged</text>
</a>
</g>
</g>
<!-- Node17&#45;&gt;Node18 -->
<g id="edge18_Node000017_Node000018" class="edge">
<title>Node17&#45;&gt;Node18</title>
<g id="a_edge18_Node000017_Node000018"><a xlink:title=" ">
<path fill="none" stroke="#63b8ff" d="M235.71,-975C254.28,-975 275.24,-975 294.78,-975"/>
<polygon fill="#63b8ff" stroke="#63b8ff" points="294.84,-978.5 304.84,-975 294.84,-971.5 294.84,-978.5"/>
</a>
</g>
</g>
<!-- Node19&#45;&gt;Node4 -->
<g id="edge21_Node000019_Node000004" class="edge">
<title>Node19&#45;&gt;Node4</title>
<g id="a_edge21_Node000019_Node000004"><a xlink:title=" ">
<path fill="none" stroke="#63b8ff" d="M243.31,-898.02C258.91,-901.75 275.77,-905.78 291.8,-909.62"/>
<polygon fill="#63b8ff" stroke="#63b8ff" points="291.12,-913.05 301.66,-911.97 292.75,-906.24 291.12,-913.05"/>
</a>
</g>
</g>
<!-- Node20 -->
<g id="Node000020" class="node">
<title>Node20</title>
<g id="a_Node000020"><a xlink:href="classmyproject_1_1Settings.html#a97cd8f29bdc99337862619fe56dcf235" target="_top" xlink:title="Emitted when the full screen shortcut is changed.">
<polygon fill="white" stroke="#666666" points="443,-894 288,-894 288,-864 443,-864 443,-894"/>
<text text-anchor="start" x="296" y="-882" font-family="Helvetica,sans-Serif" font-size="10.00">myproject::Settings</text>
<text text-anchor="middle" x="365.5" y="-871" font-family="Helvetica,sans-Serif" font-size="10.00">::fullScreenShortcutChanged</text>
</a>
</g>
</g>
<!-- Node19&#45;&gt;Node20 -->
<g id="edge22_Node000019_Node000020" class="edge">
<title>Node19&#45;&gt;Node20</title>
<g id="a_edge22_Node000019_Node000020"><a xlink:title=" ">
<path fill="none" stroke="#63b8ff" d="M243.56,-881.63C254.59,-881.39 266.23,-881.14 277.76,-880.89"/>
<polygon fill="#63b8ff" stroke="#63b8ff" points="277.92,-884.38 287.84,-880.67 277.77,-877.38 277.92,-884.38"/>
</a>
</g>
</g>
<!-- Node21&#45;&gt;Node5 -->
<g id="edge24_Node000021_Node000005" class="edge">
<title>Node21&#45;&gt;Node5</title>
<g id="a_edge24_Node000021_Node000005"><a xlink:title=" ">
<path fill="none" stroke="#63b8ff" d="M235.71,-807.2C254.63,-810.7 276.05,-814.66 295.9,-818.32"/>
<polygon fill="#63b8ff" stroke="#63b8ff" points="295.34,-821.78 305.81,-820.16 296.62,-814.9 295.34,-821.78"/>
</a>
</g>
</g>
<!-- Node22 -->
<g id="Node000022" class="node">
<title>Node22</title>
<g id="a_Node000022"><a xlink:href="classmyproject_1_1Settings.html#a81e53e5d111a3c2d92e037d07c3b7fe7" target="_top" xlink:title="Emitted when the new shortcut is changed.">
<polygon fill="white" stroke="#666666" points="428.5,-798 302.5,-798 302.5,-768 428.5,-768 428.5,-798"/>
<text text-anchor="start" x="310.5" y="-786" font-family="Helvetica,sans-Serif" font-size="10.00">myproject::Settings</text>
<text text-anchor="middle" x="365.5" y="-775" font-family="Helvetica,sans-Serif" font-size="10.00">::newShortcutChanged</text>
</a>
</g>
</g>
<!-- Node21&#45;&gt;Node22 -->
<g id="edge25_Node000021_Node000022" class="edge">
<title>Node21&#45;&gt;Node22</title>
<g id="a_edge25_Node000021_Node000022"><a xlink:title=" ">
<path fill="none" stroke="#63b8ff" d="M235.71,-792.8C253.47,-791.45 273.43,-789.93 292.23,-788.5"/>
<polygon fill="#63b8ff" stroke="#63b8ff" points="292.54,-791.99 302.24,-787.74 292.01,-785.01 292.54,-791.99"/>
</a>
</g>
</g>
<!-- Node23&#45;&gt;Node6 -->
<g id="edge27_Node000023_Node000006" class="edge">
<title>Node23&#45;&gt;Node6</title>
<g id="a_edge27_Node000023_Node000006"><a xlink:title=" ">
<path fill="none" stroke="#63b8ff" d="M235.71,-718.2C254.01,-720.59 274.63,-723.28 293.92,-725.79"/>
<polygon fill="#63b8ff" stroke="#63b8ff" points="293.5,-729.27 303.87,-727.09 294.41,-722.33 293.5,-729.27"/>
</a>
</g>
</g>
<!-- Node24 -->
<g id="Node000024" class="node">
<title>Node24</title>
<g id="a_Node000024"><a xlink:href="classmyproject_1_1Settings.html#a5fdde332391adf74abb89c5ff97b067d" target="_top" xlink:title="Emitted when the open shortcut is changed.">
<polygon fill="white" stroke="#666666" points="430.5,-702 300.5,-702 300.5,-672 430.5,-672 430.5,-702"/>
<text text-anchor="start" x="308.5" y="-690" font-family="Helvetica,sans-Serif" font-size="10.00">myproject::Settings</text>
<text text-anchor="middle" x="365.5" y="-679" font-family="Helvetica,sans-Serif" font-size="10.00">::openShortcutChanged</text>
</a>
</g>
</g>
<!-- Node23&#45;&gt;Node24 -->
<g id="edge28_Node000023_Node000024" class="edge">
<title>Node23&#45;&gt;Node24</title>
<g id="a_edge28_Node000023_Node000024"><a xlink:title=" ">
<path fill="none" stroke="#63b8ff" d="M235.71,-703.8C252.85,-701.56 272.05,-699.06 290.27,-696.68"/>
<polygon fill="#63b8ff" stroke="#63b8ff" points="290.81,-700.14 300.27,-695.38 289.91,-693.2 290.81,-700.14"/>
</a>
</g>
</g>
<!-- Node25&#45;&gt;Node7 -->
<g id="edge30_Node000025_Node000007" class="edge">
<title>Node25&#45;&gt;Node7</title>
<g id="a_edge30_Node000025_Node000007"><a xlink:title=" ">
<path fill="none" stroke="#63b8ff" d="M237.71,-629.35C253.52,-630.56 270.94,-631.88 287.68,-633.15"/>
<polygon fill="#63b8ff" stroke="#63b8ff" points="287.75,-636.67 297.98,-633.94 288.28,-629.69 287.75,-636.67"/>
</a>
</g>
</g>
<!-- Node26 -->
<g id="Node000026" class="node">
<title>Node26</title>
<g id="a_Node000026"><a xlink:href="classmyproject_1_1Settings.html#a9288082a6302c1f7a7673ff5d3087856" target="_top" xlink:title="Emitted when the options shortcut is changed.">
<polygon fill="white" stroke="#666666" points="436.5,-606 294.5,-606 294.5,-576 436.5,-576 436.5,-606"/>
<text text-anchor="start" x="302.5" y="-594" font-family="Helvetica,sans-Serif" font-size="10.00">myproject::Settings</text>
<text text-anchor="middle" x="365.5" y="-583" font-family="Helvetica,sans-Serif" font-size="10.00">::optionsShortcutChanged</text>
</a>
</g>
</g>
<!-- Node25&#45;&gt;Node26 -->
<g id="edge31_Node000025_Node000026" class="edge">
<title>Node25&#45;&gt;Node26</title>
<g id="a_edge31_Node000025_Node000026"><a xlink:title=" ">
<path fill="none" stroke="#63b8ff" d="M237.71,-614.43C252.42,-611.71 268.53,-608.73 284.17,-605.84"/>
<polygon fill="#63b8ff" stroke="#63b8ff" points="285.17,-609.22 294.37,-603.96 283.9,-602.33 285.17,-609.22"/>
</a>
</g>
</g>
<!-- Node27&#45;&gt;Node8 -->
<g id="edge33_Node000027_Node000008" class="edge">
<title>Node27&#45;&gt;Node8</title>
<g id="a_edge33_Node000027_Node000008"><a xlink:title=" ">
<path fill="none" stroke="#63b8ff" d="M233.72,-506.04C254.99,-512.05 279.63,-519.02 301.76,-525.27"/>
<polygon fill="#63b8ff" stroke="#63b8ff" points="300.82,-528.64 311.4,-527.99 302.73,-521.91 300.82,-528.64"/>
</a>
</g>
</g>
<!-- Node28 -->
<g id="Node000028" class="node">
<title>Node28</title>
<g id="a_Node000028"><a xlink:href="classmyproject_1_1Settings.html#a998c69fdb351bf80358452fac40e4c98" target="_top" xlink:title="Emitted when the paste shortcut is changed.">
<polygon fill="white" stroke="#666666" points="432,-510 299,-510 299,-480 432,-480 432,-510"/>
<text text-anchor="start" x="307" y="-498" font-family="Helvetica,sans-Serif" font-size="10.00">myproject::Settings</text>
<text text-anchor="middle" x="365.5" y="-487" font-family="Helvetica,sans-Serif" font-size="10.00">::pasteShortcutChanged</text>
</a>
</g>
</g>
<!-- Node27&#45;&gt;Node28 -->
<g id="edge34_Node000027_Node000028" class="edge">
<title>Node27&#45;&gt;Node28</title>
<g id="a_edge34_Node000027_Node000028"><a xlink:title=" ">
<path fill="none" stroke="#63b8ff" d="M235.71,-492.2C252.34,-492.56 270.9,-492.97 288.63,-493.35"/>
<polygon fill="#63b8ff" stroke="#63b8ff" points="288.88,-496.86 298.96,-493.58 289.03,-489.86 288.88,-496.86"/>
</a>
</g>
</g>
<!-- Node29&#45;&gt;Node9 -->
<g id="edge36_Node000029_Node000009" class="edge">
<title>Node29&#45;&gt;Node9</title>
<g id="a_edge36_Node000029_Node000009"><a xlink:title=" ">
<path fill="none" stroke="#63b8ff" d="M235.71,-417.6C254.81,-421.96 276.46,-426.9 296.47,-431.47"/>
<polygon fill="#63b8ff" stroke="#63b8ff" points="295.93,-434.94 306.46,-433.75 297.49,-428.11 295.93,-434.94"/>
</a>
</g>
</g>
<!-- Node30 -->
<g id="Node000030" class="node">
<title>Node30</title>
<g id="a_Node000030"><a xlink:href="classmyproject_1_1Settings.html#aad13bda42478ac1136c430547bc1e37d" target="_top" xlink:title="Emitted when the quit shortcut is changed.">
<polygon fill="white" stroke="#666666" points="428,-414 303,-414 303,-384 428,-384 428,-414"/>
<text text-anchor="start" x="311" y="-402" font-family="Helvetica,sans-Serif" font-size="10.00">myproject::Settings</text>
<text text-anchor="middle" x="365.5" y="-391" font-family="Helvetica,sans-Serif" font-size="10.00">::quitShortcutChanged</text>
</a>
</g>
</g>
<!-- Node29&#45;&gt;Node30 -->
<g id="edge37_Node000029_Node000030" class="edge">
<title>Node29&#45;&gt;Node30</title>
<g id="a_edge37_Node000029_Node000030"><a xlink:title=" ">
<path fill="none" stroke="#63b8ff" d="M235.71,-403.2C253.65,-402.61 273.83,-401.96 292.8,-401.34"/>
<polygon fill="#63b8ff" stroke="#63b8ff" points="293.01,-404.83 302.89,-401.01 292.79,-397.84 293.01,-404.83"/>
</a>
</g>
</g>
<!-- Node31&#45;&gt;Node10 -->
<g id="edge39_Node000031_Node000010" class="edge">
<title>Node31&#45;&gt;Node10</title>
<g id="a_edge39_Node000031_Node000010"><a xlink:title=" ">
<path fill="none" stroke="#63b8ff" d="M235.71,-328.6C254.1,-331.8 274.83,-335.41 294.21,-338.78"/>
<polygon fill="#63b8ff" stroke="#63b8ff" points="293.74,-342.25 304.2,-340.51 294.94,-335.35 293.74,-342.25"/>
</a>
</g>
</g>
<!-- Node32 -->
<g id="Node000032" class="node">
<title>Node32</title>
<g id="a_Node000032"><a xlink:href="classmyproject_1_1Settings.html#a8499cefc0bd93d35c326dd8db18b5096" target="_top" xlink:title="Emitted when the redo shortcut is changed.">
<polygon fill="white" stroke="#666666" points="429.5,-318 301.5,-318 301.5,-288 429.5,-288 429.5,-318"/>
<text text-anchor="start" x="309.5" y="-306" font-family="Helvetica,sans-Serif" font-size="10.00">myproject::Settings</text>
<text text-anchor="middle" x="365.5" y="-295" font-family="Helvetica,sans-Serif" font-size="10.00">::redoShortcutChanged</text>
</a>
</g>
</g>
<!-- Node31&#45;&gt;Node32 -->
<g id="edge40_Node000031_Node000032" class="edge">
<title>Node31&#45;&gt;Node32</title>
<g id="a_edge40_Node000031_Node000032"><a xlink:title=" ">
<path fill="none" stroke="#63b8ff" d="M235.71,-314.2C253.12,-312.68 272.65,-310.99 291.12,-309.38"/>
<polygon fill="#63b8ff" stroke="#63b8ff" points="291.6,-312.85 301.26,-308.5 290.99,-305.88 291.6,-312.85"/>
</a>
</g>
</g>
<!-- Node33&#45;&gt;Node11 -->
<g id="edge42_Node000033_Node000011" class="edge">
<title>Node33&#45;&gt;Node11</title>
<g id="a_edge42_Node000033_Node000011"><a xlink:title=" ">
<path fill="none" stroke="#63b8ff" d="M236.71,-239.72C252.96,-241.66 270.98,-243.82 288.24,-245.88"/>
<polygon fill="#63b8ff" stroke="#63b8ff" points="287.95,-249.37 298.3,-247.08 288.79,-242.42 287.95,-249.37"/>
</a>
</g>
</g>
<!-- Node34 -->
<g id="Node000034" class="node">
<title>Node34</title>
<g id="a_Node000034"><a xlink:href="classmyproject_1_1Settings.html#a33b25c1e4b03f98374c091940d51efec" target="_top" xlink:title="Emitted when the save as shortcut is changed.">
<polygon fill="white" stroke="#666666" points="436,-222 295,-222 295,-192 436,-192 436,-222"/>
<text text-anchor="start" x="303" y="-210" font-family="Helvetica,sans-Serif" font-size="10.00">myproject::Settings</text>
<text text-anchor="middle" x="365.5" y="-199" font-family="Helvetica,sans-Serif" font-size="10.00">::saveAsShortcutChanged</text>
</a>
</g>
</g>
<!-- Node33&#45;&gt;Node34 -->
<g id="edge43_Node000033_Node000034" class="edge">
<title>Node33&#45;&gt;Node34</title>
<g id="a_edge43_Node000033_Node000034"><a xlink:title=" ">
<path fill="none" stroke="#63b8ff" d="M236.71,-225.06C251.93,-222.91 268.71,-220.54 284.96,-218.24"/>
<polygon fill="#63b8ff" stroke="#63b8ff" points="285.58,-221.69 294.99,-216.82 284.6,-214.76 285.58,-221.69"/>
</a>
</g>
</g>
<!-- Node35&#45;&gt;Node12 -->
<g id="edge45_Node000035_Node000012" class="edge">
<title>Node35&#45;&gt;Node12</title>
<g id="a_edge45_Node000035_Node000012"><a xlink:title=" ">
<path fill="none" stroke="#63b8ff" d="M235.71,-150.6C254.1,-151.8 274.83,-153.15 294.21,-154.42"/>
<polygon fill="#63b8ff" stroke="#63b8ff" points="293.99,-157.91 304.2,-155.07 294.44,-150.92 293.99,-157.91"/>
</a>
</g>
</g>
<!-- Node36 -->
<g id="Node000036" class="node">
<title>Node36</title>
<g id="a_Node000036"><a xlink:href="classmyproject_1_1Settings.html#aadae73a9e78d1557623317608436a5f4" target="_top" xlink:title="Emitted when the save shortcut is changed.">
<polygon fill="white" stroke="#666666" points="430,-126 301,-126 301,-96 430,-96 430,-126"/>
<text text-anchor="start" x="309" y="-114" font-family="Helvetica,sans-Serif" font-size="10.00">myproject::Settings</text>
<text text-anchor="middle" x="365.5" y="-103" font-family="Helvetica,sans-Serif" font-size="10.00">::saveShortcutChanged</text>
</a>
</g>
</g>
<!-- Node35&#45;&gt;Node36 -->
<g id="edge46_Node000035_Node000036" class="edge">
<title>Node35&#45;&gt;Node36</title>
<g id="a_edge46_Node000035_Node000036"><a xlink:title=" ">
<path fill="none" stroke="#63b8ff" d="M235.71,-136.2C253.11,-132.79 272.63,-128.98 291.09,-125.36"/>
<polygon fill="#63b8ff" stroke="#63b8ff" points="291.79,-128.79 300.93,-123.44 290.45,-121.92 291.79,-128.79"/>
</a>
</g>
</g>
<!-- Node37&#45;&gt;Node13 -->
<g id="edge48_Node000037_Node000013" class="edge">
<title>Node37&#45;&gt;Node13</title>
<g id="a_edge48_Node000037_Node000013"><a xlink:title=" ">
<path fill="none" stroke="#63b8ff" d="M235.71,-61.6C253.92,-61.8 274.44,-62.02 293.66,-62.23"/>
<polygon fill="#63b8ff" stroke="#63b8ff" points="293.83,-65.73 303.87,-62.34 293.91,-58.73 293.83,-65.73"/>
</a>
</g>
</g>
<!-- Node38 -->
<g id="Node000038" class="node">
<title>Node38</title>
<g id="a_Node000038"><a xlink:href="classmyproject_1_1Settings.html#aa6224265e46ecb58339f4d101831293e" target="_top" xlink:title="Emitted when the undo shortcut is changed.">
<polygon fill="white" stroke="#666666" points="430.5,-30 300.5,-30 300.5,0 430.5,0 430.5,-30"/>
<text text-anchor="start" x="308.5" y="-18" font-family="Helvetica,sans-Serif" font-size="10.00">myproject::Settings</text>
<text text-anchor="middle" x="365.5" y="-7" font-family="Helvetica,sans-Serif" font-size="10.00">::undoShortcutChanged</text>
</a>
</g>
</g>
<!-- Node37&#45;&gt;Node38 -->
<g id="edge49_Node000037_Node000038" class="edge">
<title>Node37&#45;&gt;Node38</title>
<g id="a_edge49_Node000037_Node000038"><a xlink:title=" ">
<path fill="none" stroke="#63b8ff" d="M235.71,-47.2C254.18,-42.58 275.02,-37.37 294.47,-32.51"/>
<polygon fill="#63b8ff" stroke="#63b8ff" points="295.34,-35.9 304.2,-30.08 293.65,-29.11 295.34,-35.9"/>
</a>
</g>
</g>
</g>
</svg>
