<?xml version="1.0" encoding="UTF-8" standalone="no"?>
<!DOCTYPE svg PUBLIC "-//W3C//DTD SVG 1.1//EN"
 "http://www.w3.org/Graphics/SVG/1.1/DTD/svg11.dtd">
<!-- Generated by graphviz version 2.43.0 (0)
 -->
<!-- Title: TEST_CASE Pages: 1 -->
<svg width="389pt" height="86pt"
 viewBox="0.00 0.00 389.00 86.00" xmlns="http://www.w3.org/2000/svg" xmlns:xlink="http://www.w3.org/1999/xlink">
<g id="graph0" class="graph" transform="scale(1 1) rotate(0) translate(4 82)">
<title>TEST_CASE</title>
<!-- Node1 -->
<g id="Node000001" class="node">
<title>Node1</title>
<g id="a_Node000001"><a xlink:title=" ">
<polygon fill="#999999" stroke="#666666" points="71,-50.5 0,-50.5 0,-31.5 71,-31.5 71,-50.5"/>
<text text-anchor="middle" x="35.5" y="-38.5" font-family="Helvetica,sans-Serif" font-size="10.00">TEST_CASE</text>
</a>
</g>
</g>
<!-- Node2 -->
<g id="Node000002" class="node">
<title>Node2</title>
<g id="a_Node000002"><a xlink:href="classmyproject_1_1Settings.html#a81e53e5d111a3c2d92e037d07c3b7fe7" target="_top" xlink:title="Emitted when the new shortcut is changed.">
<polygon fill="white" stroke="#666666" points="381,-78 255,-78 255,-48 381,-48 381,-78"/>
<text text-anchor="start" x="263" y="-66" font-family="Helvetica,sans-Serif" font-size="10.00">myproject::Settings</text>
<text text-anchor="middle" x="318" y="-55" font-family="Helvetica,sans-Serif" font-size="10.00">::newShortcutChanged</text>
</a>
</g>
</g>
<!-- Node1&#45;&gt;Node2 -->
<g id="edge1_Node000001_Node000002" class="edge">
<title>Node1&#45;&gt;Node2</title>
<g id="a_edge1_Node000001_Node000002"><a xlink:title=" ">
<path fill="none" stroke="#63b8ff" d="M71.18,-43.72C114.3,-47.1 189.02,-52.96 244.8,-57.34"/>
<polygon fill="#63b8ff" stroke="#63b8ff" points="244.74,-60.84 254.98,-58.14 245.29,-53.86 244.74,-60.84"/>
</a>
</g>
</g>
<!-- Node3 -->
<g id="Node000003" class="node">
<title>Node3</title>
<g id="a_Node000003"><a xlink:href="classmyproject_1_1Settings.html#a4cf08fce6d8b9d2721f40da992444dce" target="_top" xlink:title="Sets the current new shortcut for the application.">
<polygon fill="white" stroke="#666666" points="219,-35 107,-35 107,-5 219,-5 219,-35"/>
<text text-anchor="start" x="115" y="-23" font-family="Helvetica,sans-Serif" font-size="10.00">myproject::Settings</text>
<text text-anchor="middle" x="163" y="-12" font-family="Helvetica,sans-Serif" font-size="10.00">::setNewShortcut</text>
</a>
</g>
</g>
<!-- Node1&#45;&gt;Node3 -->
<g id="edge2_Node000001_Node000003" class="edge">
<title>Node1&#45;&gt;Node3</title>
<g id="a_edge2_Node000001_Node000003"><a xlink:title=" ">
<path fill="none" stroke="#63b8ff" d="M71.13,-35.21C79.14,-33.87 87.92,-32.4 96.77,-30.91"/>
<polygon fill="#63b8ff" stroke="#63b8ff" points="97.47,-34.35 106.75,-29.24 96.31,-27.44 97.47,-34.35"/>
</a>
</g>
</g>
<!-- Node3&#45;&gt;Node2 -->
<g id="edge4_Node000003_Node000002" class="edge">
<title>Node3&#45;&gt;Node2</title>
<g id="a_edge4_Node000003_Node000002"><a xlink:title=" ">
<path fill="none" stroke="#63b8ff" d="M217.51,-35.04C229.16,-38.31 241.59,-41.81 253.58,-45.18"/>
<polygon fill="#63b8ff" stroke="#63b8ff" points="252.94,-48.63 263.52,-47.97 254.84,-41.89 252.94,-48.63"/>
</a>
</g>
</g>
<!-- Node4 -->
<g id="Node000004" class="node">
<title>Node4</title>
<g id="a_Node000004"><a xlink:href="classmyproject_1_1Settings.html#ae1758a160f0afd96feaed24ddcdd6189" target="_top" xlink:title="Returns the default new shortcut for the application.">
<polygon fill="white" stroke="#666666" points="377.5,-30 258.5,-30 258.5,0 377.5,0 377.5,-30"/>
<text text-anchor="start" x="266.5" y="-18" font-family="Helvetica,sans-Serif" font-size="10.00">myproject::Settings</text>
<text text-anchor="middle" x="318" y="-7" font-family="Helvetica,sans-Serif" font-size="10.00">::defaultNewShortcut</text>
</a>
</g>
</g>
<!-- Node3&#45;&gt;Node4 -->
<g id="edge3_Node000003_Node000004" class="edge">
<title>Node3&#45;&gt;Node4</title>
<g id="a_edge3_Node000003_Node000004"><a xlink:title=" ">
<path fill="none" stroke="#63b8ff" d="M219.24,-18.19C228.7,-17.89 238.64,-17.56 248.4,-17.24"/>
<polygon fill="#63b8ff" stroke="#63b8ff" points="248.61,-20.74 258.49,-16.91 248.38,-13.74 248.61,-20.74"/>
</a>
</g>
</g>
</g>
</svg>
