<?xml version="1.0" encoding="UTF-8" standalone="no"?>
<!DOCTYPE svg PUBLIC "-//W3C//DTD SVG 1.1//EN"
 "http://www.w3.org/Graphics/SVG/1.1/DTD/svg11.dtd">
<!-- Generated by graphviz version 2.43.0 (0)
 -->
<!-- Title: TEST_CASE Pages: 1 -->
<svg width="406pt" height="86pt"
 viewBox="0.00 0.00 406.00 86.00" xmlns="http://www.w3.org/2000/svg" xmlns:xlink="http://www.w3.org/1999/xlink">
<g id="graph0" class="graph" transform="scale(1 1) rotate(0) translate(4 82)">
<title>TEST_CASE</title>
<!-- Node1 -->
<g id="Node000001" class="node">
<title>Node1</title>
<g id="a_Node000001"><a xlink:title=" ">
<polygon fill="#999999" stroke="#666666" points="71,-50.5 0,-50.5 0,-31.5 71,-31.5 71,-50.5"/>
<text text-anchor="middle" x="35.5" y="-38.5" font-family="Helvetica,sans-Serif" font-size="10.00">TEST_CASE</text>
</a>
</g>
</g>
<!-- Node2 -->
<g id="Node000002" class="node">
<title>Node2</title>
<g id="a_Node000002"><a xlink:href="classmyproject_1_1Settings.html#a33b25c1e4b03f98374c091940d51efec" target="_top" xlink:title="Emitted when the save as shortcut is changed.">
<polygon fill="white" stroke="#666666" points="398,-78 257,-78 257,-48 398,-48 398,-78"/>
<text text-anchor="start" x="265" y="-66" font-family="Helvetica,sans-Serif" font-size="10.00">myproject::Settings</text>
<text text-anchor="middle" x="327.5" y="-55" font-family="Helvetica,sans-Serif" font-size="10.00">::saveAsShortcutChanged</text>
</a>
</g>
</g>
<!-- Node1&#45;&gt;Node2 -->
<g id="edge1_Node000001_Node000002" class="edge">
<title>Node1&#45;&gt;Node2</title>
<g id="a_edge1_Node000001_Node000002"><a xlink:title=" ">
<path fill="none" stroke="#63b8ff" d="M71.19,-43.63C114.31,-46.9 189.22,-52.59 246.79,-56.95"/>
<polygon fill="#63b8ff" stroke="#63b8ff" points="246.72,-60.46 256.96,-57.72 247.25,-53.48 246.72,-60.46"/>
</a>
</g>
</g>
<!-- Node3 -->
<g id="Node000003" class="node">
<title>Node3</title>
<g id="a_Node000003"><a xlink:href="classmyproject_1_1Settings.html#ab8945e6a735ce71b904c528c57570a80" target="_top" xlink:title="Sets the current save as shortcut for the application.">
<polygon fill="white" stroke="#666666" points="221,-35 107,-35 107,-5 221,-5 221,-35"/>
<text text-anchor="start" x="115" y="-23" font-family="Helvetica,sans-Serif" font-size="10.00">myproject::Settings</text>
<text text-anchor="middle" x="164" y="-12" font-family="Helvetica,sans-Serif" font-size="10.00">::setSaveAsShortcut</text>
</a>
</g>
</g>
<!-- Node1&#45;&gt;Node3 -->
<g id="edge2_Node000001_Node000003" class="edge">
<title>Node1&#45;&gt;Node3</title>
<g id="a_edge2_Node000001_Node000003"><a xlink:title=" ">
<path fill="none" stroke="#63b8ff" d="M71.07,-35.26C79.04,-33.94 87.78,-32.49 96.61,-31.02"/>
<polygon fill="#63b8ff" stroke="#63b8ff" points="97.28,-34.46 106.57,-29.37 96.13,-27.55 97.28,-34.46"/>
</a>
</g>
</g>
<!-- Node3&#45;&gt;Node2 -->
<g id="edge4_Node000003_Node000002" class="edge">
<title>Node3&#45;&gt;Node2</title>
<g id="a_edge4_Node000003_Node000002"><a xlink:title=" ">
<path fill="none" stroke="#63b8ff" d="M221.03,-34.92C233.66,-38.28 247.19,-41.88 260.2,-45.35"/>
<polygon fill="#63b8ff" stroke="#63b8ff" points="259.46,-48.77 270.02,-47.96 261.26,-42.01 259.46,-48.77"/>
</a>
</g>
</g>
<!-- Node4 -->
<g id="Node000004" class="node">
<title>Node4</title>
<g id="a_Node000004"><a xlink:href="classmyproject_1_1Settings.html#a929f5c91fb00048653bf1ac1146035c5" target="_top" xlink:title="Returns the default save as shortcut for the application.">
<polygon fill="white" stroke="#666666" points="394.5,-30 260.5,-30 260.5,0 394.5,0 394.5,-30"/>
<text text-anchor="start" x="268.5" y="-18" font-family="Helvetica,sans-Serif" font-size="10.00">myproject::Settings</text>
<text text-anchor="middle" x="327.5" y="-7" font-family="Helvetica,sans-Serif" font-size="10.00">::defaultSaveAsShortcut</text>
</a>
</g>
</g>
<!-- Node3&#45;&gt;Node4 -->
<g id="edge3_Node000003_Node000004" class="edge">
<title>Node3&#45;&gt;Node4</title>
<g id="a_edge3_Node000003_Node000004"><a xlink:title=" ">
<path fill="none" stroke="#63b8ff" d="M221.03,-18.27C230.43,-17.97 240.32,-17.67 250.13,-17.36"/>
<polygon fill="#63b8ff" stroke="#63b8ff" points="250.41,-20.86 260.29,-17.05 250.19,-13.86 250.41,-20.86"/>
</a>
</g>
</g>
</g>
</svg>
