<?xml version="1.0" encoding="UTF-8" standalone="no"?>
<!DOCTYPE svg PUBLIC "-//W3C//DTD SVG 1.1//EN"
 "http://www.w3.org/Graphics/SVG/1.1/DTD/svg11.dtd">
<!-- Generated by graphviz version 2.43.0 (0)
 -->
<!-- Title: TEST_CASE Pages: 1 -->
<svg width="393pt" height="86pt"
 viewBox="0.00 0.00 393.00 86.00" xmlns="http://www.w3.org/2000/svg" xmlns:xlink="http://www.w3.org/1999/xlink">
<g id="graph0" class="graph" transform="scale(1 1) rotate(0) translate(4 82)">
<title>TEST_CASE</title>
<!-- Node1 -->
<g id="Node000001" class="node">
<title>Node1</title>
<g id="a_Node000001"><a xlink:title=" ">
<polygon fill="#999999" stroke="#666666" points="71,-45.5 0,-45.5 0,-26.5 71,-26.5 71,-45.5"/>
<text text-anchor="middle" x="35.5" y="-33.5" font-family="Helvetica,sans-Serif" font-size="10.00">TEST_CASE</text>
</a>
</g>
</g>
<!-- Node2 -->
<g id="Node000002" class="node">
<title>Node2</title>
<g id="a_Node000002"><a xlink:href="classmyproject_1_1Settings.html#a60c36981ae4c1b2799c07dd75538a46d" target="_top" xlink:title="Sets the current undo shortcut for the application.">
<polygon fill="white" stroke="#666666" points="219,-73 107,-73 107,-43 219,-43 219,-73"/>
<text text-anchor="start" x="115" y="-61" font-family="Helvetica,sans-Serif" font-size="10.00">myproject::Settings</text>
<text text-anchor="middle" x="163" y="-50" font-family="Helvetica,sans-Serif" font-size="10.00">::setUndoShortcut</text>
</a>
</g>
</g>
<!-- Node1&#45;&gt;Node2 -->
<g id="edge1_Node000001_Node000002" class="edge">
<title>Node1&#45;&gt;Node2</title>
<g id="a_edge1_Node000001_Node000002"><a xlink:title=" ">
<path fill="none" stroke="#63b8ff" d="M71.13,-42.07C79.14,-43.47 87.92,-45.01 96.77,-46.57"/>
<polygon fill="#63b8ff" stroke="#63b8ff" points="96.3,-50.04 106.75,-48.32 97.51,-43.14 96.3,-50.04"/>
</a>
</g>
</g>
<!-- Node4 -->
<g id="Node000004" class="node">
<title>Node4</title>
<g id="a_Node000004"><a xlink:href="classmyproject_1_1Settings.html#aa6224265e46ecb58339f4d101831293e" target="_top" xlink:title="Emitted when the undo shortcut is changed.">
<polygon fill="white" stroke="#666666" points="385,-30 255,-30 255,0 385,0 385,-30"/>
<text text-anchor="start" x="263" y="-18" font-family="Helvetica,sans-Serif" font-size="10.00">myproject::Settings</text>
<text text-anchor="middle" x="320" y="-7" font-family="Helvetica,sans-Serif" font-size="10.00">::undoShortcutChanged</text>
</a>
</g>
</g>
<!-- Node1&#45;&gt;Node4 -->
<g id="edge4_Node000001_Node000004" class="edge">
<title>Node1&#45;&gt;Node4</title>
<g id="a_edge4_Node000001_Node000004"><a xlink:title=" ">
<path fill="none" stroke="#63b8ff" d="M71.14,-33.42C114.07,-30.23 188.41,-24.71 244.5,-20.54"/>
<polygon fill="#63b8ff" stroke="#63b8ff" points="245.04,-24.01 254.75,-19.78 244.52,-17.03 245.04,-24.01"/>
</a>
</g>
</g>
<!-- Node3 -->
<g id="Node000003" class="node">
<title>Node3</title>
<g id="a_Node000003"><a xlink:href="classmyproject_1_1Settings.html#ab1555e99c76110b4053f40982a43bb31" target="_top" xlink:title="Returns the default undo shortcut for the application.">
<polygon fill="white" stroke="#666666" points="381.5,-78 258.5,-78 258.5,-48 381.5,-48 381.5,-78"/>
<text text-anchor="start" x="266.5" y="-66" font-family="Helvetica,sans-Serif" font-size="10.00">myproject::Settings</text>
<text text-anchor="middle" x="320" y="-55" font-family="Helvetica,sans-Serif" font-size="10.00">::defaultUndoShortcut</text>
</a>
</g>
</g>
<!-- Node2&#45;&gt;Node3 -->
<g id="edge2_Node000002_Node000003" class="edge">
<title>Node2&#45;&gt;Node3</title>
<g id="a_edge2_Node000002_Node000003"><a xlink:title=" ">
<path fill="none" stroke="#63b8ff" d="M219.08,-59.78C228.51,-60.08 238.43,-60.4 248.2,-60.72"/>
<polygon fill="#63b8ff" stroke="#63b8ff" points="248.19,-64.22 258.3,-61.04 248.42,-57.22 248.19,-64.22"/>
</a>
</g>
</g>
<!-- Node2&#45;&gt;Node4 -->
<g id="edge3_Node000002_Node000004" class="edge">
<title>Node2&#45;&gt;Node4</title>
<g id="a_edge3_Node000002_Node000004"><a xlink:title=" ">
<path fill="none" stroke="#63b8ff" d="M218.21,-42.96C230.13,-39.65 242.86,-36.12 255.11,-32.72"/>
<polygon fill="#63b8ff" stroke="#63b8ff" points="256.12,-36.08 264.82,-30.03 254.25,-29.33 256.12,-36.08"/>
</a>
</g>
</g>
</g>
</svg>
