<?xml version="1.0" encoding="UTF-8" standalone="no"?>
<!DOCTYPE svg PUBLIC "-//W3C//DTD SVG 1.1//EN"
 "http://www.w3.org/Graphics/SVG/1.1/DTD/svg11.dtd">
<!-- Generated by graphviz version 2.43.0 (0)
 -->
<!-- Title: TEST_CASE Pages: 1 -->
<svg width="388pt" height="86pt"
 viewBox="0.00 0.00 388.00 86.00" xmlns="http://www.w3.org/2000/svg" xmlns:xlink="http://www.w3.org/1999/xlink">
<g id="graph0" class="graph" transform="scale(1 1) rotate(0) translate(4 82)">
<title>TEST_CASE</title>
<!-- Node1 -->
<g id="Node000001" class="node">
<title>Node1</title>
<g id="a_Node000001"><a xlink:title=" ">
<polygon fill="#999999" stroke="#666666" points="71,-50.5 0,-50.5 0,-31.5 71,-31.5 71,-50.5"/>
<text text-anchor="middle" x="35.5" y="-38.5" font-family="Helvetica,sans-Serif" font-size="10.00">TEST_CASE</text>
</a>
</g>
</g>
<!-- Node2 -->
<g id="Node000002" class="node">
<title>Node2</title>
<g id="a_Node000002"><a xlink:href="classmyproject_1_1Settings.html#aad13bda42478ac1136c430547bc1e37d" target="_top" xlink:title="Emitted when the quit shortcut is changed.">
<polygon fill="white" stroke="#666666" points="380,-78 255,-78 255,-48 380,-48 380,-78"/>
<text text-anchor="start" x="263" y="-66" font-family="Helvetica,sans-Serif" font-size="10.00">myproject::Settings</text>
<text text-anchor="middle" x="317.5" y="-55" font-family="Helvetica,sans-Serif" font-size="10.00">::quitShortcutChanged</text>
</a>
</g>
</g>
<!-- Node1&#45;&gt;Node2 -->
<g id="edge1_Node000001_Node000002" class="edge">
<title>Node1&#45;&gt;Node2</title>
<g id="a_edge1_Node000001_Node000002"><a xlink:title=" ">
<path fill="none" stroke="#63b8ff" d="M71.11,-43.72C114.23,-47.11 188.99,-52.98 244.7,-57.36"/>
<polygon fill="#63b8ff" stroke="#63b8ff" points="244.62,-60.86 254.86,-58.16 245.17,-53.88 244.62,-60.86"/>
</a>
</g>
</g>
<!-- Node3 -->
<g id="Node000003" class="node">
<title>Node3</title>
<g id="a_Node000003"><a xlink:href="classmyproject_1_1Settings.html#a912bd9f2cf554030010dedc4a136a4ff" target="_top" xlink:title="Sets the current quit shortcut for the application.">
<polygon fill="white" stroke="#666666" points="219,-35 107,-35 107,-5 219,-5 219,-35"/>
<text text-anchor="start" x="115" y="-23" font-family="Helvetica,sans-Serif" font-size="10.00">myproject::Settings</text>
<text text-anchor="middle" x="163" y="-12" font-family="Helvetica,sans-Serif" font-size="10.00">::setQuitShortcut</text>
</a>
</g>
</g>
<!-- Node1&#45;&gt;Node3 -->
<g id="edge2_Node000001_Node000003" class="edge">
<title>Node1&#45;&gt;Node3</title>
<g id="a_edge2_Node000001_Node000003"><a xlink:title=" ">
<path fill="none" stroke="#63b8ff" d="M71.13,-35.21C79.14,-33.87 87.92,-32.4 96.77,-30.91"/>
<polygon fill="#63b8ff" stroke="#63b8ff" points="97.47,-34.35 106.75,-29.24 96.31,-27.44 97.47,-34.35"/>
</a>
</g>
</g>
<!-- Node3&#45;&gt;Node2 -->
<g id="edge4_Node000003_Node000002" class="edge">
<title>Node3&#45;&gt;Node2</title>
<g id="a_edge4_Node000003_Node000002"><a xlink:title=" ">
<path fill="none" stroke="#63b8ff" d="M217.34,-35.04C228.95,-38.31 241.34,-41.81 253.29,-45.18"/>
<polygon fill="#63b8ff" stroke="#63b8ff" points="252.62,-48.62 263.19,-47.97 254.52,-41.89 252.62,-48.62"/>
</a>
</g>
</g>
<!-- Node4 -->
<g id="Node000004" class="node">
<title>Node4</title>
<g id="a_Node000004"><a xlink:href="classmyproject_1_1Settings.html#ab1d031494a6ee6b8a4bf6ddd576407bf" target="_top" xlink:title="Returns the default quit shortcut for the application.">
<polygon fill="white" stroke="#666666" points="376.5,-30 258.5,-30 258.5,0 376.5,0 376.5,-30"/>
<text text-anchor="start" x="266.5" y="-18" font-family="Helvetica,sans-Serif" font-size="10.00">myproject::Settings</text>
<text text-anchor="middle" x="317.5" y="-7" font-family="Helvetica,sans-Serif" font-size="10.00">::defaultQuitShortcut</text>
</a>
</g>
</g>
<!-- Node3&#45;&gt;Node4 -->
<g id="edge3_Node000003_Node000004" class="edge">
<title>Node3&#45;&gt;Node4</title>
<g id="a_edge3_Node000003_Node000004"><a xlink:title=" ">
<path fill="none" stroke="#63b8ff" d="M219.06,-18.19C228.55,-17.88 238.53,-17.56 248.32,-17.24"/>
<polygon fill="#63b8ff" stroke="#63b8ff" points="248.56,-20.73 258.44,-16.9 248.33,-13.73 248.56,-20.73"/>
</a>
</g>
</g>
</g>
</svg>
