<?xml version="1.0" encoding="UTF-8" standalone="no"?>
<!DOCTYPE svg PUBLIC "-//W3C//DTD SVG 1.1//EN"
 "http://www.w3.org/Graphics/SVG/1.1/DTD/svg11.dtd">
<!-- Generated by graphviz version 2.43.0 (0)
 -->
<!-- Title: TEST_CASE Pages: 1 -->
<svg width="384pt" height="86pt"
 viewBox="0.00 0.00 384.00 86.00" xmlns="http://www.w3.org/2000/svg" xmlns:xlink="http://www.w3.org/1999/xlink">
<g id="graph0" class="graph" transform="scale(1 1) rotate(0) translate(4 82)">
<title>TEST_CASE</title>
<!-- Node1 -->
<g id="Node000001" class="node">
<title>Node1</title>
<g id="a_Node000001"><a xlink:title=" ">
<polygon fill="#999999" stroke="#666666" points="71,-50.5 0,-50.5 0,-31.5 71,-31.5 71,-50.5"/>
<text text-anchor="middle" x="35.5" y="-38.5" font-family="Helvetica,sans-Serif" font-size="10.00">TEST_CASE</text>
</a>
</g>
</g>
<!-- Node2 -->
<g id="Node000002" class="node">
<title>Node2</title>
<g id="a_Node000002"><a xlink:href="classmyproject_1_1Settings.html#aa9e7d595ec8f1dca931ca644b528b692" target="_top" xlink:title="Emitted when the cut shortcut is changed.">
<polygon fill="white" stroke="#666666" points="376,-78 255,-78 255,-48 376,-48 376,-78"/>
<text text-anchor="start" x="263" y="-66" font-family="Helvetica,sans-Serif" font-size="10.00">myproject::Settings</text>
<text text-anchor="middle" x="315.5" y="-55" font-family="Helvetica,sans-Serif" font-size="10.00">::cutShortcutChanged</text>
</a>
</g>
</g>
<!-- Node1&#45;&gt;Node2 -->
<g id="edge1_Node000001_Node000002" class="edge">
<title>Node1&#45;&gt;Node2</title>
<g id="a_edge1_Node000001_Node000002"><a xlink:title=" ">
<path fill="none" stroke="#63b8ff" d="M71.15,-43.74C114.38,-47.16 189.35,-53.1 244.68,-57.47"/>
<polygon fill="#63b8ff" stroke="#63b8ff" points="244.53,-60.97 254.77,-58.27 245.08,-54 244.53,-60.97"/>
</a>
</g>
</g>
<!-- Node3 -->
<g id="Node000003" class="node">
<title>Node3</title>
<g id="a_Node000003"><a xlink:href="classmyproject_1_1Settings.html#af899ea9e4b0db3844add3572d43a717c" target="_top" xlink:title="Sets the current cut shortcut for the application.">
<polygon fill="white" stroke="#666666" points="219,-35 107,-35 107,-5 219,-5 219,-35"/>
<text text-anchor="start" x="115" y="-23" font-family="Helvetica,sans-Serif" font-size="10.00">myproject::Settings</text>
<text text-anchor="middle" x="163" y="-12" font-family="Helvetica,sans-Serif" font-size="10.00">::setCutShortcut</text>
</a>
</g>
</g>
<!-- Node1&#45;&gt;Node3 -->
<g id="edge2_Node000001_Node000003" class="edge">
<title>Node1&#45;&gt;Node3</title>
<g id="a_edge2_Node000001_Node000003"><a xlink:title=" ">
<path fill="none" stroke="#63b8ff" d="M71.13,-35.21C79.14,-33.87 87.92,-32.4 96.77,-30.91"/>
<polygon fill="#63b8ff" stroke="#63b8ff" points="97.47,-34.35 106.75,-29.24 96.31,-27.44 97.47,-34.35"/>
</a>
</g>
</g>
<!-- Node3&#45;&gt;Node2 -->
<g id="edge3_Node000003_Node000002" class="edge">
<title>Node3&#45;&gt;Node2</title>
<g id="a_edge3_Node000003_Node000002"><a xlink:title=" ">
<path fill="none" stroke="#63b8ff" d="M216.64,-35.04C228.09,-38.31 240.32,-41.81 252.11,-45.18"/>
<polygon fill="#63b8ff" stroke="#63b8ff" points="251.32,-48.59 261.89,-47.97 253.24,-41.86 251.32,-48.59"/>
</a>
</g>
</g>
<!-- Node4 -->
<g id="Node000004" class="node">
<title>Node4</title>
<g id="a_Node000004"><a xlink:href="classmyproject_1_1Settings.html#aae5e192a3d5dcb20bd4b8142febcb3be" target="_top" xlink:title="Returns the default cut shortcut for the application.">
<polygon fill="white" stroke="#666666" points="372.5,-30 258.5,-30 258.5,0 372.5,0 372.5,-30"/>
<text text-anchor="start" x="266.5" y="-18" font-family="Helvetica,sans-Serif" font-size="10.00">myproject::Settings</text>
<text text-anchor="middle" x="315.5" y="-7" font-family="Helvetica,sans-Serif" font-size="10.00">::defaultCutShortcut</text>
</a>
</g>
</g>
<!-- Node3&#45;&gt;Node4 -->
<g id="edge4_Node000003_Node000004" class="edge">
<title>Node3&#45;&gt;Node4</title>
<g id="a_edge4_Node000003_Node000004"><a xlink:title=" ">
<path fill="none" stroke="#63b8ff" d="M219.19,-18.17C228.65,-17.85 238.57,-17.52 248.29,-17.2"/>
<polygon fill="#63b8ff" stroke="#63b8ff" points="248.43,-20.7 258.31,-16.87 248.2,-13.7 248.43,-20.7"/>
</a>
</g>
</g>
</g>
</svg>
