<?xml version="1.0" encoding="UTF-8" standalone="no"?>
<!DOCTYPE svg PUBLIC "-//W3C//DTD SVG 1.1//EN"
 "http://www.w3.org/Graphics/SVG/1.1/DTD/svg11.dtd">
<!-- Generated by graphviz version 2.43.0 (0)
 -->
<!-- Title: TEST_CASE Pages: 1 -->
<svg width="376pt" height="107pt"
 viewBox="0.00 0.00 376.00 107.00" xmlns="http://www.w3.org/2000/svg" xmlns:xlink="http://www.w3.org/1999/xlink">
<g id="graph0" class="graph" transform="scale(1 1) rotate(0) translate(4 103)">
<title>TEST_CASE</title>
<!-- Node1 -->
<g id="Node000001" class="node">
<title>Node1</title>
<g id="a_Node000001"><a xlink:title=" ">
<polygon fill="#999999" stroke="#666666" points="71,-72.5 0,-72.5 0,-53.5 71,-53.5 71,-72.5"/>
<text text-anchor="middle" x="35.5" y="-60.5" font-family="Helvetica,sans-Serif" font-size="10.00">TEST_CASE</text>
</a>
</g>
</g>
<!-- Node2 -->
<g id="Node000002" class="node">
<title>Node2</title>
<g id="a_Node000002"><a xlink:href="classmyproject_1_1Settings.html#a465a9e7e922710537f4527db63b11182" target="_top" xlink:title="Emitted when the FPS visibility is changed.">
<polygon fill="white" stroke="#666666" points="368,-99 255,-99 255,-69 368,-69 368,-99"/>
<text text-anchor="start" x="263" y="-87" font-family="Helvetica,sans-Serif" font-size="10.00">myproject::Settings</text>
<text text-anchor="middle" x="311.5" y="-76" font-family="Helvetica,sans-Serif" font-size="10.00">::fpsVisibleChanged</text>
</a>
</g>
</g>
<!-- Node1&#45;&gt;Node2 -->
<g id="edge1_Node000001_Node000002" class="edge">
<title>Node1&#45;&gt;Node2</title>
<g id="a_edge1_Node000001_Node000002"><a xlink:title=" ">
<path fill="none" stroke="#63b8ff" d="M58.56,-72.6C72.22,-78.01 90.29,-84.23 107,-87 152.54,-94.54 204.59,-93.6 244.65,-90.88"/>
<polygon fill="#63b8ff" stroke="#63b8ff" points="245.11,-94.35 254.82,-90.13 244.6,-87.37 245.11,-94.35"/>
</a>
</g>
</g>
<!-- Node3 -->
<g id="Node000003" class="node">
<title>Node3</title>
<g id="a_Node000003"><a xlink:href="classmyproject_1_1Settings.html#a42ad9d4d5f512fbb827795c83c393f2b" target="_top" xlink:title="Returns the current FPS visibility for the application.">
<polygon fill="white" stroke="#666666" points="219,-30 107,-30 107,0 219,0 219,-30"/>
<text text-anchor="start" x="115" y="-18" font-family="Helvetica,sans-Serif" font-size="10.00">myproject::Settings</text>
<text text-anchor="middle" x="163" y="-7" font-family="Helvetica,sans-Serif" font-size="10.00">::isFpsVisible</text>
</a>
</g>
</g>
<!-- Node1&#45;&gt;Node3 -->
<g id="edge2_Node000001_Node000003" class="edge">
<title>Node1&#45;&gt;Node3</title>
<g id="a_edge2_Node000001_Node000003"><a xlink:title=" ">
<path fill="none" stroke="#63b8ff" d="M61.6,-53.4C76.32,-47.77 95.44,-40.46 113.04,-33.73"/>
<polygon fill="#63b8ff" stroke="#63b8ff" points="114.53,-36.9 122.62,-30.06 112.03,-30.37 114.53,-36.9"/>
</a>
</g>
</g>
<!-- Node5 -->
<g id="Node000005" class="node">
<title>Node5</title>
<g id="a_Node000005"><a xlink:href="classmyproject_1_1Settings.html#ad9011ea62284028bde0fd492529298cd" target="_top" xlink:title="Sets the current FPS visibility for the application.">
<polygon fill="white" stroke="#666666" points="219,-78 107,-78 107,-48 219,-48 219,-78"/>
<text text-anchor="start" x="115" y="-66" font-family="Helvetica,sans-Serif" font-size="10.00">myproject::Settings</text>
<text text-anchor="middle" x="163" y="-55" font-family="Helvetica,sans-Serif" font-size="10.00">::setFpsVisible</text>
</a>
</g>
</g>
<!-- Node1&#45;&gt;Node5 -->
<g id="edge4_Node000001_Node000005" class="edge">
<title>Node1&#45;&gt;Node5</title>
<g id="a_edge4_Node000001_Node000005"><a xlink:title=" ">
<path fill="none" stroke="#63b8ff" d="M71.13,-63C79.05,-63 87.73,-63 96.49,-63"/>
<polygon fill="#63b8ff" stroke="#63b8ff" points="96.75,-66.5 106.75,-63 96.75,-59.5 96.75,-66.5"/>
</a>
</g>
</g>
<!-- Node4 -->
<g id="Node000004" class="node">
<title>Node4</title>
<g id="a_Node000004"><a xlink:href="classmyproject_1_1Settings.html#a281627edb0185afa72671adcbaa86267" target="_top" xlink:title="Returns the default FPS visibility for the application.">
<polygon fill="white" stroke="#666666" points="367.5,-41 255.5,-41 255.5,-11 367.5,-11 367.5,-41"/>
<text text-anchor="start" x="263.5" y="-29" font-family="Helvetica,sans-Serif" font-size="10.00">myproject::Settings</text>
<text text-anchor="middle" x="311.5" y="-18" font-family="Helvetica,sans-Serif" font-size="10.00">::defaultFpsVisible</text>
</a>
</g>
</g>
<!-- Node3&#45;&gt;Node4 -->
<g id="edge3_Node000003_Node000004" class="edge">
<title>Node3&#45;&gt;Node4</title>
<g id="a_edge3_Node000003_Node000004"><a xlink:title=" ">
<path fill="none" stroke="#63b8ff" d="M219.39,-19.16C227.68,-19.78 236.3,-20.43 244.79,-21.07"/>
<polygon fill="#63b8ff" stroke="#63b8ff" points="244.8,-24.58 255.04,-21.84 245.33,-17.6 244.8,-24.58"/>
</a>
</g>
</g>
<!-- Node5&#45;&gt;Node2 -->
<g id="edge6_Node000005_Node000002" class="edge">
<title>Node5&#45;&gt;Node2</title>
<g id="a_edge6_Node000005_Node000002"><a xlink:title=" ">
<path fill="none" stroke="#63b8ff" d="M219.39,-70.94C227.57,-72.11 236.06,-73.33 244.43,-74.53"/>
<polygon fill="#63b8ff" stroke="#63b8ff" points="244.15,-78.03 254.55,-75.98 245.15,-71.1 244.15,-78.03"/>
</a>
</g>
</g>
<!-- Node5&#45;&gt;Node4 -->
<g id="edge5_Node000005_Node000004" class="edge">
<title>Node5&#45;&gt;Node4</title>
<g id="a_edge5_Node000005_Node000004"><a xlink:title=" ">
<path fill="none" stroke="#63b8ff" d="M219.39,-49.01C227.77,-46.89 236.49,-44.69 245.07,-42.53"/>
<polygon fill="#63b8ff" stroke="#63b8ff" points="246.2,-45.85 255.04,-40.01 244.48,-39.06 246.2,-45.85"/>
</a>
</g>
</g>
</g>
</svg>
