<?xml version="1.0" encoding="UTF-8" standalone="no"?>
<!DOCTYPE svg PUBLIC "-//W3C//DTD SVG 1.1//EN"
 "http://www.w3.org/Graphics/SVG/1.1/DTD/svg11.dtd">
<!-- Generated by graphviz version 2.43.0 (0)
 -->
<!-- Title: TEST_CASE Pages: 1 -->
<svg width="405pt" height="60pt"
 viewBox="0.00 0.00 405.00 60.00" xmlns="http://www.w3.org/2000/svg" xmlns:xlink="http://www.w3.org/1999/xlink">
<g id="graph0" class="graph" transform="scale(1 1) rotate(0) translate(4 56)">
<title>TEST_CASE</title>
<!-- Node1 -->
<g id="Node000001" class="node">
<title>Node1</title>
<g id="a_Node000001"><a xlink:title=" ">
<polygon fill="#999999" stroke="#666666" points="71,-24.5 0,-24.5 0,-5.5 71,-5.5 71,-24.5"/>
<text text-anchor="middle" x="35.5" y="-12.5" font-family="Helvetica,sans-Serif" font-size="10.00">TEST_CASE</text>
</a>
</g>
</g>
<!-- Node2 -->
<g id="Node000002" class="node">
<title>Node2</title>
<g id="a_Node000002"><a xlink:href="classmyproject_1_1Settings.html#a4c87a4e06a00249786212ead10c458cb" target="_top" xlink:title="Sets the current window opacity for the application.">
<polygon fill="white" stroke="#666666" points="221,-52 107,-52 107,-22 221,-22 221,-52"/>
<text text-anchor="start" x="115" y="-40" font-family="Helvetica,sans-Serif" font-size="10.00">myproject::Settings</text>
<text text-anchor="middle" x="164" y="-29" font-family="Helvetica,sans-Serif" font-size="10.00">::setWindowOpacity</text>
</a>
</g>
</g>
<!-- Node1&#45;&gt;Node2 -->
<g id="edge1_Node000001_Node000002" class="edge">
<title>Node1&#45;&gt;Node2</title>
<g id="a_edge1_Node000001_Node000002"><a xlink:title=" ">
<path fill="none" stroke="#63b8ff" d="M71.07,-21.01C79.04,-22.4 87.78,-23.92 96.61,-25.45"/>
<polygon fill="#63b8ff" stroke="#63b8ff" points="96.12,-28.92 106.57,-27.19 97.32,-22.02 96.12,-28.92"/>
</a>
</g>
</g>
<!-- Node3 -->
<g id="Node000003" class="node">
<title>Node3</title>
<g id="a_Node000003"><a xlink:href="classmyproject_1_1Settings.html#ad5e1e4d5954d5ed4ae3a393b9b356631" target="_top" xlink:title="Emitted when the window opacity is changed.">
<polygon fill="white" stroke="#666666" points="397,-30 257,-30 257,0 397,0 397,-30"/>
<text text-anchor="start" x="265" y="-18" font-family="Helvetica,sans-Serif" font-size="10.00">myproject::Settings</text>
<text text-anchor="middle" x="327" y="-7" font-family="Helvetica,sans-Serif" font-size="10.00">::windowOpacityChanged</text>
</a>
</g>
</g>
<!-- Node1&#45;&gt;Node3 -->
<g id="edge3_Node000001_Node000003" class="edge">
<title>Node1&#45;&gt;Node3</title>
<g id="a_edge3_Node000001_Node000003"><a xlink:title=" ">
<path fill="none" stroke="#63b8ff" d="M71.28,-13.82C82.66,-13.48 95.37,-13.16 107,-13 157.66,-12.28 170.34,-12.52 221,-13 229.32,-13.08 238.01,-13.19 246.68,-13.33"/>
<polygon fill="#63b8ff" stroke="#63b8ff" points="246.76,-16.83 256.81,-13.5 246.87,-9.83 246.76,-16.83"/>
</a>
</g>
</g>
<!-- Node2&#45;&gt;Node3 -->
<g id="edge2_Node000002_Node000003" class="edge">
<title>Node2&#45;&gt;Node3</title>
<g id="a_edge2_Node000002_Node000003"><a xlink:title=" ">
<path fill="none" stroke="#63b8ff" d="M221.31,-29.31C229.59,-28.17 238.24,-26.99 246.87,-25.81"/>
<polygon fill="#63b8ff" stroke="#63b8ff" points="247.54,-29.25 256.97,-24.43 246.59,-22.32 247.54,-29.25"/>
</a>
</g>
</g>
</g>
</svg>
